<svg width="49" height="49" fill="none" xmlns="http://www.w3.org/2000/svg"><g clip-path="url(#clip0)"><path d="M8.823 1.793H5.385a3.786 3.786 0 00-3.78 3.781V28.71h3.437V5.574a3.786 3.786 0 013.78-3.781zm38.229 33.255H8.822a3.785 3.785 0 01-3.78-3.78v-.954H1.604v3.245a3.785 3.785 0 003.781 3.781h38.23a3.786 3.786 0 003.475-2.293l-.038.001z" fill="#D4E1F4"/><path d="M34.515 47.167h-9.213v-9.025a.802.802 0 00-1.604 0v9.025h-8.665a.802.802 0 000 1.604h19.482a.802.802 0 100-1.604zM12.068 15.635a.801.801 0 01-.61-.281l-1.325-1.552a.802.802 0 111.22-1.041l.816.956 2.478-2.017a.802.802 0 011.013 1.244l-3.086 2.51a.799.799 0 01-.506.18zm31.025 6.689L41.16 11.421a1.829 1.829 0 00-1.813-1.543h-.843v-.772a4.223 4.223 0 00-8.445 0v.772h-.843a1.828 1.828 0 00-1.814 1.543l-1.93 10.903a.815.815 0 00-.014.14 2.876 2.876 0 002.873 2.873h11.901a2.876 2.876 0 002.872-2.873.814.814 0 00-.012-.14zM31.663 9.106a2.618 2.618 0 115.238 0v.772h-5.237v-.772zm8.57 14.626H28.332a1.27 1.27 0 01-1.267-1.206l1.92-10.832.001-.016a.232.232 0 01.23-.196h.844v1.455a.802.802 0 101.604 0v-1.455H36.9v1.455a.802.802 0 101.604 0v-1.455h.843a.232.232 0 01.233.212l1.918 10.832a1.27 1.27 0 01-1.266 1.206z" fill="#ED028C"/><path d="M43.615.189H5.385A5.391 5.391 0 000 5.574V33.56a5.391 5.391 0 005.385 5.385h38.23A5.39 5.39 0 0049 33.56V5.574A5.391 5.391 0 0043.615.19zM5.385 1.793h38.23a3.786 3.786 0 013.78 3.781V28.71H1.606V5.574a3.786 3.786 0 013.78-3.78zm38.23 35.547H5.385a3.786 3.786 0 01-3.78-3.781v-3.245h45.79v3.245a3.785 3.785 0 01-3.78 3.781z" fill="#4154F5"/><path d="M12.948 19.9a6.323 6.323 0 100-12.645 6.323 6.323 0 000 12.645zm-3.716-9.23a4.719 4.719 0 117.433 5.814 4.719 4.719 0 01-7.433-5.814zM7.428 22.876h10.885a.802.802 0 100-1.605H7.428a.802.802 0 000 1.605zm0 3.437h6.416a.802.802 0 100-1.604H7.428a.802.802 0 000 1.604z" fill="#4154F5"/></g><defs><clipPath id="clip0"><path fill="#fff" d="M0 0h49v49H0z"/></clipPath></defs></svg>