<svg width="675" height="294" fill="none" preserveAspectRatio="none" xmlns="http://www.w3.org/2000/svg"><path d="M211.133 178.035v-.5h-28.912V4.404h-66.833v.942L1.575 188.311l-.089.144.016.168 3.907 40.209.044.451h109.935v60.313h66.833v-60.313h28.912v-51.248zM264.164 31.91l-.001.002c-17.29 20.94-25.9 50.673-25.9 89.128v51.92c0 38.197 8.676 67.864 26.096 88.933 17.432 21.085 42.068 31.607 73.836 31.607 31.509 0 55.949-10.457 73.251-31.412 17.421-20.94 26.096-50.673 26.096-89.128v-51.725c0-38.326-8.676-68.058-26.096-89.129C394.014 11.023 369.443.5 337.805.5c-31.638 0-56.209 10.457-73.641 31.41zm98.594 35.296l.001.002c5.281 9.91 7.95 25.036 7.95 45.439v70.264c-.13 20.406-2.864 35.332-8.142 44.849-5.248 9.335-13.347 13.991-24.372 13.991-5.724 0-10.648-1.204-14.792-3.593-4.142-2.387-7.531-5.974-10.163-10.783-5.279-9.777-7.949-25.224-7.949-46.412v-72.604c.39-18.97 3.122-33.055 8.144-42.318 2.565-4.613 5.872-8.053 9.916-10.344 4.047-2.292 8.858-3.448 14.454-3.448 5.72 0 10.642 1.251 14.784 3.735 4.142 2.483 7.534 6.215 10.169 11.222zM674.5 178.035v-.5h-28.912V4.404h-66.832v.942L464.943 188.311l-.09.144.017.168 3.907 40.209.044.451h109.935v60.313h66.832v-60.313H674.5v-51.248zM115.388 92.351v85.184H65.577l46.634-80.045.004-.005 3.173-5.134zm463.368 0v85.184h-49.812l46.635-80.045.007-.011 3.17-5.128z" stroke="#000" stroke-opacity=".1"/></svg>