<svg width="634" height="453" fill="none" xmlns="http://www.w3.org/2000/svg"><path d="M324.86 26.111H187.728a3.753 3.753 0 00-3.752 3.754v79.9a3.753 3.753 0 003.752 3.754H324.86a3.753 3.753 0 003.752-3.754v-79.9a3.753 3.753 0 00-3.752-3.754zM183.976 41.944h144.636" stroke="#C0CCD8" stroke-miterlimit="10"/><path d="M193.315 36.437a2.315 2.315 0 10-.001-4.63 2.315 2.315 0 00.001 4.63zm11.816-2.316a2.338 2.338 0 11-4.677 0 2.338 2.338 0 014.677 0zm9.514 0a2.338 2.338 0 11-4.677 0 2.338 2.338 0 014.677 0z" stroke="#C0CCD8" stroke-miterlimit="10"/><path d="M142.298 76.475H108.1a5.986 5.986 0 00-5.985 5.986v34.215a5.986 5.986 0 005.985 5.987h34.198a5.985 5.985 0 005.984-5.987V82.461a5.985 5.985 0 00-5.984-5.986z" stroke="#C0CCD8" stroke-linejoin="round"/><path d="M125.199 112.794c7.3 0 13.219-5.921 13.219-13.225 0-7.304-5.919-13.225-13.219-13.225-7.301 0-13.219 5.92-13.219 13.225 0 7.304 5.918 13.225 13.219 13.225zm8.929-22.568L115.451 108.9" stroke="#C0CCD8" stroke-width="3" stroke-miterlimit="10"/><path d="M454.36 112.151l-9.572-9.928H297.417a12.481 12.481 0 01-12.482-12.488V13.073a12.49 12.49 0 013.656-8.83 12.48 12.48 0 018.826-3.658h148.037a12.48 12.48 0 018.826 3.657 12.491 12.491 0 013.656 8.831v97.64a2.08 2.08 0 01-3.576 1.438z" fill="#fff" stroke="#C0CCD8" stroke-linejoin="round"/><path d="M344.168 67.95h-6.335v11.155h-15.357V67.95h-22.955V56.526l23.936-35.022h14.376v34.823h6.335V67.95zm-21.692-11.623v-6.689c0-1.263 0-2.958.14-5.11a32.93 32.93 0 01.21-3.367h-.432a42.262 42.262 0 01-3.027 5.682l-6.382 9.484h9.491zm69.67-5.94c0 10.18-1.706 17.645-5.119 22.392-3.413 4.748-8.637 7.118-15.673 7.11-6.873 0-12.058-2.475-15.557-7.425-3.498-4.95-5.243-12.31-5.236-22.077 0-10.244 1.707-17.755 5.12-22.534 3.412-4.778 8.637-7.171 15.673-7.18 6.849 0 12.026 2.492 15.533 7.473 3.506 4.981 5.259 12.395 5.259 22.24zm-26.11 0c0 6.509.409 10.987 1.227 13.435.818 2.448 2.182 3.668 4.091 3.66 1.94 0 3.319-1.263 4.114-3.777.795-2.514 1.169-7.016 1.169-13.318 0-6.303-.41-10.852-1.169-13.413-.76-2.56-2.186-3.847-4.103-3.847-1.916 0-3.284 1.24-4.09 3.707-.807 2.467-1.239 6.98-1.239 13.553zM443.35 67.95h-6.335v11.155h-15.357V67.95h-22.955V56.526l23.936-35.022h14.376v34.823h6.335V67.95zm-21.692-11.623v-6.689c0-1.263 0-2.958.14-5.11a32.93 32.93 0 01.21-3.367h-.432a42.262 42.262 0 01-3.027 5.682l-6.382 9.484h9.491z" fill="#4154F5"/><path d="M627.42 210.96h-34.199a5.985 5.985 0 00-5.984 5.987v34.214a5.985 5.985 0 005.984 5.987h34.199a5.985 5.985 0 005.984-5.987v-34.214a5.985 5.985 0 00-5.984-5.987z" stroke="#C0CCD8" stroke-linejoin="round"/><path d="M625.211 247.022a1.47 1.47 0 01-.561.093h-28.647a1.668 1.668 0 01-1.461-.842 1.648 1.648 0 010-1.672l14.318-24.766a1.698 1.698 0 011.461-.842 1.663 1.663 0 011.449.842l14.341 24.825a1.732 1.732 0 010 1.684 1.686 1.686 0 01-.9.678zm-28.425-2.035h27.081l-13.546-23.457-13.535 23.457z" fill="#C0CCD8"/><path d="M610.321 240.053a1.009 1.009 0 01-1.005-.959l-.585-9.776a1.583 1.583 0 01.963-1.536c.198-.084.411-.126.627-.124a1.584 1.584 0 011.489 1.03c.076.201.11.415.1.63l-.572 9.764a1.008 1.008 0 01-1.017.971zm1.04 2.362a1.043 1.043 0 01-.634.969 1.035 1.035 0 01-1.138-.218 1.043 1.043 0 01-.23-1.135 1.034 1.034 0 01.962-.645 1.019 1.019 0 01.735.297 1.041 1.041 0 01.305.732z" fill="#C0CCD8"/><path d="M5.844 174.617a2.606 2.606 0 11-2.607-2.608c.343-.001.683.065 1 .195a2.61 2.61 0 011.412 1.413c.13.317.196.657.195 1zM443.35 313.545a2.612 2.612 0 01-1.609 2.409 2.605 2.605 0 01-3.405-3.407 2.608 2.608 0 014.251-.846c.488.489.763 1.153.763 1.844v0zM622.324 99.569a2.612 2.612 0 01-1.609 2.409 2.605 2.605 0 01-3.554-1.9 2.609 2.609 0 014.4-2.353 2.61 2.61 0 01.763 1.844zm-140.58-80.591a2.608 2.608 0 01-4.47 1.822 2.61 2.61 0 01-.527-2.86 2.606 2.606 0 014.997 1.038v0zM617.111 184.79v8.068m4.033-4.034h-8.065M406.288 340.229v8.069m4.033-4.034h-8.077M235.718 4.093v8.068m4.032-4.034h-8.064M55.178 82.087v8.069m4.032-4.035h-8.065m-9.093 181.738v8.069m4.032-4.034H38.02M499.217 49.779v8.068m4.033-4.034h-8.065" stroke="#C0CCD8" stroke-linecap="round" stroke-linejoin="round"/><path d="M102.057 221.916H21.412a2.545 2.545 0 01-2.56-2.549 2.548 2.548 0 012.56-2.549h80.645a2.548 2.548 0 012.548 2.549v0a2.55 2.55 0 01-2.548 2.549zm475.176-64.477h-80.704a2.525 2.525 0 01-2.357-1.572 2.557 2.557 0 01-.191-.977v0a2.557 2.557 0 01.743-1.806 2.525 2.525 0 011.805-.743h80.704a2.525 2.525 0 012.357 1.572c.127.31.192.642.191.977v0a2.557 2.557 0 01-.743 1.806 2.525 2.525 0 01-1.805.743z" stroke="#C0CCD8" stroke-miterlimit="10"/><path d="M589.061 174.617H559.21a1.287 1.287 0 01-.905-.378 1.267 1.267 0 01-.369-.909 1.274 1.274 0 011.274-1.274h29.851a1.274 1.274 0 011.274 1.274 1.293 1.293 0 01-.369.909 1.283 1.283 0 01-.905.378zm-78.962-60.852h-29.828a1.265 1.265 0 01-1.187-.785 1.268 1.268 0 010-.981 1.281 1.281 0 011.187-.784h29.828a1.274 1.274 0 010 2.55zM72.055 199.348H49.24a1.283 1.283 0 01-.931-.356 1.276 1.276 0 01-.39-.918 1.262 1.262 0 011.274-1.275h22.862a1.275 1.275 0 110 2.549z" fill="#C0CCD8"/><path d="M532.679 86.648h24.708a4.325 4.325 0 004.324-4.327v-24.72a4.325 4.325 0 00-4.324-4.326h-24.708a4.325 4.325 0 00-4.324 4.326v24.72a4.325 4.325 0 004.324 4.327z" stroke="#C0CCD8" stroke-linejoin="round"/><path d="M549.767 68.558l-.585 2.865h3.191v2.55h-3.67l-.958 5.016h-2.712l.958-5.017h-3.506l-.935 5.017h-2.653l.912-5.017h-2.946v-2.55h3.425l.584-2.864h-3.109v-2.584h3.565l.947-5.028h2.711l-.958 5.028h3.506l.959-5.028h2.653l-.959 5.028h2.957v2.584h-3.377zm-6.803 2.865h3.507l.572-2.865h-3.506l-.573 2.865z" fill="#C0CCD8"/><path d="M264.142 317.521l-23.375-153.756h-105.54L160.519 326.7a22.087 22.087 0 007.593 13.609 22.074 22.074 0 0014.684 5.206h177.419l1.309-14.933H279.57a15.282 15.282 0 01-15.428-13.061z" fill="#475577"/><path d="M164.271 317.521L141.714 169.46a6.668 6.668 0 00-6.721-5.695h-.21a8.174 8.174 0 00-6.058 2.799 8.196 8.196 0 00-1.96 6.38L150.643 326.7a22.09 22.09 0 007.615 13.629 22.07 22.07 0 0014.72 5.186h114.294l1.309-14.933H179.675a15.268 15.268 0 01-10.167-3.621 15.289 15.289 0 01-5.237-9.44z" fill="#717A91"/><path d="M235.718 345.515v83.923m-47.031 7.414a7.41 7.41 0 017.41-7.414h79.231a7.416 7.416 0 017.41 7.414v0m-55.132 0a7.416 7.416 0 017.41-7.414" stroke="#544943" stroke-width="1.5" stroke-miterlimit="10"/><path d="M196.167 444.347a7.488 7.488 0 01-4.618 6.914 7.48 7.48 0 01-10.199-5.454 7.486 7.486 0 017.336-8.944 7.482 7.482 0 017.481 7.484z" fill="#717A91"/><path opacity=".45" d="M191.433 444.347a2.75 2.75 0 01-1.696 2.539 2.745 2.745 0 01-3.745-2.003 2.75 2.75 0 012.694-3.284 2.759 2.759 0 012.747 2.748z" fill="#8E9DB2"/><path d="M235.087 444.347a7.488 7.488 0 01-4.618 6.914 7.48 7.48 0 01-10.199-5.454 7.494 7.494 0 013.181-7.683 7.48 7.48 0 0111.636 6.223z" fill="#717A91"/><path opacity=".45" d="M230.353 444.347a2.75 2.75 0 01-1.695 2.539 2.746 2.746 0 01-3.589-3.591 2.747 2.747 0 012.537-1.696 2.759 2.759 0 012.747 2.748z" fill="#8E9DB2"/><path d="M290.218 444.347a7.488 7.488 0 01-4.618 6.914 7.48 7.48 0 01-10.199-5.454 7.486 7.486 0 017.336-8.944 7.482 7.482 0 017.481 7.484z" fill="#717A91"/><path opacity=".45" d="M285.484 444.347a2.75 2.75 0 01-1.696 2.539 2.742 2.742 0 01-2.993-.596 2.749 2.749 0 011.942-4.691 2.759 2.759 0 012.747 2.748z" fill="#8E9DB2"/><path d="M318.198 180.265l26.753-39.945 8.287 1.731c-6.335 21.34-10.519 29.783-10.519 29.783" fill="#FFCBBB"/><path d="M348.972 148.634l4.266-6.618s7.936-1.836 10.823-3.298a12.01 12.01 0 005.61-6.291c.607-1.695.35-6.653-.374-6.735-1.707-.187-5.108 6.174-6.709 6.548-1.601.374-6.756 0-9.596.362a9.336 9.336 0 00-4.015 1.737 9.344 9.344 0 00-2.787 3.373l-4.371 7.929" fill="#FFCBBB"/><path d="M335.683 151.99l4.698-6.805 12.144 5.449-3.857 10.348" fill="#E6E8EF"/><path d="M238.09 137.736s19.799-9.109 37.249 6.42c17.45 15.528 29.219 29.946 35.659 34.612l26.274-30.263 14.68 6.888c-3.869 21.913-14.726 56.841-41.316 60.443-28.763 3.894-70.933-31.572-70.933-31.572" fill="#ED028C"/><path d="M302.466 188.824l8.532-10.056" stroke="#846A6A" stroke-miterlimit="10"/><path d="M344.484 439.178l-2.221 8.548a3.279 3.279 0 00.581 2.827 3.277 3.277 0 002.586 1.278h25.877a2.818 2.818 0 002.817-2.807 2.808 2.808 0 00-1.952-2.678l-17.695-7.144" fill="#FF9D00"/><path d="M329.594 305.711c-4.126 43.44 14.913 133.467 14.913 133.467s4.523 5.473 9.993 0c0 0 4.593-85.829 9.432-124.428" fill="#FFCBBB"/><path d="M267.847 254.833l29.687 15.575v.305s60.613-4.07 69.776 17.54c14.352 33.91 16.795 144.143 16.795 144.143H339.75s-16.515-92.599-22.206-98.224c-5.692-5.624-28.916-5.227-71.705-5.227-48.071 0-24.614-61.974-6.708-67.33" fill="#3C4595"/><path d="M342.824 432.431s-13.231-95.546-22.873-102.562c-11.828-8.548-67.695-2.958-67.695-2.958" stroke="#262E77" stroke-miterlimit="10"/><path d="M251.473 439.178l-2.221 8.548a3.285 3.285 0 003.203 4.105h25.876a2.826 2.826 0 001.996-.83 2.819 2.819 0 00.821-2 2.805 2.805 0 00-1.952-2.678l-17.695-7.145" fill="#FF9D00"/><path d="M255.786 305.711c-4.138 43.44-4.313 133.467-4.313 133.467s4.523 5.473 9.993 0c0 0 15.568-85.829 20.407-124.428" fill="#FFCBBB"/><path d="M215.463 268.467s77.899 1.263 88.09 24.872c12.53 29.046-8.181 139.151-8.181 139.151h-46.903v-98.458a3.507 3.507 0 00-3.401-3.567c-6.498.176-21.038.176-39.434.176-48.072 0-24.603-74.837-6.709-80.17" fill="#5461D1"/><path d="M215.463 268.467s77.898 1.263 88.09 24.872c3.39 7.87 5.154 21.27 4.254 37.243" stroke="#262E77" stroke-miterlimit="10"/><path d="M255.014 432.431s.479-98.832-1.788-104.07c-3.156-7.332-13.92-3.73-38.885-3.73-48.072 0-28.495-68.851-10.589-74.171" stroke="#3C469B" stroke-miterlimit="10"/><path d="M185.531 280.5s24.684.596 28.424-3.134c3.74-3.73 0-20.709 0-20.709" stroke="#3C469B" stroke-miterlimit="10"/><path d="M184.923 283.821s28.179.596 32.445-3.157c4.266-3.754 0-20.721 0-20.721" stroke="#3C469B" stroke-miterlimit="10" stroke-dasharray="3 2"/><path d="M180.166 165.589s-5.914 105.124 3.039 105.124 108.497-.304 114.329-.304c5.832 0-7.819-89.899-27.478-108.889 0 0-29.16-31.654-42.005-28.625-12.845 3.028-47.885 32.694-47.885 32.694z" fill="#ED028C"/><path d="M291.223 213.403l-12.366-50.69" stroke="#846A6A" stroke-miterlimit="10"/><path d="M129.815 184.626l-26.753-39.979-8.286 1.73c6.334 21.341 10.519 29.783 10.519 29.783" fill="#FFCBBB"/><path d="M99.042 152.996l-4.267-6.619s-7.935-1.836-10.822-3.309a11.986 11.986 0 01-5.645-6.256c-.608-1.695-.34-6.665.374-6.735 1.706-.187 5.119 6.174 6.708 6.548 1.59.374 6.756 0 9.596.363a9.348 9.348 0 016.802 5.109l4.383 7.929" fill="#FFCBBB"/><path d="M112.331 156.352l-4.699-6.806-12.144 5.449 3.858 10.349" fill="#E6E8EF"/><path d="M216.959 138.344s-19.577-13.927-39.738 3.181c-18.841 15.938-31.382 48.106-35.601 48.106-2.922 0-21.038-23.13-31.872-37.29l-12.857 6.887c8.111 24.778 25.795 66.933 52.256 66.933 20.769 0 63.394-48.656 63.394-48.656" fill="#ED028C"/><path d="M178.46 210.597l31.557-26.322" stroke="#846A6A" stroke-miterlimit="10"/><path d="M218.841 140.823l18.805 20.159 2.466-23.305" fill="#E6E8EF"/><path d="M218.841 140.823l18.805 20.159 2.466-23.305" stroke="#846A6A" stroke-linejoin="round"/><path d="M233.941 120.441l5.295 11.612s2.127 6.642-6.686 9.659a14.722 14.722 0 01-15.591-3.391l-1.403-18.207" fill="#FFCBBB"/><path d="M216.445 131.714s7.012 8.723 16.105 10.021l-6.638 9.846c-5.388-3.076-11.957-14.769-11.957-14.769l2.49-5.098zm22.241-1.24a23.593 23.593 0 01-6.136 11.261l7.562 5.718c1.742-4.28 1.531-10.945 1.531-10.945l-2.957-6.034z" fill="#fff"/><path d="M241.784 101.732s4.99 19.142-2.502 23.971c-7.491 4.83-20.547-2.514-21.295-4.922-.748-2.409-4.16-22.826.737-24.358 8.695-2.724 20.512-2.876 23.06 5.309z" fill="#FFCBBB"/><path d="M241.62 107.941a.973.973 0 11-1.895.445.973.973 0 011.895-.445zm-1.671-5.694c.339 0 1.8.198 1.496.923-.141.316-.655.316-.935.293a2.46 2.46 0 00-.889 0c.076.092.139.194.187.304.082.21-.642.234-.724.234a4.004 4.004 0 00-2.466.456 3.26 3.26 0 013.331-2.21zm-10.344 8.349a.948.948 0 00.322.673.963.963 0 00.707.239.98.98 0 00.923-1.029.982.982 0 00-1.952.117zm-2.863-3.871c-.713.386-1.298.901-1.169 1.485.128.585.584.339.865.117a5.29 5.29 0 011.601-.853 1.061 1.061 0 00-.386.877 4.14 4.14 0 003.6-3.579 6.82 6.82 0 01-1.356.948c-1.017.467-2.162.456-3.155 1.005z" fill="#173789"/><path d="M236.77 109.087s2.653 6.677 1.659 7.297c-.993.62-4.289.503-4.289.503m2.723 9.927a15.289 15.289 0 01-14.27-2.338m9.992-2.152s.678-2.958 5.54-2.958" stroke="#EF977F" stroke-miterlimit="10"/><path d="M246.015 91.465a4.072 4.072 0 00-.854-2.537 3.907 3.907 0 00-2.91-.924 17.606 17.606 0 00-10.308 3.286l2.454-2.128c.643-.562 2.092-1.45 1.391-2.491-.701-1.04-2.338-.398-3.238-.41-4.184 0-8.181 1.44-12.073 2.912a31.237 31.237 0 00-5.528 2.561 10.518 10.518 0 00-4.079 4.432 12.633 12.633 0 00-.853 5.239 64.104 64.104 0 001.028 9.553c.549 3.508 1.368 10.267 6.008 10.676a3.788 3.788 0 002.618-.397 3.309 3.309 0 001.075-2.339 12.009 12.009 0 00-.269-4.327c.865.48 1.695 1.263 2.665 1.17a.904.904 0 00.76-.527 1.248 1.248 0 000-.619c-.363-3.309-.561-6.595-.772-9.916a246.58 246.58 0 0114.318-2.596c2.127-.316 4.371-.667 6.019-2.046 2.407-2.035 2.805-5.508 2.548-8.572z" fill="#173789"/><path d="M221.494 115.846c-.783-1.953-2.162-4.292-4.313-2.97a4.148 4.148 0 00-1.484 2.432c-.994 3.204 1.309 8.185 4.464 7.706 1.543-.222 2.338-2.046 3.016-3.508" fill="#FFCBBB"/><path d="M508.03 324.747a38.084 38.084 0 016.839-21.922 38.05 38.05 0 0118.196-13.999c2.711-1.006 15.72-1.988 15.72-1.988s-1.52 9.927-4.114 14.932c-6.031 11.693-17.976 21.481-36.641 22.977z" fill="#8EBCA2"/><path d="M546.272 354.378a31.657 31.657 0 0140.358-7.413.893.893 0 01.491.503.883.883 0 01-.328.76 29.394 29.394 0 01-24.439 9.518 106.546 106.546 0 01-16.082-3.368z" fill="#A2CCB6"/><path d="M556.721 338.546c0-9.086 3.027-17.236 8.356-22.569a25.073 25.073 0 0121.038-6.852c.293.007.573.124.783.328.209.304.296.675.246 1.04-.468 10.934-5.938 19.984-14.294 23.621a83.602 83.602 0 01-16.118 4.432" fill="#8EBCA2"/><path d="M570.816 322.304a76.67 76.67 0 0112.973-15.751 32.604 32.604 0 016.546-4.923c7.819-4.21 17.473-2.9 25.876-.059-3.343 6.35-7.702 12.571-14.119 15.786a38.674 38.674 0 01-9.046 2.889c-6.159 1.368-15.977 1.239-22.206 2.058" fill="#A2CCB6"/><path d="M566.352 307.137c-15.639-8.185-17.953-25.292-18.35-31.572-.246-3.964 0-8.372 3.308-11.225 19.389 6.829 24.333 19.949 15.042 42.844m-67.404-2.514c1.169-8.326 2.338-17.271-1.449-24.79a29.782 29.782 0 00-5.388-7.226c-5.084-5.239-11.746-9.554-19.039-9.554a33.278 33.278 0 004.381 22.804 33.252 33.252 0 0018.223 14.381" fill="#8EBCA2"/><path d="M544.437 359.126a33.805 33.805 0 01-19.973-17.911 33.849 33.849 0 01-3.096-13.348 33.846 33.846 0 012.452-13.48 1.421 1.421 0 01.748-.924 1.453 1.453 0 011.087.269c13.499 7.765 22.721 30.333 18.782 45.394zm-36.664-45.99a33.087 33.087 0 01.353-22.65 33.064 33.064 0 0114.841-17.107c2.735-1.521 5.727-2.666 8.181-4.678a76.027 76.027 0 011.66 11.121c.4 3.696.163 7.434-.702 11.05-2.547 9.249-11.068 15.529-19.623 19.879m-16.012.982c-14.026 1.707-31.335-3.964-38.839-17.201 24.007-12.22 38.839 6.466 38.839 17.201zm8.204 31.361c-3.155-10.793-11.442-19.645-21.423-22.884a30.628 30.628 0 00-29.453 6.397 1.511 1.511 0 00-.666 1.169c.037.275.15.534.327.748 5.364 7.765 13.932 12.349 22.686 14.278 8.754 1.929 17.8 1.473 26.718.807" fill="#A2CCB6"/><path d="M486.618 285.551a59.507 59.507 0 0112.447 19.084 157.003 157.003 0 017.609 23.387 343.683 343.683 0 018.497 51.251c.982 9.683 1.613 19.4 2.712 29.07 0 .316.514.328.502 0-.374-8.782-1.169-17.54-2.022-26.31-.853-8.77-1.858-17.388-3.179-26.029-1.321-8.642-2.957-17.283-5.084-25.796a167.67 167.67 0 00-7.445-23.527c-3.261-7.881-7.562-15.435-13.838-21.317-.164-.14-.398.094-.234.246l.035-.059z" fill="#597F6E"/><path d="M512.448 352.145c-4.149-6.852-10.683-11.541-17.73-15.038a86.205 86.205 0 00-24.872-7.916 62.924 62.924 0 00-14.446-.83.213.213 0 00-.149.061.213.213 0 000 .298c.04.039.093.062.149.062 4.336.21 8.649.35 12.95.958a85.56 85.56 0 0124.299 7.215 57.737 57.737 0 0110.262 5.847 40.86 40.86 0 019.011 9.635c.21.293.689 0 .502-.292h.024zm-4.255-20.522c0-6.455-.654-12.863-.081-19.352a52.036 52.036 0 014.675-17.54 58.103 58.103 0 015.131-8.455c.128-.187-.152-.397-.304-.233a30.219 30.219 0 00-4.933 7.331 50.238 50.238 0 00-3.249 8.303 60.596 60.596 0 00-2.185 18.533c.081 3.801.268 7.636.678 11.413a.138.138 0 00.134.1.138.138 0 00.134-.1zm-32.597-32.577c4.278.444 8.182 2.853 11.688 5.285a116.015 116.015 0 0111.548 9.729c1.905 1.742 3.74 3.59 5.738 5.227.187.152.444-.094.269-.269-3.506-3.508-7.2-6.794-10.94-9.986a55.826 55.826 0 00-12.026-8.314 17.952 17.952 0 00-6.242-1.789.058.058 0 00-.058.058c0 .016.006.03.017.041a.06.06 0 00.041.018h-.035zm63.371 80.672a103.701 103.701 0 015.365-19.376 93.642 93.642 0 019.35-17.704 96.036 96.036 0 0128.611-27.736 90.173 90.173 0 019.865-5.356c3.448-1.602 7.013-2.853 10.519-4.186a.29.29 0 00.174-.13.298.298 0 00.03-.215.287.287 0 00-.047-.1.293.293 0 00-.187-.111.29.29 0 00-.11.006 60.615 60.615 0 00-9.444 3.508 90.306 90.306 0 00-9.035 4.678 95.47 95.47 0 00-16.199 12.067 96.742 96.742 0 00-23.212 32.882 79.427 79.427 0 00-6.112 21.714c0 .234.385.293.432.059z" fill="#597F6E"/><path d="M557.96 277.541c6.264 13.039 9.993 28.404 7.106 42.821a50.77 50.77 0 01-4.161 11.916.308.308 0 00.526.316c3.95-6.443 5.411-14.442 5.435-21.902a69.728 69.728 0 00-3.846-22.358 82.136 82.136 0 00-4.675-11.038c-.14-.281-.549 0-.42.245h.035z" fill="#597F6E"/><path d="M568.666 368.34v13.705c0 54.315-14.306 69.774-14.306 69.774h-44.261s-14.295-15.459-14.295-69.774V368.34h72.862z" fill="#F2F5F9"/><path d="M93.35 451.831l37.529-180.066m37.541 180.066l-37.541-180.066m341.585 180.066l37.541-180.066m37.529 180.066l-37.529-180.066" stroke="#544943" stroke-width="1.5" stroke-miterlimit="10"/><path d="M542.929 260.984H94.565v10.769H542.93v-10.769z" fill="#E7EAF2"/><path d="M521.272 240.45H362.868a4.523 4.523 0 01-4.464-5.332l18.197-102.457a6.8 6.8 0 016.697-5.601h158.439a4.524 4.524 0 013.484 1.619 4.545 4.545 0 01.992 3.713l-18.209 102.457a6.774 6.774 0 01-6.732 5.601z" fill="#475577"/><path d="M525 240.45H366.55a4.52 4.52 0 01-4.386-3.366 4.532 4.532 0 01-.079-1.966l18.198-102.457a6.806 6.806 0 016.697-5.601h158.439a4.528 4.528 0 013.484 1.619 4.53 4.53 0 01.992 3.713l-18.209 102.457A6.778 6.778 0 01525 240.45z" fill="#C0CCD8"/><path opacity=".45" d="M495.851 240.45h-91.456a2.614 2.614 0 01-2.534-1.941 2.616 2.616 0 01-.049-1.134l10.519-59.18a3.94 3.94 0 013.869-3.239h91.514a2.637 2.637 0 012.01.942 2.628 2.628 0 01.573 2.145l-10.519 59.168a3.906 3.906 0 01-3.927 3.239z" fill="#8E9DB2"/><path d="M498.037 240.45h-91.515a2.627 2.627 0 01-2.529-1.943 2.623 2.623 0 01-.054-1.132l10.519-59.18a3.94 3.94 0 013.868-3.239h91.515a2.637 2.637 0 012.01.942 2.628 2.628 0 01.573 2.145l-10.519 59.168a3.928 3.928 0 01-3.868 3.239z" fill="#C6D2E0"/><path d="M477.759 205.651h-37.144v34.799h37.144v-34.799z" fill="#8E9DB2"/><path d="M475.69 205.651h-35.063v9.998l9.56 39.687h37.191l-11.688-49.685zm-8.988 39.102c-4.161 0-8.567-4.864-9.829-10.851-1.263-5.987 1.075-10.852 5.236-10.852s8.567 4.865 9.829 10.852c1.262 5.987-1.134 10.851-5.294 10.851h.058zm-46.576 10.583h83.205v5.648h-88.826a5.65 5.65 0 015.621-5.648z" fill="#475577"/><path d="M503.331 255.336h-66.515v5.648h66.515v-5.648zm-25.549-49.685h-37.155l11.687 49.685h37.167l-11.699-49.685zm-9.105 39.102c-4.161 0-8.567-4.864-9.829-10.851-1.262-5.987 1.087-10.852 5.248-10.852 4.16 0 8.555 4.865 9.829 10.852 1.274 5.987-1.11 10.851-5.248 10.851z" fill="#C0CCD8"/><path opacity=".65" d="M391.001 137.139l-2.209 12.395h2.209l2.197-12.395h-2.197zm6.37 0l-2.209 12.395h2.209l2.197-12.395h-2.197zm6.369 0l-2.209 12.395h2.209l2.198-12.395h-2.198zm6.358 0l-2.197 12.395h2.197l2.209-12.395h-2.209zm6.37 0l-2.197 12.395h2.197l2.209-12.395h-2.209zm58.123 0l-2.197 12.395h2.197l2.209-12.395h-2.209zm6.697 0l-2.197 12.395h2.197l2.209-12.395h-2.209zm6.697 0l-2.197 12.395h2.197l2.198-12.395h-2.198zm6.698 0l-2.209 12.395h2.209l2.197-12.395h-2.197zm6.685 0l-2.197 12.395h2.197l2.209-12.395h-2.209zm6.697 0l-2.197 12.395h2.197l2.197-12.395h-2.197zm6.697 0l-2.197 12.395h2.197l2.197-12.395h-2.197zm6.685 0l-2.197 12.395h2.197l2.209-12.395h-2.209zm6.698 0l-2.198 12.395h2.198l2.197-12.395h-2.197zm6.697 0l-2.198 12.395h2.198l2.197-12.395h-2.197z" fill="#8E9DB2"/><path opacity=".55" d="M220.898 232.92a2.7 2.7 0 001.449-.784c.865-1.169-.573-2.479-1.508-3.075-1.168-.772-2.852-1.029-3.436-2.503-.654-1.672.479-3.508 1.858-4.42a19.02 19.02 0 013.811-1.637 7.4 7.4 0 003.67-2.771c1.051-1.684.841-3.871.981-5.777.538-7.46 8.182-11.155 14.587-11.307 3.214-.082 8.123 1.076 10.261 3.508a6.452 6.452 0 011.461 2.923 5.28 5.28 0 01-1.425 4.491 49.164 49.164 0 01-3.822 3.133c-1.251 1.17-.363 2.409-.643 3.812-.281 1.404-1.356 2.222-2.712 2.971-2.852 1.59-6.206 1.987-9.35 2.853a7.367 7.367 0 00-2.723 1.169 15.028 15.028 0 00-2.338 3.087 9.69 9.69 0 01-5.844 3.742" fill="url(#paint0_linear)"/><path d="M238.722 251.699h-6.137v-2.9h6.09a3.576 3.576 0 003.565-3.566v-5.005a3.581 3.581 0 00-3.565-3.566h-6.09v-2.9h6.09a6.479 6.479 0 016.475 6.466v5.005a6.477 6.477 0 01-6.428 6.466z" fill="#E8EAEF"/><path d="M212.611 229.634h24.544v22.556a7.159 7.159 0 01-2.095 5.061 7.149 7.149 0 01-5.057 2.096h-10.274a7.153 7.153 0 01-7.153-7.157v-22.556h.035z" fill="#E8EAEF"/><path d="M208.637 255.207s.234 5.777 9.222 5.777h14.095c8.988 0 9.222-5.777 9.222-5.777h-32.539z" fill="#C6D2E0"/><path d="M406.206 258.68h-130.06v2.315h130.06v-2.315zm-116.304-1.871h-9.315v1.859h9.315v-1.859zm14.107 0h-9.315v1.859h9.315v-1.859zm14.107 0h-9.315v1.859h9.315v-1.859zm14.107 0h-9.315v1.859h9.315v-1.859zm14.119 0h-9.315v1.859h9.315v-1.859zm14.107 0h-9.315v1.859h9.315v-1.859zm14.107 0h-9.315v1.859h9.315v-1.859zm14.107 0h-9.315v1.859h9.315v-1.859zm14.107 0h-9.315v1.859h9.315v-1.859z" fill="#475577"/><path d="M407.901 258.68H277.84v2.315h130.061v-2.315zm-116.293-1.871h-9.315v1.859h9.315v-1.859zm14.108 0H296.4v1.859h9.316v-1.859zm14.106 0h-9.315v1.859h9.315v-1.859zm14.108 0h-9.315v1.859h9.315v-1.859zm14.107 0h-9.315v1.859h9.315v-1.859zm14.107 0h-9.315v1.859h9.315v-1.859zm14.107 0h-9.315v1.859h9.315v-1.859zm14.119 0h-9.316v1.859h9.316v-1.859zm14.107 0h-9.315v1.859h9.315v-1.859z" fill="#C0CCD8"/><path d="M92.777 348.274a28.426 28.426 0 00-1.996-19.35 28.406 28.406 0 00-13.97-13.531c-2.466-1.099-5.107-1.859-7.34-3.38a66.513 66.513 0 00-.595 9.647 28.37 28.37 0 001.425 9.355c2.852 7.729 10.613 12.477 18.257 15.541" fill="#8EBCA2"/><path d="M93.712 368.995c.14-5.847 0-11.822-.386-17.669a43.636 43.636 0 00-1.168-7.694 44.438 44.438 0 00-3.332-8.875 29.076 29.076 0 00-6.451-8.922.195.195 0 00-.138-.05.2.2 0 00-.143.331 47.943 47.943 0 015.564 7.904 46.347 46.347 0 013.658 9.121c1.554 5.321 1.578 11.085 1.741 16.593.094 3.075.07 6.186.363 9.261a.145.145 0 00.05.073.14.14 0 00.084.027.14.14 0 00.084-.027.145.145 0 00.05-.073h.024z" fill="#597F6E"/><path d="M74.603 388.605a33.277 33.277 0 00-13.277-22.463 32.947 32.947 0 00-11.969-5.414c-2.42-.55-13.604 0-13.604 0s2.337 8.302 5.119 12.278c6.416 9.284 17.66 16.371 33.73 15.575" fill="#8EBCA2"/><path d="M64.82 360.026a62.598 62.598 0 00-2.875-15.809 26.21 26.21 0 00-2.583-5.847c-3.694-5.846-10.613-8.618-17.263-9.822-.082 5.659.573 11.623 3.682 16.277 1.438 2 3.114 3.818 4.99 5.414 3.612 3.274 10.215 6.899 14.096 9.822m37.704-19.598c-1.04-7.156-1.998-14.839 1.251-21.293a25.727 25.727 0 014.675-6.198c4.371-4.502 10.086-8.185 16.363-8.185a28.918 28.918 0 01-3.764 19.598c-3.506 5.847-12.015 14.032-18.478 16.125m-11.524 41.511a24.927 24.927 0 0019.396-4.008 24.947 24.947 0 0010.361-16.888.799.799 0 00-.115-.841.8.8 0 00-.808-.258c-11.501-.058-25.713 10.922-28.834 21.995zM67.45 356.156c9.467-5.356 15.533-16.008 15.731-27.573-6.837-.374-11.98 3.835-14.96 7.46-4.149 5.052-4.5 13.915-.771 20.16m6.872 18.697a20.939 20.939 0 019.537-26.236 20.913 20.913 0 019.771-2.483.905.905 0 01.772.258.97.97 0 01.117.479c.257 5.847-2.338 11.495-5.973 16.02s-8.392 8.057-13.125 11.436" fill="#A2CCB6"/><path d="M112.95 323.824a49.422 49.422 0 00-11.022 16.218 130.05 130.05 0 00-6.638 19.727 288.029 288.029 0 00-7.48 44.271c-.877 8.443-1.683 16.944-1.987 25.421 0 .339.456.316.502 0 .889-7.437 1.38-14.92 2.092-22.381.713-7.46 1.555-14.815 2.677-22.217 1.122-7.402 2.454-14.535 4.196-21.703a157.511 157.511 0 016.194-20.288 53.588 53.588 0 0111.688-18.861c.152-.152-.082-.386-.245-.234l.023.047zm-38.64 61.097c0-1.309-.105-2.619-.07-3.94.047-1.503.176-3.002.386-4.49a42.27 42.27 0 01.783-4.175c.384-1.238.704-2.495.958-3.765 0-.222-.292-.258-.397-.106a11.556 11.556 0 00-1.332 3.777 45.622 45.622 0 00-1.17 8.759 15.882 15.882 0 00.246 4.011.292.292 0 00.561-.071h.035zm.795-48.363a21.526 21.526 0 00-5.715 9.588 39.041 39.041 0 00-1.929 13.471c.027 2.565.44 5.112 1.228 7.554a.186.186 0 00.086.114.18.18 0 00.141.02.188.188 0 00.135-.228 39.036 39.036 0 01-.912-13.225 35.498 35.498 0 013.507-12.325 17.644 17.644 0 013.506-4.829.062.062 0 00-.082-.094l.035-.046z" fill="#597F6E"/><path d="M77.864 417.873c.091-5.023-.15-10.046-.725-15.037a151.816 151.816 0 00-2.338-15.529 107.093 107.093 0 00-10.74-30.029 76.653 76.653 0 00-4.676-7.448 45.152 45.152 0 00-5.657-6.806.28.28 0 10-.397.398c1.66 2.058 3.39 4.022 4.956 6.162a73.902 73.902 0 014.277 6.537 92.17 92.17 0 016.744 14.382 130.898 130.898 0 017.013 30.614c.643 5.577.806 11.155 1.169 16.756a.22.22 0 00.222.222.22.22 0 00.222-.222h-.07z" fill="#597F6E"/><path d="M116.526 394.884v9.355c0 37.056-12.272 47.603-12.272 47.603H66.222S53.95 441.318 53.95 404.239v-9.355h62.576z" fill="#F2F5F9"/><path d="M33.065 451.831h596.599" stroke="#475577" stroke-width="2" stroke-miterlimit="10"/><defs><linearGradient id="paint0_linear" x1="235.671" y1="232.92" x2="235.671" y2="200.634" gradientUnits="userSpaceOnUse"><stop stop-color="#fff" stop-opacity=".1"/><stop offset="1" stop-color="#fff" stop-opacity=".4"/></linearGradient></defs></svg>