<svg width="49" height="49" fill="none" xmlns="http://www.w3.org/2000/svg"><path d="M23.56 29.764a.741.741 0 01-.564-.26l-1.414-1.657a.742.742 0 111.129-.964l.944 1.105 2.73-2.222a.742.742 0 11.938 1.152l-3.294 2.68a.742.742 0 01-.468.166z" fill="#ED028C"/><path d="M33.108 0H16.124a4.477 4.477 0 00-4.472 4.472v1.38a.742.742 0 101.485 0v-1.38a2.99 2.99 0 012.987-2.987h16.984a2.99 2.99 0 012.987 2.987v1.527a.742.742 0 101.485 0V4.472A4.477 4.477 0 0033.108 0zm2.987 38.913H13.137V15.955h-1.485v28.574a4.477 4.477 0 004.472 4.47h16.984a4.477 4.477 0 004.472-4.47V16.061h-1.485v22.851zm0 5.616a2.99 2.99 0 01-2.987 2.986H16.124a2.99 2.99 0 01-2.987-2.987v-4.13h22.958v4.13z" fill="#4154F5"/><path d="M22.343 44.73h4.547a.742.742 0 100-1.485h-4.547a.743.743 0 000 1.485zm9.263-17.048a7.106 7.106 0 10-7.106 7.106 7.114 7.114 0 007.106-7.106zm-12.727 0a5.621 5.621 0 115.621 5.621 5.627 5.627 0 01-5.621-5.621z" fill="#4154F5"/><path d="M43.27 10.765v-.009a.73.73 0 00-.1-.302l-.01-.018a.71.71 0 00-.058-.081l-.005-.006a.807.807 0 00-.068-.069l-.009-.008-5.715-5.022a.744.744 0 00-.49-.185h-24.42a.742.742 0 00-.48.176L5.99 10.262a.741.741 0 00-.261.57l-.002.031v3.653c0 .115.027.23.079.332l.005.011a4.803 4.803 0 007.87.965 4.805 4.805 0 007.212 0 4.783 4.783 0 003.606 1.63 4.783 4.783 0 003.606-1.63 4.807 4.807 0 007.212 0 4.803 4.803 0 007.875-.971.75.75 0 00.081-.338V10.83a.792.792 0 00-.004-.064zM12.666 6.55h23.868l4.025 3.536H8.494l4.173-3.536zm26.257 9.42a3.263 3.263 0 01-2.945-1.791.743.743 0 00-1.322-.002 3.316 3.316 0 01-5.892-.002.742.742 0 00-1.32.001 3.317 3.317 0 01-5.906-.027.743.743 0 00-1.305.026 3.317 3.317 0 01-5.892 0 .743.743 0 00-1.32.001 3.318 3.318 0 01-5.81.151v-2.756h34.576v2.756a3.258 3.258 0 01-2.864 1.643z" fill="#ED028C"/><path d="M19.305 1.485h-3.181a2.99 2.99 0 00-2.987 2.987v.594h3.182v-.594a2.99 2.99 0 012.986-2.987zM12.667 6.55l-4.173 3.536h3.182l4.173-3.536h-3.182zm3.652 37.979v-4.131h-3.182v4.13a2.99 2.99 0 002.987 2.987h3.181a2.99 2.99 0 01-2.986-2.986zm-2.637-28.705c-.167.19-.35.368-.545.53v22.559h3.182V17.354a4.772 4.772 0 01-2.637-1.53zm-3.288-1.497v-2.756H7.212v2.757a3.257 3.257 0 002.864 1.641 3.326 3.326 0 001.59-.397 3.262 3.262 0 01-1.272-1.245zm7.129-.152a.743.743 0 00-1.32.001c-.223.437-.542.82-.93 1.12a3.284 3.284 0 002.014.672 3.317 3.317 0 001.59-.398 3.288 3.288 0 01-1.354-1.395zm14.423 0a.743.743 0 00-1.32.001c-.224.437-.541.82-.93 1.12a3.273 3.273 0 002.015.673 3.319 3.319 0 001.59-.398 3.296 3.296 0 01-1.355-1.396zm-7.211.001l-.015-.026a.743.743 0 00-1.305.025c-.224.437-.542.82-.931 1.12a3.28 3.28 0 002.015.674 3.322 3.322 0 001.59-.397 3.293 3.293 0 01-1.354-1.396zm14.425.003a.743.743 0 00-1.321-.002 3.337 3.337 0 01-.932 1.119c.58.442 1.289.68 2.017.674a3.312 3.312 0 001.591-.398 3.288 3.288 0 01-1.355-1.393z" fill="#D4E1F4"/></svg>