<svg width="49" height="49" fill="none" xmlns="http://www.w3.org/2000/svg"><g clip-path="url(#clip0)"><path d="M21.595 30.137a.915.915 0 01-.697-.32l-4.844-5.672a.917.917 0 111.395-1.191l4.261 4.99 10.585-8.61a.917.917 0 111.157 1.422l-11.28 9.176a.913.913 0 01-.577.206z" fill="#ED028C"/><path d="M21.293 47.84l2.485 1.084a.916.916 0 00.73 0l2.8-1.209a26.49 26.49 0 0016.233-24.42V10.73a.917.917 0 00-.486-.81L24.639.108a.915.915 0 00-.872.005L5.86 9.926a.917.917 0 00-.476.805v12.818A26.542 26.542 0 0021.293 47.84zM7.218 11.273L24.213 1.96l17.494 9.321v12.015A24.66 24.66 0 0126.59 46.028l-.007.003-2.439 1.053-2.119-.924A24.705 24.705 0 017.217 23.55l.001-12.277z" fill="#4154F5"/><path d="M30.52 40.789l-.006.002-2.44 1.054-2.118-.924a24.705 24.705 0 01-14.81-22.611V9.12l-3.929 2.153V23.55a24.706 24.706 0 0014.81 22.61l2.118.925 2.439-1.054.006-.002a24.745 24.745 0 0011.985-10.71 24.826 24.826 0 01-8.055 5.47z" fill="#D4E1F4"/></g><defs><clipPath id="clip0"><path fill="#fff" d="M0 0h49v49H0z"/></clipPath></defs></svg>