<svg width="49" height="49" fill="none" xmlns="http://www.w3.org/2000/svg"><g clip-path="url(#clip0)"><path d="M23.302 21.278a.796.796 0 01-.607-.28l-1.773-2.077a.798.798 0 111.214-1.037l1.268 1.485 3.525-2.869a.797.797 0 111.007 1.238l-4.13 3.36a.793.793 0 01-.504.18z" fill="#ED028C"/><path d="M24.48 27.578a8.779 8.779 0 118.78-8.779 8.788 8.788 0 01-8.78 8.779zm0-15.961a7.183 7.183 0 107.183 7.182 7.19 7.19 0 00-7.182-7.182z" fill="#ED028C"/><path d="M46.618 18.328l-7.45-4.597a.775.775 0 00-.083-.045l-.118-.054V11.69a.798.798 0 00-.203-.533L29.011.285a.775.775 0 00-.04-.04.795.795 0 00-.665-.24l-.013-.001a.796.796 0 00-.08-.004h-13.79a4.419 4.419 0 00-4.415 4.414v9.278l-7.647 4.635a3.097 3.097 0 00-1.473 2.626v22.182A5.871 5.871 0 006.754 49h35.469a5.871 5.871 0 005.865-5.865V20.953a3.097 3.097 0 00-1.47-2.625zm-.836 1.36c.44.27.708.75.71 1.265v1.213l-7.525 4.598V15.483l6.816 4.206zM29.195 2.88l6.182 6.892h-3.364a2.821 2.821 0 01-2.818-2.818V2.88zM14.423 1.596H27.6v5.358a4.42 4.42 0 004.414 4.414h4.796l.562.627V27.74l-12.883 7.872-12.882-7.873V4.415a2.82 2.82 0 012.817-2.818zM3.192 19.69l6.817-4.132v11.206l-7.524-4.598v-1.213a1.49 1.49 0 01.707-1.263zm39.03 27.714H6.755a4.274 4.274 0 01-4.269-4.27V24.037l7.773 4.75c.082.079.18.138.287.176l13.527 8.266a.797.797 0 00.832 0l13.528-8.267a.796.796 0 00.287-.175l7.773-4.75v19.099a4.274 4.274 0 01-4.27 4.269z" fill="#4154F5"/><path d="M44.503 45.124H9.034a4.274 4.274 0 01-4.269-4.27V25.43l-2.28-1.393v19.098a4.274 4.274 0 004.269 4.27h35.469a4.276 4.276 0 003.935-2.614 4.248 4.248 0 01-1.655.334z" fill="#D4E1F4"/></g><defs><clipPath id="clip0"><path fill="#fff" d="M0 0h49v49H0z"/></clipPath></defs></svg>