<svg width="736" height="498" fill="none" xmlns="http://www.w3.org/2000/svg"><g clip-path="url(#clip0)"><path d="M620.231 453.445c10.334 0 18.712-8.371 18.712-18.698s-8.378-18.699-18.712-18.699c-10.335 0-18.712 8.372-18.712 18.699 0 10.327 8.377 18.698 18.712 18.698zM174.815 271.817c24.691-29.752 20.572-73.873-9.201-98.547-29.773-24.674-73.925-20.558-98.617 9.194-24.691 29.752-20.572 73.873 9.201 98.547 29.773 24.674 73.925 20.557 98.617-9.194z" fill="#EEF2FF"/><path d="M41.847 333.134a6.547 6.547 0 01-4.044 6.049 6.558 6.558 0 01-7.14-1.419 6.547 6.547 0 01-1.42-7.135 6.547 6.547 0 016.052-4.042 6.554 6.554 0 016.552 6.547z" fill="#6473F9"/><path d="M719.343 272.23a7.67 7.67 0 01-4.746 7.093 7.688 7.688 0 01-8.373-1.672 7.672 7.672 0 011.184-11.812 7.69 7.69 0 014.272-1.285 7.669 7.669 0 017.085 4.74 7.66 7.66 0 01.578 2.936z" fill="#F5DB4A"/><path d="M377.495 14.5a7.252 7.252 0 007.255-7.25A7.252 7.252 0 00377.495 0a7.252 7.252 0 00-7.255 7.25 7.252 7.252 0 007.255 7.25z" fill="#6473F9"/><path d="M224.593 447.071c6.418-6.414 6.418-16.813 0-23.227-6.419-6.413-16.825-6.413-23.244 0-6.418 6.414-6.418 16.813 0 23.227 6.419 6.414 16.825 6.414 23.244 0zm427.279-318.617c32.415-12.298 48.716-48.526 36.409-80.918-12.306-32.392-48.56-48.681-80.975-36.383-32.415 12.298-48.716 48.526-36.409 80.918 12.307 32.392 48.561 48.681 80.975 36.383z" fill="#EEF2FF"/><path d="M132.538 412.719l-56.395-8.378 20.896 55.152 35.499-46.774z" fill="#A1AEEF"/><path d="M625.58 343.732V89.368a42.153 42.153 0 00-12.36-29.817A42.214 42.214 0 00583.381 47.2H148.159a42.212 42.212 0 00-29.839 12.35 42.153 42.153 0 00-12.36 29.819v254.363a42.16 42.16 0 0012.353 29.83 42.211 42.211 0 0029.846 12.357h435.129a42.21 42.21 0 0029.906-12.324 42.156 42.156 0 0012.386-29.863z" fill="#D8DCFD"/><path d="M612.698 343.991V89.128c0-16.037-13.01-29.037-29.058-29.037H150.472c-16.048 0-29.058 13-29.058 29.037v254.863c0 16.037 13.01 29.037 29.058 29.037H583.64c16.048 0 29.058-13 29.058-29.037z" fill="#fff"/><path d="M354.008 99.67H172.775c-8.893 0-16.102 7.204-16.102 16.091v194.624c0 8.887 7.209 16.091 16.102 16.091h181.233c8.893 0 16.102-7.204 16.102-16.091V115.761c0-8.887-7.209-16.09-16.102-16.09zm218.305 0H404.258c-8.893 0-16.102 7.204-16.102 16.091v98.061c0 8.887 7.209 16.091 16.102 16.091h168.055c8.893 0 16.102-7.204 16.102-16.091v-98.061c0-8.887-7.209-16.09-16.102-16.09zm0 148.387H404.258c-8.893 0-16.102 7.204-16.102 16.09v46.016c0 8.887 7.209 16.091 16.102 16.091h168.055c8.893 0 16.102-7.204 16.102-16.091v-46.016c0-8.886-7.209-16.09-16.102-16.09z" stroke="#D8DCFD" stroke-width=".96" stroke-miterlimit="10"/><path d="M335.999 248.612H190.543a6.66 6.66 0 00-6.663 6.658v29.204a6.66 6.66 0 006.663 6.658h145.456a6.66 6.66 0 006.663-6.658V255.27a6.66 6.66 0 00-6.663-6.658z" fill="#6B56A5"/><path d="M243.868 265.6v8.4h-2.784v-6.204h-2.556V274h-2.784v-8.4h8.124zm5.757 1.716c.576 0 1.104.14 1.584.42.488.272.872.668 1.152 1.188.288.52.432 1.12.432 1.8 0 .68-.144 1.28-.432 1.8-.28.512-.664.908-1.152 1.188a3.157 3.157 0 01-1.584.408c-.728 0-1.284-.188-1.668-.564v2.772h-2.712v-8.892h2.58v.54c.392-.44.992-.66 1.8-.66zm-.648 4.692a.983.983 0 00.768-.336c.2-.224.3-.54.3-.948 0-.408-.1-.724-.3-.948a.968.968 0 00-.768-.348.968.968 0 00-.768.348c-.2.224-.3.54-.3.948 0 .408.1.724.3.948.2.224.456.336.768.336zm8.078 2.112c-.728 0-1.384-.144-1.968-.432a3.44 3.44 0 01-1.356-1.212 3.237 3.237 0 01-.492-1.764c0-.656.164-1.24.492-1.752.328-.52.78-.924 1.356-1.212.584-.288 1.24-.432 1.968-.432.736 0 1.392.144 1.968.432a3.225 3.225 0 011.356 1.212c.328.512.492 1.096.492 1.752 0 .656-.164 1.244-.492 1.764-.32.512-.772.916-1.356 1.212-.576.288-1.232.432-1.968.432zm0-2.112a.983.983 0 00.768-.336c.2-.232.3-.552.3-.96 0-.408-.1-.724-.3-.948a.983.983 0 00-.768-.336.983.983 0 00-.768.336c-.2.224-.3.54-.3.948 0 .408.1.728.3.96.2.224.456.336.768.336zm12.675-.132v3.42h-2.508V274h-3.624v1.296h-2.508v-3.42h.192c.384 0 .652-.18.804-.54.152-.368.24-.896.264-1.584l.084-2.316h6.42v4.44h.876zm-4.944-1.92a8.152 8.152 0 01-.108 1.2 1.547 1.547 0 01-.3.72h1.776v-2.328h-1.356l-.012.408zm8.533-2.64c1.152 0 2.032.26 2.64.78.608.512.912 1.304.912 2.376V274h-2.52v-.864c-.312.656-.932.984-1.86.984-.52 0-.964-.088-1.332-.264a2.06 2.06 0 01-.828-.732 2.017 2.017 0 01-.276-1.044c0-.648.248-1.14.744-1.476.496-.336 1.248-.504 2.256-.504h1.092c-.088-.512-.5-.768-1.236-.768-.296 0-.596.048-.9.144a2.435 2.435 0 00-.78.372l-.864-1.788a4.661 4.661 0 011.356-.54 6.47 6.47 0 011.596-.204zm-.012 5.172a.892.892 0 00.516-.156.902.902 0 00.336-.468v-.456h-.672c-.552 0-.828.184-.828.552 0 .152.056.28.168.384.12.096.28.144.48.144zm10.885-2.94h-2.004V274h-2.7v-4.452h-2.004v-2.112h6.708v2.112zm4.932-.132c.88 0 1.556.192 2.028.576.472.384.708.928.708 1.632 0 .736-.276 1.316-.828 1.74-.544.424-1.292.636-2.244.636h-3.816v-6.564h2.7v1.98h1.452zm-.612 2.76c.392 0 .588-.2.588-.6 0-.384-.196-.576-.588-.576h-.84v1.176h.84z" fill="#fff"/><path d="M333.963 119.701H192.579c-4.805 0-8.699 3.891-8.699 8.692v95.01c0 4.801 3.894 8.692 8.699 8.692h141.384c4.805 0 8.699-3.891 8.699-8.692v-95.01c0-4.801-3.894-8.692-8.699-8.692z" fill="#A1AEEF"/><path d="M286.693 161h-9.828v-7.49a15.79 15.79 0 00-3.649-10.307 15.808 15.808 0 00-9.473-5.47 15.511 15.511 0 00-12.393 3.57 15.488 15.488 0 00-5.394 11.707v7.916h-9.827a1.405 1.405 0 00-1.407 1.406v33.901a13.83 13.83 0 004.055 9.783 13.85 13.85 0 009.789 4.052h25.708a13.828 13.828 0 0012.779-8.542 13.828 13.828 0 001.047-5.293v-33.827a1.403 1.403 0 00-1.407-1.406zm-37.923-7.916a12.656 12.656 0 019.844-12.317 12.672 12.672 0 015.629-.001 12.958 12.958 0 017.112 4.652 12.939 12.939 0 012.697 8.055V161H248.77v-7.916zm36.517 43.223a11.097 11.097 0 01-11.013 11.097h-25.708c-2.945 0-5.77-1.169-7.852-3.25a11.092 11.092 0 01-3.253-7.847v-32.496h8.421v10.043a4.196 4.196 0 00-2.646 5.105 4.14 4.14 0 002.924 2.941 4.239 4.239 0 003.229-.257 4.226 4.226 0 00-.619-7.789v-10.043h25.282v10.043a4.201 4.201 0 00-2.647 5.105 4.146 4.146 0 002.906 2.904 4.21 4.21 0 005.284-2.728 4.2 4.2 0 00-2.73-5.281v-10.043h8.44v32.496h-.018z" fill="#fff"/><path d="M335.999 140.452c9.098 0 16.473-7.37 16.473-16.461 0-9.091-7.375-16.46-16.473-16.46-9.097 0-16.472 7.369-16.472 16.46 0 9.091 7.375 16.461 16.472 16.461z" fill="#FF9D00"/><path d="M329.244 124.139l6.163 4.495 7.348-9.303" stroke="#fff" stroke-width=".99" stroke-linecap="round" stroke-linejoin="round"/><path d="M188.322 76.995a6.072 6.072 0 01-12.024 1.209 6.068 6.068 0 015.953-7.257 6.072 6.072 0 016.071 6.048z" fill="#DD5213"/><path d="M211.901 76.995a6.06 6.06 0 01-3.735 5.618 6.072 6.072 0 01-8.288-4.409 6.06 6.06 0 012.578-6.233 6.073 6.073 0 017.661.747 6.064 6.064 0 011.784 4.277z" fill="#F5DB4A"/><path d="M235.481 76.995a6.068 6.068 0 01-7.278 5.963 6.07 6.07 0 01-4.757-4.812 6.065 6.065 0 016.057-7.2 6.073 6.073 0 015.978 6.05z" fill="#A1AEEF"/><path d="M102.221 116.223c21.548 0 39.016-17.455 39.016-38.987 0-21.533-17.468-38.988-39.016-38.988-21.547 0-39.015 17.455-39.015 38.988 0 21.532 17.468 38.987 39.015 38.987z" fill="#ED028C"/><path d="M115.492 67.193a8.082 8.082 0 00-5.746-2.31 8.077 8.077 0 00-5.692 2.44l-2.073 2.108-2.036-2.09a8.098 8.098 0 00-13.777 5.82 8.086 8.086 0 002.413 5.702l7.866 7.75a8.11 8.11 0 0011.438-.13l7.736-7.897a8.099 8.099 0 00-.129-11.393z" fill="#fff"/><path d="M691.21 197.306h-37.183a8.978 8.978 0 01-8.977-8.97 8.991 8.991 0 018.977-8.933h37.183a8.997 8.997 0 018.977 8.988 8.978 8.978 0 01-8.977 8.915z" fill="#6473F9"/><path d="M665.058 188.354a2.312 2.312 0 01-2.754 2.289 2.308 2.308 0 01-1.827-1.812 2.312 2.312 0 013.897-2.099 2.31 2.31 0 01.684 1.622zm9.865-.037a2.313 2.313 0 11-4.625.073 2.313 2.313 0 014.625-.073zm9.883-.018a2.295 2.295 0 11-3.57-1.907 2.294 2.294 0 011.275-.386 2.272 2.272 0 012.295 2.293z" fill="#fff"/><path d="M368.241 497.353c7.676 0 13.899-6.219 13.899-13.89s-6.223-13.89-13.899-13.89c-7.677 0-13.9 6.219-13.9 13.89s6.223 13.89 13.9 13.89zm-82.122 0c7.677 0 13.9-6.219 13.9-13.89s-6.223-13.89-13.9-13.89c-7.676 0-13.899 6.219-13.899 13.89s6.223 13.89 13.899 13.89z" fill="#A1AEEF"/><path d="M493.708 257.933l-31.834 6.547a16.996 16.996 0 00-13.511 12.762l-28.225 117.999H261.781a22.22 22.22 0 01-13.188-4.401 22.187 22.187 0 01-7.985-11.375l-15.806-68.95 219.785-17.312" stroke="#000" stroke-width=".97" stroke-miterlimit="10"/><path d="M234.833 354.589l197.724-11.56-23.765 97.544a37.594 37.594 0 01-13.255 20.865 37.645 37.645 0 01-23.354 8.135H256.839m140.367-172.634l-19.063 98.302m-105.942-88.462l10.605 88.462m50.898-93.308v93.308" stroke="#000" stroke-width=".97" stroke-miterlimit="10"/><path d="M659.653 382.091l11.864-19.79 45.253 15.888-10.402 17.644-46.715-13.742z" fill="#E6A57D"/><path d="M708.867 387.399l-.111.167a5.241 5.241 0 01-5.941 2.053 8.925 8.925 0 00-5.257-.648 3.974 3.974 0 00-3.331 4.217c.518 7.01 1.851 24.044-.87 38.525a10.258 10.258 0 002.776 9.248l1.296 1.313 35.425-60.534-19.434-6.455a4.165 4.165 0 00-5.738.277 4.18 4.18 0 00-.259 5.419l1.24 1.535a4.213 4.213 0 01.204 4.883z" fill="#000"/><path d="M732.78 381.684a2.097 2.097 0 011.999.333 3.035 3.035 0 01.777 4.05l-32.13 55.153a4.013 4.013 0 01-4.538 1.818 4.024 4.024 0 01-1.533-.819l35.425-60.535z" fill="#D8DCFD"/><path d="M694.93 402.861s1.092-1.664 5.553-.869m-5.682 5.345s1.092-1.646 5.552-.851m-5.571 5.956s1.092-1.665 5.553-.87" stroke="#fff" stroke-width="1.17" stroke-linecap="round" stroke-linejoin="round"/><path d="M725.043 378.318s-14.14 15.832-11.53 36.306l19.267-32.94a21.808 21.808 0 00-7.737-3.366z" fill="#ED028C"/><path d="M544.55 282.976l23.302 67.525a25.89 25.89 0 0014.326 15.573h.129l96.354 31.571 17.417-38.396-90.932-35.14s-23.561-86.927-32.185-95.583l-28.411 54.45z" fill="#08A4D5"/><path d="M532.89 429.66l23.08.167 9.273 47.033h-20.489l-11.864-47.2z" fill="#E6A57D"/><path d="M553.249 474.659h-.203a5.22 5.22 0 01-4.775-4.069 9.034 9.034 0 00-2.11-4.864 3.965 3.965 0 00-5.331-.703c-5.774 3.995-19.748 13.798-33.666 18.791a10.305 10.305 0 00-6.515 7.065l-.481 1.85 70.183-.222-4.313-20.012a4.136 4.136 0 00-.61-3.026 4.149 4.149 0 00-5.398-1.391 4.163 4.163 0 00-1.932 2.142l-.684 1.85a4.254 4.254 0 01-4.165 2.589z" fill="#000"/><path d="M570.351 492.414a2.15 2.15 0 01.74 1.85 3.068 3.068 0 01-3.109 2.737l-63.854.333a4.051 4.051 0 01-3.96-4.735l70.183-.185z" fill="#D8DCFD"/><path d="M532.89 470.572s1.981.111 3.554 4.328m-7.496-2.164s1.98.111 3.554 4.327m-8.015-1.738s1.981.092 3.554 4.328" stroke="#fff" stroke-width="1.17" stroke-linecap="round" stroke-linejoin="round"/><path d="M569.314 484.055s-20.821-4.162-37.146 8.489l38.183-.13a21.602 21.602 0 00-1.037-8.359z" fill="#ED028C"/><path d="M537.018 248.944l-31.002 86.336a30.967 30.967 0 00-1.48 14.925l24.801 104.59 41.662-5.363-19.656-102.463s42.569-72.779 40.885-102.019l-55.21 3.994z" fill="#4ACCF3"/><path d="M510.032 134.108l11.087 23.027 16.935-13.705-16.546-26.245-11.476 16.923z" fill="#E6A57D"/><path d="M514.511 143.43l4.313-13.483-8.477 4.92 4.164 8.563z" fill="#000"/><path d="M500.334 86.594s-10.846 2.608-10.457 16.424c0 0 0 5.271.74 19.679.352 7.62 5.793 17.126 15.344 15.869 4.645-.611 9.42-3.57 13.677-7.399l5.923-6.399c13.603-17.607-1.851-43.112-23.654-38.562-.518.13-1.036.259-1.573.388z" fill="#E6A57D"/><path d="M491.358 113.468l-3.943 7.879a1.062 1.062 0 00-.128 1.086 1.052 1.052 0 00.906.615l5.016.462-1.851-10.042z" fill="#E6A57D"/><path d="M495.004 109.251s4.849 1.146 5.071 4.032c.259 3.699-4.238 2.959-4.238 2.959s-4.239-3.422-.833-6.991z" fill="#fff"/><path d="M495.707 108.289s2.98 5.179-.555 8.785l-2.036-.129-.278-5.808 2.869-2.848z" fill="#000"/><path d="M494.171 108.363a9.669 9.669 0 011.999.592 8.479 8.479 0 011.851.98 5.666 5.666 0 012.295 3.292.239.239 0 01-.167.259.208.208 0 01-.15-.025.21.21 0 01-.091-.123 5.043 5.043 0 00-2.369-2.663 8.398 8.398 0 00-1.684-.666 9.964 9.964 0 00-1.758-.296.693.693 0 01-.474-.226.687.687 0 01-.108-.752.651.651 0 01.162-.21.657.657 0 01.494-.162z" fill="#000"/><path d="M492.32 126.396h4.738s-3.128 4.642-4.738 0z" fill="#fff"/><path d="M504.517 105.903a1.843 1.843 0 01-1.499 0 47.597 47.597 0 00-6.589-2.33c-5.293-1.517-2.795-4.79 0-4.384a15.197 15.197 0 018.347 4.846c.777 1.054.315 1.609-.259 1.868z" fill="#000"/><path d="M521.063 115.521s-3.183 9.136 7.811 13.778c0 0 24.486-33.55-11.475-44.887L515.4 87.87l5.663 27.651z" fill="#763213"/><path d="M531.928 89.701c0 1.591-1.685 13.576-1.685 13.576l-13.307 11.393s-7.57-10.709-4.812-21.454c0 .055 19.989-9.47 19.804-3.515z" fill="#763213"/><path d="M528.004 112.82a6.58 6.58 0 01-3.14 6.63 6.59 6.59 0 01-9.595-3.48 6.573 6.573 0 011.846-7.099 6.588 6.588 0 013.486-1.599 6.57 6.57 0 017.403 5.548z" fill="#E6A57D"/><path d="M515.067 79.862s21.136-1.017 25.911 9.395c7.126 15.481-2.091 26.43-12.123 40.042l1.37-26.022-15.158-23.415z" fill="#763213"/><path d="M514.141 96.49s-6.626-5.18-13.807-3.7c-7.181 1.48-15.195 2.238-15.88-6.177-.87-10.709 32.871-23.508 54.544-.167l-17.065 8.97-7.792 1.073z" fill="#763213"/><path d="M412.272 153.898c9.106 4.994 16.75 4.587 20.266-2.423a14.193 14.193 0 00.763-10.827 14.203 14.203 0 00-7.111-8.204c-7.015-3.496-13.048-1.961-17.583 4.42-3.572 5.012-4.109 12.78 3.665 17.034z" fill="#E6A57D"/><path d="M413.66 132.592s1.147-4.643 9.254-3.699c7.403.961 15.029 9.247 9.661 22.49l-18.915-18.791z" fill="#E6A57D"/><path d="M414.696 136.198l-14.158-9.525a2.716 2.716 0 01-1.037-3.606 2.332 2.332 0 012.998-1.036l16.843 7.398-4.646 6.769zm71.387 28.279l-56.358-19.29-7.255 10.172 53.193 31.442c7.607 4.402 15.491-.962 18.064-9.377 1.925-6.492-1.407-10.08-7.644-12.947z" fill="#E6A57D"/><path d="M534.667 152.788l-57.894 13.206c-7.551 3.163-11.919 4.013-9.254 11.763a15.562 15.562 0 007.826 8.951 15.58 15.58 0 0011.867.814l56.228-8.471c7.792-2.607 13.104-8.156 12.123-16.294-1.407-11.356-10.309-14.389-20.896-9.969z" fill="#E6A57D"/><path d="M502.333 160.168l10.494 31.331 34.648-5.031-2.48-36.694-42.662 10.394z" fill="#9D1565"/><path d="M520.175 154.897l10.92 109.731c45.475 8.046 64.779-12.946 64.779-12.946s-12.567-37.508-21.932-64.104c-9.828-27.965-24.413-38.285-35.944-44.111l-17.823 11.43z" fill="#ED028C"/><path d="M538.054 143.43s-8.514 17.681-16.917 20.825l-1.055-9.617 11.439-8.064 6.533-3.144zm12.993 76.884L495.3 241.269l-.056 12.91 65.279-12.17-9.476-21.695z" fill="#E6A57D"/><path d="M474.145 253.901c2.85-7.99 11.734-10.117 11.734-10.117l12.049-3.458 5.553 5.715-3.98 3.791c1.129 5.345-.499 14.112-6.792 17.589-7.348 4.014-21.396-5.53-18.564-13.52zm59.393-68.95l12.53 49.197c1.388 5.438 8.903 8.878 14.437 7.824a10.64 10.64 0 008.458-12.429l-9.439-49.53-25.986 4.938z" fill="#E6A57D"/><path d="M542.866 150.698a11.116 11.116 0 00-9.161 3.496 21.04 21.04 0 00-5.553 18.403 176.392 176.392 0 008.014 31.7l29.077-4.679s-3.036-46.645-22.377-48.92z" fill="#ED028C"/><path d="M538.48 203.779s-4.979-18.143-6.108-28.075" stroke="#000" stroke-width=".41" stroke-linecap="round" stroke-linejoin="round"/><path d="M0 497.316h729.429" stroke="#252161" stroke-width=".74" stroke-miterlimit="10"/></g><defs><clipPath id="clip0"><path fill="#fff" d="M0 0h736v498H0z"/></clipPath></defs></svg>