<svg width="82" height="78" fill="none" xmlns="http://www.w3.org/2000/svg"><circle cx="45.5" cy="40.5" r="36.5" fill="#6473F9"/><g clip-path="url(#clip0)"><path d="M26.608 45.977c4.543-1.136 7.788-6.49 10.871-11.682l.487-.811-1.46-.811-.487.811c-2.92 4.867-6.003 10.06-9.897 11.033l.486 1.46z" fill="#415A6B"/><path d="M23.04 46.95c.486 1.136 1.946 1.785 3.082 1.136 1.136-.486 2.596-2.27 2.11-3.407-.488-1.136-2.76-1.298-3.895-.81-1.136.486-1.947 1.946-1.298 3.082z" fill="#415A6B"/><path d="M38.615 77.94l3.082-14.603 21.255-10.546s1.947 0 6.003 6.977c3.57 6.003 5.516 15.413 6.003 18.171H38.615z" fill="#55C0EB"/><path d="M30.34 9.633s-3.894 9.735-2.92 15.09c0 0 .649 2.433.162 3.893s-3.407 6.815-3.407 6.815-.325 1.46.649 1.946c.973.487 2.271.325 2.758.65.487.324.973.81.649 1.622-.324.811.162 2.11 1.298 1.46 0 0-1.136.974-.325 2.272 0 0 2.272 2.109 1.947 4.705-.324 2.596 1.785 4.218 3.732 3.894.811 0 2.596-.325 4.056-.487 1.298-.162 2.758.487 3.245 1.785l3.894 9.41 17.036-11.033c0-.162-1.623-6.165-1.623-6.165l-3.244-33.91L30.34 9.633z" fill="#FFD15C"/><path d="M64.899 50.195c-.487-1.136-1.785-1.623-2.758-1.298-3.57 1.298-10.871 4.218-14.765 7.301-5.192 4.056-6.328 6.815-6.328 6.815l2.596 7.138s6.977-4.056 13.953-6.814c6.977-2.758 10.06-3.083 10.06-3.083s-.65-2.109-.811-4.543c-.487-1.622-1.299-3.893-1.947-5.516z" fill="#8AD7F8"/><path d="M30.34 9.633s9.086 6.977 10.87 10.384c1.785 3.407 2.759 3.57 3.732 8.762l.974 5.191 4.705-.648-.325-6.815s5.03 2.596 6.977 9.086c5.03 17.036 4.218 9.897 4.218 9.897s-.324-2.596 1.136-4.543c.811-.974 2.272-.811 2.758.487.163.324.325.81.325 1.46l3.731-1.46s-1.297-2.92 0-6.49c1.298-3.57 3.732-12.006 1.46-19.957-2.27-7.95-7.3-15.413-18.009-14.764-10.708.649-21.416 5.354-22.552 9.41z" fill="#F3705A"/><path d="M48.742 29.828c.672-3.612 3.002-6.209 5.204-5.8 2.203.41 3.444 3.67 2.772 7.283-.671 3.612-3.001 6.209-5.204 5.8-2.203-.41-3.444-3.67-2.772-7.283z" fill="#FFD15C"/><path d="M32.611 7.2c-2.27 1.622-3.731 4.218-3.893 6.976.486-2.758 2.271-5.354 4.867-6.49 2.271-.973 4.867-.973 7.301-.973" fill="#F3705A"/><path d="M30.34 9.958s.162 0 .325.162c.162.163.486.163.649.325.162.162.324.162.486.324.163.162.325.162.487.325.162.162.487.324.65.324.161.162.486.325.648.487.487.324.974.649 1.46 1.136l1.46 1.46c.487.487.974 1.136 1.46 1.622.488.65.974 1.298 1.299 1.947.486.65.81 1.298 1.136 2.11.324.649.649 1.46.81 2.109.163.649.487 1.298.65 1.947.162.649.324 1.298.324 1.784 0 .325.163.65.163.812 0 .324 0 .486.162.81v-.972c0-.325 0-.487-.163-.812 0-.649-.162-1.298-.324-1.947s-.324-1.298-.487-2.11c-.162-.648-.486-1.46-.81-2.108-.325-.65-.65-1.46-.974-2.11-.325-.649-.811-1.297-1.298-1.947-.487-.649-.974-1.297-1.46-1.784-.487-.487-.974-1.136-1.46-1.623-.488-.486-.974-.973-1.46-1.298-.163-.162-.488-.324-.65-.486-.162-.163-.487-.325-.649-.487-.162.162-.324 0-.487-.162-.162-.163-.324-.163-.486-.325a2.242 2.242 0 01-.65-.487h-.324l-.487.974z" fill="#F3705A"/><path d="M32.774 11.256s.162.162.486.324c.163 0 .163.162.325.162s.162.163.324.325l.325.324c.162.162.325.163.325.325.162.162.324.162.324.324l.487.487.162.162.162.163.487.486c.324.325.487.65.811 1.136.325.325.487.811.811 1.136.163.487.487.811.65 1.298.162.487.324.811.486 1.298.162.162.162.486.162.649 0 .162 0 .162.163.324 0 .163 0 .163.162.325 0 .162.162.324.162.649 0 .162.163.324.163.487 0 .162.162.324.162.486v-.162c0-.162 0-.324-.162-.487 0-.162 0-.324-.163-.486 0-.163-.162-.325-.162-.65v-.324c0-.162 0-.162-.162-.325 0-.162-.163-.486-.163-.648-.162-.487-.324-.812-.486-1.298-.163-.487-.325-.812-.65-1.298-.162-.487-.486-.812-.648-1.298-.325-.487-.487-.811-.812-1.136l-.486-.487c0-.162-.163-.162-.163-.324s-.162-.162-.162-.162c.162 0 0-.163-.162-.325s-.325-.324-.325-.487l-.324-.324c-.162-.162-.325-.162-.325-.325-.324-.162-.324-.162-.486-.324-.163-.162-.163-.162-.325-.162l-.486-.487-.487.649zM65.06 38.838c1.299 3.083.812 6.652 0 9.897-.81 3.245-1.622 6.652-.648 9.897.649 2.272 1.947 4.056 3.57 5.84 1.46 1.786 3.082 3.408 4.218 5.517 1.135 1.947 1.622 4.543.973 6.652 2.11-.162 3.732-2.109 4.38-4.056.65-1.947.488-4.218.163-6.327-.973-6.977-2.596-13.791-5.192-20.443-.486-1.298-.973-2.596-1.784-3.57-.811-1.136-1.947-2.11-3.245-2.434" fill="#F3705A"/><path d="M65.385 41.271c1.46-.162 2.758-.811 3.732-1.947 1.136.811 1.785 1.785 1.623 3.245-1.623 0-3.245.487-5.03 1.46-.487-.81-.811-1.784-.325-2.758z" fill="#415A6B"/><path d="M38.94 51.493S49.16 46.95 56.3 37.54c0 .162-2.92 7.626-13.791 16.712l-.325-.974c-.649-1.298-1.947-1.947-3.245-1.785z" fill="#F7B64C"/><path d="M48.025 26.67a6.163 6.163 0 016.165 6.165A6.163 6.163 0 0148.025 39a6.163 6.163 0 01-6.165-6.165c-.163-3.407 2.596-6.166 6.165-6.166zm0 11.519c2.92 0 5.354-2.434 5.354-5.354s-2.434-5.354-5.354-5.354-5.354 2.433-5.354 5.354c0 2.92 2.271 5.354 5.354 5.354z" fill="#415A6B"/><path d="M48.025 25.534c4.056 0 7.463 3.245 7.463 7.463 0 4.056-3.245 7.463-7.463 7.463-4.056 0-7.463-3.245-7.463-7.463 0-4.219 3.245-7.463 7.463-7.463zm0 12.655c2.92 0 5.354-2.434 5.354-5.354s-2.434-5.354-5.354-5.354-5.354 2.433-5.354 5.354c0 2.92 2.271 5.354 5.354 5.354z" fill="#344A5E"/><path d="M48.025 38.189a5.354 5.354 0 110-10.708 5.354 5.354 0 010 10.708z" fill="#F3F3F3"/><path d="M43.806 36.242v-3.57c0-2.109 1.785-3.893 3.894-3.893 2.11 0 3.894 1.784 3.894 3.894v4.056c.974-.974 1.623-2.272 1.623-3.732 0-2.92-2.434-5.354-5.354-5.354s-5.354 2.434-5.354 5.354c.162 1.136.648 2.434 1.297 3.245z" fill="#CED6E0"/><path d="M44.942 34.457c.974 1.623 2.92 2.11 4.543 1.136 1.136-.649 1.623-1.785 1.623-2.92 0-.974 0-1.947.162-2.92.162-1.299.324-2.759.487-3.733.162-1.946 1.784-9.41 2.109-10.87.324-1.298 2.11-9.41 2.434-11.52.324-2.109.162-3.407.162-3.407S55.65.061 53.866.061c-1.623 0-1.623.324-1.623.324.65.163 1.136 1.136 1.46 3.57.163 2.434-.973 6.814-.973 6.814s-2.433 7.14-3.083 9.897c-.486 1.785-2.271 5.841-3.407 8.437-.324.65-.649 1.298-1.136 1.947-.648.973-.81 2.272-.162 3.407z" fill="#415A6B"/><path d="M0 9.796v12.98c0 1.135.811 1.946 1.947 1.946H12.98l9.248 6.815-3.57-6.815h2.11c1.135 0 1.947-.811 1.947-1.947V9.795c0-1.135-.812-1.946-1.948-1.946H1.947C.811 7.849 0 8.822 0 9.796z" fill="#66C6B9"/><path d="M3.245 11.418h16.387v1.785H3.245V11.42zm0 4.057h16.387v1.784H3.245v-1.784zm4.867 4.055h11.52v1.785H8.112v-1.784z" fill="#fff"/></g><defs><clipPath id="clip0"><path fill="#fff" transform="matrix(-1 0 0 1 78 0)" d="M0 0h78v78H0z"/></clipPath></defs></svg>