<svg width="78" height="78" fill="none" xmlns="http://www.w3.org/2000/svg"><circle cx="36.5" cy="40.5" r="36.5" fill="#6473F9"/><g clip-path="url(#clip0)"><path d="M54.428 70.37H47.61v4.708h6.818V70.37z" fill="#F7B64C"/><path d="M14.654 78c-1.299-5.682-4.708-18.994-6.818-25.813.324-10.227-2.11-15.26-6.17-16.072 0 0-1.46-.162-1.623 5.358C-.119 46.505 1.504 69.07 3.453 78h11.201z" fill="#415A6B"/><path d="M9.297 61.279c.324 1.623-.163 11.201-.65 15.26 0 .162 0 .812-.162 1.461h40.099l-.163-9.74 3.897-13.962-1.786-14.61c-.487-3.572-3.084-6.495-6.494-7.306-3.084-.812-6.331-1.624-7.143-1.948h-.162L19.849 43.259l-3.41-12.014-4.058-.649-10.714 5.52C2.965 37.414 7.51 50.402 7.51 50.402s1.461 9.253 1.786 10.877z" fill="#344A5E"/><path d="M26.018 31.732l.325-.162 4.708-2.435.811-.974 3.085 3.896s-2.76 20.13-4.708 25.163l-1.948 5.033s-3.572-7.955-5.357-10.066c-1.786-2.11-8.28-10.552-7.63-15.584.649-5.033 2.922-6.007 2.922-6.007" fill="#CED6E0"/><path d="M16.927 32.22h13.312l.65-6.495s.486-.324 1.46-2.597c.812-2.273.65-6.007.65-6.007s4.546-8.929-2.273-11.364C23.746 3.159 17.901 9.49 17.901 9.49v10.552s.163 2.273.487 3.247l-1.461 8.93z" fill="#FFD15C"/><path d="M24.882 33.68l.324 1.624s1.461 2.922 1.786 4.545c.325 1.624 3.085 15.098 3.085 15.098l-1.949 7.468-2.435-6.818s-1.785-11.689-2.11-13.637c-.325-1.948-.812-3.896-.487-4.708.325-.812.487-1.948.487-1.948l.325-1.624h.974z" fill="#F3705A"/><path d="M22.934 31.57l1.298.162h1.624l1.298 1.299s-1.785 1.136-1.948 2.273c0-.325-1.623-.325-1.623 0 0 0-1.299-1.299-1.948-1.624-.487-.162 1.299-2.11 1.299-2.11z" fill="#F05540"/><path d="M18.37 16.321c-.221-1.87-.978-3.316-1.69-3.232-.713.085-1.11 1.669-.888 3.539.222 1.87.979 3.316 1.691 3.232.712-.085 1.11-1.67.888-3.539zm13.183.867c-.222 1.87.175 3.454.887 3.539.713.084 1.47-1.363 1.692-3.232.222-1.87-.175-3.454-.888-3.539-.712-.084-1.47 1.363-1.691 3.232z" fill="#FFD15C"/><path d="M17.901 20.043h.812s-.325-2.922.324-4.545c.65-1.624 1.461-2.598 1.137-4.221-.325-1.624 0-2.11.65-2.273 0 0 2.11.974 4.382 0 2.273-.974 2.76-2.11 3.897-1.948 1.136.162 3.246.65 3.571 1.461.325.812.487 2.435.325 4.059-.325 1.785.162 6.493.162 6.493l.325-.162s.162-2.11.65-3.41c2.435-3.084 2.597-11.363-.65-9.577 0 0-.65-4.87-7.792-5.845-7.144-.974-9.903 7.793-9.741 10.065 0 2.273 1.786 4.708 1.786 5.52-.325.812.162 4.383.162 4.383zM31.05 26.05s1.3 3.247 1.624 5.52c.325 2.273.163 9.74-.487 12.176-.65 2.435-3.084 13.474-3.571 16.234-.65 2.76-1.462 7.306-1.462 9.903 0 0 .65-6.818 2.111-9.74 1.461-2.923 6.819-13.313 8.929-17.696 2.11-4.383 3.084-8.117 3.084-8.117l-2.597-1.623.812-.65s-1.137-1.623-2.598-2.11c-1.461-.488-1.948-.812-2.597-1.786a3.463 3.463 0 00-3.247-2.11z" fill="#415A6B"/><path d="M30.888 25.888s-.162 1.137-1.136 2.598c-.974 1.46-3.896 3.409-3.896 3.409l3.246 5.844s1.137-2.272 2.273-3.896c1.137-1.623.812-3.896.65-5.033-.325-1.46-1.137-2.922-1.137-2.922zm-6.656 5.844s-.65.163-1.623 1.948c-.812 1.624-1.786 5.033-1.786 5.033s-3.572-6.331-4.546-7.468c-.811-1.136-.649-2.597-.649-2.597s.974-.325 1.299-1.948c.487-1.462 1.136-2.598 1.136-2.598s0 2.598 1.299 4.22c1.299 1.625 4.87 3.41 4.87 3.41z" fill="#F3F3F3"/><path d="M27.966 63.551c0-.162 0-.162 0 0 0-.162.163-.324.163-.487v-.162c-.163-1.786-.325-3.572-.812-4.708-1.299-2.76-4.546-10.715-6.169-15.26-1.623-4.383-3.896-16.884-3.896-16.884-.65-.162-2.273 1.786-3.085 2.922-.811 1.137-1.623 1.137-2.11 2.11-.487.812-1.137 2.436-1.137 2.436l1.462.65-2.598 1.46c2.11 4.87 13.312 18.183 15.91 22.404 1.136 1.948 1.785 4.22 2.11 6.007.162-.163.162-.325.162-.488z" fill="#415A6B"/><path d="M21.635 71.669c0 .65.487 1.299 1.136 1.46l14.449 3.085 3.41-5.195-18.995.65z" fill="#CED6E0"/><path d="M36.733 75.24l-15.098-3.57 23.864-6.332 5.52 5.195-14.286 4.708z" fill="#ADB3BA"/><path d="M37.707 76.376l29.709-8.117c.324 0 .487-.324.487-.649l3.084-22.566c0-.487-.324-.974-.811-.811l-30.52 6.656c-.325 0-.488.324-.488.649l-2.273 24.027c-.162.487.325.974.812.811z" fill="#E8EAE9"/><path d="M41.928 75.078l5.195-1.461s0-2.435.162-3.085c.163-.65.812-.811 1.137-.811.324 0 .811.486.811.811.163.325 0 2.11-.162 2.435 0 .325.162 1.137.162 1.137s.325-1.461.487-2.922c.163-1.462-.162-3.247-.162-3.734 0-.487.487-1.299 1.136-1.299.65 0 .974.325 1.137 1.136.162.812.162 1.624.325 2.436 0 .811.324 2.922.324 3.084 0 .163.325-.324.163-1.46-.163-1.137.162-1.949 0-3.248-.163-1.136-.325-2.272.487-2.597.811-.163 1.298.324 1.46.974.163.65.325 2.76.325 3.084 0 .487.163.812.163 1.461.324.487.162.487.162.487l2.273-.649.487.162s.65-1.948 1.948-1.623l.162 1.136s.163.65.487.975c.325.324.163 1.136-.324 1.298-.487.163-.65.163-1.137.325s-.487.162-.974.487c-.487.325-1.46.162-1.46.162s-.975.812-1.462 1.137c-.487.325-1.461.811-1.786.811 0 0-1.136.812-1.948.974-.811.163-1.623.163-2.435-.324-.974-.487-.974-.65-1.461-1.137-.487-.487-.812-.487-1.299-.487-.487 0-3.084.65-4.383.325z" fill="#FFD15C"/><path d="M58 71.02l-.487-.163-2.273.65v1.298c0 .65.163.812.163.812v-.974s.486.162.649.487l.162.324s0-.324-.324-.65c0 0 .811.488 1.136.65 0 0-.65-.487-.974-.811 0 0 0-.325.487-.163.65.325 1.137.487 1.461.487 0 0-.487-.324-.65-.974 0-.487.65-.974.65-.974z" fill="#F7B64C"/><path d="M14.654 78c-1.299-5.52-4.708-19.157-6.818-25.813v-.162H.53c.65 8.28 1.624 20.13 2.922 25.813h11.202V78z" fill="#415A6B"/><path d="M77.968 25.401v11.202c0 1.623-1.299 2.922-3.085 2.922H65.63l-10.39 6.494v-6.494h-1.3c-1.623 0-3.084-1.299-3.084-2.922V25.4c0-1.623 1.298-3.085 3.084-3.085h20.78c1.948.163 3.247 1.462 3.247 3.085z" fill="#F3705A"/><path d="M64.494 4.62v12.014c0 1.624-1.3 2.922-3.085 2.922h-9.74L40.79 26.537v-6.98h-.162c-1.623 0-3.085-1.3-3.085-2.923V4.621c.163-1.624 1.462-2.922 3.085-2.922h20.78c1.786 0 3.085 1.298 3.085 2.922z" fill="#66C6B9"/><path d="M74.072 27.024H54.915v2.436h19.157v-2.436zm-7.792 5.52H54.914v2.435H66.28v-2.435zM60.76 6.731H41.603v2.436H60.76V6.73zm0 5.52H41.603v2.435H60.76v-2.435z" fill="#fff"/></g><defs><clipPath id="clip0"><path fill="#fff" d="M0 0h78v78H0z"/></clipPath></defs></svg>