<svg width="91" height="87" fill="none" xmlns="http://www.w3.org/2000/svg"><circle cx="54.5" cy="50.5" r="36.5" fill="#6473F9"/><g clip-path="url(#clip0)"><path d="M28.644 36.474l2.354 19.92-28.613 1.993L.03 38.647c-.182-.905.543-1.811 1.448-1.811l25.354-1.811c.905-.181 1.63.543 1.81 1.449z" fill="#415A6B"/><path d="M3.834 56.575L1.842 38.647l24.991-1.992 2.173 17.928-25.172 1.992z" fill="#55C0EB"/><path d="M22.668 49.513c-.181-1.63.905-3.079 2.535-3.26 1.63-.181 3.079 1.087 3.26 2.717.18 1.63-.906 3.078-2.536 3.26-1.63.18-3.078-.906-3.26-2.717z" fill="#E8EAE9"/><path d="M15.967 54.04l6.157-2.716 6.158-2.173.724 5.433-25.172 1.992-.544-5.614 7.788 1.449 4.89 1.63z" fill="#E8EAE9"/><path d="M19.59 50.78c-.182-1.267.724-2.354 1.991-2.535 1.268-.18 2.355.906 2.535 2.174.182 1.267-.724 2.354-1.992 2.535-1.267 0-2.354-.906-2.535-2.173z" fill="#E8EAE9"/><path d="M17.96 52.229c-.182-.905.543-1.811 1.448-1.811.905 0 1.811.724 1.811 1.63.181.905-.543 1.81-1.449 1.81-.905 0-1.63-.724-1.81-1.629z" fill="#E8EAE9"/><path d="M16.692 53.86c-.182-.906.543-1.63 1.267-1.63.906 0 1.63.543 1.63 1.448 0 .906-.543 1.63-1.268 1.63-.724.181-1.448-.543-1.63-1.449z" fill="#E8EAE9"/><path d="M24.84 52.23h-1.086s-.181 0-.181-.181c-.181 0-.181-.182-.362-.182l-.362-.362c-.182-.18-.182-.18-.182-.362 0-.18-.18-.362-.18-.362 0-.181 0-.362-.182-.362v-1.63 1.629c0 .182 0 .182.181.363 0 .181.181.181.181.362s.181.181.181.362.182.181.182.362l.18.181.182.182.181.18.181.182.181.181h.182c.362-.725.362-.725.724-.543-.181 0 0 0 0 0zm-3.078.543s-.18 0 0 0h-.905c-.182 0-.182-.181-.363-.181-.18 0-.18-.181-.362-.181-.18 0-.18-.181-.18-.181 0-.182-.182-.182-.182-.363 0-.18-.181-.18-.181-.362 0-.18 0-.18-.181-.362v-.906.906s0 .181.18.181l.182.181.181.181.181.182.181.18.181.182h.362s.182 0 .182.181c.543.362.543.362.724.362-.18 0 0 0 0 0z" fill="#CED6E0"/><path d="M8.904 50.6c-.18-1.63-1.63-2.898-3.26-2.717-1.63.181-2.716 1.63-2.535 3.26.182 1.63 1.63 2.897 3.26 2.716 1.63-.181 2.716-1.63 2.535-3.26z" fill="#E8EAE9"/><path d="M12.164 51.324c-.18-1.268-1.267-2.355-2.535-2.173-1.268 0-1.992 1.267-1.992 2.535.181 1.268 1.268 2.173 2.535 2.173 1.268-.181 1.992-1.268 1.992-2.535z" fill="#E8EAE9"/><path d="M13.975 52.591c-.181-.905-.905-1.63-1.81-1.63-.906 0-1.63.906-1.45 1.812.181.905.906 1.63 1.811 1.63.906 0 1.63-.906 1.45-1.812z" fill="#E8EAE9"/><path d="M15.786 54.04c-.181-.905-.905-1.63-1.63-1.448-.724.181-1.63.724-1.449 1.63.182.905.906 1.63 1.63 1.448.906 0 1.45-.724 1.45-1.63z" fill="#E8EAE9"/><path d="M7.456 53.497l.18-.18.182-.182.181-.181.181-.181s0-.181.181-.181c0 0 0-.182.181-.182 0-.18.182-.18.182-.362 0-.181.18-.181.18-.362v-2.354l.182.18v2.175c0 .181-.181.362-.181.362 0 .181-.181.181-.181.362s-.182.182-.182.363l-.18.18s-.182 0-.182.182h-.723v.362zm3.078.181c.181 0 .181-.18.181-.18s.182 0 .182-.182h.362l.181-.181.181-.181.181-.181c0-.182 0-.182.181-.363 0-.18 0-.18.182-.362v-1.267 1.629c0 .181 0 .182-.181.363 0 .18-.182.18-.182.362 0 .18-.18.18-.18.18l-.182.182h-.724c0 .181 0 .181-.182.181z" fill="#CED6E0"/><path d="M15.967 39.372l-2.897.18 1.63 14.489 3.078-.182-1.81-14.487z" fill="#E8EAE9"/><path d="M15.243 39.553h-1.449l1.81 14.488 1.269-.181-1.63-14.307z" fill="#CED6E0"/><path d="M9.81 42.45v.362l.181.181c.362.182.362.725.362 1.087 0 .181-.181.181-.181.362s-.181.362-.181.544c0 .18 0 .362.181.543-.181 0-.181 0-.362-.181s-.181-.181-.181-.362v-.906c-.181.181-.181.543-.181.906v.362c0 .18.18.18.18.362.182.362.182.724 0 1.086 0 .181-.18.181-.18.362s-.182.182-.182.363c-.18-.363-.362-.725-.362-1.087v-.905c0-.363-.18-.544-.362-.725-.181-.181-.181-.543-.181-.724-.181.362-.181.905.181 1.267-.181 0-.543-.18-.724-.362 0-.18-.181-.18-.181-.362 0-.362-.182-.724 0-1.086 0-.181.18-.362.362-.544.724-.362.905-.724 1.086-1.267l.544.543m11.591-.543v.362l.18.18c.362.182.362.725.362 1.087 0 .182-.18.182-.18.363 0 .18-.182.362-.182.543 0 .181 0 .362.181.543-.181 0-.181 0-.362-.181 0-.181-.181-.181-.181-.362v-.906c-.181.182-.181.544-.181.906v.362c0 .181.18.181.18.362a1.15 1.15 0 010 1.087c0 .18-.18.18-.18.362 0 .18-.181.181-.181.362-.182-.362-.362-.724-.362-1.087v-.905c0-.362-.182-.543-.363-.724-.18-.182-.18-.544-.18-.725-.182.362-.182.906.18 1.268-.18 0-.543-.181-.724-.362 0-.181-.181-.181-.181-.362 0-.363-.181-.725 0-1.087 0-.181.18-.362.362-.543.362-.362.543-.725.543-1.268l.543.543" fill="#FFD15C"/><path d="M12.889 34.481l-4.166 4.166.181 2.173 4.709-.362-.724-5.977z" fill="#ADB3BA"/><path d="M7.455 40.458l.363 2.535 2.716-.18-.362-2.536c-.181-1.268-.725-2.535-1.811-3.441-.724.906-1.087 2.173-.906 3.622z" fill="#E8EAE9"/><path d="M7.637 42.088l.18.905 2.717-.18v-.906l-2.897.18z" fill="#F3705A"/><path d="M15.062 34.3l5.07 3.441.182 2.173-4.528.362-.724-5.976z" fill="#ADB3BA"/><path d="M21.581 39.371l.362 2.536-2.716.18-.362-2.534c-.181-1.268.18-2.536.905-3.622 1.087.905 1.811 2.173 1.811 3.44z" fill="#E8EAE9"/><path d="M21.943 41.182v.725l-2.716.18-.181-.724 2.897-.18z" fill="#F3705A"/><path d="M10.353 29.773v2.173l1.087 9.236 6.52-.543-1.087-9.236c0-.724-.181-1.449-.363-2.173l-6.157.543z" fill="#E8EAE9"/><path d="M18.865 41.907l-.906-1.268-6.52.543-.543 1.268 7.969-.543z" fill="#F3705A"/><path d="M10.353 28.867c0 .363 0 .725-.181 1.268l6.338-.543c-.18-.362-.18-.724-.362-1.268l-5.795.543z" fill="#415A6B"/><path d="M16.33 28.687c-.725-1.992-1.993-3.984-3.622-5.433-1.268 1.63-2.174 3.622-2.355 5.795l5.976-.362z" fill="#F3705A"/><path d="M15.967 33.214c.181 1.268-.724 2.354-1.81 2.354-1.087 0-2.174-.905-2.355-1.992-.181-1.086.724-2.354 1.81-2.354 1.088-.181 2.174.724 2.355 1.992z" fill="#415A6B"/><path d="M15.243 33.214c.18.905-.543 1.63-1.268 1.63-.905 0-1.63-.544-1.63-1.449-.181-.905.543-1.63 1.268-1.63.905 0 1.63.543 1.63 1.449z" fill="#55C0EB"/><path d="M17.054 54.04c0 .544-.362.906-.725 1.087-.362.18-.905-.362-1.086-.906 0-.543.362-.905.724-1.086.724 0 1.087.362 1.087.905z" fill="#E8EAE9"/><path d="M33.172 70.882l-4.89.181s-.906-1.992-1.449-2.535c-.543-.544 0-7.244.905-7.968 1.45.724 2.536 1.63 3.26 3.26l2.174 7.062z" fill="#344A5E"/><path d="M29.73 62.37l-3.984-1.81-12.676.543s3.802 1.086 5.613 1.81c1.63.725 4.528 1.45 6.158 2.355 1.449.906 4.165 2.173 4.89 2.355V62.37z" fill="#FFD15C"/><path d="M27.738 67.804s2.536-4.166-.543-6.701l6.339 1.268-1.087 7.425-4.709-1.992z" fill="#F3F3F3"/><path d="M27.557 60.74s2.355 1.087 1.992 5.977c-.362 4.89-1.448 4.527-1.448 4.527s0 .182 1.81.363c1.993.18 3.26.362 4.71.724 1.267.362 9.96.906 9.96.906l3.26-11.228s-3.804.905-5.252.905c-1.45 0-6.52-.362-8.512-.725-1.992-.362-5.795-1.448-6.52-1.448z" fill="#415A6B"/><path d="M70.84 18.907s.362 5.071 1.086 7.063l.725 1.992-13.764 9.78-.543-9.599s-3.26 0-4.709-4.165c-1.448-4.165-2.354-5.795-1.991-7.968 0 0 0-.725-.182-1.087-.18-.362-.543-4.165.544-6.881 0 0 .18-2.717 1.267-4.347 1.087-1.63 12.134-1.267 14.67 0 2.535 1.268 3.259 12.677 2.897 15.212z" fill="#FFD15C"/><path d="M51.825 8.041s.543-2.716 1.63-2.354c1.086.362 2.354.362 3.621-.181 1.268-.543 7.788-.725 7.788 1.992 0 2.716 1.81 7.425 1.63 8.874h.724s0-2.536.724-3.622c.725-1.087 2.717 1.63 3.079 6.157 0 0 .724-4.89 1.087-6.338.362-1.449 1.267-7.968-3.441-10.685-4.89-2.716-12.677-2.354-15.575.181-2.535 2.354-1.267 5.976-1.267 5.976z" fill="#415A6B"/><path d="M69.029 18.364c1 0 1.81-1.54 1.81-3.44 0-1.901-.81-3.442-1.81-3.442s-1.811 1.541-1.811 3.441.81 3.441 1.81 3.441z" fill="#FFD15C"/><path d="M67.761 20.175c-2.716 4.527-5.795 7.606-9.598 7.968l.362 6.157c8.15-5.432 9.236-14.125 9.236-14.125z" fill="#F7B64C"/><path d="M60.336 31.946l5.07.363-2.535 10.684L48.927 58.93l5.07-20.826 6.339-6.158z" fill="#CED6E0"/><path d="M57.982 34.844l.724.543s-1.086 6.882-1.81 8.874c-.544 1.992-6.702 9.055-6.702 9.055s2.717-13.401 6.158-18.29c.543-.725 1.63-.182 1.63-.182z" fill="#F3705A"/><path d="M58.525 31.946c.181-.18 1.087-.18 1.811 0 .724.363.905 0 .905 0l1.268.725s-1.81 2.354-3.622 2.535c0 0-1.63-.362-2.354-.362l1.992-2.898z" fill="#F05540"/><path d="M60.336 31.946l3.984 5.07 9.417-7.605-1.81-4.347c0-.18-.363-.18-.363-.18-.724.543-2.716 1.81-4.89 2.716-2.716 1.086-6.338 4.346-6.338 4.346z" fill="#F3F3F3"/><path d="M47.297 65.268s2.898-13.944 5.07-20.283c2.174-6.338 6.158-13.039 6.158-13.039s-2.173 1.811-4.527 4.89c-2.355 3.078-4.89 10.141-5.977 13.22-.905 2.898-2.716 12.496-.724 15.212z" fill="#415A6B"/><path d="M74.28 29.592l.544.362s7.244 4.528 9.779 9.236c2.354 4.709 2.717 8.331 2.173 10.866-.543 2.536-5.976 17.929-6.52 26.622V87H42.59s.362-13.039 2.354-20.102c1.992-7.062 5.07-17.023 10.684-21.37 5.614-4.346 18.654-15.936 18.654-15.936z" fill="#344A5E"/><path d="M73.194 27.6s-8.15 6.52-11.41 9.236c-3.259 2.717-9.597 10.685-11.408 13.582-1.811 2.898-5.071 13.583-5.433 16.3 0 0 2.897-9.599 7.244-14.67 4.346-5.07 19.558-17.747 19.558-17.747l-1.086.18c1.267-1.448 2.535-2.716 3.984-3.44.543-.181.543-.905.181-1.268-.724-.905-1.449-1.992-1.63-2.173z" fill="#415A6B"/><path d="M42.045 60.379L14.52 61.828h-.544l-11.771-3.26 28.794-2.173 11.047 3.26c.544 0 .544.724 0 .724z" fill="#CED6E0"/><path d="M2.385 58.568l11.771 3.26h.543l27.527-1.63v1.449l-27.708 1.81h-.543L2.928 59.655c-.362-.362-.543-.724-.543-1.086z" fill="#E8EAE9"/><path d="M50.738 56.575l-.362-1.086s-.906 0-1.811-.543c-.906-.544-2.355-3.08-2.898-3.803-.543-.906-1.81-2.717-2.173-3.622-.362-.725-.724-1.992-.724-1.992l.18-1.992s-2.897-.906-1.81 4.346c0 0 .905 1.63.905 2.173 0 .543-.181 1.268-.543 1.268-.362.181-3.441.724-4.165 1.086-.725.363-2.536 2.355-.906 3.079 0 0-1.268 1.992.362 2.898 0 0-.362 1.63.725 1.81 0 0-.906.725-.362 1.63.543.906 1.992 0 2.354.182.362 0 3.984.362 4.89 0 .905-.181 3.803.362 3.803.362l2.535-5.796z" fill="#FFD15C"/><path d="M67.761 52.591s-.543-6.338 2.173-11.228c2.717-4.89 5.976-6.52 9.417-5.795 3.441.725 6.158 7.606 6.882 10.323.724 2.716-1.63 12.315-2.354 15.03-.544 2.717-2.717 10.142-5.071 13.583-2.355 3.441-3.622 4.165-6.7 3.079-2.898-1.087-14.489-5.07-17.748-6.882-3.079-1.81-8.693-4.89-8.693-4.89s2.173-10.503 3.984-11.409c0 0 6.339 3.622 8.512 4.528 2.173.905 3.078.905 4.708 1.81 1.811.906 5.433 1.812 5.433 1.812s-.905-1.268-.543-2.354c.362-1.087.543-2.355.543-3.26 0-.906-.543-4.347-.543-4.347z" fill="#415A6B"/><path d="M42.95 45.71c-1.267-.181.182-1.992.182-1.992l-.181 1.992z" fill="#E8EAE9"/></g><defs><clipPath id="clip0"><path fill="#fff" d="M0 0h87v87H0z"/></clipPath></defs></svg>