<svg width="77" height="81" fill="none" xmlns="http://www.w3.org/2000/svg"><circle cx="37.5" cy="44.5" r="36.5" fill="#6473F9"/><path d="M66.412 58.482H10.587L0 70.032h77l-10.588-11.55z" fill="#CED6E0"/><path d="M29.035 66.664l4.01-4.492h10.91l4.01 4.492h-18.93z" fill="#ADB3BA"/><path d="M66.412 22.068v36.575H10.587V22.068a3.218 3.218 0 013.209-3.209h49.569c1.604 0 3.047 1.444 3.047 3.209z" fill="#415A6B"/><path d="M62.402 22.87H14.598v31.602h47.804V22.87z" fill="#8AD7F8"/><path d="M77 70.032c0 2.727-2.246 4.973-4.973 4.973H4.973c-1.444 0-2.567-.481-3.53-1.444A5.089 5.089 0 010 70.032h77z" fill="#415A6B"/><path d="M49.569 18.86h-1.123c0-7.059-4.492-12.994-10.106-12.994-5.615 0-10.107 5.775-10.107 12.994H27.11c.321-7.7 5.294-13.957 11.39-13.957 6.096 0 11.069 6.257 11.069 13.957zm-8.342 33.848l2.086-12.834h-9.626l2.086 12.834h5.454z" fill="#CED6E0"/><path d="M40.264 44.687l1.444-1.444-3.208-3.369-3.208 3.369 1.443 1.444h3.53zm2.086 9.785l-2.086-9.785h-3.529l-2.085 9.785h7.7z" fill="#415A6B"/><path d="M45.077 24.314H31.923v15.56h13.154v-15.56z" fill="#F7B64C"/><path d="M45.077 31.051L38.5 39.874s4.492 4.17 4.813 4.973l4.812-9.946-3.048-3.85zm-13.154 0l6.577 8.984s-4.492 4.17-4.813 4.973l-4.812-9.946 3.048-4.01z" fill="#F3F3F3"/><path d="M62.402 54.472l-1.764-10.267c-.482-2.085-1.765-3.85-3.69-4.652l-8.02-3.85-6.097 18.769h19.571z" fill="#F05540"/><path d="M44.917 54.472l6.096-13.315-2.727-1.764 4.491-1.765-7.7-6.577-4.17 23.421h4.01z" fill="#F3705A"/><path d="M34.33 54.472l-6.096-18.769-8.021 3.85c-1.925.963-3.209 2.567-3.69 4.652L14.76 54.472h19.57z" fill="#F05540"/><path d="M25.988 41.157l5.935 13.315h4.17l-4.17-23.42-7.7 6.576 4.492 1.765-2.727 1.764z" fill="#F3705A"/><path d="M38.5 33.617c4.961 0 8.983-6.176 8.983-13.795 0-7.62-4.022-13.796-8.983-13.796s-8.983 6.177-8.983 13.796 4.022 13.795 8.983 13.795z" fill="#FFD15C"/><path d="M43.152 28.164l-.32-.642c4.33-2.246 5.614-6.256 5.614-6.256l.642.16c0 .16-1.284 4.331-5.936 6.738z" fill="#415A6B"/><path d="M44.114 27.201c.321.482.161 1.123-.801 1.604-1.123.482-1.605.16-1.925-.32-.321-.482-.321-1.123.802-1.765 1.123-.481 1.604-.16 1.925.481zm-14.758-7.058h.963c0-1.284-.16-3.209-.16-3.53 0-.48 1.443-.802 1.443-2.406 0-.642 0-1.444.16-2.246s.963-1.443 1.765-1.283c2.567.32 8.663-.481 11.069.481 1.764.642 0 2.407.802 3.209s.962.32.962.962c0 .481.16 4.652.16 5.615h.482c.32-1.123.802-4.332 1.604-7.219 1.123-4.01.16-6.898-3.208-9.465-3.369-2.566-8.02-2.727-11.069-1.604-2.887 1.123-4.01 2.406-3.69 4.492 0 0-1.443-.16-2.887 2.406-1.444 2.727 1.444 8.181 1.444 8.823 0 .481.16 1.123.16 1.765z" fill="#415A6B"/><path d="M50.37 19.18v1.444c0 .32-.32.642-.641.642-.32 0-.642.32-.642.641-.16 1.284-.48 2.086-1.123 2.086-.802 0-1.443-1.604-1.604-3.69-.16-2.085.32-3.69 1.123-3.69.32 0 .802.482.963 1.124.16.481.641.802 1.123.802.481 0 .802.32.802.641z" fill="#F05540"/><path d="M49.087 22.389c-.16.962-.48 1.604-.962 1.604-.802 0-1.444-1.604-1.604-3.69-.16-2.085.32-3.69 1.123-3.69.32 0 .641.322.962.963-1.123 0-.481 4.973.481 4.813z" fill="#F3705A"/><path d="M26.63 19.18v1.444c0 .32.32.642.64.642.322 0 .643.32.643.641.16 1.284.48 2.086 1.123 2.086.802 0 1.443-1.604 1.604-3.69.16-2.085-.321-3.69-1.123-3.69-.32 0-.802.482-.963 1.124-.16.481-.641.802-1.123.802-.481 0-.802.32-.802.641z" fill="#F05540"/><path d="M27.913 22.389c.16.962.48 1.604.962 1.604.802 0 1.444-1.604 1.604-3.69.16-2.085-.32-3.69-1.123-3.69-.32 0-.641.322-.962.963 1.123 0 .481 4.973-.481 4.813z" fill="#F3705A"/></svg>