<svg width="39" height="39" fill="none" xmlns="http://www.w3.org/2000/svg"><circle cx="19.5" cy="19.5" r="19.5" fill="#EFF1FB"/><path d="M18.515 22.84l-.262 2.364a.418.418 0 00.414.463h1.666a.417.417 0 00.415-.463l-.263-2.364c.427-.31.682-.801.682-1.34 0-.92-.748-1.667-1.667-1.667-.92 0-1.667.748-1.667 1.667 0 .539.256 1.03.682 1.34zm.985-2.173c.46 0 .833.374.833.833 0 .32-.181.605-.473.747a.417.417 0 00-.233.421l.24 2.165h-.735l.241-2.165a.417.417 0 00-.233-.42.827.827 0 01-.473-.748c0-.46.374-.833.833-.833z" fill="#4154F5"/><path d="M26.583 16.5h-1.25v-1.667A5.84 5.84 0 0019.5 9a5.84 5.84 0 00-5.833 5.833V16.5h-1.25a.416.416 0 00-.417.417v10.416c0 .92.748 1.667 1.667 1.667h11.666c.92 0 1.667-.747 1.667-1.667V16.917a.416.416 0 00-.417-.417zM14.5 14.833c0-2.757 2.243-5 5-5s5 2.243 5 5V16.5h-.833v-1.667a4.172 4.172 0 00-4.167-4.166 4.172 4.172 0 00-4.167 4.166V16.5H14.5v-1.667zm8.333 0V16.5h-6.666v-1.667A3.337 3.337 0 0119.5 11.5a3.337 3.337 0 013.333 3.333zm3.334 12.5c0 .46-.374.834-.834.834H13.667a.834.834 0 01-.834-.834v-10h13.334v10z" fill="#4154F5"/></svg>