<svg width="59" height="59" fill="none" xmlns="http://www.w3.org/2000/svg"><path d="M27.424 40.1c-.666 0-1.26-.297-1.63-.742L14.602 27.202c-.816-.89-.742-2.298.148-3.113s2.298-.741 3.113.148l9.636 10.451L54.182 8.08c.89-.89 2.298-.89 3.113 0 .816.89.89 2.298 0 3.113l-28.314 28.24c-.37.445-.963.667-1.557.667z" fill="#ED028C"/><path d="M29.5 59C13.268 59 0 45.733 0 29.5 0 13.268 13.268 0 29.5 0c1.26 0 2.224.964 2.224 2.224 0 1.26-.964 2.223-2.224 2.223-13.786 0-25.053 11.266-25.053 25.053 0 13.786 11.267 25.053 25.053 25.053 13.787 0 25.053-11.267 25.053-25.053 0-1.26.964-2.224 2.224-2.224 1.26 0 2.223.964 2.223 2.224C59 45.733 45.733 59 29.5 59z" fill="#4154F5"/></svg>