<svg width="51" height="16" fill="none" xmlns="http://www.w3.org/2000/svg"><path d="M24.283 7.667L30.2 1.74 28.459 0l-7.667 7.667 7.666 7.667 1.742-1.75-5.917-5.917zm10.335 0l5.917-5.926L38.794 0l-7.667 7.667 7.667 7.667 1.74-1.75-5.916-5.917zm10.456 0L51 1.74 49.25 0l-7.658 7.667 7.658 7.667 1.75-1.75-5.926-5.917zm-41.583 0L9.408 1.74 7.667 0 0 7.667l7.667 7.667 1.741-1.75-5.917-5.917zm10.335 0l5.917-5.926L18.003 0l-7.668 7.667 7.667 7.667 1.741-1.75-5.916-5.917z" fill="#4154F5" fill-opacity=".29"/></svg>