<svg width="70" height="60" viewBox="0 0 70 60" fill="none" xmlns="http://www.w3.org/2000/svg">
<path d="M27.0308 33.8086C27.0944 33.9342 27.2007 34.0405 27.3357 34.1136C27.4708 34.1868 27.6284 34.2234 27.788 34.2188H42.3394C42.5045 34.2234 42.6672 34.184 42.805 34.106C42.9427 34.0279 43.0488 33.9151 43.1085 33.7831L44.1578 31.3697C44.199 31.2763 44.2157 31.1763 44.2066 31.0767L43.0582 18.4402C43.0411 18.2659 42.9469 18.1037 42.7949 17.987C42.6428 17.8703 42.4445 17.8079 42.2405 17.8125H39.1015V17.1957C39.1015 15.3135 37.2642 13.7823 35.0683 13.7823C32.8725 13.7823 31.0351 15.3135 31.0351 17.1957V17.8125H27.887C27.684 17.8086 27.4868 17.8708 27.3352 17.9866C27.1836 18.1025 27.0889 18.2633 27.0703 18.4367L25.7944 31.0854C25.7831 31.1929 25.8037 31.3011 25.8543 31.3999L27.0308 33.8086ZM28.3353 32.8125L27.841 31.875H42.2101L41.7693 32.8125H28.3353ZM32.6757 17.1957C32.6757 16.0889 33.7772 15.1886 35.0683 15.1886C36.3595 15.1886 37.4609 16.0889 37.4609 17.1957V17.8125H32.6757V17.1957ZM28.6395 19.2188H31.0351V21.8642C31.0351 22.0507 31.1215 22.2295 31.2754 22.3614C31.4292 22.4932 31.6379 22.5673 31.8554 22.5673C32.073 22.5673 32.2816 22.4932 32.4355 22.3614C32.5893 22.2295 32.6757 22.0507 32.6757 21.8642V19.2188H37.4609V21.8642C37.4609 22.0507 37.5473 22.2295 37.7012 22.3614C37.855 22.4932 38.0637 22.5673 38.2812 22.5673C38.4988 22.5673 38.7074 22.4932 38.8613 22.3614C39.0151 22.2295 39.1015 22.0507 39.1015 21.8642V19.2188H41.4814L42.5021 30.4688H27.5055L28.6395 19.2188Z" fill="#FF9D00"/>
<path d="M39.6484 25.4297C39.6484 25.2432 39.562 25.0644 39.4082 24.9325C39.2543 24.8006 39.0457 24.7266 38.8281 24.7266H31.3086C31.091 24.7266 30.8824 24.8006 30.7285 24.9325C30.5747 25.0644 30.4883 25.2432 30.4883 25.4297V27.6562C30.4883 27.8427 30.5747 28.0216 30.7285 28.1534C30.8824 28.2853 31.091 28.3594 31.3086 28.3594H38.8281C39.0457 28.3594 39.2543 28.2853 39.4082 28.1534C39.562 28.0216 39.6484 27.8427 39.6484 27.6562V25.4297ZM32.1289 26.1328H38.0078V26.9531H32.1289V26.1328Z" fill="#FF9D00"/>
<path d="M58.7891 11.9531C58.7891 11.7666 58.7026 11.5878 58.5488 11.4559C58.395 11.3241 58.1863 11.25 57.9688 11.25H11.8945C11.677 11.25 11.4683 11.3241 11.3145 11.4559C11.1606 11.5878 11.0742 11.7666 11.0742 11.9531V35.9766C11.0742 36.163 11.1606 36.3419 11.3145 36.4737C11.4683 36.6056 11.677 36.6797 11.8945 36.6797H57.9688C58.1863 36.6797 58.395 36.6056 58.5488 36.4737C58.7026 36.3419 58.7891 36.163 58.7891 35.9766V11.9531ZM57.1484 35.2734H12.7148V12.6562H57.1484V35.2734Z" fill="#72BBFF"/>
<path d="M15.9961 16.6866C16.2137 16.6866 16.4223 16.6126 16.5761 16.4807C16.73 16.3488 16.8164 16.17 16.8164 15.9835V15.2452C16.8164 15.0588 16.73 14.8799 16.5761 14.7481C16.4223 14.6162 16.2137 14.5421 15.9961 14.5421C15.7785 14.5421 15.5699 14.6162 15.416 14.7481C15.2622 14.8799 15.1758 15.0588 15.1758 15.2452V15.9835C15.1758 16.17 15.2622 16.3488 15.416 16.4807C15.5699 16.6126 15.7785 16.6866 15.9961 16.6866Z" fill="#72BBFF"/>
<path d="M15.9961 25.4758C16.2137 25.4758 16.4223 25.4018 16.5761 25.2699C16.73 25.138 16.8164 24.9592 16.8164 24.7727V18.2102C16.8164 18.0237 16.73 17.8449 16.5761 17.713C16.4223 17.5812 16.2137 17.5071 15.9961 17.5071C15.7785 17.5071 15.5699 17.5812 15.416 17.713C15.2622 17.8449 15.1758 18.0237 15.1758 18.2102V24.7727C15.1758 24.9592 15.2622 25.138 15.416 25.2699C15.5699 25.4018 15.7785 25.4758 15.9961 25.4758Z" fill="#72BBFF"/>
<path d="M68.0846 47.4611C68.0865 47.3586 68.0568 47.2576 67.9986 47.1681L63.4774 39.4819C63.4668 39.4635 63.4375 39.4575 63.4375 39.4403V11.7892C63.4369 11.2383 63.3091 10.693 63.0615 10.1846C62.8139 9.67621 62.4514 9.21484 61.9949 8.82707C61.5383 8.43929 60.9968 8.13276 60.4015 7.92514C59.8062 7.71751 59.1688 7.6129 58.5262 7.61732H11.4738C10.8312 7.6129 10.1938 7.71751 9.59848 7.92514C9.00316 8.13276 8.46165 8.43929 8.00514 8.82707C7.54863 9.21484 7.18613 9.67621 6.93854 10.1846C6.69095 10.693 6.56315 11.2383 6.5625 11.7892V39.4406C6.5625 39.4579 6.53311 39.4758 6.52244 39.4941L2.00402 47.172C1.95987 47.2645 1.93071 47.3618 1.91734 47.4611H1.91406V48.2111C1.91584 48.7624 2.04476 49.3081 2.29342 49.8166C2.54207 50.3251 2.90555 50.7865 3.36295 51.1742C3.82035 51.5619 4.36265 51.8683 4.95868 52.0757C5.5547 52.2832 6.19268 52.3876 6.83594 52.3829H63.1641C63.8073 52.3876 64.4453 52.2832 65.0413 52.0757C65.6373 51.8683 66.1796 51.5619 66.6371 51.1742C67.0945 50.7865 67.4579 50.3251 67.7066 49.8166C67.9552 49.3081 68.0842 48.7624 68.0859 48.2111L68.0846 47.4611ZM7.75592 40.547H14.7656C14.9832 40.547 15.1918 40.4729 15.3457 40.3411C15.4995 40.2092 15.5859 40.0304 15.5859 39.8439C15.5859 39.6574 15.4995 39.4786 15.3457 39.3467C15.1918 39.2148 14.9832 39.1408 14.7656 39.1408H8.20312V11.7892C8.20312 11.0557 8.54307 10.3523 9.14816 9.8336C9.75326 9.31495 10.5739 9.02357 11.4297 9.02357H58.5262C59.3936 9.02357 60.2255 9.31894 60.8389 9.84469C61.4523 10.3704 61.7969 11.0835 61.7969 11.827V39.1408H20.2344C20.0168 39.1408 19.8082 39.2148 19.6543 39.3467C19.5005 39.4786 19.4141 39.6574 19.4141 39.8439C19.4141 40.0304 19.5005 40.2092 19.6543 40.3411C19.8082 40.4729 20.0168 40.547 20.2344 40.547H62.2441L65.9355 46.8218L44.8226 46.8079L44.0022 44.6576C43.9137 44.4206 43.7409 44.2132 43.5081 44.0645C43.2753 43.9158 42.9941 43.8332 42.7038 43.8283H27.2956C26.7049 43.8283 26.2496 44.1768 25.9762 44.6575V44.6458L25.1776 46.7579H4.06479L7.75592 40.547ZM66.4453 48.2111C66.4437 48.5778 66.3574 48.9407 66.1912 49.2787C66.0251 49.6167 65.7825 49.9231 65.4774 50.1802C65.1723 50.4374 64.8108 50.6402 64.4137 50.7769C64.0166 50.9136 63.5919 50.9815 63.1641 50.9767H6.83594C6.40808 50.9815 5.98336 50.9136 5.5863 50.7769C5.18925 50.6402 4.82773 50.4374 4.52263 50.1802C4.21754 49.9231 3.97491 49.6167 3.80877 49.2787C3.64263 48.9407 3.55628 48.5778 3.55469 48.2111V48.1642H25.7701C25.9427 48.1642 26.111 48.1175 26.2509 48.0308C26.3908 47.9441 26.4952 47.8219 26.5494 47.6814L27.4941 45.2345H42.5059L43.4504 47.7063C43.5039 47.8482 43.6078 47.9722 43.7475 48.0609C43.8872 48.1497 44.0559 48.1988 44.2297 48.2013L66.4453 48.2044V48.2111Z" fill="#72BBFF"/>
</svg>
