<svg width="1600" height="848" viewBox="0 0 1600 848" fill="none" xmlns="http://www.w3.org/2000/svg">
<path fill-rule="evenodd" clip-rule="evenodd" d="M0 656L66.7083 680C133.417 704 266.833 752 400.25 760C533.667 768 667.083 736 800.5 728C933.917 720 1067.33 736 1200.75 760C1334.17 784 1467.58 816 1534.29 832L1601 848V464H1534.29C1467.58 464 1334.17 464 1200.75 464C1067.33 464 933.917 464 800.5 464C667.083 464 533.667 464 400.25 464C266.833 464 133.417 464 66.7083 464H0V656Z" fill="#4154F5"/>
<path fill-rule="evenodd" clip-rule="evenodd" d="M1600 288L1533 264C1467 240 1333 192 1200 208C1067 224 933 304 800 288C667 272 533 160 400 96C267 32 133 16 67 8L0 0V595H67C133 595 267 595 400 595C533 595 667 595 800 595C933 595 1067 595 1200 595C1333 595 1467 595 1533 595H1600V288Z" fill="#4154F5"/>
</svg>
