<svg width="60" height="60" viewBox="0 0 60 60" fill="none" xmlns="http://www.w3.org/2000/svg">
<path d="M53.4082 19.5703H44.2969V20.9766H53.4082C53.7525 20.9758 54.0935 21.0433 54.4114 21.1753C54.7294 21.3073 55.018 21.501 55.2605 21.7453C55.5031 21.9897 55.6947 22.2797 55.8243 22.5986C55.9539 22.9176 56.019 23.2591 56.0156 23.6033V40.2486C56.0193 40.5937 55.9546 40.9361 55.8253 41.256C55.6959 41.5759 55.5046 41.8671 55.2622 42.1127C55.0198 42.3583 54.7312 42.5535 54.413 42.687C54.0948 42.8205 53.7533 42.8897 53.4082 42.8906H51.4219C49.8633 42.8906 48.6502 43.4313 47.8178 44.4961C46.3529 46.3711 46.5148 49.4211 46.7631 51.1597C45.2865 50.3704 42.8929 48.4314 43.0717 44.2002C43.0789 44.0299 43.0518 43.8599 42.992 43.7003C42.9322 43.5407 42.8409 43.3948 42.7235 43.2712C42.6088 43.1505 42.4706 43.0545 42.3175 42.9891C42.1643 42.9237 41.9994 42.8902 41.8329 42.8907H26.0946C25.8352 42.8913 25.5772 42.8544 25.3283 42.7813C24.7842 42.616 24.3073 42.2811 23.9671 41.8254C23.6269 41.3698 23.4413 40.8173 23.4375 40.2486V35.7422H22.0312V40.2486C22.0318 40.7815 22.1374 41.309 22.342 41.8011C22.5467 42.2931 22.8464 42.7399 23.2239 43.1159C23.6015 43.4919 24.0495 43.7898 24.5423 43.9924C25.0352 44.1951 25.5631 44.2985 26.096 44.2969H41.6617C41.5562 47.9297 43.119 50.065 44.4601 51.2495C45.3421 52.0369 46.3808 52.6287 47.5078 52.9861C47.626 53.018 47.7505 53.0185 47.8689 52.9875C47.9873 52.9565 48.0956 52.8952 48.1831 52.8095C48.2705 52.7238 48.3341 52.6168 48.3675 52.4991C48.4009 52.3813 48.4029 52.2568 48.3735 52.138C48.1774 51.272 48.0585 50.3902 48.0182 49.5032C47.9611 48.217 48.0721 46.4539 48.9257 45.3621C49.4856 44.6459 50.3021 44.2969 51.4218 44.2969H53.4082C53.9379 44.2958 54.4621 44.1901 54.9509 43.9858C55.4396 43.7815 55.8831 43.4828 56.2561 43.1066C56.629 42.7305 56.924 42.2844 57.124 41.7939C57.3241 41.3034 57.4253 40.7783 57.4219 40.2486V23.6033C57.425 23.0744 57.3235 22.5502 57.1232 22.0607C56.9228 21.5712 56.6276 21.1262 56.2545 20.7513C55.8815 20.3765 55.4379 20.0791 54.9494 19.8764C54.4609 19.6737 53.9371 19.5697 53.4082 19.5703Z" fill="#FF9D00"/>
<path d="M19.0656 29.5319C19.0656 29.9687 19.1952 30.3957 19.4379 30.759C19.6806 31.1222 20.0256 31.4053 20.4292 31.5724C20.8328 31.7396 21.2769 31.7833 21.7053 31.6981C22.1338 31.6128 22.5273 31.4024 22.8362 31.0935C23.1451 30.7846 23.3555 30.3911 23.4407 29.9626C23.5259 29.5342 23.4822 29.0901 23.315 28.6865C23.1478 28.2829 22.8647 27.9379 22.5015 27.6952C22.1382 27.4525 21.7112 27.323 21.2744 27.323C20.6888 27.3237 20.1273 27.5566 19.7133 27.9707C19.2992 28.3848 19.0663 28.9463 19.0656 29.5319ZM22.0773 29.5319C22.0773 29.6906 22.0302 29.8457 21.942 29.9777C21.8538 30.1096 21.7285 30.2125 21.5819 30.2732C21.4352 30.3339 21.2739 30.3498 21.1182 30.3188C20.9625 30.2878 20.8196 30.2114 20.7073 30.0992C20.5951 29.9869 20.5187 29.8439 20.4877 29.6883C20.4568 29.5326 20.4727 29.3713 20.5334 29.2246C20.5942 29.078 20.697 28.9527 20.829 28.8645C20.961 28.7763 21.1161 28.7293 21.2748 28.7293C21.4875 28.7296 21.6914 28.8143 21.8418 28.9648C21.9921 29.1152 22.0766 29.3192 22.0769 29.5319H22.0773Z" fill="#72BBFF"/>
<path d="M29.3639 27.323C28.927 27.323 28.4999 27.4525 28.1367 27.6952C27.7734 27.9379 27.4903 28.2829 27.3231 28.6865C27.1559 29.0901 27.1121 29.5342 27.1973 29.9627C27.2826 30.3912 27.4929 30.7848 27.8018 31.0937C28.1107 31.4027 28.5043 31.6131 28.9328 31.6983C29.3613 31.7835 29.8054 31.7398 30.209 31.5726C30.6127 31.4054 30.9576 31.1223 31.2004 30.7591C31.4431 30.3958 31.5726 29.9688 31.5726 29.5319C31.572 28.9463 31.3391 28.3848 30.925 27.9707C30.5109 27.5566 29.9495 27.3236 29.3639 27.323ZM29.3639 30.3347C29.2051 30.3347 29.0499 30.2877 28.9179 30.1995C28.7859 30.1113 28.683 29.986 28.6223 29.8393C28.5615 29.6926 28.5456 29.5313 28.5766 29.3756C28.6075 29.2198 28.684 29.0768 28.7962 28.9646C28.9085 28.8523 29.0515 28.7759 29.2072 28.7449C29.3629 28.7139 29.5243 28.7298 29.671 28.7906C29.8176 28.8514 29.943 28.9543 30.0312 29.0863C30.1194 29.2183 30.1664 29.3735 30.1664 29.5322C30.166 29.7449 30.0814 29.9488 29.9309 30.0992C29.7805 30.2495 29.5766 30.3341 29.3639 30.3344V30.3347Z" fill="#72BBFF"/>
<path d="M33.3572 15.9375H17.8008L17.4884 14.0943C17.3827 13.4625 17.0563 12.8888 16.5672 12.4752C16.0781 12.0617 15.458 11.8351 14.8175 11.8359H13.3828C13.1963 11.8359 13.0175 11.91 12.8856 12.0419C12.7538 12.1737 12.6797 12.3526 12.6797 12.5391C12.6797 12.7255 12.7538 12.9044 12.8856 13.0362C13.0175 13.1681 13.1963 13.2422 13.3828 13.2422H14.8175C15.1274 13.2459 15.4261 13.3586 15.661 13.5607C15.896 13.7628 16.0522 14.0412 16.1021 14.347L17.9186 25.0473C18.0243 25.679 18.3508 26.2527 18.84 26.6661C19.3292 27.0795 19.9493 27.3058 20.5898 27.3047H31.2813C31.4678 27.3047 31.6467 27.2306 31.7785 27.0987C31.9104 26.9669 31.9845 26.788 31.9845 26.6016C31.9845 26.4151 31.9104 26.2362 31.7785 26.1044C31.6467 25.9725 31.4678 25.8984 31.2813 25.8984H20.5898C20.2844 25.9046 19.9868 25.8011 19.7511 25.6067C19.5154 25.4123 19.3572 25.1398 19.3052 24.8387L19.1619 24.0234H29.4067C30.0886 24.0215 30.7523 23.8028 31.3018 23.3991C31.8513 22.9953 32.2583 22.4273 32.4639 21.7771L34.0267 16.8984C34.0606 16.7894 34.069 16.6741 34.0515 16.5614C34.0339 16.4486 33.9907 16.3413 33.9253 16.2478C33.8612 16.1556 33.7764 16.0795 33.6778 16.0257C33.5792 15.9718 33.4695 15.9416 33.3572 15.9375ZM31.125 21.33C31.0106 21.6982 30.7829 22.0209 30.4744 22.252C30.1658 22.4831 29.7922 22.6109 29.4067 22.6172H18.9232L18.0397 17.3438H32.3931L31.125 21.33Z" fill="#72BBFF"/>
<path d="M7.85156 12.5114C7.85156 12.3249 7.77748 12.146 7.64562 12.0142C7.51376 11.8823 7.33492 11.8082 7.14844 11.8082C6.96196 11.8082 6.78311 11.8823 6.65125 12.0142C6.51939 12.146 6.44531 12.3249 6.44531 12.5114V13.2496C6.44531 13.4361 6.51939 13.615 6.65125 13.7468C6.78311 13.8787 6.96196 13.9528 7.14844 13.9528C7.33492 13.9528 7.51376 13.8787 7.64562 13.7468C7.77748 13.615 7.85156 13.4361 7.85156 13.2496V12.5114Z" fill="#72BBFF"/>
<path d="M7.14844 14.7725C6.96196 14.7725 6.78311 14.8465 6.65125 14.9784C6.51939 15.1103 6.44531 15.2891 6.44531 15.4756V23.21C6.44531 23.3964 6.51939 23.5753 6.65125 23.7071C6.78311 23.839 6.96196 23.9131 7.14844 23.9131C7.33492 23.9131 7.51376 23.839 7.64562 23.7071C7.77748 23.5753 7.85156 23.3964 7.85156 23.21V15.4756C7.85156 15.2891 7.77748 15.1103 7.64562 14.9784C7.51376 14.8465 7.33492 14.7725 7.14844 14.7725Z" fill="#72BBFF"/>
<path d="M40.9922 7.03125H6.5918C5.5273 7.03125 4.50641 7.45412 3.7537 8.20683C3.00099 8.95954 2.57813 9.98043 2.57812 11.0449V32.4469C2.57813 33.5073 2.99939 34.5243 3.74924 35.2742C4.49909 36.024 5.51611 36.4453 6.57656 36.4453H9.6491C10.7681 36.4453 11.5843 36.8189 12.1441 37.534C13.8187 39.6731 12.7089 44.2778 12.6976 44.3235C12.6681 44.4433 12.67 44.5688 12.7034 44.6877C12.7367 44.8065 12.8002 44.9147 12.8878 45.0018C12.975 45.0879 13.0831 45.15 13.2016 45.1818C13.32 45.2136 13.4446 45.2141 13.5633 45.1833C14.6891 44.8108 15.7265 44.2114 16.6114 43.4221C17.9524 42.2375 19.5154 40.0781 19.4099 36.4453H31.4062C31.5927 36.4453 31.7716 36.3712 31.9034 36.2394C32.0353 36.1075 32.1094 35.9287 32.1094 35.7422C32.1094 35.5557 32.0353 35.3769 31.9034 35.245C31.7716 35.1131 31.5927 35.0391 31.4062 35.0391H19.2376C19.0695 35.0432 18.9039 35.0812 18.7509 35.1509C18.5978 35.2206 18.4605 35.3205 18.347 35.4446C18.2295 35.5706 18.1381 35.7186 18.0783 35.8802C18.0185 36.0417 17.9915 36.2136 17.9987 36.3857C18.1778 40.6177 15.7839 42.5633 14.3073 43.3521C14.5557 41.6136 14.718 38.5407 13.2526 36.6662C12.4209 35.6016 11.2083 35.0391 9.6491 35.0391H6.5918C5.90027 35.0391 5.23706 34.7644 4.74807 34.2754C4.25908 33.7864 3.98438 33.1232 3.98438 32.4316V11.0391C3.98438 10.3491 4.25847 9.68737 4.74635 9.19948C5.23424 8.71159 5.89596 8.4375 6.58594 8.4375H40.9284C41.6347 8.43957 42.3114 8.72105 42.8108 9.22044C43.3102 9.71984 43.5917 10.3966 43.5938 11.1028V32.4469C43.5886 33.0129 43.4015 33.5623 43.0602 34.0139C42.7188 34.4655 42.2413 34.7953 41.6981 34.9547C41.4469 35.0196 41.1877 35.0481 40.9284 35.0392H36.0938C35.9073 35.0392 35.7284 35.1133 35.5966 35.2451C35.4647 35.377 35.3906 35.5558 35.3906 35.7423C35.3906 35.9288 35.4647 36.1076 35.5966 36.2395C35.7284 36.3714 35.9073 36.4454 36.0938 36.4454H40.9284C41.3242 36.4544 41.7191 36.406 42.101 36.3019C42.9334 36.0546 43.6644 35.5465 44.1863 34.8525C44.7082 34.1585 44.9934 33.3152 45 32.4469V11.0391C45 9.97612 44.5778 8.95672 43.8261 8.20511C43.0745 7.4535 42.0551 7.03125 40.9922 7.03125Z" fill="#72BBFF"/>
</svg>
