<svg width="60" height="60" viewBox="0 0 60 60" fill="none" xmlns="http://www.w3.org/2000/svg">
<path d="M14.0625 35.3247C13.2241 35.3255 12.4202 35.6588 11.8271 36.2514C11.234 36.844 10.9 37.6476 10.8985 38.4861V38.7891H8.43554C8.25743 38.7948 8.08764 38.8658 7.95852 38.9887C7.82939 39.1115 7.74996 39.2775 7.73535 39.4551L6.74347 50.5236C6.73318 50.6393 6.75065 50.7558 6.79445 50.8634L7.70945 53.0924C7.7614 53.224 7.85037 53.3377 7.96559 53.4197C8.08081 53.5018 8.21735 53.5487 8.35867 53.5547H19.6714C19.8172 53.5493 19.9581 53.5001 20.0756 53.4136C20.1932 53.327 20.282 53.2072 20.3307 53.0696L21.1463 50.857C21.182 50.7586 21.1962 50.6537 21.188 50.5494L20.2953 39.4646C20.2822 39.2854 20.2034 39.1174 20.0741 38.9927C19.9447 38.8681 19.7739 38.7956 19.5944 38.7891H17.2266V38.4861C17.2251 37.6476 16.8911 36.844 16.298 36.2514C15.7049 35.6588 14.901 35.3255 14.0625 35.3247ZM12.3047 38.4861C12.3047 38.0199 12.4899 37.5728 12.8196 37.2431C13.1492 36.9135 13.5963 36.7283 14.0625 36.7283C14.5287 36.7283 14.9758 36.9135 15.3055 37.2431C15.6352 37.5728 15.8204 38.0199 15.8204 38.4861V38.7891H12.3047V38.4861ZM8.82765 52.1485L8.49777 51.3282H19.4766L19.1825 52.1485H8.82765ZM18.9457 40.1954L19.7248 49.9219H8.21277L9.07843 40.1954H10.8985V42.4015C10.8985 42.588 10.9726 42.7669 11.1044 42.8987C11.2363 43.0306 11.4151 43.1047 11.6016 43.1047C11.7881 43.1047 11.9669 43.0306 12.0988 42.8987C12.2306 42.7669 12.3047 42.588 12.3047 42.4015V40.1954H15.8204V42.4015C15.8204 42.588 15.8944 42.7669 16.0263 42.8987C16.1582 43.0306 16.337 43.1047 16.5235 43.1047C16.71 43.1047 16.8888 43.0306 17.0207 42.8987C17.1525 42.7669 17.2266 42.588 17.2266 42.4015V40.1954H18.9457Z" fill="#FF9D00"/>
<path d="M17.6953 45.7031C17.6953 45.5166 17.6212 45.3378 17.4894 45.2059C17.3575 45.0741 17.1787 45 16.9922 45H11.1328C10.9463 45 10.7675 45.0741 10.6356 45.2059C10.5038 45.3378 10.4297 45.5166 10.4297 45.7031V47.6953C10.4297 47.8818 10.5038 48.0606 10.6356 48.1925C10.7675 48.3244 10.9463 48.3984 11.1328 48.3984H16.9922C17.1787 48.3984 17.3575 48.3244 17.4894 48.1925C17.6212 48.0606 17.6953 47.8818 17.6953 47.6953V45.7031ZM16.1719 46.9922H11.8359V46.4062H16.1719V46.9922Z" fill="#FF9D00"/>
<path d="M39.3672 20.1562H40.1484C40.3349 20.1562 40.5137 20.0822 40.6456 19.9503C40.7774 19.8184 40.8515 19.6396 40.8515 19.4531C40.8515 19.2666 40.7774 19.0878 40.6456 18.9559C40.5137 18.8241 40.3349 18.75 40.1484 18.75H39.3677C39.1812 18.75 39.0024 18.8241 38.8705 18.9559C38.7386 19.0878 38.6646 19.2666 38.6646 19.4531C38.6646 19.6396 38.7386 19.8184 38.8705 19.9503C39.0024 20.0822 39.1812 20.1562 39.3677 20.1562H39.3672Z" fill="#72BBFF"/>
<path d="M37.5352 19.4531C37.5352 19.2666 37.4611 19.0878 37.3292 18.9559C37.1974 18.8241 37.0185 18.75 36.832 18.75H26.7717C26.5852 18.75 26.4064 18.8241 26.2745 18.9559C26.1427 19.0878 26.0686 19.2666 26.0686 19.4531C26.0686 19.6396 26.1427 19.8184 26.2745 19.9503C26.4064 20.0822 26.5852 20.1562 26.7717 20.1562H36.832C37.0185 20.1562 37.1974 20.0822 37.3292 19.9503C37.4611 19.8184 37.5352 19.6396 37.5352 19.4531Z" fill="#72BBFF"/>
<path d="M20.4857 20.1562H23.3671C23.5536 20.1562 23.7324 20.0822 23.8643 19.9503C23.9962 19.8184 24.0702 19.6396 24.0702 19.4531C24.0702 19.2666 23.9962 19.0878 23.8643 18.9559C23.7324 18.8241 23.5536 18.75 23.3671 18.75H20.4857C20.2992 18.75 20.1204 18.8241 19.9885 18.9559C19.8567 19.0878 19.7826 19.2666 19.7826 19.4531C19.7826 19.6396 19.8567 19.8184 19.9885 19.9503C20.1204 20.0822 20.2992 20.1562 20.4857 20.1562Z" fill="#72BBFF"/>
<path d="M39.2423 25.6641H40.2656C40.4521 25.6641 40.6309 25.59 40.7628 25.4581C40.8947 25.3263 40.9687 25.1474 40.9687 24.9609C40.9687 24.7745 40.8947 24.5956 40.7628 24.4638C40.6309 24.3319 40.4521 24.2578 40.2656 24.2578H39.2428C39.0563 24.2578 38.8775 24.3319 38.7456 24.4638C38.6138 24.5956 38.5397 24.7745 38.5397 24.9609C38.5397 25.1474 38.6138 25.3263 38.7456 25.4581C38.8775 25.59 39.0563 25.6641 39.2428 25.6641H39.2423Z" fill="#72BBFF"/>
<path d="M33.4294 24.2578C33.243 24.2578 33.0641 24.3319 32.9323 24.4638C32.8004 24.5956 32.7263 24.7745 32.7263 24.9609C32.7263 25.1474 32.8004 25.3263 32.9323 25.4581C33.0641 25.59 33.243 25.6641 33.4294 25.6641H36.4112C36.5976 25.6641 36.7765 25.59 36.9083 25.4581C37.0402 25.3263 37.1143 25.1474 37.1143 24.9609C37.1143 24.7745 37.0402 24.5956 36.9083 24.4638C36.7765 24.3319 36.5976 24.2578 36.4112 24.2578H33.4294Z" fill="#72BBFF"/>
<path d="M20.4857 25.6641H30.8855C31.072 25.6641 31.2509 25.59 31.3827 25.4581C31.5146 25.3263 31.5887 25.1474 31.5887 24.9609C31.5887 24.7745 31.5146 24.5956 31.3827 24.4638C31.2509 24.3319 31.072 24.2578 30.8855 24.2578H20.4857C20.2992 24.2578 20.1204 24.3319 19.9885 24.4638C19.8567 24.5956 19.7826 24.7745 19.7826 24.9609C19.7826 25.1474 19.8567 25.3263 19.9885 25.4581C20.1204 25.59 20.2992 25.6641 20.4857 25.6641Z" fill="#72BBFF"/>
<path d="M34.1904 30.9375C34.1904 30.751 34.1164 30.5722 33.9845 30.4403C33.8526 30.3085 33.6738 30.2344 33.4873 30.2344H20.4857C20.2992 30.2344 20.1204 30.3085 19.9885 30.4403C19.8567 30.5722 19.7826 30.751 19.7826 30.9375C19.7826 31.124 19.8567 31.3028 19.9885 31.4347C20.1204 31.5665 20.2992 31.6406 20.4857 31.6406H33.4873C33.6738 31.6406 33.8526 31.5665 33.9845 31.4347C34.1164 31.3028 34.1904 31.124 34.1904 30.9375Z" fill="#72BBFF"/>
<path d="M28.3125 37.1484H40.2656C40.4521 37.1484 40.6309 37.0744 40.7628 36.9425C40.8947 36.8106 40.9688 36.6318 40.9688 36.4453C40.9688 36.2588 40.8947 36.08 40.7628 35.9481C40.6309 35.8163 40.4521 35.7422 40.2656 35.7422H28.3125C28.126 35.7422 27.9472 35.8163 27.8153 35.9481C27.6835 36.08 27.6094 36.2588 27.6094 36.4453C27.6094 36.6318 27.6835 36.8106 27.8153 36.9425C27.9472 37.0744 28.126 37.1484 28.3125 37.1484Z" fill="#72BBFF"/>
<path d="M24.9042 35.7422H24.0234V37.1484H24.9042C25.0907 37.1484 25.2695 37.0744 25.4014 36.9425C25.5333 36.8106 25.6073 36.6318 25.6073 36.4453C25.6073 36.2588 25.5333 36.08 25.4014 35.9481C25.2695 35.8163 25.0907 35.7422 24.9042 35.7422Z" fill="#72BBFF"/>
<path d="M58.5744 17.0484C58.3991 16.7799 58.1722 16.5488 57.907 16.3686C57.6418 16.1884 57.3434 16.0626 57.0292 15.9985C56.387 15.8655 55.7183 15.9914 55.1685 16.3488L50.2734 19.5482V7.98885C50.2734 6.45592 49.0781 5.15631 47.5448 5.15631H33.818C33.7545 4.29071 33.3659 3.48118 32.7301 2.89033C32.0944 2.29948 31.2586 1.97107 30.3906 1.97107C29.5227 1.97107 28.6869 2.29948 28.0512 2.89033C27.4154 3.48118 27.0268 4.29071 26.9633 5.15631H13.2055C11.6729 5.15631 10.4297 6.45592 10.4297 7.98885V31.9922H11.8359V7.98885C11.8359 7.23135 12.4485 6.56256 13.206 6.56256H26.9531V7.1485H24.4363C23.711 7.15558 23.0114 7.41785 22.4602 7.88929C21.9089 8.36072 21.5414 9.01121 21.4219 9.72662H16.2914C15.8246 9.73332 15.379 9.92255 15.05 10.2538C14.721 10.585 14.5348 11.0319 14.5313 11.4987V31.8047C14.5313 31.9912 14.6053 32.1701 14.7372 32.3019C14.8691 32.4338 15.0479 32.5079 15.2344 32.5079C15.4209 32.5079 15.5997 32.4338 15.7316 32.3019C15.8634 32.1701 15.9375 31.9912 15.9375 31.8047V11.4987C15.9406 11.4047 15.9786 11.3152 16.044 11.2476C16.1094 11.18 16.1977 11.1391 16.2915 11.1329H21.4453V12.7232C21.4453 13.1116 21.7043 13.4766 22.0925 13.4766H38.6582C38.8511 13.4658 39.0326 13.3818 39.1658 13.2419C39.2989 13.1019 39.3738 12.9164 39.375 12.7232V11.1329H44.4593C44.5482 11.1414 44.6301 11.1845 44.6875 11.253C44.7448 11.3215 44.7729 11.4097 44.7656 11.4987V23.1823L35.7151 29.1387C35.7034 29.1461 35.7005 29.1546 35.6896 29.1622C35.6837 29.1665 35.6813 29.1706 35.6755 29.1752C35.6327 29.2095 35.5941 29.2488 35.5607 29.2924C35.5569 29.2972 35.5545 29.3021 35.5507 29.307C35.5374 29.3251 35.5251 29.3438 35.5137 29.3631C35.5116 29.3664 35.5093 29.3695 35.5073 29.3728L33.0289 33.6438C32.9634 33.7567 32.9306 33.8857 32.9342 34.0162C32.9379 34.1467 32.9778 34.2737 33.0495 34.3828C33.1212 34.4919 33.2219 34.5789 33.3402 34.6341C33.4586 34.6892 33.59 34.7103 33.7197 34.6949L38.6236 34.1152C38.627 34.1152 38.6303 34.1138 38.6338 34.1133C38.6455 34.1118 38.6572 34.109 38.6695 34.1068C38.6895 34.103 38.7091 34.0992 38.7281 34.0938C38.7404 34.0904 38.7523 34.0862 38.7643 34.0821C38.783 34.0757 38.8014 34.069 38.8194 34.0612C38.8311 34.0562 38.8429 34.0506 38.8546 34.0449C38.8721 34.036 38.8897 34.0264 38.9061 34.0161C38.913 34.012 38.9061 34.0089 38.9125 34.0044L44.7656 30.1495V39.7266H41.5186C41.1574 39.7256 40.7996 39.7965 40.4661 39.9351C40.1326 40.0737 39.83 40.2773 39.576 40.5341C39.3219 40.7908 39.1215 41.0955 38.9864 41.4305C38.8513 41.7654 38.7842 42.124 38.7891 42.4851V45.7032H26.6016V47.1094H39.0396C39.2966 47.1074 39.5507 47.0546 39.7872 46.954C40.0237 46.8535 40.2381 46.7072 40.4179 46.5235L45.6152 41.304C45.7951 41.1212 45.9368 40.9045 46.0324 40.6665C46.1279 40.4286 46.1754 40.174 46.1719 39.9176V29.2255L48.8672 27.4397V48.4021C48.8672 49.1602 48.3025 49.8047 47.5448 49.8047H25.3125V51.211H47.5448C49.0781 51.211 50.2734 49.9351 50.2734 48.4021V26.5157L58.3662 21.2152C58.908 20.8607 59.2872 20.3059 59.4207 19.6723C59.5542 19.0388 59.4312 18.3781 59.0786 17.8351L58.5744 17.0484ZM40.1953 44.7925V42.4851C40.1903 42.3086 40.2208 42.1329 40.2852 41.9684C40.3495 41.804 40.4463 41.6542 40.5698 41.528C40.6933 41.4018 40.841 41.3018 41.004 41.2339C41.167 41.166 41.342 41.1316 41.5186 41.1329H43.8259L40.1953 44.7925ZM28.3594 5.4603C28.3594 4.9164 28.5754 4.39477 28.96 4.01017C29.3446 3.62558 29.8663 3.40952 30.4102 3.40952C30.9541 3.40952 31.4757 3.62558 31.8603 4.01017C32.2449 4.39477 32.4609 4.9164 32.4609 5.4603V7.1485H28.3594V5.4603ZM37.9688 12.0704H22.8516V10.1992C22.8516 9.29455 23.5312 8.55475 24.4363 8.55475H36.3144C36.7512 8.55557 37.17 8.72878 37.4798 9.03672C37.7896 9.34467 37.9653 9.76245 37.9688 10.1992V12.0704ZM44.4593 9.72662H39.3287C39.2093 9.01122 38.8417 8.36073 38.2905 7.8893C37.7393 7.41786 37.0397 7.15559 36.3144 7.1485H33.8672V6.56256H47.5448C48.3025 6.56256 48.8672 7.23135 48.8672 7.98885V20.4727L46.1719 22.2585V11.4987C46.1719 10.5384 45.4196 9.72662 44.4593 9.72662ZM54.801 18.2899L56.454 20.8059L38.7422 32.4433L37.1766 30.0606L37.089 29.9274L54.801 18.2899ZM36.1523 31.0627L37.3282 32.8524L34.9507 33.1337L36.1523 31.0627ZM57.6286 20.0331L55.9763 17.5181C56.2054 17.3709 56.4833 17.3202 56.7497 17.3768C57.016 17.4334 57.2493 17.5928 57.3988 17.8204L57.9158 18.6072C58.065 18.8349 58.1186 19.1121 58.065 19.379C58.0113 19.6459 57.8547 19.8809 57.6291 20.0331H57.6286Z" fill="#72BBFF"/>
<path d="M18.2812 13.8004C18.0948 13.8004 17.9159 13.8745 17.7841 14.0064C17.6522 14.1382 17.5781 14.3171 17.5781 14.5035V15.2412C17.5781 15.4277 17.6522 15.6066 17.7841 15.7384C17.9159 15.8703 18.0948 15.9444 18.2812 15.9444C18.4677 15.9444 18.6466 15.8703 18.7784 15.7384C18.9103 15.6066 18.9844 15.4277 18.9844 15.2412V14.5035C18.9844 14.3171 18.9103 14.1382 18.7784 14.0064C18.6466 13.8745 18.4677 13.8004 18.2812 13.8004Z" fill="#72BBFF"/>
<path d="M18.2812 16.7648C18.0948 16.7648 17.9159 16.8388 17.7841 16.9707C17.6522 17.1026 17.5781 17.2814 17.5781 17.4679V22.8585C17.5781 23.045 17.6522 23.2238 17.7841 23.3557C17.9159 23.4876 18.0948 23.5616 18.2812 23.5616C18.4677 23.5616 18.6466 23.4876 18.7784 23.3557C18.9103 23.2238 18.9844 23.045 18.9844 22.8585V17.4679C18.9844 17.2814 18.9103 17.1026 18.7784 16.9707C18.6466 16.8388 18.4677 16.7648 18.2812 16.7648Z" fill="#72BBFF"/>
<path d="M26.5227 43.0709C26.365 43.1108 26.226 43.2044 26.1298 43.3357C26.0335 43.4669 25.986 43.6275 25.9954 43.79C26.0101 44.0312 26.0175 44.2742 26.0176 44.5191C26.0158 46.1413 25.6869 47.7465 25.0506 49.2386C24.4142 50.7308 23.4834 52.0792 22.314 53.2034C21.1445 54.3276 19.7604 55.2044 18.2443 55.7814C16.7282 56.3584 15.1113 56.6238 13.4903 56.5615C7.23553 56.3193 2.16647 51.2504 1.92389 44.9951C1.81424 42.2077 2.67504 39.4685 4.35945 37.2449C6.04387 35.0212 8.44757 33.4508 11.1606 32.8015C13.8736 32.1522 16.7278 32.4642 19.2364 33.6843C21.7451 34.9044 23.7527 36.9571 24.9169 39.4921C24.9538 39.5779 25.0073 39.6555 25.0745 39.7204C25.1417 39.7853 25.2211 39.8361 25.3082 39.8699C25.3952 39.9038 25.4881 39.9199 25.5815 39.9175C25.6748 39.915 25.7668 39.894 25.8519 39.8556C25.937 39.8172 26.0137 39.7623 26.0773 39.6939C26.141 39.6256 26.1904 39.5453 26.2227 39.4577C26.255 39.37 26.2695 39.2769 26.2654 39.1836C26.2612 39.0903 26.2386 38.9987 26.1987 38.9143C25.0903 36.4998 23.2928 34.4669 21.0323 33.0711C18.7717 31.6754 16.1489 30.9791 13.4937 31.0699C6.36061 31.3147 0.615727 37.1779 0.50897 44.3144C0.482254 46.0899 0.807182 47.8532 1.46503 49.5026C2.12288 51.152 3.10063 52.6548 4.34195 53.9246C5.58327 55.1944 7.06361 56.206 8.69766 56.901C10.3317 57.5961 12.0872 57.9609 13.8628 57.9744C15.6385 57.9879 17.3993 57.6499 19.0438 56.9799C20.6882 56.3098 22.1838 55.3209 23.4443 54.0702C24.7048 52.8195 25.7054 51.3316 26.3883 49.6925C27.0712 48.0533 27.423 46.2952 27.4233 44.5195C27.4233 44.2471 27.4151 43.9767 27.3988 43.7083C27.3924 43.605 27.3632 43.5044 27.3134 43.4137C27.2636 43.323 27.1944 43.2444 27.1107 43.1835C27.027 43.1226 26.9309 43.081 26.8293 43.0615C26.7277 43.0421 26.623 43.0453 26.5227 43.0709Z" fill="#FF9D00"/>
</svg>
