<svg width="446" height="333" viewBox="0 0 446 333" fill="none" xmlns="http://www.w3.org/2000/svg">
<path d="M446 292.641H0V292.864H446V292.641Z" fill="#EBEBEB"/>
<path d="M395.95 301.149H366.407V301.372H395.95V301.149Z" fill="#EBEBEB"/>
<path d="M161.746 304.169H117.271V304.393H161.746V304.169Z" fill="#EBEBEB"/>
<path d="M365.515 309.451H339.174V309.675H365.515V309.451Z" fill="#EBEBEB"/>
<path d="M66.0615 307.95H46.7943V308.173H66.0615V307.95Z" fill="#EBEBEB"/>
<path d="M108.226 307.95H74.0004V308.173H108.226V307.95Z" fill="#EBEBEB"/>
<path d="M295.448 298.727H211.886V298.95H295.448V298.727Z" fill="#EBEBEB"/>
<path d="M211.404 252.782H39.1678C37.8185 252.78 36.5253 252.241 35.572 251.284C34.6188 250.327 34.0834 249.031 34.0834 247.679V5.103C34.0834 3.75115 34.6188 2.45453 35.572 1.49779C36.5253 0.541049 37.8185 0.00236752 39.1678 0L211.404 0C212.755 0 214.05 0.537636 215.006 1.49463C215.961 2.45163 216.497 3.7496 216.497 5.103V247.679C216.497 248.349 216.366 249.013 216.11 249.632C215.854 250.251 215.479 250.813 215.006 251.287C214.533 251.761 213.971 252.137 213.353 252.393C212.735 252.65 212.073 252.782 211.404 252.782ZM39.1678 0.223424C37.8776 0.225791 36.6411 0.740933 35.7297 1.65578C34.8183 2.57062 34.3064 3.81041 34.3064 5.103V247.679C34.3064 248.971 34.8183 250.211 35.7297 251.126C36.6411 252.041 37.8776 252.556 39.1678 252.558H211.404C212.695 252.556 213.932 252.041 214.845 251.127C215.758 250.212 216.272 248.972 216.274 247.679V5.103C216.272 3.80958 215.758 2.56982 214.845 1.65523C213.932 0.740642 212.695 0.225786 211.404 0.223424H39.1678Z" fill="#EBEBEB"/>
<path d="M404.353 252.782H232.107C230.757 252.78 229.463 252.241 228.508 251.285C227.554 250.328 227.016 249.032 227.014 247.679V5.103C227.016 3.75033 227.554 2.45373 228.508 1.49724C229.463 0.540758 230.757 0.00236276 232.107 0L404.353 0C405.7 0.00472963 406.991 0.544453 407.943 1.50094C408.894 2.45743 409.428 3.75269 409.428 5.103V247.679C409.428 249.029 408.894 250.324 407.943 251.281C406.991 252.237 405.7 252.777 404.353 252.782ZM232.107 0.223424C230.816 0.225786 229.579 0.740642 228.666 1.65523C227.753 2.56982 227.239 3.80958 227.237 5.103V247.679C227.239 248.972 227.753 250.212 228.666 251.127C229.579 252.041 230.816 252.556 232.107 252.558H404.353C405.643 252.556 406.881 252.041 407.794 251.127C408.707 250.212 409.22 248.972 409.223 247.679V5.103C409.22 3.80958 408.707 2.56982 407.794 1.65523C406.881 0.740642 405.643 0.225786 404.353 0.223424H232.107Z" fill="#EBEBEB"/>
<path d="M388.555 21.8866H253.765C247.853 21.8866 243.061 26.6881 243.061 32.6109V173.618C243.061 179.541 247.853 184.343 253.765 184.343H388.555C394.467 184.343 399.259 179.541 399.259 173.618V32.6109C399.259 26.6881 394.467 21.8866 388.555 21.8866Z" fill="#FAFAFA"/>
<path d="M364.123 68.2605C370.936 68.2605 376.46 62.7268 376.46 55.9007C376.46 49.0746 370.936 43.5409 364.123 43.5409C357.31 43.5409 351.787 49.0746 351.787 55.9007C351.787 62.7268 357.31 68.2605 364.123 68.2605Z" fill="#F0F0F0"/>
<path d="M331.824 68.2605C338.637 68.2605 344.16 62.7268 344.16 55.9007C344.16 49.0746 338.637 43.5409 331.824 43.5409C325.011 43.5409 319.488 49.0746 319.488 55.9007C319.488 62.7268 325.011 68.2605 331.824 68.2605Z" fill="white"/>
<path d="M332.877 165.584C324.166 165.586 315.65 162.999 308.407 158.152C301.164 153.304 295.518 146.414 292.184 138.351C288.849 130.288 287.976 121.416 289.675 112.857C291.374 104.297 295.569 96.4345 301.728 90.2634C307.887 84.0924 315.735 79.89 324.278 78.1878C332.822 76.4857 341.677 77.3602 349.724 80.7008C357.772 84.0413 364.649 89.6979 369.488 96.9551C374.326 104.212 376.907 112.744 376.906 121.471C376.894 133.167 372.251 144.38 363.997 152.651C355.742 160.921 344.55 165.572 332.877 165.584ZM332.877 78.2431C324.343 78.2413 316 80.7751 308.903 85.524C301.807 90.2729 296.275 97.0236 293.008 104.922C289.741 112.821 288.886 121.513 290.55 129.899C292.213 138.285 296.322 145.988 302.356 152.035C308.389 158.081 316.077 162.199 324.447 163.868C332.817 165.537 341.492 164.681 349.377 161.41C357.261 158.138 364 152.597 368.742 145.488C373.483 138.379 376.014 130.021 376.014 121.471C376 110.012 371.45 99.0266 363.364 90.9231C355.278 82.8196 344.314 78.2597 332.877 78.2431Z" fill="white"/>
<path d="M334.777 210.653C327.652 210.654 320.753 213.159 315.281 217.731C309.809 222.304 306.112 228.654 304.832 235.677C303.655 242.209 302.486 248.751 300.907 255.204L291.684 292.864H377.851L368.646 255.195C367.067 248.742 365.907 242.201 364.721 235.668C363.439 228.647 359.741 222.299 354.27 217.728C348.798 213.157 341.9 210.654 334.777 210.653Z" fill="#E0E0E0"/>
<path d="M339.54 210.653C332.415 210.654 325.516 213.159 320.044 217.731C314.573 222.304 310.875 228.654 309.595 235.677C308.409 242.209 307.24 248.751 305.671 255.204L296.456 292.864H382.614L373.4 255.195C371.83 248.742 370.662 242.201 369.484 235.668C368.203 228.647 364.504 222.299 359.033 217.728C353.561 213.157 346.663 210.654 339.54 210.653Z" fill="#E6E6E6"/>
<path d="M150.578 65.7313C151.539 61.7718 154.025 58.3546 157.494 56.2275C160.963 54.1004 165.131 53.4366 169.087 54.3814L307.348 87.7252C311.298 88.6893 314.707 91.1809 316.83 94.6557C318.953 98.1305 319.616 102.306 318.676 106.269C317.714 110.228 315.227 113.643 311.758 115.77C308.29 117.897 304.123 118.562 300.167 117.619L161.907 84.2755C157.956 83.3114 154.547 80.8197 152.424 77.3449C150.302 73.8701 149.638 69.6948 150.578 65.7313Z" fill="#E0E0E0"/>
<path d="M153.246 64.0869C154.204 60.1258 156.69 56.7064 160.159 54.5775C163.628 52.4486 167.797 51.7835 171.755 52.728L310.015 86.0718C313.967 87.0338 317.377 89.5251 319.5 93.0005C321.623 96.4759 322.286 100.652 321.343 104.616C320.381 108.574 317.894 111.99 314.426 114.117C310.957 116.243 306.79 116.908 302.834 115.966L164.574 82.6222C160.628 81.6538 157.223 79.1626 155.101 75.6911C152.98 72.2195 152.313 68.0488 153.246 64.0869Z" fill="#EBEBEB"/>
<path d="M171.79 68.5643C172.285 66.529 173.564 64.7727 175.347 63.6792C177.131 62.5857 179.274 62.2439 181.308 62.7285L296.938 90.6207C298.969 91.1166 300.722 92.3979 301.814 94.1847C302.905 95.9715 303.246 98.1185 302.763 100.156C302.268 102.192 300.989 103.949 299.206 105.044C297.423 106.139 295.28 106.483 293.245 106.001L177.615 78.1001C175.584 77.6042 173.831 76.3229 172.739 74.5361C171.648 72.7494 171.307 70.6024 171.79 68.5643Z" fill="#E0E0E0"/>
<path d="M153.549 65.4453C149.89 61.7749 145.4 59.0453 140.461 57.4892C135.522 55.9331 130.28 55.5966 125.183 56.5084C115.844 58.1349 112.392 69.7887 119.064 76.5003L142.515 99.9956C149.214 106.707 160.845 103.222 162.487 93.8648C163.395 88.7568 163.056 83.5045 161.5 78.5559C159.943 73.6073 157.215 69.1093 153.549 65.4453Z" fill="#F5F5F5"/>
<path d="M99.5204 168.363V159.426C107.388 159.43 115.08 157.096 121.623 152.719C128.166 148.343 133.267 142.12 136.28 134.839C139.293 127.558 140.083 119.544 138.55 111.813C137.018 104.082 133.231 96.9796 127.669 91.4047C122.107 85.8298 115.02 82.0327 107.304 80.4937C99.5885 78.9546 91.5903 79.7427 84.3214 82.7583C77.0526 85.774 70.8397 90.8816 66.4684 97.4353C62.0972 103.989 59.764 111.694 59.764 119.577H50.844C50.844 109.927 53.6999 100.495 59.0505 92.472C64.4011 84.4491 72.0061 78.1959 80.9038 74.5034C89.8015 70.8108 99.5923 69.8447 109.038 71.7271C118.484 73.6096 127.16 78.2561 133.97 85.079C140.78 91.902 145.418 100.595 147.297 110.059C149.176 119.522 148.211 129.332 144.526 138.246C140.84 147.161 134.599 154.781 126.591 160.141C118.584 165.502 109.169 168.363 99.5383 168.363H99.5204Z" fill="#EBEBEB"/>
<path d="M125.959 93.0874C129.117 96.2511 134.46 96.4924 140.035 94.276C145.244 92.2116 148.589 85.5267 145.851 82.7741L136.253 73.158C133.506 70.4143 126.833 73.7657 124.773 78.9849C122.561 84.5705 122.802 89.9237 125.959 93.0874Z" fill="#F5F5F5"/>
<path d="M153.549 75.2761C158.968 75.2761 163.361 70.8747 163.361 65.4454C163.361 60.0161 158.968 55.6147 153.549 55.6147C148.13 55.6147 143.737 60.0161 143.737 65.4454C143.737 70.8747 148.13 75.2761 153.549 75.2761Z" fill="#FAFAFA"/>
<path d="M287.921 75.792L282.208 77.9609C271.824 81.9024 266.595 93.5314 270.529 103.935L317.529 228.224C321.463 238.628 333.07 243.866 343.454 239.925L349.168 237.756C359.551 233.814 364.78 222.185 360.846 211.782L313.846 87.4924C309.912 77.0889 298.305 71.8504 287.921 75.792Z" fill="#E0E0E0"/>
<path d="M292.679 75.7933L286.966 77.9622C276.582 81.9037 271.353 93.5327 275.287 103.936L322.287 228.225C326.221 238.629 337.828 243.868 348.212 239.926L353.926 237.757C364.309 233.816 369.538 222.187 365.604 211.783L318.604 87.4938C314.67 77.0902 303.063 71.8517 292.679 75.7933Z" fill="#F0F0F0"/>
<path d="M341.145 222.423C340.861 222.421 340.583 222.335 340.347 222.176C340.111 222.017 339.926 221.792 339.816 221.529L292.808 97.243C292.689 96.8998 292.705 96.524 292.852 96.192C292.999 95.86 293.268 95.5967 293.602 95.4556L299.32 93.284C299.458 93.2245 299.606 93.1941 299.757 93.1946C300.041 93.1981 300.318 93.2844 300.554 93.4432C300.79 93.6019 300.975 93.826 301.086 94.0883L348.094 218.375C348.215 218.718 348.201 219.094 348.053 219.427C347.905 219.759 347.636 220.023 347.3 220.162L341.582 222.334C341.443 222.388 341.295 222.419 341.145 222.423Z" fill="#E0E0E0"/>
<path d="M349.494 210.653C342.369 210.654 335.471 213.159 329.999 217.731C324.527 222.304 320.83 228.654 319.55 235.677C318.373 242.209 317.204 248.751 315.625 255.204L306.42 292.864H392.569L383.364 255.195C381.785 248.742 380.625 242.201 379.439 235.668C378.157 228.647 374.459 222.299 368.988 217.728C363.516 213.157 356.618 210.654 349.494 210.653Z" fill="#E0E0E0"/>
<path d="M354.258 210.653C347.133 210.654 340.234 213.159 334.762 217.731C329.291 222.304 325.593 228.654 324.313 235.677C323.127 242.209 321.958 248.751 320.389 255.204L311.174 292.864H397.332L388.118 255.195C386.548 248.742 385.38 242.201 384.202 235.668C382.921 228.647 379.222 222.299 373.751 217.728C368.279 213.157 361.382 210.654 354.258 210.653Z" fill="#F5F5F5"/>
<path d="M313.265 114.127C321.563 105.813 321.563 92.3346 313.265 84.0212C304.968 75.7078 291.514 75.7078 283.217 84.0212C274.919 92.3346 274.919 105.813 283.217 114.127C291.514 122.44 304.968 122.44 313.265 114.127Z" fill="#FAFAFA"/>
<path d="M298.24 116.368C294.826 116.37 291.488 115.357 288.649 113.458C285.809 111.559 283.595 108.859 282.287 105.699C280.98 102.539 280.637 99.062 281.302 95.7069C281.967 92.3518 283.61 89.2696 286.023 86.8503C288.437 84.4309 291.512 82.783 294.861 82.115C298.209 81.4471 301.68 81.789 304.834 83.0976C307.989 84.4062 310.685 86.6227 312.582 89.4667C314.479 92.3107 315.491 95.6545 315.491 99.0751C315.487 103.659 313.668 108.053 310.434 111.295C307.2 114.537 302.815 116.361 298.24 116.368ZM298.24 82.6222C294.992 82.6222 291.817 83.5871 289.117 85.395C286.416 87.2029 284.311 89.7725 283.068 92.7789C281.826 95.7852 281.5 99.0934 282.134 102.285C282.768 105.476 284.332 108.408 286.628 110.709C288.925 113.01 291.851 114.577 295.036 115.212C298.222 115.847 301.524 115.521 304.525 114.276C307.525 113.03 310.09 110.922 311.894 108.216C313.699 105.51 314.662 102.329 314.662 99.0751C314.657 94.713 312.926 90.5309 309.847 87.4464C306.768 84.3619 302.594 82.6269 298.24 82.6222Z" fill="#E0E0E0"/>
<path d="M126.7 234.193H64.4114V292.641H126.7V234.193Z" fill="#F5F5F5"/>
<path d="M45.6794 292.632H64.4114L64.4114 234.184H45.6794L45.6794 292.632Z" fill="#E6E6E6"/>
<path d="M67.685 234.184H120.679V198.24H67.685V234.184Z" fill="#F0F0F0"/>
<path d="M136.619 198.249H120.679V234.193H136.619V198.249Z" fill="#E0E0E0"/>
<path d="M155.226 292.641H201.333V238.358H155.226V292.641Z" fill="#E6E6E6"/>
<path d="M196.829 287.252H159.739V243.738H196.829V287.252ZM160.631 286.358H195.937V244.631H160.631V286.358Z" fill="#F5F5F5"/>
<path d="M215.195 238.349H201.333V292.632H215.195V238.349Z" fill="#F5F5F5"/>
<path d="M39.5423 173.868H85.6498V119.576H39.5423L39.5423 173.868Z" fill="#E6E6E6"/>
<path d="M99.5116 119.577H85.6499V173.869H99.5116V119.577Z" fill="#F5F5F5"/>
<path d="M223 333C318.518 333 395.95 328.471 395.95 322.883C395.95 317.296 318.518 312.767 223 312.767C127.482 312.767 50.0502 317.296 50.0502 322.883C50.0502 328.471 127.482 333 223 333Z" fill="#F5F5F5"/>
<path d="M140.82 199.598H224.481V191.251H140.82C139.711 191.251 138.646 191.693 137.862 192.479C137.077 193.265 136.637 194.331 136.637 195.442C136.646 196.548 137.091 197.605 137.874 198.383C138.658 199.161 139.717 199.598 140.82 199.598Z" fill="#263238"/>
<path d="M173.146 321.695H178.48L178.48 199.607H173.146L173.146 321.695Z" fill="#6473F9"/>
<path opacity="0.7" d="M173.146 321.695H178.48L178.48 199.607H173.146L173.146 321.695Z" fill="white"/>
<path d="M146.672 321.695H152.006L152.006 199.607H146.672L146.672 321.695Z" fill="#6473F9"/>
<path opacity="0.7" d="M146.672 321.695H152.006L152.006 199.607H146.672L146.672 321.695Z" fill="white"/>
<path d="M140.82 198.132C142.323 198.132 143.541 196.912 143.541 195.407C143.541 193.901 142.323 192.681 140.82 192.681C139.318 192.681 138.099 193.901 138.099 195.407C138.099 196.912 139.318 198.132 140.82 198.132Z" fill="#6473F9"/>
<path d="M150.052 195.407C150.061 195.933 150.224 196.445 150.522 196.879C150.819 197.313 151.238 197.65 151.725 197.847C152.212 198.044 152.746 198.094 153.261 197.989C153.776 197.884 154.249 197.63 154.62 197.257C154.992 196.885 155.246 196.411 155.35 195.896C155.455 195.38 155.406 194.844 155.209 194.356C155.012 193.868 154.676 193.449 154.243 193.151C153.809 192.853 153.298 192.69 152.773 192.681C152.414 192.675 152.057 192.741 151.725 192.876C151.392 193.011 151.089 193.211 150.836 193.466C150.582 193.72 150.382 194.023 150.247 194.356C150.112 194.69 150.046 195.047 150.052 195.407Z" fill="#6473F9"/>
<path d="M164.726 198.132C166.228 198.132 167.446 196.912 167.446 195.407C167.446 193.901 166.228 192.681 164.726 192.681C163.223 192.681 162.005 193.901 162.005 195.407C162.005 196.912 163.223 198.132 164.726 198.132Z" fill="#6473F9"/>
<path d="M176.678 198.132C178.181 198.132 179.399 196.912 179.399 195.407C179.399 193.901 178.181 192.681 176.678 192.681C175.176 192.681 173.958 193.901 173.958 195.407C173.958 196.912 175.176 198.132 176.678 198.132Z" fill="#6473F9"/>
<path d="M188.622 198.132C190.125 198.132 191.343 196.912 191.343 195.407C191.343 193.901 190.125 192.681 188.622 192.681C187.12 192.681 185.902 193.901 185.902 195.407C185.902 196.912 187.12 198.132 188.622 198.132Z" fill="#6473F9"/>
<path d="M200.575 198.132C202.078 198.132 203.296 196.912 203.296 195.407C203.296 193.901 202.078 192.681 200.575 192.681C199.073 192.681 197.854 193.901 197.854 195.407C197.854 196.912 199.073 198.132 200.575 198.132Z" fill="#6473F9"/>
<path d="M212.528 198.132C214.031 198.132 215.249 196.912 215.249 195.407C215.249 193.901 214.031 192.681 212.528 192.681C211.025 192.681 209.807 193.901 209.807 195.407C209.807 196.912 211.025 198.132 212.528 198.132Z" fill="#6473F9"/>
<path d="M224.481 192.681V198.132C223.759 198.132 223.067 197.845 222.557 197.334C222.047 196.823 221.76 196.129 221.76 195.407C221.76 194.684 222.047 193.99 222.557 193.479C223.067 192.968 223.759 192.681 224.481 192.681Z" fill="#6473F9"/>
<path d="M265.504 97.9669H259.964V98.8606H265.504V97.9669Z" fill="#6473F9"/>
<path d="M254.818 97.9669H236.978V98.8606H254.818V97.9669Z" fill="#6473F9"/>
<path d="M202.689 101.095H288.508C290.451 101.095 292.313 101.868 293.687 103.244C295.06 104.62 295.832 106.486 295.832 108.432V321.73H195.348V108.432C195.348 107.467 195.538 106.511 195.907 105.62C196.276 104.729 196.817 103.919 197.499 103.238C198.181 102.556 198.991 102.016 199.881 101.648C200.772 101.281 201.726 101.093 202.689 101.095Z" fill="#6473F9"/>
<path opacity="0.2" d="M223.161 165.816H195.366V164.994H222.34V101.095H223.161V165.816Z" fill="white"/>
<path opacity="0.4" d="M272.827 101.095H288.508C290.451 101.095 292.313 101.868 293.687 103.244C295.06 104.62 295.832 106.486 295.832 108.432V321.73H265.504V108.432C265.504 106.486 266.275 104.62 267.649 103.244C269.022 101.868 270.885 101.095 272.827 101.095Z" fill="#263238"/>
<path d="M275.164 137.692H286.18C287.127 137.692 288.034 138.068 288.703 138.739C289.372 139.409 289.748 140.318 289.748 141.266V208.437H271.605V141.257C271.607 140.312 271.983 139.407 272.65 138.739C273.317 138.07 274.221 137.694 275.164 137.692Z" fill="#6473F9"/>
<path d="M275.164 137.692H284.709C285.655 137.692 286.562 138.068 287.232 138.739C287.901 139.409 288.277 140.318 288.277 141.266V208.437H271.605V141.258C271.605 140.309 271.981 139.4 272.65 138.73C273.319 138.059 274.227 137.683 275.173 137.683L275.164 137.692Z" fill="black"/>
<path opacity="0.2" d="M265.504 309.666H234.409V208.928H265.504V209.759H235.229V308.843H265.504V309.666Z" fill="white"/>
<path opacity="0.2" d="M222.501 309.666C221.47 309.666 220.462 309.359 219.605 308.785C218.749 308.212 218.081 307.396 217.687 306.442C217.293 305.487 217.19 304.438 217.392 303.425C217.594 302.412 218.091 301.482 218.82 300.753C219.55 300.023 220.479 299.527 221.49 299.326C222.501 299.126 223.549 299.231 224.5 299.627C225.452 300.024 226.265 300.694 226.836 301.553C227.408 302.413 227.712 303.423 227.71 304.455C227.707 305.838 227.158 307.163 226.181 308.14C225.204 309.117 223.881 309.666 222.501 309.666ZM222.501 300.067C221.634 300.067 220.788 300.325 220.067 300.807C219.347 301.289 218.786 301.974 218.454 302.776C218.123 303.578 218.036 304.46 218.205 305.311C218.374 306.163 218.791 306.945 219.404 307.558C220.016 308.172 220.797 308.59 221.646 308.759C222.496 308.928 223.376 308.842 224.177 308.509C224.977 308.177 225.661 307.615 226.142 306.893C226.623 306.172 226.88 305.323 226.88 304.455C226.878 303.292 226.416 302.178 225.595 301.355C224.774 300.533 223.661 300.07 222.501 300.067Z" fill="white"/>
<path opacity="0.2" d="M208.594 309.666C207.563 309.667 206.555 309.363 205.697 308.79C204.839 308.217 204.17 307.402 203.774 306.448C203.379 305.494 203.275 304.444 203.476 303.43C203.676 302.417 204.173 301.486 204.902 300.756C205.631 300.026 206.56 299.528 207.571 299.327C208.582 299.126 209.631 299.23 210.583 299.626C211.535 300.022 212.349 300.693 212.92 301.552C213.492 302.412 213.796 303.422 213.795 304.455C213.792 305.837 213.244 307.16 212.269 308.137C211.294 309.114 209.973 309.663 208.594 309.666ZM208.594 300.067C207.728 300.067 206.881 300.325 206.161 300.807C205.441 301.289 204.879 301.974 204.548 302.776C204.216 303.578 204.13 304.46 204.299 305.311C204.468 306.163 204.885 306.945 205.497 307.558C206.11 308.172 206.89 308.59 207.74 308.759C208.589 308.928 209.47 308.842 210.27 308.509C211.07 308.177 211.755 307.615 212.236 306.893C212.717 306.172 212.974 305.323 212.974 304.455C212.972 303.292 212.509 302.178 211.688 301.355C210.868 300.533 209.755 300.07 208.594 300.067Z" fill="white"/>
<path d="M381.696 199.598H298.035V191.251H381.696C382.805 191.251 383.869 191.693 384.654 192.479C385.438 193.265 385.879 194.331 385.879 195.442C385.87 196.548 385.425 197.605 384.641 198.383C383.858 199.161 382.799 199.598 381.696 199.598Z" fill="#6473F9"/>
<path d="M355.275 199.598H271.605V191.251H355.275C356.384 191.251 357.448 191.693 358.233 192.479C359.017 193.265 359.458 194.331 359.458 195.442C359.449 196.548 359.004 197.605 358.22 198.383C357.437 199.161 356.378 199.598 355.275 199.598Z" fill="#263238"/>
<path d="M349.37 199.598H344.036V321.686H349.37V199.598Z" fill="#6473F9"/>
<path opacity="0.7" d="M349.37 199.598H344.036V321.686H349.37V199.598Z" fill="white"/>
<path d="M375.844 199.598H370.51V321.686H375.844V199.598Z" fill="#6473F9"/>
<path opacity="0.7" d="M375.844 199.598H370.51V321.686H375.844V199.598Z" fill="white"/>
<path d="M355.275 198.132C356.777 198.132 357.995 196.912 357.995 195.407C357.995 193.901 356.777 192.681 355.275 192.681C353.772 192.681 352.554 193.901 352.554 195.407C352.554 196.912 353.772 198.132 355.275 198.132Z" fill="#6473F9"/>
<path d="M343.322 198.132C344.824 198.132 346.043 196.912 346.043 195.407C346.043 193.901 344.824 192.681 343.322 192.681C341.819 192.681 340.601 193.901 340.601 195.407C340.601 196.912 341.819 198.132 343.322 198.132Z" fill="#6473F9"/>
<path d="M331.369 198.132C332.872 198.132 334.09 196.912 334.09 195.407C334.09 193.901 332.872 192.681 331.369 192.681C329.866 192.681 328.648 193.901 328.648 195.407C328.648 196.912 329.866 198.132 331.369 198.132Z" fill="#6473F9"/>
<path d="M319.416 198.132C320.919 198.132 322.137 196.912 322.137 195.407C322.137 193.901 320.919 192.681 319.416 192.681C317.914 192.681 316.696 193.901 316.696 195.407C316.696 196.912 317.914 198.132 319.416 198.132Z" fill="#6473F9"/>
<path d="M307.464 198.132C308.966 198.132 310.184 196.912 310.184 195.407C310.184 193.901 308.966 192.681 307.464 192.681C305.961 192.681 304.743 193.901 304.743 195.407C304.743 196.912 305.961 198.132 307.464 198.132Z" fill="#6473F9"/>
<path d="M295.511 198.132C297.013 198.132 298.231 196.912 298.231 195.407C298.231 193.901 297.013 192.681 295.511 192.681C294.008 192.681 292.79 193.901 292.79 195.407C292.79 196.912 294.008 198.132 295.511 198.132Z" fill="#6473F9"/>
<path d="M283.558 198.132C285.06 198.132 286.278 196.912 286.278 195.407C286.278 193.901 285.06 192.681 283.558 192.681C282.055 192.681 280.837 193.901 280.837 195.407C280.837 196.912 282.055 198.132 283.558 198.132Z" fill="#6473F9"/>
<path d="M271.605 192.681V198.132C272.327 198.132 273.019 197.845 273.529 197.334C274.039 196.823 274.326 196.129 274.326 195.407C274.326 194.684 274.039 193.99 273.529 193.479C273.019 192.968 272.327 192.681 271.605 192.681Z" fill="#6473F9"/>
<path d="M253.944 123.125H206.926C205.202 123.125 203.804 124.525 203.804 126.252V219.42C203.804 221.148 205.202 222.548 206.926 222.548H253.944C255.668 222.548 257.066 221.148 257.066 219.42V126.252C257.066 124.525 255.668 123.125 253.944 123.125Z" fill="white"/>
<path opacity="0.3" d="M248.047 133.742H212.822C210.985 133.742 209.495 135.234 209.495 137.075V160.052C209.495 161.893 210.985 163.385 212.822 163.385H248.047C249.885 163.385 251.374 161.893 251.374 160.052V137.075C251.374 135.234 249.885 133.742 248.047 133.742Z" fill="#6473F9"/>
<path opacity="0.3" d="M248.217 167.63H212.653C210.909 167.63 209.495 169.047 209.495 170.794V184.879C209.495 186.626 210.909 188.043 212.653 188.043H248.217C249.961 188.043 251.374 186.626 251.374 184.879V170.794C251.374 169.047 249.961 167.63 248.217 167.63Z" fill="#6473F9"/>
<path d="M222.108 177.845L215.115 175.298C215.675 173.757 216.727 172.443 218.107 171.562C219.488 170.68 221.121 170.279 222.752 170.422C224.383 170.564 225.922 171.242 227.13 172.35C228.337 173.458 229.146 174.934 229.431 176.55L222.108 177.845Z" fill="#6473F9"/>
<path d="M222.108 177.845L229.431 176.55C229.505 176.978 229.544 177.411 229.547 177.845C229.48 179.779 228.667 181.611 227.278 182.954C225.89 184.298 224.034 185.05 222.104 185.05C220.173 185.05 218.317 184.298 216.929 182.954C215.54 181.611 214.727 179.779 214.66 177.845C214.659 176.976 214.813 176.114 215.115 175.298L222.108 177.845Z" fill="white"/>
<path d="M242.437 176.871H239.618V185.29H242.437V176.871Z" fill="white"/>
<path d="M237.638 181.349H234.819V185.29H237.638V181.349Z" fill="white"/>
<path d="M237.638 178.945H234.819V181.349H237.638V178.945Z" fill="#6473F9"/>
<path d="M242.437 171.741H239.618V176.871H242.437V171.741Z" fill="#6473F9"/>
<path d="M247.227 178.4H244.408V185.281H247.227V178.4Z" fill="white"/>
<path d="M247.227 175.245H244.408V178.4H247.227V175.245Z" fill="#6473F9"/>
<path d="M215.587 154.967H245.184C245.385 154.966 245.583 154.915 245.759 154.818C245.935 154.721 246.084 154.58 246.191 154.41C246.299 154.24 246.362 154.045 246.375 153.844C246.387 153.643 246.349 153.442 246.263 153.26C245.106 150.75 244.405 148.054 244.194 145.297C243.641 139.041 239.413 137.522 237.611 145.297C235.809 153.072 228.611 149.06 225.676 145.369C222.946 141.928 218.486 145.735 214.526 153.197C214.429 153.381 214.382 153.586 214.387 153.794C214.393 154.001 214.452 154.204 214.559 154.382C214.666 154.56 214.816 154.707 214.997 154.81C215.177 154.912 215.38 154.966 215.587 154.967Z" fill="#6473F9"/>
<path d="M214.446 194.96C215.263 194.96 216.061 195.202 216.74 195.657C217.419 196.112 217.949 196.758 218.261 197.514C218.574 198.27 218.656 199.102 218.496 199.905C218.337 200.708 217.944 201.445 217.366 202.023C216.788 202.602 216.053 202.996 215.251 203.156C214.45 203.316 213.62 203.234 212.865 202.92C212.111 202.607 211.466 202.077 211.012 201.396C210.558 200.716 210.316 199.916 210.316 199.098C210.318 198.001 210.754 196.95 211.528 196.174C212.302 195.399 213.351 194.962 214.446 194.96ZM214.446 194.129C213.465 194.129 212.506 194.42 211.69 194.966C210.875 195.512 210.239 196.288 209.864 197.196C209.488 198.104 209.39 199.103 209.582 200.067C209.773 201.031 210.245 201.916 210.939 202.611C211.632 203.306 212.516 203.779 213.478 203.971C214.44 204.163 215.437 204.064 216.344 203.688C217.25 203.312 218.024 202.675 218.569 201.858C219.114 201.041 219.405 200.08 219.405 199.098C219.406 198.445 219.279 197.798 219.03 197.195C218.781 196.591 218.416 196.043 217.955 195.581C217.494 195.12 216.947 194.754 216.345 194.505C215.743 194.255 215.097 194.127 214.446 194.129Z" fill="#263238"/>
<path d="M227.906 194.96C228.723 194.96 229.521 195.202 230.2 195.657C230.88 196.112 231.409 196.758 231.722 197.514C232.034 198.27 232.116 199.102 231.957 199.905C231.797 200.708 231.404 201.445 230.826 202.023C230.249 202.602 229.513 202.996 228.712 203.156C227.911 203.316 227.08 203.234 226.325 202.92C225.571 202.607 224.926 202.077 224.472 201.396C224.018 200.716 223.776 199.916 223.776 199.098C223.778 198.001 224.214 196.95 224.988 196.174C225.762 195.399 226.811 194.962 227.906 194.96ZM227.906 194.129C226.925 194.127 225.965 194.417 225.148 194.962C224.331 195.507 223.694 196.282 223.318 197.19C222.941 198.098 222.841 199.097 223.032 200.062C223.222 201.026 223.694 201.912 224.387 202.608C225.08 203.304 225.964 203.778 226.926 203.97C227.888 204.163 228.886 204.065 229.793 203.689C230.7 203.313 231.475 202.676 232.02 201.859C232.565 201.042 232.857 200.081 232.857 199.098C232.858 198.445 232.731 197.8 232.482 197.197C232.234 196.594 231.87 196.046 231.41 195.585C230.95 195.123 230.404 194.757 229.802 194.507C229.201 194.257 228.557 194.129 227.906 194.129Z" fill="#6473F9"/>
<path d="M251.375 212.288C251.375 212.713 251.249 213.128 251.013 213.481C250.778 213.834 250.443 214.109 250.051 214.271C249.659 214.433 249.228 214.475 248.813 214.391C248.397 214.308 248.016 214.103 247.717 213.802C247.418 213.501 247.215 213.118 247.133 212.701C247.051 212.285 247.095 211.853 247.259 211.461C247.422 211.07 247.698 210.735 248.051 210.501C248.404 210.266 248.819 210.142 249.243 210.144C249.809 210.146 250.351 210.373 250.751 210.775C251.15 211.177 251.375 211.721 251.375 212.288Z" fill="#6473F9"/>
<path opacity="0.3" d="M241.973 212.288C241.973 212.713 241.847 213.128 241.611 213.481C241.376 213.834 241.041 214.109 240.649 214.271C240.258 214.433 239.827 214.475 239.411 214.391C238.996 214.308 238.614 214.103 238.315 213.802C238.016 213.501 237.813 213.118 237.731 212.701C237.65 212.285 237.693 211.853 237.857 211.461C238.02 211.07 238.296 210.735 238.649 210.501C239.002 210.266 239.417 210.142 239.841 210.144C240.407 210.146 240.949 210.373 241.349 210.775C241.749 211.177 241.973 211.721 241.973 212.288Z" fill="#6473F9"/>
<path d="M232.571 212.289C232.571 212.713 232.446 213.127 232.21 213.48C231.975 213.833 231.641 214.108 231.25 214.27C230.858 214.432 230.428 214.475 230.013 214.392C229.597 214.309 229.216 214.105 228.917 213.805C228.617 213.505 228.413 213.123 228.331 212.707C228.248 212.291 228.29 211.86 228.453 211.468C228.615 211.076 228.889 210.741 229.241 210.505C229.593 210.269 230.007 210.144 230.43 210.144C230.998 210.144 231.543 210.37 231.944 210.772C232.346 211.174 232.571 211.72 232.571 212.289Z" fill="#6473F9"/>
<path d="M223.169 212.289C223.169 212.713 223.044 213.127 222.809 213.48C222.573 213.833 222.239 214.108 221.848 214.27C221.457 214.432 221.026 214.475 220.611 214.392C220.196 214.309 219.814 214.105 219.515 213.805C219.215 213.505 219.012 213.123 218.929 212.707C218.846 212.291 218.889 211.86 219.051 211.468C219.213 211.076 219.487 210.741 219.839 210.505C220.191 210.269 220.605 210.144 221.029 210.144C221.596 210.144 222.141 210.37 222.542 210.772C222.944 211.174 223.169 211.72 223.169 212.289Z" fill="#6473F9"/>
<path d="M213.768 212.289C213.768 212.713 213.642 213.127 213.407 213.48C213.172 213.833 212.837 214.108 212.446 214.27C212.055 214.432 211.625 214.475 211.209 214.392C210.794 214.309 210.413 214.105 210.113 213.805C209.814 213.505 209.61 213.123 209.527 212.707C209.445 212.291 209.487 211.86 209.649 211.468C209.811 211.076 210.086 210.741 210.438 210.505C210.79 210.269 211.204 210.144 211.627 210.144C212.195 210.144 212.739 210.37 213.141 210.772C213.542 211.174 213.768 211.72 213.768 212.289Z" fill="#6473F9"/>
<path d="M355.266 158.694H308.213V191.215H355.266V158.694Z" fill="#FF9D00"/>
<path opacity="0.7" d="M328.648 158.694H320.237V170.642H328.648V158.694Z" fill="white"/>
<path opacity="0.2" d="M355.275 158.694H340.601V191.215H355.275V158.694Z" fill="black"/>
<path opacity="0.7" d="M350.279 158.694H345.588V170.642H350.279V158.694Z" fill="#6473F9"/>
<path d="M317.267 182.144V187.453H311.968V182.144H317.267ZM318.087 181.322H311.139V188.284H318.087V181.322Z" fill="white"/>
<path opacity="0.4" d="M327.962 181.322H321.013V188.284H327.962V181.322Z" fill="#263238"/>
<path d="M180.862 164.074H167.054C166.67 164.074 166.358 164.386 166.358 164.771V190.518C166.358 190.903 166.67 191.215 167.054 191.215H180.862C181.246 191.215 181.558 190.903 181.558 190.518V164.771C181.558 164.386 181.246 164.074 180.862 164.074Z" fill="#263238"/>
<path d="M166.242 164.074H180.041C180.226 164.074 180.403 164.147 180.533 164.278C180.664 164.408 180.737 164.586 180.737 164.771V190.509C180.737 190.694 180.664 190.871 180.533 191.002C180.403 191.133 180.226 191.206 180.041 191.206H166.242C166.055 191.206 165.876 191.132 165.744 190.999C165.612 190.867 165.537 190.687 165.537 190.5V164.762C165.539 164.67 165.558 164.58 165.594 164.496C165.63 164.411 165.682 164.335 165.747 164.271C165.813 164.207 165.89 164.157 165.975 164.123C166.06 164.089 166.151 164.072 166.242 164.074Z" fill="#6473F9"/>
<path d="M179.916 189.75V165.548C179.916 165.193 179.629 164.905 179.274 164.905H167.009C166.654 164.905 166.367 165.193 166.367 165.548V189.75C166.367 190.105 166.654 190.393 167.009 190.393H179.274C179.629 190.393 179.916 190.105 179.916 189.75Z" fill="white"/>
<path opacity="0.2" d="M172.879 164.905H170.078L167.973 190.384H170.782L172.879 164.905Z" fill="#6473F9"/>
<path opacity="0.2" d="M175.688 164.905H173.869L171.772 190.384H173.583L175.688 164.905Z" fill="#6473F9"/>
<path d="M167.473 138.425H144.914C144.803 138.431 144.692 138.41 144.591 138.364C144.489 138.318 144.4 138.248 144.331 138.161C144.262 138.073 144.215 137.97 144.194 137.861C144.173 137.751 144.178 137.638 144.21 137.531L150.061 106.251C150.107 106.007 150.235 105.786 150.423 105.624C150.611 105.461 150.848 105.368 151.096 105.358H173.646C173.757 105.352 173.868 105.373 173.97 105.419C174.071 105.465 174.161 105.535 174.23 105.622C174.3 105.709 174.348 105.812 174.37 105.921C174.393 106.031 174.389 106.144 174.359 106.251L168.508 137.531C168.462 137.775 168.334 137.996 168.146 138.159C167.958 138.321 167.721 138.415 167.473 138.425Z" fill="#6473F9"/>
<path d="M166.67 137.12H145.441C145.338 137.124 145.236 137.105 145.142 137.063C145.048 137.02 144.965 136.957 144.9 136.877C144.835 136.797 144.79 136.703 144.767 136.603C144.745 136.502 144.747 136.398 144.772 136.298L150.275 106.806C150.325 106.579 150.448 106.375 150.625 106.226C150.803 106.077 151.025 105.992 151.257 105.983H172.486C172.589 105.979 172.691 105.999 172.785 106.041C172.879 106.083 172.962 106.146 173.027 106.226C173.092 106.306 173.137 106.4 173.159 106.501C173.182 106.601 173.18 106.706 173.155 106.806L167.643 136.298C167.597 136.524 167.475 136.729 167.299 136.878C167.123 137.027 166.901 137.112 166.67 137.12Z" fill="white"/>
<path d="M117.325 107.556L117.129 107.976L116.888 108.513L116.415 109.648C116.112 110.425 115.826 111.221 115.568 112.034C115.041 113.651 114.551 115.305 114.167 116.994C113.363 120.4 112.821 123.863 112.544 127.352L112.446 128.603C112.446 128.773 112.446 128.817 112.365 128.674C112.228 128.437 112.031 128.24 111.794 128.102C111.563 127.986 111.491 128.031 111.589 128.102C112.123 128.203 112.67 128.203 113.204 128.102C113.985 127.985 114.757 127.812 115.514 127.584C118.892 126.512 122.194 125.213 125.397 123.697L127.556 127.057C124.532 129.543 121.212 131.644 117.673 133.313C116.697 133.756 115.693 134.132 114.667 134.439C113.403 134.828 112.079 134.982 110.76 134.895C109.763 134.824 108.797 134.517 107.941 134.001C106.92 133.351 106.13 132.393 105.684 131.266C105.35 130.412 105.177 129.503 105.176 128.585V127.048C105.183 123.099 105.574 119.16 106.344 115.287C106.726 113.324 107.23 111.387 107.852 109.487C108.155 108.53 108.512 107.583 108.886 106.627C109.083 106.153 109.27 105.671 109.493 105.188L109.841 104.464C109.975 104.205 110.073 104.008 110.269 103.642L117.325 107.556Z" fill="#E6A57D"/>
<path d="M122.641 75.714C123.533 80.397 125.62 90.6208 122.347 93.7488C122.347 93.7488 123.622 98.5032 132.31 98.5032C141.873 98.5032 136.877 93.7488 136.877 93.7488C131.668 92.5065 131.802 88.6279 132.712 84.9816L122.641 75.714Z" fill="#E6A57D"/>
<path d="M120.42 95.3752C120.42 95.3752 119.582 92.6941 119.269 91.1301C118.957 89.5662 130.678 90.0756 134.558 91.0765C138.438 92.0775 139.678 96.6264 139.678 96.6264L120.42 95.3752Z" fill="#263238"/>
<path d="M143.541 74.6237C143.802 76.1701 144.273 77.6735 144.941 79.0921C144.579 79.2596 144.185 79.3464 143.786 79.3464C143.387 79.3464 142.993 79.2596 142.631 79.0921L143.541 74.6237Z" fill="#A02724"/>
<path d="M142.158 69.8334C142.105 69.8143 142.056 69.7838 142.015 69.7441C141.946 69.6723 141.906 69.5761 141.906 69.476C141.906 69.3758 141.946 69.2796 142.015 69.2078C142.429 68.7833 142.938 68.4631 143.499 68.2736C144.06 68.0841 144.658 68.0306 145.244 68.1175C145.341 68.1389 145.426 68.198 145.479 68.2818C145.533 68.3656 145.551 68.4672 145.53 68.5644C145.508 68.6615 145.449 68.7462 145.366 68.7998C145.282 68.8535 145.181 68.8716 145.084 68.8504C144.62 68.7866 144.147 68.8344 143.705 68.9898C143.263 69.1452 142.864 69.4037 142.542 69.7441C142.493 69.7941 142.431 69.829 142.363 69.8449C142.295 69.8607 142.224 69.8567 142.158 69.8334Z" fill="#263238"/>
<path d="M143.211 73.4439C143.077 74.0606 143.3 74.6415 143.71 74.7219C144.12 74.8023 144.549 74.3734 144.682 73.7478C144.816 73.1222 144.584 72.5502 144.174 72.4609C143.764 72.3715 143.335 72.8183 143.211 73.4439Z" fill="#263238"/>
<path d="M143.987 72.4608L145.574 72.3357C145.574 72.3357 144.566 73.3545 143.987 72.4608Z" fill="#263238"/>
<path d="M82.51 321.23H90.3864L92.9018 302.945H85.0165L82.51 321.23Z" fill="#B55B52"/>
<path d="M91.7332 315.805H82.8757C82.7221 315.804 82.5731 315.858 82.4566 315.959C82.3401 316.059 82.264 316.198 82.2423 316.35L81.2344 323.366C81.2156 323.544 81.2343 323.723 81.2895 323.893C81.3447 324.063 81.435 324.219 81.5545 324.351C81.6741 324.484 81.8202 324.589 81.9833 324.661C82.1464 324.733 82.3228 324.77 82.501 324.769C85.5873 324.715 87.077 324.537 90.975 324.537C93.3656 324.537 96.8622 324.787 100.172 324.787C103.481 324.787 103.659 321.507 102.286 321.212C96.104 319.881 95.1496 318.049 93.0445 316.297C92.68 315.981 92.2149 315.807 91.7332 315.805Z" fill="#263238"/>
<path opacity="0.2" d="M85.0166 302.945H92.9018L91.5995 312.374H83.7142L85.0166 302.945Z" fill="black"/>
<path d="M112.437 95.6254C109.243 96.6442 106.844 108.718 106.844 108.718L116.968 117.655C116.968 117.655 123.596 105.903 121.669 101.988C119.653 97.94 116.21 94.4189 112.437 95.6254Z" fill="#263238"/>
<path d="M151.14 101.881C151.14 106.957 151.328 116.377 148.027 133.161C147.43 136.208 148.616 137.567 148.081 140.677C147.733 142.714 146.6 142.419 146.44 143.411H114.426C114.426 142.455 113.025 141.946 112.704 139.881C111.955 135.163 114.684 134.769 114.595 131.793C114.372 124.286 113.284 115.85 110.001 101.023C109.836 100.3 109.822 99.5507 109.961 98.822C110.099 98.0932 110.387 97.4013 110.807 96.7898C111.226 96.1783 111.767 95.6606 112.396 95.2694C113.025 94.8783 113.728 94.6221 114.461 94.5172C116.763 94.1776 119.537 93.8559 122.338 93.7218C127.175 93.3774 132.031 93.3774 136.868 93.7218C139.705 93.981 142.72 94.4279 145.155 94.83C146.825 95.1034 148.344 95.9626 149.441 97.2542C150.537 98.5458 151.139 100.186 151.14 101.881Z" fill="#263238"/>
<path opacity="0.4" d="M149.918 116.538C149.713 118.79 149.856 121.328 149.499 124.197C144.21 121.471 143.478 114.652 145.102 111.176C146.979 112.698 148.604 114.508 149.918 116.538Z" fill="black"/>
<path d="M152.336 104.116C153.228 107.574 154.191 111.158 155.208 114.634C156.225 118.111 157.313 121.587 158.589 124.876C159.192 126.48 159.877 128.052 160.64 129.586C160.424 129.354 160.159 129.174 159.864 129.059C159.338 128.871 158.972 128.996 159.035 129.059C159.507 128.986 159.954 128.799 160.337 128.514C161.732 127.615 163.046 126.596 164.262 125.466C165.582 124.295 166.938 123.017 168.187 121.775L171.442 124.099C170.538 125.842 169.512 127.521 168.374 129.121C167.186 130.834 165.8 132.4 164.244 133.786C163.776 134.187 163.278 134.552 162.754 134.877C162.1 135.294 161.387 135.613 160.64 135.824C159.466 136.166 158.211 136.11 157.072 135.663C155.906 135.153 154.938 134.274 154.316 133.161C153.291 131.43 152.37 129.64 151.56 127.799C150 124.269 148.645 120.653 147.501 116.967C146.921 115.18 146.377 113.321 145.887 111.489C145.396 109.657 144.905 107.833 144.486 105.912L152.336 104.116Z" fill="#E6A57D"/>
<path d="M149.856 97.5112C153.995 102.176 155.734 110.666 155.734 110.666L143.826 118.459C143.826 118.459 137.921 105.054 139.366 100.934C141.23 95.4468 145.824 93.007 149.856 97.5112Z" fill="#263238"/>
<path d="M171.987 122.15C172.504 120.551 170.925 120.568 171.46 117.298C171.648 116.145 170.649 115.653 170.568 116.261C170.051 119.344 163.994 124.009 167.232 125.493C169.168 126.386 171.987 122.15 171.987 122.15Z" fill="#B55B52"/>
<path d="M174.377 120.649C174.315 118.817 172.932 116.583 171.567 119.416L170.854 119.97C170.854 119.97 168.927 120.256 166.51 123.545L169.096 125.877L169.988 125.734C171.399 125.507 172.729 124.923 173.851 124.036L174.029 123.893C174.231 123.712 174.387 123.485 174.484 123.232C174.582 122.979 174.618 122.706 174.591 122.436L174.377 120.649Z" fill="#B55B52"/>
<path d="M122.712 66.9646C121.606 74.7219 120.928 77.9749 124.015 82.7115C128.609 89.8611 138.358 89.5036 141.766 82.2289C144.825 75.6871 146.128 64.1048 139.277 59.5022C137.768 58.489 136.026 57.8774 134.216 57.7248C132.405 57.5723 130.586 57.884 128.929 58.6304C127.272 59.3769 125.832 60.5336 124.744 61.9916C123.657 63.4497 122.958 65.161 122.712 66.9646Z" fill="#E6A57D"/>
<path d="M138.18 72.8273C141.311 70.7897 144.62 67.8852 144.334 63.944C144.049 60.0028 139.081 56.3029 132.239 56.3029C123.096 56.3029 123.471 62.2638 123.471 62.2638C121.687 62.4872 103.918 78.2342 125.924 84.347C147.929 90.4599 138.18 72.8273 138.18 72.8273Z" fill="#263238"/>
<path d="M119.921 62.7732C119.921 62.7732 119.029 64.7393 119.323 65.633C122.302 66.4016 132.703 66.8485 137.939 65.8743C138.553 64.8254 139.32 63.8736 140.214 63.0502L119.921 62.7732Z" fill="white"/>
<path d="M119.082 63.7206C119.555 65.3203 137.627 64.4623 143.443 63.7206C144.835 63.5288 146.205 63.2056 147.537 62.7554V62.1477H145.048C145.048 62.1477 143.443 51.2535 132.4 51.2714C122.918 51.3339 117.36 57.8758 119.082 63.7206Z" fill="#6473F9"/>
<path d="M134.897 50.7619C133.116 50.6218 131.326 50.6218 129.545 50.7619C127.815 51.316 126.254 51.5573 124.122 54.8729L128.894 55.0338C128.894 55.0338 131.998 51.5752 135.093 51.5484C135.08 51.2759 135.013 51.0088 134.897 50.7619Z" fill="#6473F9"/>
<path opacity="0.2" d="M127.44 62.3442H127.395C127.307 62.331 127.227 62.2831 127.174 62.2111C127.12 62.1391 127.097 62.0488 127.11 61.9599C128.35 53.9792 134.121 51.2803 134.371 51.173C134.451 51.1363 134.543 51.1331 134.626 51.1641C134.709 51.1951 134.776 51.2578 134.812 51.3384C134.849 51.419 134.852 51.5108 134.821 51.5938C134.79 51.6768 134.728 51.744 134.647 51.7807C134.585 51.7807 128.956 54.4618 127.77 62.0672C127.757 62.1453 127.717 62.2162 127.656 62.2671C127.596 62.3179 127.519 62.3453 127.44 62.3442Z" fill="black"/>
<path d="M141.177 71.9693C141.673 73.5764 141.588 75.3074 140.936 76.8578C140.044 78.8686 138.171 78.4128 137.216 76.6344C136.324 75.0347 135.771 72.0586 137.216 70.6287C138.661 69.1988 140.588 70.0389 141.177 71.9693Z" fill="#E6A57D"/>
<path d="M137.983 143.438C137.983 143.438 124.104 197.641 114.114 228.187C106.041 252.862 93.1159 310.533 93.1159 310.533H82.4119C82.4119 310.533 88.192 254.578 94.329 230.18C109.859 168.426 99.7434 163.394 114.47 143.438H137.983Z" fill="#ED028C"/>
<path opacity="0.4" d="M123.506 160.418C118.859 177.399 119.216 195.925 121.205 205.005C124.077 195.121 126.949 184.798 129.483 175.513C128.609 170.473 125.941 164.619 123.506 160.418Z" fill="black"/>
<path d="M94.6948 310.747H81.0026L81.3683 305.93L95.9614 305.438L94.6948 310.747Z" fill="#263238"/>
<path d="M135.539 321.212H143.425L142.809 302.927H134.924L135.539 321.212Z" fill="#B55B52"/>
<path d="M144.049 315.805H135.192C135.038 315.802 134.89 315.856 134.774 315.957C134.659 316.058 134.585 316.198 134.567 316.35L133.559 323.366C133.539 323.543 133.556 323.722 133.611 323.892C133.665 324.062 133.754 324.218 133.873 324.351C133.992 324.484 134.137 324.589 134.3 324.662C134.463 324.734 134.639 324.77 134.817 324.769C137.903 324.715 139.393 324.537 143.291 324.537C145.681 324.537 149.187 324.787 152.496 324.787C155.806 324.787 155.975 321.507 154.601 321.212C148.42 319.881 147.465 318.049 145.369 316.297C145.002 315.981 144.534 315.806 144.049 315.805Z" fill="#263238"/>
<path opacity="0.2" d="M134.924 302.927H142.809L143.121 312.356H135.236L134.924 302.927Z" fill="black"/>
<path d="M146.44 143.438C146.44 143.438 146.44 197.641 144.308 228.187C142.568 252.862 144.442 310.533 144.442 310.533H133.693C133.693 310.533 125.121 254.578 124.996 230.18C124.684 168.426 113.275 163.394 122.882 143.438H146.44Z" fill="#ED028C"/>
<path d="M145.913 310.747H132.221L131.499 305.93L145.985 305.438L145.913 310.747Z" fill="#263238"/>
<path d="M113.944 141.552L112.499 144.421C112.392 144.645 112.651 144.877 113.025 144.877H146.591C146.886 144.877 147.127 144.734 147.144 144.555L147.43 141.678C147.43 141.481 147.198 141.311 146.886 141.311H114.47C114.369 141.303 114.268 141.32 114.176 141.363C114.083 141.405 114.004 141.47 113.944 141.552Z" fill="white"/>
<path d="M118.297 145.19H117.405C117.236 145.19 117.102 145.1 117.111 144.984L117.521 141.258C117.521 141.15 117.682 141.061 117.851 141.061H118.743C118.912 141.061 119.046 141.15 119.037 141.258L118.627 144.984C118.636 145.1 118.475 145.19 118.297 145.19Z" fill="#263238"/>
<path d="M139.348 145.19H138.456C138.287 145.19 138.153 145.1 138.162 144.984L138.572 141.258C138.572 141.15 138.733 141.061 138.911 141.061H139.803C139.973 141.061 140.106 141.15 140.098 141.258L139.687 144.984C139.669 145.1 139.518 145.19 139.348 145.19Z" fill="#263238"/>
</svg>
