<svg width="467" height="394" viewBox="0 0 467 394" fill="none" xmlns="http://www.w3.org/2000/svg">
<g clip-path="url(#clip0)">
<path d="M302.281 393.427C302.281 393.427 279.316 375.491 285.1 361.233C290.884 346.976 320.287 379.857 320.287 379.857C320.287 379.857 301.388 338.541 324.353 335.057C347.318 331.573 354.007 381.015 354.007 381.015C354.007 381.015 356.046 338.255 370.042 342.908C384.039 347.561 378.484 377.817 378.484 377.817C378.484 377.817 386.616 348.42 397.085 351.045C407.554 353.669 399.994 381.313 399.994 381.313C399.994 381.313 416.282 357.176 427.621 364.122C438.961 371.067 431.974 393.393 431.974 393.393L302.281 393.427Z" fill="#EAEAEA"/>
<path d="M457.436 308.984C452.179 318.095 441.4 321.717 433.383 317.075C425.365 312.433 423.074 301.282 428.354 292.171C433.635 283.059 444.39 279.438 452.408 284.079C460.425 288.721 462.739 299.872 457.436 308.984Z" fill="#F5F5F5"/>
<path d="M460.219 362.334C453.164 367.778 443.542 367.136 438.755 360.89C433.967 354.644 435.788 345.188 442.855 339.756C449.922 334.324 459.532 334.965 464.331 341.2C469.13 347.435 467.321 356.901 460.219 362.334Z" fill="#F5F5F5"/>
<path d="M416.32 337.565C424.063 333.768 427.028 323.931 422.944 315.593C418.86 307.255 409.273 303.574 401.531 307.371C393.788 311.167 390.823 321.005 394.907 329.343C398.991 337.681 408.578 341.362 416.32 337.565Z" fill="#F5F5F5"/>
<path d="M466.885 347.549C466.885 347.171 466.794 346.781 466.714 346.403L452.511 350.701L459.108 337.212C458.753 337.063 458.387 336.937 458.02 336.811L451.01 351.159L436.395 355.56L417.462 361.291L435.525 318.084L439.087 309.58L459.074 305.591C459.223 305.179 459.349 304.755 459.463 304.342L439.579 308.296L450.14 283.082C449.773 282.945 449.418 282.819 449.052 282.704L438.686 307.494L431.424 288.113C431.126 288.423 430.828 288.732 430.554 289.065L438.033 309.041L436.888 311.7L422.891 345.177L417.966 334.392L417.714 333.831L422.536 314.852C422.272 314.37 421.998 313.912 421.7 313.476L416.923 332.169L405.046 306.164L403.9 306.439L410.773 321.568C406.569 321.109 397.887 320.204 393.065 319.894C393.065 320.261 393.008 320.639 392.996 321.04C397.371 321.35 405.595 322.187 411.322 322.794L417.691 336.73L422.215 346.644L402.915 392.991L403.98 393.427L416.843 362.643L436.624 356.672L442.168 355.01L458.375 363.572C458.753 363.342 459.12 363.113 459.521 362.861L443.76 354.54L466.885 347.549Z" fill="#E0E0E0"/>
<path d="M108.675 390.413C116.887 384.545 117.701 347.354 84.0146 339.825C66.8337 335.985 69.5712 327.367 66.1007 316.284C62.6301 305.202 58.2547 304.388 48.4158 302.887C38.5769 301.385 45.9532 287.987 34.2702 280.171C22.5872 272.355 6.87237 271.793 1.05377 288.813C-3.89433 303.207 10.1138 309.545 12.9773 316.238C15.8408 322.931 7.51379 331.974 17.662 342.06C27.8102 352.145 38.6456 344.535 38.783 355.285C38.9205 366.036 43.6624 385.439 53.9595 389.45C66.6963 394.355 102.181 395.031 108.675 390.413Z" fill="#EAEAEA"/>
<path d="M97.599 392.785C93.1892 387.525 88.5848 382.47 84.1521 377.187C73.0112 363.999 62.1414 350.586 51.5427 336.948C43.6548 326.824 35.9196 316.582 28.337 306.222C28.0049 305.775 27.2604 306.222 27.5925 306.657C40.1461 323.825 53.1272 340.677 66.5359 357.211C74.9355 367.602 83.5259 377.871 92.3073 388.017C93.865 389.817 95.48 391.582 97.0149 393.404C97.3699 393.828 97.977 393.221 97.6219 392.797L97.599 392.785Z" fill="#FAFAFA"/>
<path d="M45.9647 228.769C31.5327 216.506 27.5124 174.376 48.6334 167.133C76.0312 157.735 100.646 174.915 103.99 197.55C106.579 215.005 94.8272 227.199 125.318 239.955C155.808 252.711 151.066 268.607 144.789 299.036C138.512 329.464 159.107 318.29 175.096 343.951C187.764 364.271 169.965 385.015 162.016 392.751L99.7524 392.43C97.7399 391.187 95.8254 389.793 94.0254 388.258C73.9123 371.067 81.9071 343.985 83.9917 322.874C86.2825 300.044 54.7956 310.267 42.265 280.939C29.7344 251.611 60.3852 241.032 45.9647 228.769Z" fill="#E0E0E0"/>
<path d="M150.619 392.132C148.122 386.356 145.614 380.583 143.094 374.815C136.886 360.542 130.651 346.285 124.39 332.043C116.456 313.981 108.476 295.937 100.451 277.913C92.6547 260.424 84.7706 242.973 76.7987 225.56C71.1633 213.32 65.5509 201.034 59.3658 189.058C58.9076 188.164 58.438 187.27 57.9569 186.387C57.7049 185.894 56.9604 186.387 57.2239 186.823C63.0997 197.802 68.2769 209.183 73.5114 220.495C81.3764 237.48 89.1116 254.522 96.7171 271.621C104.849 289.798 112.917 308.002 120.919 326.232C127.494 341.185 134.045 356.153 140.574 371.136C142.659 375.911 144.74 380.69 146.817 385.473C147.661 387.788 148.644 390.05 149.76 392.246C149.76 392.338 149.84 392.441 149.886 392.533C150.104 393.037 150.837 392.602 150.619 392.097V392.132Z" fill="#F5F5F5"/>
<path d="M93.3382 263.106L57.1895 261.1L52.0238 260.814C51.474 260.814 51.474 261.639 52.0238 261.673L88.1953 263.679L93.3611 263.966C93.9109 263.966 93.9109 263.129 93.3611 263.106H93.3382Z" fill="#F5F5F5"/>
<path d="M135.053 357.257L94.369 352.672L88.642 352.019C88.0922 351.95 88.0922 352.821 88.642 352.879L129.326 357.463L135.053 358.116C135.603 358.185 135.603 357.314 135.053 357.257Z" fill="#F5F5F5"/>
<path d="M137.791 254.522L129.601 272.859L116.544 302.21L113.52 308.984C113.302 309.488 114.035 309.923 114.265 309.419L122.454 291.082L135.523 261.742L138.535 254.957C138.764 254.453 138.02 254.018 137.791 254.522Z" fill="#FAFAFA"/>
<path d="M79.3185 192.542C81.3344 195.51 84.8508 196.633 87.1759 195.052C89.5011 193.47 89.7302 189.791 87.7143 186.823C85.6984 183.854 82.1706 182.72 79.8569 184.301C77.5432 185.883 77.2912 189.573 79.3185 192.542Z" stroke="#EAEAEA" stroke-width="0.75" stroke-miterlimit="10"/>
<path d="M80.67 211.452C82.2389 211.452 83.5106 210.18 83.5106 208.61C83.5106 207.04 82.2389 205.768 80.67 205.768C79.1012 205.768 77.8295 207.04 77.8295 208.61C77.8295 210.18 79.1012 211.452 80.67 211.452Z" stroke="#EAEAEA" stroke-width="0.75" stroke-miterlimit="10"/>
<path d="M57.2697 281.936C57.2697 283.029 57.5935 284.097 58.2001 285.005C58.8068 285.914 59.669 286.622 60.6778 287.04C61.6866 287.458 62.7966 287.567 63.8676 287.354C64.9385 287.141 65.9222 286.615 66.6943 285.842C67.4664 285.07 67.9922 284.085 68.2052 283.014C68.4183 281.942 68.3089 280.832 67.8911 279.822C67.4732 278.813 66.7656 277.95 65.8577 277.343C64.9498 276.736 63.8824 276.412 62.7905 276.412C61.3263 276.412 59.9221 276.994 58.8867 278.03C57.8514 279.066 57.2697 280.471 57.2697 281.936V281.936Z" stroke="#EAEAEA" stroke-width="0.75" stroke-miterlimit="10"/>
<path d="M115.685 34.245H70.9457C68.2117 34.245 65.5897 35.3317 63.6564 37.2661C61.7232 39.2005 60.6371 41.8241 60.6371 44.5597V89.3944L71.1633 79.71H115.834C118.568 79.71 121.19 78.6233 123.123 76.6889C125.056 74.7545 126.142 72.1309 126.142 69.3953V44.6056C126.148 43.2345 125.881 41.876 125.357 40.6094C124.832 39.3429 124.061 38.1936 123.087 37.229C122.113 36.2643 120.957 35.5036 119.686 34.9912C118.415 34.4788 117.055 34.2252 115.685 34.245Z" fill="white" stroke="#E0E0E0" stroke-miterlimit="10"/>
<path d="M92.1469 69.6589C92.1492 70.1354 92.0101 70.6018 91.7471 70.9991C91.4842 71.3964 91.1094 71.7067 90.6701 71.8906C90.2307 72.0745 89.7467 72.1238 89.2794 72.0322C88.8121 71.9407 88.3824 71.7124 88.0449 71.3762C87.7073 71.0401 87.4771 70.6113 87.3834 70.1441C87.2896 69.6769 87.3366 69.1924 87.5183 68.752C87.7 68.3115 88.0083 67.9349 88.4041 67.67C88.7999 67.405 89.2654 67.2636 89.7416 67.2635C90.3776 67.2635 90.9876 67.5155 91.4384 67.9644C91.8891 68.4133 92.1439 69.0225 92.1469 69.6589Z" stroke="#E0E0E0" stroke-miterlimit="10"/>
<path d="M104.723 69.9797C104.732 70.4581 104.599 70.9283 104.34 71.3303C104.08 71.7323 103.707 72.0479 103.268 72.2368C102.829 72.4257 102.343 72.4793 101.873 72.3907C101.403 72.3022 100.971 72.0755 100.63 71.7396C100.289 71.4038 100.057 70.974 99.9614 70.5052C99.8661 70.0363 99.9126 69.5497 100.095 69.1075C100.277 68.6652 100.587 68.2874 100.985 68.0222C101.383 67.7571 101.851 67.6166 102.329 67.6188C102.958 67.6217 103.56 67.8703 104.007 68.3114C104.454 68.7526 104.711 69.3514 104.723 69.9797Z" stroke="#E0E0E0" stroke-miterlimit="10"/>
<path d="M76.8216 45.3734H84.1521L86.8094 65.1089L106.361 64.662" stroke="#E0E0E0" stroke-miterlimit="10"/>
<path d="M84.9195 48.6855H108.503L106.361 61.0403H86.2596" stroke="#E0E0E0" stroke-miterlimit="10"/>
<path d="M406.374 47.0581H376.514C374.691 47.0581 372.943 47.7826 371.654 49.0722C370.366 50.3618 369.642 52.1108 369.642 53.9346V83.7327L376.663 77.2803H406.443C408.266 77.2803 410.014 76.5558 411.303 75.2662C412.591 73.9766 413.315 72.2275 413.315 70.4038V53.969C413.32 53.0572 413.143 52.1537 412.796 51.3109C412.448 50.4681 411.936 49.7029 411.291 49.0598C410.645 48.4167 409.877 47.9085 409.033 47.5649C408.189 47.2212 407.285 47.049 406.374 47.0581Z" fill="white" stroke="#EAEAEA" stroke-miterlimit="10"/>
<path d="M386.307 60.6049H380.935V70.9884H386.307V60.6049Z" fill="#EAEAEA"/>
<path d="M387.899 60.5361V70.9654C387.899 70.9654 397.875 72.5241 400.67 70.9654C402.686 69.8193 403.087 67.0229 403.373 62.0948C403.66 57.1666 396.398 58.3127 396.398 58.3127C396.398 58.3127 396.398 51.0809 394.222 50.4276C392.045 49.7744 391.793 52.8115 391.713 55.3558C391.669 56.5021 391.281 57.6086 390.601 58.5321C389.921 59.4557 388.98 60.1538 387.899 60.5361Z" fill="#EAEAEA"/>
<path d="M247.6 127.043C246.521 126.124 245.156 125.609 243.74 125.588C241.346 125.588 240.533 123.685 239.158 122.149C236.008 118.711 233.202 117.565 232.504 119.502C231.805 121.439 236.593 127.272 238.666 130.069C240.739 132.865 232.859 150.137 232.859 150.137C232.859 150.137 246.076 155.695 247.004 155.008C247.932 154.32 257.233 137.92 258.722 131.398C260.211 124.877 260.176 119.055 259.34 118.562C258.504 118.069 246.741 114.792 244.53 115.044C242.32 115.296 240.533 123.777 240.533 123.777" fill="#E6A57D"/>
<path d="M247.6 127.043C246.521 126.124 245.156 125.609 243.74 125.588C241.346 125.588 240.533 123.685 239.158 122.149C236.008 118.711 233.202 117.565 232.504 119.502C231.805 121.439 236.593 127.272 238.666 130.069C240.739 132.865 232.859 150.137 232.859 150.137C232.859 150.137 246.076 155.695 247.004 155.008C247.932 154.32 257.233 137.92 258.722 131.398C260.211 124.877 260.176 119.055 259.34 118.562C258.504 118.069 246.741 114.792 244.53 115.044C242.32 115.296 240.533 123.777 240.533 123.777" stroke="#263238" stroke-miterlimit="10"/>
<path d="M246.603 116.9C246.603 116.9 246.076 105.348 243.809 104.477C241.541 103.606 241.186 109.176 241.048 112.385C240.911 115.594 241.231 120.144 241.174 121.198" fill="#E6A57D"/>
<path d="M246.603 116.9C246.603 116.9 246.076 105.348 243.809 104.477C241.541 103.606 241.186 109.176 241.048 112.385C240.911 115.594 241.231 120.144 241.174 121.198" stroke="#263238" stroke-miterlimit="10"/>
<path d="M225.814 83.8244L278.136 87.2626L286.394 18.0049L225.917 15.2657L225.814 83.8244Z" fill="#EAEAEA"/>
<path d="M271.458 77.9336C270.43 86.2178 268.423 94.3507 265.479 102.162C263.303 107.72 260.451 113.623 255.938 117.668C252.926 120.384 248.94 121.725 245.32 119.33C240.957 116.442 238.86 110.597 237.497 105.818C235.035 97.1305 234.485 87.9274 234.748 78.9422C234.748 78.7142 234.658 78.4956 234.497 78.3344C234.336 78.1732 234.117 78.0826 233.889 78.0826C233.662 78.0826 233.443 78.1732 233.282 78.3344C233.121 78.4956 233.03 78.7142 233.03 78.9422C232.631 87.6192 233.441 96.3097 235.436 104.763C236.81 110.127 238.929 116.304 243.339 119.972C252.914 127.994 261.86 114.345 265.342 106.815C269.336 97.7816 271.958 88.2014 273.119 78.392C273.268 77.3147 271.607 76.8448 271.458 77.9336Z" fill="#E0E0E0"/>
<path d="M243.167 70.9654L295.741 99.2278L336.963 31.3912L275.616 0L243.167 70.9654Z" fill="#6473F9"/>
<path d="M243.167 70.9654L295.741 99.2278L336.963 31.3912L275.616 0L243.167 70.9654Z" fill="#C40775"/>
<path d="M293.221 86.6094C288.383 94.4622 282.657 101.731 276.155 108.27C271.413 112.958 265.926 117.611 259.581 119.96C255.434 121.496 250.475 121.863 247.336 118.172C243.465 113.588 243.9 106.219 244.553 100.683C245.882 90.0476 249.868 79.7099 254.564 70.1516C255.056 69.1545 253.567 68.2835 253.086 69.2806C248.505 78.4493 244.771 88.2597 243.156 98.414C242.171 104.637 241.552 112.316 245.069 117.897C252.17 129.289 267.507 118.367 274.207 112.419C282.18 105.102 289.078 96.6949 294.698 87.446C295.294 86.5062 293.805 85.6352 293.221 86.575V86.6094Z" fill="#263238"/>
<path d="M254.541 81.624L287.792 115.376L334.948 73.6014L295.764 35.4025L254.541 81.624Z" fill="#ED028C"/>
<path d="M302.899 65.4298C302.899 65.4298 305.809 89.9445 297.024 90.6436C288.238 91.3427 291.801 77.3949 291.801 77.3949C291.801 77.3949 280.713 81.5208 278.273 74.9537C275.834 68.3867 302.899 65.4298 302.899 65.4298Z" fill="#F0F0F0"/>
<path d="M288.639 105.107C283.022 110.016 276.848 114.248 270.244 117.714C265.514 120.132 260.165 122.367 254.77 122.459C251.185 122.528 247.565 121.233 246.477 117.485C245.172 112.981 247.21 107.766 249.123 103.732C252.848 96.3716 257.689 89.633 263.475 83.7556C264.231 82.9534 263.017 81.7271 262.261 82.5408C256.687 88.2464 251.955 94.7181 248.207 101.761C245.916 106.345 243.625 111.8 244.622 116.992C246.615 127.903 260.932 123.777 267.656 120.843C275.74 117.13 283.229 112.236 289.876 106.322C290.724 105.6 289.498 104.385 288.662 105.107H288.639Z" fill="#4D5A64"/>
<path d="M255.022 114.528C255.135 114.372 255.27 114.233 255.423 114.115C255.848 113.804 256.372 113.655 256.897 113.698C257.423 113.74 257.916 113.969 258.286 114.345C260.394 115.892 259.432 120.774 257.943 123.513C256.454 126.252 253.762 125.702 253.499 122.677C253.235 119.651 255.022 114.528 255.022 114.528Z" fill="#E6A57D" stroke="#263238" stroke-miterlimit="10"/>
<path d="M251.689 112.729C251.689 112.729 250.28 112.958 249.547 118.459C248.814 123.96 251.093 124.086 251.838 123.926C252.582 123.765 253.59 123.284 254.209 121.393C254.827 119.502 256.03 114.047 254.438 112.946C254.057 112.632 253.589 112.443 253.098 112.404C252.606 112.365 252.114 112.479 251.689 112.729Z" fill="#E6A57D" stroke="#263238" stroke-miterlimit="10"/>
<path d="M250.143 112.442C249.731 111.856 249.107 111.453 248.403 111.321C247.699 111.188 246.971 111.335 246.374 111.732C244.083 113.13 244.083 121.187 245.366 122.619C246.649 124.052 248.596 123.009 249.077 122.069C249.558 121.129 251.288 114.517 250.143 112.442Z" fill="#E6A57D" stroke="#263238" stroke-miterlimit="10"/>
<path d="M179.678 173.975L208.771 180.657L231.61 145.747L250.91 153.231L245.275 201.516C245.275 201.516 237.188 226.729 221.302 224.976C205.415 223.222 179.678 173.975 179.678 173.975Z" fill="#6473F9"/>
<g opacity="0.5">
<path opacity="0.5" d="M179.678 173.975L208.771 180.657L231.61 145.747L250.91 153.231L245.275 201.516C245.275 201.516 237.188 226.729 221.302 224.976C205.415 223.222 179.678 173.975 179.678 173.975Z" fill="white"/>
</g>
<path d="M179.678 173.975L208.771 180.657" stroke="#263238" stroke-miterlimit="10"/>
<path d="M227.784 151.684L250.097 159.638C250.692 154.606 250.91 151.145 250.91 151.145L232.423 144.498L227.784 151.684Z" fill="#6473F9" stroke="#263238" stroke-miterlimit="10"/>
<path d="M234.496 145.128L230.785 152.75" stroke="#263238" stroke-miterlimit="10"/>
<path d="M238.013 146.504L234.955 154.24" stroke="#263238" stroke-miterlimit="10"/>
<path d="M241.861 147.89L239.135 155.73" stroke="#263238" stroke-miterlimit="10"/>
<path d="M245.412 149.254L243.293 157.22" stroke="#263238" stroke-miterlimit="10"/>
<path d="M248.15 150.148L246.512 158.366" stroke="#263238" stroke-miterlimit="10"/>
<path d="M205.346 185.895L232.423 144.498L250.91 151.145" stroke="#263238" stroke-miterlimit="10"/>
<path d="M233.351 162.469C234.768 162.469 235.917 161.294 235.917 159.844C235.917 158.395 234.768 157.219 233.351 157.219C231.934 157.219 230.785 158.395 230.785 159.844C230.785 161.294 231.934 162.469 233.351 162.469Z" fill="#263238"/>
<path d="M243.064 171.167C243.051 171.672 242.889 172.161 242.599 172.574C242.309 172.987 241.903 173.306 241.434 173.49C240.964 173.673 240.45 173.715 239.957 173.608C239.464 173.501 239.013 173.251 238.661 172.89C238.309 172.528 238.072 172.071 237.978 171.575C237.885 171.079 237.939 170.566 238.135 170.101C238.331 169.636 238.66 169.239 239.08 168.96C239.501 168.681 239.994 168.532 240.498 168.531C240.84 168.536 241.177 168.608 241.491 168.743C241.805 168.877 242.089 169.073 242.327 169.318C242.565 169.562 242.753 169.852 242.879 170.169C243.006 170.486 243.069 170.826 243.064 171.167Z" fill="#263238"/>
<path d="M241.014 198.215C242.431 198.215 243.579 197.04 243.579 195.59C243.579 194.141 242.431 192.966 241.014 192.966C239.597 192.966 238.448 194.141 238.448 195.59C238.448 197.04 239.597 198.215 241.014 198.215Z" fill="#263238"/>
<path d="M217.854 187.786C217.84 188.29 217.679 188.78 217.389 189.193C217.099 189.606 216.693 189.924 216.223 190.108C215.754 190.292 215.24 190.333 214.747 190.226C214.254 190.119 213.803 189.87 213.451 189.508C213.099 189.146 212.862 188.689 212.768 188.193C212.674 187.697 212.729 187.184 212.925 186.719C213.121 186.254 213.45 185.857 213.87 185.578C214.291 185.299 214.784 185.15 215.288 185.15C215.63 185.153 215.968 185.223 216.283 185.358C216.597 185.492 216.882 185.687 217.12 185.932C217.359 186.178 217.546 186.467 217.672 186.786C217.798 187.104 217.86 187.443 217.854 187.786Z" fill="#263238"/>
<path d="M227.315 203.109C227.304 203.614 227.144 204.104 226.855 204.519C226.566 204.934 226.162 205.254 225.692 205.439C225.222 205.625 224.708 205.667 224.214 205.562C223.721 205.457 223.269 205.208 222.916 204.847C222.563 204.485 222.324 204.028 222.229 203.532C222.135 203.035 222.189 202.522 222.385 202.056C222.581 201.59 222.909 201.193 223.33 200.913C223.751 200.633 224.244 200.484 224.749 200.484C225.436 200.496 226.09 200.778 226.57 201.27C227.05 201.761 227.318 202.422 227.315 203.109Z" fill="#263238"/>
<path d="M198.359 187.373C199.776 187.373 200.925 186.198 200.925 184.748C200.925 183.299 199.776 182.124 198.359 182.124C196.942 182.124 195.794 183.299 195.794 184.748C195.794 186.198 196.942 187.373 198.359 187.373Z" fill="#263238"/>
<path d="M222.997 174.227C224.414 174.227 225.562 173.052 225.562 171.603C225.562 170.153 224.414 168.978 222.997 168.978C221.58 168.978 220.431 170.153 220.431 171.603C220.431 173.052 221.58 174.227 222.997 174.227Z" fill="#263238"/>
<path d="M233.248 183.981C233.095 184.462 232.804 184.887 232.41 185.204C232.017 185.52 231.539 185.713 231.036 185.759C230.534 185.805 230.029 185.702 229.585 185.462C229.141 185.222 228.777 184.857 228.539 184.411C228.302 183.965 228.201 183.46 228.249 182.957C228.297 182.454 228.493 181.977 228.811 181.585C229.129 181.193 229.555 180.903 230.037 180.752C230.518 180.602 231.034 180.596 231.518 180.737C231.846 180.835 232.15 180.997 232.414 181.214C232.678 181.43 232.897 181.697 233.058 181.999C233.219 182.3 233.318 182.63 233.351 182.971C233.384 183.311 233.349 183.654 233.248 183.981Z" fill="#263238"/>
<path d="M362.895 170.629L384.841 164.371L391.45 179.557L368.737 187.384L362.895 170.629Z" fill="white" stroke="#6473F9" stroke-miterlimit="10"/>
<path d="M363.8 173.219L386.376 167.339" stroke="#6473F9" stroke-miterlimit="10"/>
<path d="M365.14 177.035L387.716 171.167" stroke="#6473F9" stroke-miterlimit="10"/>
<path d="M365.988 180.76L388.804 174.113" stroke="#6473F9" stroke-miterlimit="10"/>
<path d="M367.305 184.003L390.293 177.322" stroke="#6473F9" stroke-miterlimit="10"/>
<path d="M402.972 124.109L419.123 177.895L386.971 186.25L381.084 160.509L393.271 156.005L402.972 124.109Z" fill="white" stroke="#263238" stroke-miterlimit="10"/>
<path d="M394.29 143.925L402.652 145.014" stroke="#263238" stroke-miterlimit="10"/>
<path d="M393.076 149.69L401.438 150.778" stroke="#263238" stroke-miterlimit="10"/>
<path d="M393.099 153.758C393.099 153.758 383.318 141.598 380.076 145.048C374.864 150.618 393.099 153.758 393.099 153.758Z" stroke="#263238" stroke-miterlimit="10"/>
<path d="M378.828 154.675L393.454 154.056" stroke="#263238" stroke-miterlimit="10"/>
<path d="M396.306 161.517C397.593 161.15 398.961 161.172 400.235 161.582C401.509 161.992 402.634 162.771 403.466 163.82C404.298 164.869 404.801 166.141 404.91 167.476C405.02 168.811 404.731 170.149 404.082 171.319C403.432 172.49 402.449 173.442 401.259 174.055C400.068 174.667 398.723 174.912 397.393 174.76C396.063 174.608 394.809 174.064 393.787 173.198C392.766 172.332 392.024 171.183 391.656 169.895C391.165 168.167 391.378 166.315 392.25 164.744C393.122 163.174 394.581 162.013 396.306 161.517Z" fill="#6473F9"/>
<path d="M361.108 153.758L375.689 196.576L287.139 218.546L240.636 273.558L203.388 241.285C203.388 241.285 240.888 193.035 252.445 187.339C264.002 181.642 361.108 153.758 361.108 153.758Z" fill="#6473F9"/>
<g opacity="0.4">
<path opacity="0.4" d="M361.108 153.758L375.689 196.576L287.139 218.546L240.636 273.558L203.388 241.285C203.388 241.285 240.888 193.035 252.445 187.339C264.002 181.642 361.108 153.758 361.108 153.758Z" fill="black"/>
</g>
<path d="M361.108 153.758L375.689 196.576L287.139 218.546L240.636 273.604L203.388 241.33" stroke="#263238" stroke-miterlimit="10"/>
<path d="M350.113 156.944L363.8 199.521" stroke="#263238" stroke-miterlimit="10"/>
<path d="M170.4 172.233C153.357 177.964 144.159 223.807 175.658 278.349L230.717 235.944C214.303 198.054 186.825 166.778 170.4 172.279" fill="#6473F9"/>
<g opacity="0.5">
<path opacity="0.5" d="M170.4 172.233C153.357 177.964 144.159 223.807 175.658 278.349L230.717 235.944C214.303 198.054 186.825 166.778 170.4 172.279" fill="white"/>
</g>
<path d="M230.625 235.474C214.212 197.585 186.825 166.709 170.4 172.233" stroke="#263238" stroke-miterlimit="10"/>
<path d="M187.993 186.766C189.41 186.766 190.559 185.59 190.559 184.141C190.559 182.692 189.41 181.516 187.993 181.516C186.577 181.516 185.428 182.692 185.428 184.141C185.428 185.59 186.577 186.766 187.993 186.766Z" fill="#263238"/>
<path d="M193.216 198.272C193.205 198.777 193.045 199.268 192.757 199.682C192.468 200.097 192.063 200.417 191.594 200.603C191.124 200.788 190.61 200.831 190.116 200.725C189.622 200.62 189.17 200.371 188.817 200.01C188.464 199.649 188.225 199.191 188.131 198.695C188.037 198.199 188.091 197.685 188.286 197.22C188.482 196.754 188.811 196.356 189.232 196.077C189.652 195.797 190.146 195.648 190.651 195.648C191.338 195.657 191.994 195.938 192.475 196.43C192.956 196.922 193.223 197.584 193.216 198.272Z" fill="#263238"/>
<path d="M207.969 203.246C207.958 203.751 207.798 204.242 207.509 204.656C207.221 205.071 206.816 205.391 206.346 205.577C205.877 205.762 205.363 205.805 204.869 205.7C204.375 205.594 203.923 205.345 203.57 204.984C203.217 204.623 202.978 204.165 202.884 203.669C202.789 203.173 202.843 202.659 203.039 202.194C203.235 201.728 203.564 201.33 203.984 201.051C204.405 200.771 204.899 200.622 205.403 200.622C206.091 200.631 206.747 200.912 207.228 201.404C207.709 201.896 207.975 202.558 207.969 203.246Z" fill="#263238"/>
<path d="M185.909 209.733C185.898 210.238 185.738 210.729 185.449 211.143C185.16 211.558 184.756 211.878 184.286 212.063C183.816 212.249 183.302 212.292 182.809 212.186C182.315 212.081 181.863 211.832 181.51 211.471C181.157 211.11 180.918 210.652 180.823 210.156C180.729 209.659 180.783 209.146 180.979 208.68C181.175 208.215 181.503 207.817 181.924 207.537C182.345 207.258 182.838 207.109 183.343 207.108C184.031 207.117 184.687 207.399 185.168 207.891C185.649 208.382 185.915 209.045 185.909 209.733Z" fill="#263238"/>
<path d="M205.862 217.755C205.848 218.26 205.686 218.75 205.396 219.163C205.106 219.576 204.701 219.894 204.231 220.078C203.761 220.262 203.248 220.303 202.755 220.196C202.262 220.089 201.811 219.84 201.459 219.478C201.107 219.116 200.869 218.659 200.776 218.163C200.682 217.667 200.737 217.154 200.933 216.689C201.129 216.224 201.458 215.827 201.878 215.548C202.298 215.269 202.791 215.12 203.296 215.12C203.637 215.124 203.975 215.196 204.288 215.331C204.602 215.466 204.886 215.661 205.124 215.906C205.363 216.151 205.55 216.44 205.677 216.757C205.803 217.075 205.866 217.414 205.862 217.755Z" fill="#263238"/>
<path d="M175.589 221.641C175.575 222.145 175.413 222.635 175.123 223.048C174.833 223.461 174.428 223.779 173.958 223.963C173.489 224.147 172.975 224.188 172.482 224.081C171.989 223.975 171.538 223.725 171.186 223.363C170.834 223.002 170.596 222.544 170.503 222.048C170.409 221.552 170.464 221.039 170.66 220.574C170.856 220.109 171.185 219.712 171.605 219.433C172.025 219.154 172.519 219.005 173.023 219.005C173.365 219.009 173.702 219.081 174.016 219.216C174.329 219.351 174.613 219.546 174.852 219.791C175.09 220.036 175.278 220.325 175.404 220.643C175.531 220.96 175.593 221.299 175.589 221.641Z" fill="#263238"/>
<path d="M187.203 234.282C187.19 234.787 187.027 235.277 186.737 235.69C186.446 236.103 186.04 236.422 185.57 236.605C185.099 236.789 184.585 236.829 184.092 236.722C183.599 236.614 183.148 236.363 182.796 236C182.445 235.637 182.208 235.179 182.116 234.682C182.024 234.186 182.08 233.673 182.278 233.208C182.476 232.743 182.806 232.347 183.228 232.069C183.65 231.791 184.144 231.644 184.649 231.646C184.99 231.65 185.327 231.722 185.64 231.857C185.953 231.992 186.236 232.188 186.473 232.433C186.711 232.678 186.897 232.967 187.023 233.285C187.148 233.602 187.209 233.941 187.203 234.282Z" fill="#263238"/>
<path d="M169.976 235.474C169.965 235.979 169.805 236.47 169.516 236.884C169.228 237.299 168.823 237.619 168.354 237.805C167.884 237.99 167.37 238.033 166.876 237.927C166.382 237.822 165.93 237.573 165.577 237.212C165.224 236.851 164.985 236.393 164.891 235.897C164.797 235.4 164.851 234.887 165.046 234.422C165.242 233.956 165.571 233.558 165.991 233.278C166.412 232.999 166.906 232.85 167.411 232.849C168.098 232.859 168.754 233.14 169.235 233.632C169.716 234.124 169.983 234.786 169.976 235.474Z" fill="#263238"/>
<path d="M180.835 247.611C180.821 248.116 180.659 248.605 180.369 249.018C180.079 249.431 179.674 249.749 179.204 249.933C178.734 250.117 178.221 250.158 177.728 250.051C177.235 249.945 176.784 249.695 176.432 249.333C176.08 248.972 175.842 248.514 175.749 248.018C175.655 247.522 175.71 247.01 175.906 246.545C176.102 246.079 176.431 245.682 176.851 245.403C177.271 245.124 177.765 244.975 178.269 244.975C178.611 244.979 178.948 245.051 179.262 245.186C179.575 245.321 179.859 245.516 180.098 245.761C180.336 246.006 180.524 246.295 180.65 246.613C180.777 246.93 180.839 247.269 180.835 247.611Z" fill="#263238"/>
<path d="M198.13 253.353C199.547 253.353 200.696 252.178 200.696 250.728C200.696 249.279 199.547 248.104 198.13 248.104C196.713 248.104 195.565 249.279 195.565 250.728C195.565 252.178 196.713 253.353 198.13 253.353Z" fill="#263238"/>
<path d="M204.877 238.11C204.863 238.615 204.701 239.104 204.411 239.517C204.121 239.93 203.716 240.248 203.246 240.432C202.776 240.616 202.263 240.657 201.77 240.55C201.277 240.444 200.826 240.194 200.474 239.832C200.122 239.471 199.884 239.013 199.791 238.517C199.697 238.021 199.752 237.509 199.948 237.044C200.144 236.578 200.473 236.181 200.893 235.902C201.313 235.623 201.806 235.474 202.311 235.474C202.653 235.477 202.991 235.548 203.305 235.682C203.62 235.816 203.904 236.012 204.143 236.257C204.381 236.502 204.569 236.792 204.695 237.11C204.821 237.428 204.883 237.768 204.877 238.11Z" fill="#263238"/>
<path d="M219.377 224.265C219.366 224.77 219.206 225.261 218.917 225.676C218.629 226.09 218.224 226.41 217.754 226.596C217.285 226.781 216.771 226.824 216.277 226.719C215.783 226.613 215.331 226.364 214.978 226.003C214.625 225.642 214.386 225.184 214.292 224.688C214.197 224.192 214.251 223.679 214.447 223.213C214.643 222.747 214.972 222.349 215.392 222.07C215.813 221.79 216.307 221.641 216.812 221.641C217.499 221.65 218.155 221.931 218.636 222.423C219.117 222.915 219.383 223.577 219.377 224.265Z" fill="#263238"/>
<path d="M221.302 239.531C221.288 240.036 221.126 240.525 220.836 240.938C220.546 241.351 220.141 241.67 219.671 241.853C219.201 242.037 218.688 242.078 218.195 241.972C217.701 241.865 217.251 241.615 216.899 241.254C216.547 240.892 216.309 240.434 216.216 239.938C216.122 239.442 216.177 238.93 216.373 238.465C216.569 238 216.898 237.603 217.318 237.323C217.738 237.044 218.231 236.895 218.736 236.895C219.078 236.898 219.416 236.969 219.73 237.103C220.045 237.238 220.329 237.433 220.568 237.678C220.806 237.923 220.994 238.213 221.12 238.531C221.246 238.849 221.308 239.189 221.302 239.531Z" fill="#263238"/>
<path d="M179.678 269.054C179.678 269.054 264.723 181.379 284.172 185.321C285.592 185.608 289.43 187.808 294.779 191.224L299.99 214.902L287.494 232.884C287.494 232.884 237.784 309.064 213.845 299.357C189.906 289.649 182.118 273.237 182.118 273.237" fill="#6473F9"/>
<path opacity="0.4" d="M179.678 269.054C179.678 269.054 264.723 181.379 284.172 185.321C285.592 185.608 289.43 187.808 294.779 191.224L299.99 214.902L287.494 232.884C287.494 232.884 237.784 309.064 213.845 299.357C189.906 289.649 182.118 273.237 182.118 273.237" fill="black"/>
<path d="M299.99 214.902L287.494 232.884C287.494 232.884 237.784 309.064 213.845 299.357C189.906 289.649 182.118 273.237 182.118 273.237" stroke="#263238" stroke-miterlimit="10"/>
<path d="M329.633 256.86H274.803V321.82H329.633V256.86Z" fill="#6473F9"/>
<g opacity="0.2">
<path opacity="0.2" d="M329.633 256.86H274.803V321.82H329.633V256.86Z" fill="#FF9D00"/>
</g>
<path d="M329.633 280.171H274.803V297.855H329.633V280.171Z" fill="#6473F9"/>
<path d="M302.224 304.434C310.548 304.434 317.297 297.681 317.297 289.351C317.297 281.021 310.548 274.269 302.224 274.269C293.899 274.269 287.15 281.021 287.15 289.351C287.15 297.681 293.899 304.434 302.224 304.434Z" fill="#6473F9"/>
<path d="M302.224 301.385C308.866 301.385 314.25 295.997 314.25 289.351C314.25 282.705 308.866 277.317 302.224 277.317C295.581 277.317 290.197 282.705 290.197 289.351C290.197 295.997 295.581 301.385 302.224 301.385Z" fill="#6473F9"/>
<g opacity="0.7">
<path opacity="0.7" d="M302.224 301.385C308.866 301.385 314.25 295.997 314.25 289.351C314.25 282.705 308.866 277.317 302.224 277.317C295.581 277.317 290.197 282.705 290.197 289.351C290.197 295.997 295.581 301.385 302.224 301.385Z" fill="white"/>
</g>
<path d="M298.81 286.52C298.81 286.52 296.153 282.142 294.927 282.406C293.702 282.67 293.312 290.073 293.954 289.672C294.595 289.271 298.81 286.52 298.81 286.52Z" fill="#6473F9"/>
<path d="M305.557 286.52C305.557 286.52 308.214 282.142 309.44 282.406C310.665 282.67 311.055 290.073 310.413 289.672C309.772 289.271 305.557 286.52 305.557 286.52Z" fill="#6473F9"/>
<path d="M302.224 298.463C307.291 298.463 311.398 295.117 311.398 290.99C311.398 286.863 307.291 283.518 302.224 283.518C297.157 283.518 293.049 286.863 293.049 290.99C293.049 295.117 297.157 298.463 302.224 298.463Z" fill="#6473F9"/>
<path d="M308.111 288.87C308.128 288.955 308.126 289.042 308.105 289.126C308.084 289.21 308.045 289.288 307.99 289.355C307.935 289.422 307.866 289.476 307.788 289.513C307.71 289.55 307.625 289.57 307.538 289.57C307.452 289.57 307.366 289.55 307.288 289.513C307.21 289.476 307.141 289.422 307.086 289.355C307.032 289.288 306.992 289.21 306.971 289.126C306.951 289.042 306.949 288.955 306.966 288.87C306.949 288.785 306.951 288.697 306.971 288.613C306.992 288.53 307.032 288.451 307.086 288.384C307.141 288.317 307.21 288.263 307.288 288.226C307.366 288.189 307.452 288.17 307.538 288.17C307.625 288.17 307.71 288.189 307.788 288.226C307.866 288.263 307.935 288.317 307.99 288.384C308.045 288.451 308.084 288.53 308.105 288.613C308.126 288.697 308.128 288.785 308.111 288.87Z" fill="#263238"/>
<path d="M305.11 290.463C305.23 290.463 305.328 290.36 305.328 290.234C305.328 290.107 305.23 290.005 305.11 290.005C304.99 290.005 304.892 290.107 304.892 290.234C304.892 290.36 304.99 290.463 305.11 290.463Z" fill="#263238"/>
<path d="M305.156 291.345C305.276 291.345 305.373 291.243 305.373 291.116C305.373 290.99 305.276 290.887 305.156 290.887C305.036 290.887 304.938 290.99 304.938 291.116C304.938 291.243 305.036 291.345 305.156 291.345Z" fill="#263238"/>
<path d="M306.015 290.601C306.015 290.659 305.992 290.716 305.952 290.759C305.911 290.801 305.856 290.827 305.797 290.83C305.737 290.83 305.678 290.806 305.635 290.763C305.592 290.72 305.568 290.661 305.568 290.601C305.568 290.54 305.592 290.481 305.635 290.438C305.678 290.395 305.737 290.371 305.797 290.371C305.856 290.374 305.911 290.4 305.952 290.442C305.992 290.485 306.015 290.542 306.015 290.601Z" fill="#263238"/>
<path d="M299.498 290.44C299.496 290.47 299.5 290.499 299.511 290.527C299.521 290.555 299.537 290.58 299.557 290.601C299.577 290.623 299.602 290.64 299.629 290.652C299.656 290.663 299.686 290.669 299.715 290.669C299.776 290.669 299.834 290.645 299.877 290.602C299.92 290.559 299.944 290.501 299.944 290.44C299.944 290.379 299.92 290.321 299.877 290.278C299.834 290.235 299.776 290.211 299.715 290.211C299.686 290.211 299.656 290.217 299.629 290.228C299.602 290.24 299.577 290.257 299.557 290.279C299.537 290.3 299.521 290.325 299.511 290.353C299.5 290.381 299.496 290.41 299.498 290.44Z" fill="#263238"/>
<path d="M299.669 291.552C299.79 291.552 299.887 291.449 299.887 291.322C299.887 291.196 299.79 291.093 299.669 291.093C299.549 291.093 299.452 291.196 299.452 291.322C299.452 291.449 299.549 291.552 299.669 291.552Z" fill="#263238"/>
<path d="M298.81 290.807C298.81 290.866 298.833 290.922 298.873 290.965C298.914 291.008 298.969 291.033 299.028 291.036C299.089 291.036 299.147 291.012 299.19 290.969C299.233 290.926 299.257 290.868 299.257 290.807C299.257 290.746 299.233 290.688 299.19 290.645C299.147 290.602 299.089 290.578 299.028 290.578C298.969 290.581 298.914 290.606 298.873 290.649C298.833 290.691 298.81 290.748 298.81 290.807Z" fill="#263238"/>
<path d="M297.298 289.007C297.289 289.121 297.248 289.229 297.178 289.319C297.109 289.409 297.015 289.476 296.908 289.514C296.801 289.551 296.685 289.556 296.575 289.529C296.465 289.501 296.365 289.442 296.288 289.359C296.211 289.276 296.159 289.172 296.14 289.06C296.121 288.948 296.135 288.833 296.18 288.729C296.226 288.624 296.3 288.536 296.395 288.473C296.49 288.411 296.601 288.377 296.714 288.377C296.794 288.38 296.872 288.399 296.945 288.432C297.017 288.465 297.083 288.513 297.137 288.571C297.191 288.63 297.233 288.698 297.261 288.773C297.289 288.848 297.301 288.928 297.298 289.007Z" fill="#263238"/>
<path d="M301.502 291.953C301.365 292.721 301.502 294.417 302.533 294.417C303.564 294.417 303.678 292.721 303.552 291.953C303.552 291.758 303.243 291.838 303.289 292.033C303.38 292.583 303.358 294.119 302.533 294.119C301.708 294.119 301.674 292.583 301.777 292.033C301.777 291.838 301.536 291.758 301.502 291.953Z" fill="#263238"/>
<path d="M303.38 289.821C303.352 289.626 303.249 289.45 303.093 289.33C302.936 289.211 302.74 289.156 302.544 289.179C302.075 289.179 301.697 289.466 301.697 289.821C301.719 289.991 301.802 290.148 301.93 290.262C302.059 290.375 302.224 290.439 302.395 290.44V291.586C302.404 291.617 302.423 291.645 302.449 291.664C302.475 291.684 302.506 291.694 302.539 291.694C302.571 291.694 302.602 291.684 302.628 291.664C302.654 291.645 302.673 291.617 302.682 291.586V290.44C302.853 290.439 303.019 290.375 303.147 290.262C303.275 290.148 303.358 289.991 303.38 289.821Z" fill="#263238"/>
<path d="M225.013 306.004C225.013 306.004 219.79 303.494 218.346 299.746C216.903 295.999 217.487 292.938 218.782 292.01C220.076 291.082 222.71 288.709 222.367 287.426C222.023 286.142 220.855 283.632 221.645 281.271C222.436 278.91 224.268 278.429 225.288 278.727C226.307 279.025 228.632 280.228 228.941 279.816C229.251 279.403 228.426 278.062 228.678 276.24C228.93 274.418 229.491 271.06 232.652 269.753C235.814 268.447 236.638 268.882 237.818 269.753C238.06 269.969 238.352 270.122 238.667 270.198C238.982 270.275 239.311 270.272 239.625 270.19C239.939 270.108 240.228 269.951 240.466 269.73C240.704 269.51 240.885 269.235 240.991 268.928C241.678 267.518 244.209 262.9 245.905 262.35C247.6 261.799 250.2 263.037 250.944 263.713C251.689 264.39 254.3 264.344 255.858 263.782C257.416 263.221 263.028 261.685 265.743 262.968C268.457 264.252 268.79 265.788 269.053 267.782C269.316 269.776 268.812 271.3 270.599 272.366C272.386 273.432 274.196 273.237 275.181 275.266C275.76 276.6 276.056 278.04 276.051 279.495L225.013 306.004Z" fill="#EAEAEA"/>
<path d="M270.428 270.361C270.361 268.875 270.035 267.413 269.465 266.04C267.827 261.891 263.647 260.722 257.37 262.67L256.156 263.049C253.281 263.966 253.281 263.966 250.303 262.728C249.902 262.556 249.444 262.361 248.917 262.155C244.519 260.367 242.537 264.447 241.231 267.22C240.932 267.889 240.588 268.536 240.201 269.157C239.685 269.868 239.422 269.776 238.402 269.249C237.798 268.875 237.125 268.624 236.423 268.512C235.721 268.4 235.004 268.429 234.313 268.596C230.637 269.524 227.258 273.18 228.105 277.123C228.286 277.736 228.364 278.375 228.334 279.014C227.794 278.928 227.272 278.753 226.788 278.498L225.746 278.074C225.174 277.874 224.558 277.845 223.97 277.99C223.382 278.134 222.849 278.446 222.435 278.888C221.623 279.685 221.05 280.692 220.778 281.798C220.507 282.903 220.55 284.062 220.901 285.145C221.828 287.621 221.828 287.621 220.191 289.454L219.297 290.463C216.56 293.649 215.735 296.445 219.194 302.13C220.946 305.007 222.974 305.878 224.612 306.015C224.757 305.733 224.94 305.412 225.162 305.053C223.753 305.053 221.817 304.399 220.099 301.614C216.915 296.365 217.556 294.05 220.099 291.116L220.981 290.108C222.825 288.045 222.997 287.712 221.897 284.778C221.616 283.886 221.585 282.933 221.807 282.024C222.029 281.114 222.496 280.283 223.157 279.621C223.421 279.323 223.767 279.108 224.152 279.004C224.537 278.9 224.943 278.912 225.322 279.037L226.341 279.461C227.555 279.965 228.346 280.309 228.953 279.827C229.56 279.346 229.514 278.681 229.147 276.893C228.426 273.535 231.347 270.407 234.542 269.593C235.11 269.459 235.7 269.442 236.274 269.542C236.849 269.643 237.398 269.859 237.887 270.177C238.815 270.647 239.983 271.243 241.06 269.719C241.497 269.052 241.88 268.35 242.205 267.622C243.82 264.275 245.298 261.811 248.505 263.106L249.891 263.679C253.155 265.043 253.327 265.043 256.477 264.034L257.679 263.656C263.406 261.868 267.071 262.819 268.526 266.464C269.057 267.746 269.359 269.112 269.42 270.498C269.5 271.828 269.626 272.55 271.447 273.031C272.179 273.219 272.866 273.549 273.469 274.003C274.073 274.458 274.581 275.027 274.963 275.678C275.125 275.997 275.241 276.336 275.307 276.687C275.597 276.664 275.888 276.664 276.177 276.687H276.372C276.296 276.179 276.137 275.688 275.902 275.232C275.461 274.459 274.866 273.784 274.155 273.248C273.444 272.712 272.632 272.326 271.768 272.114C270.508 271.702 270.496 271.53 270.428 270.361Z" fill="#4D5A64"/>
<path d="M269.053 279.094C266.888 275.656 263.326 270.785 258.55 270.235C252.383 269.705 246.189 270.87 240.636 273.604C239.462 274.221 238.376 274.992 237.406 275.896C229.709 283.346 226.616 289.466 228.243 294.085C229.107 296.222 229.555 298.506 229.56 300.812C229.9 300.614 230.256 300.446 230.625 300.308C230.523 298.054 230.055 295.832 229.239 293.729C227.785 289.489 230.785 283.736 238.15 276.538C242.32 272.504 252.17 270.487 258.401 271.186C262.811 271.69 266.121 276.286 268.205 279.61L268.583 279.346L269.053 279.094Z" fill="#717A27"/>
<path d="M266.235 271.621C261.493 267.427 252.846 265.696 241.804 271.621C230.762 277.547 226.788 284.652 226.616 292.95C226.426 295.855 227.347 298.723 229.193 300.973C230.558 300.229 232.113 299.91 233.66 300.056C236.535 300.537 238.414 301.603 240.338 300.056C242.262 298.508 246.237 294.979 248.871 294.05C251.506 293.122 253.716 292.354 256.007 293.328C258.298 294.302 259.833 295.345 260.119 294.715C260.405 294.085 261.814 287.838 262.982 285.283C264.151 282.727 266.659 279.724 268.583 279.059C269.518 278.734 270.433 278.351 271.321 277.913C269.964 275.564 268.248 273.441 266.235 271.621Z" fill="white"/>
<path d="M232.801 293.741L232.595 293.58H232.526C232.415 293.513 232.289 293.474 232.16 293.466C232.074 293.443 231.983 293.443 231.896 293.466C231.755 293.468 231.617 293.508 231.496 293.58C231.379 293.637 231.27 293.71 231.175 293.798L231.095 293.867C231.012 293.953 230.936 294.045 230.866 294.142C230.804 294.251 230.754 294.366 230.717 294.486C230.679 294.594 230.652 294.705 230.637 294.818V294.921C230.625 295.039 230.625 295.158 230.637 295.276C230.665 295.396 230.707 295.511 230.763 295.62V295.712C230.763 295.712 230.763 295.712 230.763 295.769L230.866 295.907C230.892 295.951 230.923 295.994 230.957 296.033C231.045 296.133 231.161 296.205 231.289 296.239C231.404 296.304 231.535 296.336 231.667 296.331C231.717 296.337 231.767 296.337 231.816 296.331C231.995 296.333 232.171 296.294 232.332 296.216C232.562 296.083 232.758 295.899 232.904 295.678C232.969 295.573 233.023 295.461 233.065 295.345C233.11 295.227 233.141 295.104 233.156 294.978C233.162 294.933 233.162 294.887 233.156 294.841C233.168 294.715 233.168 294.589 233.156 294.463C233.123 294.336 233.077 294.213 233.019 294.096C232.962 294.004 232.893 293.924 232.824 293.832L232.801 293.741Z" fill="#4D5A64"/>
<path d="M233.202 287.667C233.271 287.541 233.328 287.414 233.385 287.288L233.454 287.116L233.534 286.933C233.568 286.805 233.568 286.671 233.534 286.543C233.534 286.486 233.534 286.452 233.534 286.394C233.557 286.254 233.557 286.111 233.534 285.97C233.495 285.834 233.45 285.7 233.397 285.569C233.397 285.512 233.34 285.455 233.305 285.409C233.22 285.251 233.093 285.121 232.939 285.031C232.823 284.964 232.694 284.924 232.561 284.916C232.429 284.882 232.291 284.882 232.16 284.916C231.977 284.962 231.807 285.052 231.667 285.18L231.37 285.374C231.25 285.498 231.143 285.632 231.049 285.776C230.961 285.918 230.885 286.068 230.82 286.223C230.788 286.301 230.761 286.381 230.74 286.463C230.671 286.702 230.636 286.949 230.637 287.197C230.625 287.357 230.625 287.518 230.637 287.678C230.678 287.844 230.736 288.005 230.808 288.159C230.893 288.316 231.019 288.445 231.172 288.534C231.326 288.623 231.501 288.668 231.679 288.664C231.862 288.664 232.043 288.621 232.206 288.538C232.372 288.448 232.514 288.318 232.618 288.159C232.618 288.159 232.618 288.079 232.698 288.045C232.902 287.976 233.079 287.843 233.202 287.667Z" fill="#4D5A64"/>
<path d="M236.593 288.904C236.461 288.87 236.323 288.87 236.192 288.904C236.005 288.947 235.834 289.043 235.699 289.179C235.592 289.283 235.496 289.399 235.413 289.523C235.335 289.648 235.266 289.778 235.207 289.913C235.127 290.103 235.073 290.304 235.046 290.509C235.018 290.714 235.018 290.922 235.046 291.128C235.078 291.331 235.139 291.528 235.23 291.712C235.311 291.872 235.439 292.004 235.596 292.09C235.748 292.182 235.923 292.23 236.1 292.228C236.35 292.229 236.595 292.152 236.8 292.008C237.005 291.865 237.16 291.661 237.245 291.426C237.25 291.403 237.25 291.38 237.245 291.357C237.312 291.243 237.369 291.124 237.417 291.002C237.424 290.952 237.424 290.902 237.417 290.853C237.451 290.724 237.477 290.594 237.497 290.463V290.325C237.497 290.199 237.497 290.062 237.497 289.936V289.798C237.46 289.671 237.41 289.549 237.349 289.431C237.267 289.271 237.139 289.14 236.982 289.053C236.868 288.969 236.734 288.917 236.593 288.904Z" fill="#4D5A64"/>
<path d="M260.737 280.79C260.474 280.52 260.147 280.319 259.787 280.206H259.523C259.384 280.202 259.246 280.233 259.122 280.297C259.03 280.32 258.944 280.363 258.87 280.423C258.753 280.499 258.655 280.601 258.584 280.721C258.523 280.818 258.473 280.922 258.435 281.031V281.111C258.395 281.245 258.372 281.384 258.367 281.524C258.367 281.524 258.367 281.524 258.367 281.604C258.367 281.684 258.367 281.673 258.367 281.707C258.371 281.929 258.422 282.147 258.515 282.349C258.582 282.475 258.667 282.591 258.767 282.693C258.868 282.793 258.979 282.881 259.1 282.956C259.345 283.103 259.627 283.178 259.913 283.174C260.056 283.177 260.199 283.158 260.337 283.117C260.575 283.055 260.795 282.938 260.978 282.773C261.112 282.655 261.212 282.504 261.268 282.335C261.325 282.166 261.335 281.985 261.299 281.81C261.265 281.676 261.219 281.546 261.161 281.42C261.166 281.375 261.166 281.329 261.161 281.283L261.081 281.157C260.975 281.027 260.86 280.904 260.737 280.79Z" fill="#4D5A64"/>
<path d="M263.67 276.733C263.581 276.631 263.466 276.556 263.338 276.515C263.22 276.459 263.09 276.431 262.96 276.435C262.821 276.427 262.683 276.455 262.559 276.515C262.421 276.558 262.296 276.632 262.192 276.733L262.02 276.939C261.919 277.089 261.86 277.263 261.849 277.443V277.696C261.885 277.873 261.973 278.036 262.101 278.165L262.341 278.418C262.429 278.518 262.545 278.589 262.673 278.624C262.788 278.689 262.919 278.721 263.051 278.716C263.193 278.719 263.333 278.691 263.464 278.635C263.598 278.592 263.719 278.518 263.819 278.418L264.002 278.211C264.094 278.058 264.149 277.885 264.162 277.707V277.455C264.129 277.278 264.046 277.115 263.922 276.985L263.67 276.733Z" fill="#4D5A64"/>
<path d="M258.573 275.885H258.515C258.436 275.793 258.333 275.725 258.218 275.69C258.095 275.635 257.962 275.608 257.828 275.61C257.69 275.602 257.552 275.629 257.427 275.69C257.29 275.733 257.164 275.807 257.061 275.908L256.889 276.114C256.79 276.261 256.731 276.43 256.717 276.607V276.676C256.694 276.785 256.694 276.898 256.717 277.008C256.759 277.184 256.846 277.346 256.969 277.478L257.301 277.89C257.393 277.986 257.507 278.057 257.633 278.097C257.75 278.158 257.88 278.186 258.011 278.177C258.154 278.19 258.297 278.162 258.424 278.097C258.56 278.058 258.683 277.983 258.779 277.879L258.962 277.673C258.962 277.673 258.962 277.535 259.031 277.466C259.085 277.396 259.132 277.319 259.168 277.237V276.974C259.181 276.798 259.141 276.622 259.054 276.469C259.062 276.447 259.062 276.423 259.054 276.401C259.054 276.32 258.939 276.229 258.87 276.148C258.783 276.048 258.683 275.959 258.573 275.885Z" fill="#4D5A64"/>
<path d="M254.907 271.736C255.549 272.882 257.416 271.839 256.774 270.727C256.133 269.616 254.277 270.624 254.907 271.736Z" fill="#4D5A64"/>
<path d="M263.601 271.77C263.504 271.715 263.4 271.672 263.292 271.644L263.086 271.484C262.918 271.389 262.729 271.337 262.536 271.335H262.341H262.295H262.02C261.836 271.384 261.666 271.479 261.528 271.61L261.345 271.816C261.254 271.966 261.199 272.135 261.184 272.309C261.169 272.503 261.208 272.698 261.299 272.871C261.325 272.915 261.356 272.957 261.39 272.997C261.421 273.045 261.455 273.091 261.493 273.134L261.619 273.237C261.693 273.318 261.778 273.387 261.871 273.444C262.074 273.569 262.309 273.633 262.547 273.627H262.708C262.747 273.654 262.789 273.677 262.834 273.696C262.966 273.725 263.102 273.725 263.234 273.696C263.376 273.687 263.514 273.644 263.635 273.57L263.864 273.409C263.997 273.288 264.096 273.134 264.151 272.962L264.208 272.71C264.217 272.531 264.177 272.353 264.093 272.194C263.974 272.008 263.803 271.861 263.601 271.77ZM263.2 272.114V272.32C263.209 272.214 263.189 272.107 263.143 272.011L263.2 272.114ZM262.192 273.249L262.249 273.318L262.192 273.249Z" fill="#4D5A64"/>
<path d="M253.201 278.979C253.049 278.887 252.874 278.84 252.697 278.842H252.319C252.181 278.839 252.044 278.867 251.918 278.922C251.78 278.965 251.655 279.039 251.551 279.14C251.449 279.23 251.37 279.344 251.322 279.472C251.255 279.588 251.216 279.717 251.208 279.85V280.102C251.242 280.281 251.33 280.445 251.46 280.572L251.666 280.733C251.82 280.82 251.993 280.867 252.17 280.87H252.548C252.687 280.876 252.826 280.844 252.949 280.779C253.088 280.74 253.215 280.665 253.315 280.561C253.418 280.475 253.496 280.365 253.544 280.24C253.616 280.127 253.656 279.996 253.659 279.862V279.598C253.626 279.422 253.538 279.262 253.407 279.14L253.201 278.979Z" fill="#4D5A64"/>
<path d="M233.42 309.35C233.42 309.35 233.237 311.058 233.225 311.746C232.998 312.553 232.604 313.303 232.067 313.947C231.53 314.591 230.863 315.114 230.11 315.482C228.243 316.296 223.237 316.25 222.768 312.846C222.298 309.442 226.204 303.276 228.426 301.786C230.784 300.368 233.58 299.866 236.283 300.377C237.535 300.568 238.815 300.438 240.003 299.999C241.191 299.56 242.248 298.826 243.076 297.867C244.713 295.953 248.871 293.878 251.208 293.282C253.544 292.686 255.159 292.652 256.66 293.626C258.16 294.6 260.096 295.918 260.096 295.918C260.096 295.918 261.138 290.635 262.261 287.208C263.383 283.781 266.373 279.346 271.103 277.753C275.834 276.16 279.247 275.85 280.553 278.761C281.859 281.673 282.729 284.377 279.762 286.784C276.796 289.191 271.745 288.515 269.064 290.142C266.384 291.769 266.373 292.744 266.499 295.105C266.625 297.465 267.484 301.591 264.746 303.299C262.009 305.007 258.412 307.368 257.175 309.224C255.938 311.081 254.495 312.204 254.999 314.668C255.503 317.132 253.338 315.723 252.903 314.439C252.468 313.155 252.64 309.969 254.22 308.514C255.801 307.058 258.699 303.631 258.699 303.631L259.111 302.68C256.364 302.612 253.631 302.263 250.956 301.637C248.069 300.743 246.661 301.053 245.607 302.187C244.553 303.322 245.355 306.772 243.316 308.044C241.277 309.316 240.052 309.752 237.956 309.052C235.86 308.353 233.557 307.883 233.42 309.35Z" fill="#FAFAFA"/>
<path d="M228.907 315.665C228.907 315.665 231.541 321.889 241.186 323.046C250.83 324.204 256.156 323.172 260.371 319.711C264.586 316.25 257.347 316.64 256.053 316.044C254.759 315.448 253.166 315.276 252.834 312.468C252.502 309.66 254.209 308.8 256.27 306.29C258.332 303.78 259.924 302.783 259.065 302.772C256.918 302.81 254.775 302.579 252.685 302.084C249.982 301.374 247.943 299.792 246.42 301.821C244.897 303.849 245.275 306.027 243.637 307.551C241.999 309.075 241.346 310.325 237.91 309.144C234.474 307.964 233.5 307.207 233.328 309.35C233.156 311.494 231.37 315.585 228.907 315.665Z" fill="#E0E0E0"/>
<path d="M259.615 301.901C257.419 302.58 255.056 302.479 252.926 301.614C250.234 300.606 247.817 300.468 246.26 301.351L246.065 301.477C245.536 301.816 245.098 302.28 244.788 302.827C244.479 303.374 244.308 303.989 244.29 304.617C244.24 305.368 244.013 306.096 243.626 306.742C243.24 307.388 242.706 307.932 242.068 308.33C241.568 308.663 241 308.881 240.405 308.966C239.811 309.051 239.205 309.002 238.631 308.823C236.959 308.216 235.081 307.517 233.763 308.285C233.407 308.525 233.112 308.845 232.899 309.219C232.686 309.592 232.563 310.01 232.538 310.439V310.588L232.595 310.714C232.595 310.794 233.511 312.766 230.728 314.428C229.937 314.925 229.04 315.225 228.109 315.305C227.179 315.385 226.243 315.241 225.379 314.886C224.815 314.63 224.334 314.22 223.991 313.703C223.649 313.186 223.459 312.583 223.443 311.964C223.237 308.457 226.88 301.821 231.381 300.881C232.836 300.603 234.332 300.622 235.779 300.938C236.966 301.277 238.223 301.281 239.412 300.949C240.6 300.617 241.674 299.963 242.514 299.059C246.351 295.483 251.872 292.251 255.824 293.89C257.485 294.526 259.033 295.428 260.405 296.56C260.405 296.102 260.405 295.62 260.405 295.185C259.133 294.288 257.761 293.542 256.316 292.961C250.75 290.669 243.831 296.503 241.838 298.348C239.548 300.491 238.07 300.262 236.043 299.941C234.459 299.62 232.827 299.62 231.244 299.941C226.055 301.018 222.195 308.078 222.435 312.124C222.457 312.913 222.7 313.68 223.138 314.337C223.576 314.994 224.19 315.514 224.91 315.837C225.934 316.268 227.047 316.447 228.155 316.359C229.263 316.271 230.334 315.919 231.278 315.333C234.416 313.453 233.867 311.081 233.649 310.451C233.664 310.203 233.733 309.961 233.852 309.743C233.97 309.525 234.136 309.336 234.336 309.19C235.149 308.651 236.902 309.316 238.276 309.82C239.005 310.057 239.778 310.126 240.538 310.023C241.297 309.919 242.023 309.647 242.663 309.224C243.436 308.732 244.084 308.067 244.557 307.281C245.03 306.496 245.315 305.611 245.389 304.697C245.4 304.242 245.521 303.796 245.74 303.398C245.959 302.999 246.271 302.658 246.649 302.405C247.886 301.637 250.085 301.718 252.571 302.657C254.637 303.45 256.886 303.637 259.054 303.196C259.287 302.786 259.475 302.352 259.615 301.901Z" fill="#4D5A64"/>
<path d="M254.587 316.204C254.587 316.204 257.324 319.986 258.928 320.422C262.112 321.293 268.675 318.278 275.055 313.694C284.619 306.818 282.924 294.211 282.225 291.288C281.843 289.609 280.984 288.077 279.751 286.876C279.751 286.876 278.606 289.019 273.509 289.466C268.412 289.913 266.19 290.337 266.636 293.844C267.083 297.351 267.381 300.72 265.972 302.302C264.563 303.884 260.096 306.29 258.389 308.032C256.683 309.774 253.04 313.671 254.587 316.204Z" fill="#E0E0E0"/>
<path d="M257.336 319.39L255.045 317.476C255.045 317.476 249.661 312.823 253.899 308.147L254.724 307.242C258.16 303.448 260.291 301.156 259.707 297.511C258.985 293.088 261.745 283.632 267.037 279.655C270.473 277.088 274.253 275.839 277.162 276.343C278.038 276.467 278.874 276.792 279.603 277.293C280.332 277.794 280.936 278.458 281.366 279.231C281.875 280.113 282.16 281.106 282.194 282.124C282.228 283.141 282.01 284.152 281.561 285.065C281.098 286.066 280.43 286.96 279.602 287.688C278.773 288.416 277.802 288.963 276.75 289.294C275.732 289.505 274.697 289.628 273.657 289.661C270.015 289.878 267.427 290.257 267.175 293.099C267.095 294.335 267.095 295.576 267.175 296.812C267.289 299.975 267.392 302.967 264.082 304.755C261.356 306.222 256.603 309.224 255.457 312.777C255.231 313.442 255.151 314.148 255.224 314.847C255.298 315.545 255.522 316.22 255.881 316.823L257.336 319.39ZM270.118 278.888C269.274 279.344 268.466 279.866 267.701 280.446C262.788 284.137 260.119 293.214 260.829 297.305C261.539 301.397 259.145 303.998 255.583 307.895L254.758 308.789C253.982 309.562 253.502 310.584 253.404 311.676C253.305 312.768 253.594 313.86 254.22 314.76C254.167 313.984 254.269 313.205 254.518 312.468C255.778 308.56 260.795 305.385 263.681 303.838C266.568 302.291 266.304 299.93 266.201 296.858C266.116 295.58 266.116 294.297 266.201 293.019C266.556 289.042 270.519 288.801 273.703 288.606C274.673 288.577 275.639 288.466 276.59 288.274C277.485 287.988 278.311 287.518 279.015 286.894C279.719 286.271 280.286 285.507 280.679 284.652C281.065 283.881 281.253 283.025 281.225 282.162C281.197 281.3 280.954 280.458 280.518 279.713C280.16 279.064 279.655 278.509 279.045 278.089C278.435 277.669 277.735 277.397 277.002 277.295C274.595 277.06 272.178 277.62 270.118 278.888Z" fill="#4D5A64"/>
<path d="M193.64 319.975C189.735 318.221 184.328 314.84 182.633 305.373C182.209 303.141 182.317 300.84 182.947 298.657C183.577 296.474 184.712 294.47 186.26 292.807C187.808 291.144 189.726 289.869 191.858 289.086C193.989 288.302 196.276 288.032 198.531 288.297C208.576 289.374 209.126 295.173 219.32 295.93C229.514 296.686 233.821 298.222 236.341 304.732C238.86 311.241 235.573 316.055 223.489 320.846C218.701 322.673 213.6 323.536 208.478 323.387C203.356 323.237 198.314 322.078 193.64 319.975Z" fill="#6473F9"/>
<path opacity="0.7" d="M193.64 319.975C189.735 318.221 184.328 314.84 182.633 305.373C182.209 303.141 182.317 300.84 182.947 298.657C183.577 296.474 184.712 294.47 186.26 292.807C187.808 291.144 189.726 289.869 191.858 289.086C193.989 288.302 196.276 288.032 198.531 288.297C208.576 289.374 209.126 295.173 219.32 295.93C229.514 296.686 233.821 298.222 236.341 304.732C238.86 311.241 235.573 316.055 223.489 320.846C218.701 322.673 213.6 323.536 208.478 323.387C203.356 323.237 198.314 322.078 193.64 319.975Z" fill="black"/>
<path d="M199.23 298.211C198.726 300.503 195.954 301.924 193.045 301.305C190.135 300.686 188.177 298.268 188.681 295.93C189.185 293.592 191.945 292.205 194.866 292.835C197.787 293.466 199.734 295.873 199.23 298.211Z" fill="#FFE8E7"/>
<path d="M232.08 300.789C232.08 300.789 223.237 301.225 223.191 296.766C223.146 292.308 233.798 293.638 238.024 297.133C242.251 300.629 240.853 308.33 238.54 311.803C236.226 315.276 226.536 309.454 234.222 304.078C234.222 304.078 229.514 307.998 227.418 306.164C225.322 304.331 228.666 301.259 232.08 300.789Z" fill="#6473F9"/>
<path opacity="0.4" d="M232.08 300.789C232.08 300.789 223.237 301.225 223.191 296.766C223.146 292.308 233.798 293.638 238.024 297.133C242.251 300.629 240.853 308.33 238.54 311.803C236.226 315.276 226.536 309.454 234.222 304.078C234.222 304.078 229.514 307.998 227.418 306.164C225.322 304.331 228.666 301.259 232.08 300.789Z" fill="black"/>
<path d="M237.658 300.388C237.658 300.388 244.175 298.359 244.095 293.683C244.015 289.007 250.051 295.425 247.004 298.44C244.886 300.652 242.036 302.016 238.986 302.279C237.578 302.245 236.547 301.42 237.658 300.388Z" fill="#6473F9"/>
<path opacity="0.4" d="M237.658 300.388C237.658 300.388 244.175 298.359 244.095 293.683C244.015 289.007 250.051 295.425 247.004 298.44C244.886 300.652 242.036 302.016 238.986 302.279C237.578 302.245 236.547 301.42 237.658 300.388Z" fill="black"/>
<path d="M189.483 268.756C190.124 270.876 189.826 272.676 196.424 276.893C203.021 281.111 201.292 287.884 196.275 290.257C191.476 292.549 183.149 289.947 178.647 286.406C172.92 281.821 169.037 275.965 168.957 271.025C168.82 262.602 184.248 251.393 189.483 268.756Z" fill="#E0E0E0" stroke="#4D5A64" stroke-miterlimit="10"/>
<path d="M188.085 265.192L185.199 270.957" stroke="#4D5A64" stroke-miterlimit="10"/>
<path d="M180.067 267.53L177.147 273.375" stroke="#4D5A64" stroke-miterlimit="10"/>
<path d="M185.038 279.77L182.393 285.065" stroke="#4D5A64" stroke-miterlimit="10"/>
<path d="M195.542 280.802L192.884 286.119" stroke="#4D5A64" stroke-miterlimit="10"/>
<path d="M157.331 280.206C158.351 278.234 159.817 277.157 158.041 269.524C156.266 261.891 162.234 258.258 167.468 260.069C172.485 261.788 176.631 269.444 177.41 275.14C178.361 282.383 176.998 289.317 173.619 292.916C167.835 299.047 148.97 296.297 157.331 280.206Z" fill="#E0E0E0" stroke="#4D5A64" stroke-miterlimit="10"/>
<path d="M155.854 283.736L161.947 281.615" stroke="#4D5A64" stroke-miterlimit="10"/>
<path d="M163.219 287.655L169.392 285.512" stroke="#4D5A64" stroke-miterlimit="10"/>
<path d="M168.19 275.426L173.779 273.478" stroke="#4D5A64" stroke-miterlimit="10"/>
<path d="M161.397 267.346L167.01 265.387" stroke="#4D5A64" stroke-miterlimit="10"/>
<path d="M206.457 292.618C206.457 292.618 205.736 298.348 198.943 303.035C192.151 307.723 181.854 305.912 178.75 299.964C175.646 294.016 181.236 290.887 184.477 287.426C187.719 283.965 190.204 279.403 194.66 278.555C202.529 276.996 208.198 284.538 206.457 292.618Z" fill="#E0E0E0" stroke="#4D5A64" stroke-miterlimit="10"/>
<path d="M194.866 304.984L192.312 299.139" stroke="#4D5A64" stroke-miterlimit="10"/>
<path d="M198.245 298.073L194.58 290.944" stroke="#4D5A64" stroke-miterlimit="10"/>
<path d="M184.809 297.764L182.816 293.191" stroke="#4D5A64" stroke-miterlimit="10"/>
<path d="M187.329 289.271L185.875 285.936" stroke="#4D5A64" stroke-miterlimit="10"/>
<path d="M203.571 290.36L201.532 285.695" stroke="#4D5A64" stroke-miterlimit="10"/>
<path d="M196.401 284.882L194.614 281.81" stroke="#4D5A64" stroke-miterlimit="10"/>
<path d="M182.931 272.951C182.931 272.951 188.337 275.014 191.246 282.738C194.156 290.463 189.964 300.033 183.446 301.626C176.929 303.219 175.234 297.041 172.657 293.065C170.08 289.088 166.277 285.558 166.472 281.054C166.827 273.042 175.509 269.329 182.931 272.951Z" fill="#E0E0E0" stroke="#4D5A64" stroke-miterlimit="10"/>
<path d="M192.163 287.162L185.886 288.251" stroke="#4D5A64" stroke-miterlimit="10"/>
<path d="M182.759 295.219L177.857 296.056" stroke="#4D5A64" stroke-miterlimit="10"/>
<path d="M175.119 290.738L171.546 291.357" stroke="#4D5A64" stroke-miterlimit="10"/>
<path d="M180.056 275.22L175.039 276.08" stroke="#4D5A64" stroke-miterlimit="10"/>
<path d="M173.023 280.882L169.621 281.89" stroke="#4D5A64" stroke-miterlimit="10"/>
<path d="M153.231 298.371C154.25 296.4 155.716 295.322 153.941 287.689C152.166 280.057 158.133 276.423 163.368 278.223C168.384 279.953 172.531 287.609 173.31 293.294C174.26 300.548 172.897 307.482 169.518 311.069C163.791 317.201 144.869 314.462 153.231 298.371Z" fill="#E0E0E0" stroke="#4D5A64" stroke-miterlimit="10"/>
<path d="M151.753 301.901L157.847 299.781" stroke="#4D5A64" stroke-miterlimit="10"/>
<path d="M159.118 305.82L165.292 303.666" stroke="#4D5A64" stroke-miterlimit="10"/>
<path d="M164.089 293.58L169.679 291.632" stroke="#4D5A64" stroke-miterlimit="10"/>
<path d="M157.297 285.5L162.909 283.552" stroke="#4D5A64" stroke-miterlimit="10"/>
<path d="M180.64 313.155C180.64 313.155 174.913 312.009 170.835 304.858C166.758 297.706 169.278 287.586 175.417 284.939C181.556 282.291 184.271 288.125 187.467 291.632C190.662 295.139 194.98 297.993 195.484 302.474C196.504 310.428 188.543 315.516 180.64 313.155Z" fill="#E0E0E0" stroke="#4D5A64" stroke-miterlimit="10"/>
<path d="M169.209 300.629L175.234 298.531" stroke="#4D5A64" stroke-miterlimit="10"/>
<path d="M179.518 302.99L186.894 299.872" stroke="#4D5A64" stroke-miterlimit="10"/>
<path d="M177.17 291.162L181.877 289.523" stroke="#4D5A64" stroke-miterlimit="10"/>
<path d="M185.439 294.325L188.875 293.133" stroke="#4D5A64" stroke-miterlimit="10"/>
<path d="M183.103 310.439L187.902 308.766" stroke="#4D5A64" stroke-miterlimit="10"/>
<path d="M189.116 303.712L192.312 302.164" stroke="#4D5A64" stroke-miterlimit="10"/>
<path d="M161.123 255.92C161.123 255.92 149.016 262.544 148.901 274.028C148.787 285.512 148.363 291.918 145.465 298.898C142.567 305.878 145.683 316.582 157.022 319.528C168.361 322.473 172.806 318.714 182.358 317.144C191.911 315.574 204.453 312.296 208.851 306.05C213.249 299.804 219.606 286.486 207.03 277.501C194.454 268.516 190.548 259.312 186.699 255.37C182.851 251.427 168.751 251.278 161.123 255.92Z" stroke="#E6E6E6" stroke-miterlimit="10"/>
<path d="M168.808 259.507C168.808 259.507 167.514 254.682 165.784 253.857C165.784 253.857 161.936 258.934 162.417 262.831" stroke="#E6E6E6" stroke-miterlimit="10"/>
<path d="M174.764 255.507C174.764 255.507 171.546 253.33 165.784 253.857" stroke="#E6E6E6" stroke-miterlimit="10"/>
<path d="M169.747 249.628C170.24 251.026 168.671 252.849 166.242 253.697C163.814 254.545 161.466 254.086 160.974 252.677C160.481 251.267 162.05 249.456 164.479 248.619C166.907 247.783 169.266 248.218 169.747 249.628Z" fill="white" stroke="#E6E6E6" stroke-miterlimit="10"/>
<path d="M161.856 250.831C161.856 250.831 166.735 253.376 169.369 251.565" stroke="#E6E6E6" stroke-miterlimit="10"/>
<path d="M165.097 249.708C160.516 249.605 147.447 243.279 149.657 239.714C151.868 236.15 155.006 239.795 159.118 238.912C163.23 238.03 162.68 235.577 166.598 236.528C170.515 237.48 171.179 232.185 175.211 231.944C179.243 231.703 172.565 249.846 165.097 249.708Z" stroke="#E6E6E6" stroke-miterlimit="10"/>
<path d="M167.663 303.712C167.663 303.712 163.459 313.213 155.693 309.293C155.693 309.316 158.74 299.815 167.663 303.712Z" fill="#4D5A64"/>
<path d="M170.881 305.076C170.881 305.076 165.235 303.929 162.726 296.514" stroke="#263238" stroke-miterlimit="10"/>
<path d="M194.362 312.812C194.362 312.812 193.446 319.528 184.134 321.522C174.821 323.516 168.465 319.631 167.812 313.877C167.159 308.124 169.839 308.365 170.343 303.746C170.847 299.127 171.248 293.133 177.662 292.87C184.076 292.606 191.567 297.156 194.339 302.669C197.111 308.181 194.041 309.671 194.362 312.812Z" fill="#FF9D00"/>
<path d="M181.098 314.393C181.203 315.293 181.031 316.203 180.607 317.003C180.183 317.803 179.526 318.456 178.723 318.874C177.92 319.292 177.009 319.456 176.111 319.345C175.212 319.233 174.369 318.851 173.693 318.249C173.016 317.647 172.539 316.854 172.323 315.974C172.107 315.095 172.163 314.17 172.484 313.323C172.806 312.476 173.376 311.747 174.121 311.232C174.865 310.717 175.749 310.441 176.654 310.439C177.766 310.38 178.857 310.761 179.689 311.502C180.521 312.242 181.027 313.281 181.098 314.393Z" fill="#6473F9"/>
<path opacity="0.3" d="M181.098 314.393C181.203 315.293 181.031 316.203 180.607 317.003C180.183 317.803 179.526 318.456 178.723 318.874C177.92 319.292 177.009 319.456 176.111 319.345C175.212 319.233 174.369 318.851 173.693 318.249C173.016 317.647 172.539 316.854 172.323 315.974C172.107 315.095 172.163 314.17 172.484 313.323C172.806 312.476 173.376 311.747 174.121 311.232C174.865 310.717 175.749 310.441 176.654 310.439C177.766 310.38 178.857 310.761 179.689 311.502C180.521 312.242 181.027 313.281 181.098 314.393Z" fill="#FF9D00"/>
<path d="M179.38 392.648C189.198 392.648 197.157 384.684 197.157 374.86C197.157 365.037 189.198 357.073 179.38 357.073C169.562 357.073 161.604 365.037 161.604 374.86C161.604 384.684 169.562 392.648 179.38 392.648Z" fill="#263238"/>
<path d="M179.38 385.003C184.979 385.003 189.517 380.462 189.517 374.86C189.517 369.259 184.979 364.718 179.38 364.718C173.782 364.718 169.243 369.259 169.243 374.86C169.243 380.462 173.782 385.003 179.38 385.003Z" fill="#E0E0E0"/>
<path d="M294.32 392.648C304.138 392.648 312.097 384.684 312.097 374.86C312.097 365.037 304.138 357.073 294.32 357.073C284.503 357.073 276.544 365.037 276.544 374.86C276.544 384.684 284.503 392.648 294.32 392.648Z" fill="#263238"/>
<path d="M294.32 385.003C299.919 385.003 304.457 380.462 304.457 374.86C304.457 369.259 299.919 364.718 294.32 364.718C288.722 364.718 284.184 369.259 284.184 374.86C284.184 380.462 288.722 385.003 294.32 385.003Z" fill="#E0E0E0"/>
<path d="M130.289 211.303L131.778 228.38L135.214 266.911L138.799 307.838L140.883 332.077C140.883 332.501 140.975 332.914 140.987 333.338C141.067 338.147 142.496 342.837 145.11 346.873C147.362 350.185 150.388 352.897 153.925 354.775C157.462 356.652 161.403 357.638 165.406 357.646C170.87 357.646 176.345 357.646 181.82 357.646H318.58C319.036 357.646 319.473 357.465 319.795 357.143C320.117 356.82 320.298 356.383 320.298 355.927C320.298 355.471 320.117 355.034 319.795 354.712C319.473 354.389 319.036 354.208 318.58 354.208H167.388C164.233 354.354 161.077 353.943 158.064 352.993C153.635 351.359 149.888 348.273 147.435 344.237C145.513 340.921 144.464 337.171 144.388 333.338C144.033 327.241 143.323 321.144 142.785 315.058L139.417 276.641L135.89 236.093L133.816 212.438L133.725 211.292C133.53 209.114 130.094 209.091 130.289 211.292V211.303Z" fill="#263238"/>
<path d="M89.7645 149.587C93.6486 149.587 96.7972 146.436 96.7972 142.55C96.7972 138.663 93.6486 135.513 89.7645 135.513C85.8805 135.513 82.7318 138.663 82.7318 142.55C82.7318 146.436 85.8805 149.587 89.7645 149.587Z" fill="#263238"/>
<path d="M130.289 225.778L134.149 256.47L139.876 301.626L140.54 306.921C140.649 309.079 141.085 311.209 141.834 313.236C145.58 321.694 156.06 324.891 164.582 324.914H316.381C320.111 325.06 323.845 324.756 327.502 324.009C332.989 322.691 338.556 319.665 341.534 314.691C342.942 312.33 343.194 309.912 343.527 307.265L348.108 270.51L353.217 229.491L353.514 227.085C353.629 226.168 352.632 225.377 351.796 225.366H345.92L329.885 225.274L306.221 225.136L277.346 224.964L245.733 224.77L213.811 224.586L184.179 224.403L158.981 224.254L140.883 224.151C138.031 224.151 135.156 224.036 132.304 224.151H131.938C131.482 224.151 131.045 224.332 130.723 224.654C130.401 224.977 130.22 225.414 130.22 225.87C130.22 226.326 130.401 226.763 130.723 227.085C131.045 227.408 131.482 227.589 131.938 227.589H137.814L153.849 227.692L177.513 227.83L206.377 228.002L238.001 228.185L269.924 228.38L299.555 228.552L324.754 228.701L342.851 228.815C345.668 228.815 348.578 229.09 351.43 228.815C351.556 228.815 351.682 228.815 351.796 228.815L350.078 227.096L346.287 257.547L340.755 301.947C340.319 305.385 340.342 309.969 338.556 312.972C334.661 319.505 326.117 321.487 319.084 321.487H167.514C163.721 321.651 159.925 321.265 156.243 320.341C151.398 318.932 146.049 315.757 144.491 310.68C144.164 309.256 143.957 307.807 143.873 306.348L139.039 267.988L134.011 228.07L133.736 225.778C133.45 223.623 130.002 223.601 130.289 225.778Z" fill="#263238"/>
<path d="M133.393 241.926H341.327C344.145 241.926 346.974 242.007 349.78 241.926H350.147C350.468 241.896 350.766 241.747 350.983 241.509C351.199 241.27 351.32 240.959 351.32 240.637C351.32 240.315 351.199 240.004 350.983 239.765C350.766 239.527 350.468 239.378 350.147 239.348H142.212C139.394 239.348 136.577 239.267 133.759 239.348H133.393C133.072 239.378 132.774 239.527 132.557 239.765C132.34 240.004 132.22 240.315 132.22 240.637C132.22 240.959 132.34 241.27 132.557 241.509C132.774 241.747 133.072 241.896 133.393 241.926Z" fill="#263238"/>
<path d="M136.382 261.88H339.037C341.785 261.88 344.534 261.96 347.283 261.88H347.638C347.959 261.849 348.257 261.701 348.474 261.462C348.691 261.224 348.811 260.913 348.811 260.59C348.811 260.268 348.691 259.957 348.474 259.719C348.257 259.48 347.959 259.331 347.638 259.301H144.984C142.235 259.301 139.486 259.232 136.737 259.301H136.382C136.061 259.331 135.763 259.48 135.546 259.719C135.33 259.957 135.209 260.268 135.209 260.59C135.209 260.913 135.33 261.224 135.546 261.462C135.763 261.701 136.061 261.849 136.382 261.88Z" fill="#263238"/>
<path d="M138.902 281.833H336.746C339.426 281.833 342.129 281.913 344.764 281.833H345.119C345.439 281.803 345.737 281.654 345.954 281.415C346.171 281.177 346.291 280.866 346.291 280.544C346.291 280.221 346.171 279.91 345.954 279.672C345.737 279.434 345.439 279.285 345.119 279.254H147.309C144.629 279.254 141.937 279.186 139.291 279.254H138.948C138.627 279.285 138.329 279.434 138.112 279.672C137.895 279.91 137.775 280.221 137.775 280.544C137.775 280.866 137.895 281.177 138.112 281.415C138.329 281.654 138.627 281.803 138.948 281.833H138.902Z" fill="#263238"/>
<path d="M140.299 301.786H334.386C337.021 301.786 339.667 301.866 342.301 301.786H342.656C342.977 301.756 343.275 301.607 343.492 301.369C343.709 301.13 343.829 300.819 343.829 300.497C343.829 300.174 343.709 299.864 343.492 299.625C343.275 299.387 342.977 299.238 342.656 299.208H148.558C145.923 299.208 143.277 299.139 140.643 299.208H140.299C139.979 299.238 139.681 299.387 139.464 299.625C139.247 299.864 139.127 300.174 139.127 300.497C139.127 300.819 139.247 301.13 139.464 301.369C139.681 301.607 139.979 301.756 140.299 301.786Z" fill="#263238"/>
<path d="M159.049 225.939V322.622C159.08 322.943 159.229 323.241 159.467 323.458C159.705 323.675 160.016 323.795 160.338 323.795C160.66 323.795 160.971 323.675 161.209 323.458C161.447 323.241 161.596 322.943 161.627 322.622V225.939C161.596 225.618 161.447 225.319 161.209 225.102C160.971 224.885 160.66 224.765 160.338 224.765C160.016 224.765 159.705 224.885 159.467 225.102C159.229 225.319 159.08 225.618 159.049 225.939Z" fill="#263238"/>
<path d="M191.384 226.156V322.84C191.414 323.161 191.563 323.459 191.801 323.676C192.04 323.893 192.35 324.013 192.672 324.013C192.995 324.013 193.305 323.893 193.544 323.676C193.782 323.459 193.931 323.161 193.961 322.84V226.156C193.931 225.835 193.782 225.537 193.544 225.32C193.305 225.103 192.995 224.983 192.672 224.983C192.35 224.983 192.04 225.103 191.801 225.32C191.563 225.537 191.414 225.835 191.384 226.156Z" fill="#263238"/>
<path d="M223.718 226.523V323.195C223.749 323.516 223.897 323.814 224.136 324.031C224.374 324.248 224.685 324.368 225.007 324.368C225.329 324.368 225.64 324.248 225.878 324.031C226.116 323.814 226.265 323.516 226.296 323.195V226.523C226.265 226.202 226.116 225.904 225.878 225.687C225.64 225.47 225.329 225.35 225.007 225.35C224.685 225.35 224.374 225.47 224.136 225.687C223.897 225.904 223.749 226.202 223.718 226.523Z" fill="#263238"/>
<path d="M256.053 226.523V323.195C256.083 323.516 256.232 323.814 256.47 324.031C256.709 324.248 257.019 324.368 257.341 324.368C257.664 324.368 257.974 324.248 258.213 324.031C258.451 323.814 258.6 323.516 258.63 323.195V226.523C258.6 226.202 258.451 225.904 258.213 225.687C257.974 225.47 257.664 225.35 257.341 225.35C257.019 225.35 256.709 225.47 256.47 225.687C256.232 225.904 256.083 226.202 256.053 226.523Z" fill="#263238"/>
<path d="M288.399 227.818V323.195C288.429 323.516 288.578 323.814 288.816 324.031C289.054 324.248 289.365 324.368 289.687 324.368C290.01 324.368 290.32 324.248 290.558 324.031C290.797 323.814 290.946 323.516 290.976 323.195V227.818C290.946 227.497 290.797 227.199 290.558 226.982C290.32 226.765 290.01 226.645 289.687 226.645C289.365 226.645 289.054 226.765 288.816 226.982C288.578 227.199 288.429 227.497 288.399 227.818Z" fill="#263238"/>
<path d="M320.71 227.818V323.126C320.741 323.447 320.889 323.745 321.128 323.962C321.366 324.179 321.677 324.3 321.999 324.3C322.321 324.3 322.632 324.179 322.87 323.962C323.108 323.745 323.257 323.447 323.287 323.126V227.818C323.257 227.497 323.108 227.199 322.87 226.982C322.632 226.765 322.321 226.645 321.999 226.645C321.677 226.645 321.366 226.765 321.128 226.982C320.889 227.199 320.741 227.497 320.71 227.818Z" fill="#263238"/>
<path d="M133.484 210.444L119.224 187.212L96.4765 150.194L91.2535 141.69C90.1081 139.799 87.1186 141.53 88.2869 143.421L102.547 166.64L125.295 203.67L130.518 212.174C131.663 214.054 134.652 212.335 133.484 210.444Z" fill="#263238"/>
<path d="M360.937 253.639L378.782 267.874L370.271 282.074L350.708 268.126L360.937 253.639Z" fill="white" stroke="#6473F9" stroke-miterlimit="10"/>
<path d="M359.356 255.874L377.258 270.842" stroke="#6473F9" stroke-miterlimit="10"/>
<path d="M357.031 259.186L374.933 274.154" stroke="#6473F9" stroke-miterlimit="10"/>
<path d="M354.499 262.04L373.158 276.756" stroke="#6473F9" stroke-miterlimit="10"/>
<path d="M352.621 264.997L371.417 279.839" stroke="#6473F9" stroke-miterlimit="10"/>
<path d="M422.078 261.88L385.437 304.411L361.108 281.787L379.629 262.98L389.984 270.831L422.078 261.88Z" fill="white" stroke="#263238" stroke-miterlimit="10"/>
<path d="M400.705 265.203L404.29 272.848" stroke="#263238" stroke-miterlimit="10"/>
<path d="M395.207 267.278L398.78 274.922" stroke="#263238" stroke-miterlimit="10"/>
<path d="M391.782 269.478C391.782 269.478 396.776 254.694 392.114 253.811C384.623 252.402 391.782 269.478 391.782 269.478Z" stroke="#263238" stroke-miterlimit="10"/>
<path d="M383.34 257.926L391.725 269.948" stroke="#263238" stroke-miterlimit="10"/>
<path d="M386.96 276.343C387.961 277.231 388.677 278.397 389.017 279.692C389.357 280.987 389.305 282.354 388.869 283.62C388.432 284.886 387.631 285.994 386.565 286.805C385.5 287.615 384.218 288.091 382.882 288.172C381.546 288.254 380.216 287.938 379.06 287.263C377.904 286.589 376.973 285.587 376.386 284.383C375.799 283.18 375.582 281.829 375.761 280.502C375.941 279.175 376.51 277.931 377.396 276.928C378.589 275.585 380.265 274.77 382.057 274.66C383.85 274.551 385.612 275.156 386.96 276.343Z" fill="#6473F9"/>
<path d="M287.139 230.42L346.699 280.137L379.125 243.187C379.125 243.187 300.609 187.384 284.172 185.321C279.648 184.748 271.779 188.347 262.204 194.937L264.93 208.942L287.139 230.42Z" fill="#6473F9"/>
<g opacity="0.4">
<path opacity="0.4" d="M287.139 230.42L346.699 280.137L379.125 243.187C379.125 243.187 300.609 187.384 284.172 185.321C279.648 184.748 271.779 188.347 262.204 194.937L264.93 208.942L287.139 230.42Z" fill="black"/>
</g>
<path d="M276.338 220.38L289.682 232.781L346.699 280.137L379.125 243.187C379.125 243.187 299.246 187.384 284.172 185.321C279.659 184.703 271.779 188.347 262.204 194.937C262.204 194.937 238.15 212.38 218.255 231.531" stroke="#263238" stroke-miterlimit="10"/>
<path d="M336.769 272.618L369.046 236.23" stroke="#263238" stroke-miterlimit="10"/>
<path d="M163.562 259.656C163.562 259.656 197.18 268.481 203.96 266.132C209.687 264.149 192.965 261.994 192.965 261.994C192.965 261.994 204.693 264.676 205.816 262.35C206.938 260.023 193.411 258.407 193.411 258.407C193.411 258.407 207.099 260.699 207.419 258.533C207.74 256.367 193.675 254.923 193.675 254.923C193.675 254.923 207.557 257.376 207.992 254.866C208.427 252.356 194.179 250.992 194.179 250.992C194.179 250.992 203.159 250.797 202.666 248.849C202.173 246.9 183.973 248.138 169.702 243.978C155.43 239.818 163.562 259.656 163.562 259.656Z" fill="#E6A57D"/>
<path d="M194.591 255.496C198.279 256.195 202.448 256.952 206.194 256.298C207.82 256.023 209.367 254.717 207.58 253.341C205.793 251.966 202.529 251.542 200.203 251.175C198.348 250.889 196.469 250.66 194.591 250.511V251.37C195.736 251.37 196.939 251.256 198.107 251.152C199.583 251.145 201.043 250.845 202.403 250.27C203.422 249.685 203.548 248.677 202.506 248.081C201.12 247.29 199.069 247.37 197.546 247.233C193.617 246.9 189.677 246.694 185.737 246.465C182.41 246.149 179.106 245.632 175.841 244.918C172.668 244.322 169.438 243.772 166.3 242.958C166.19 242.927 166.073 242.942 165.975 242.998C165.876 243.054 165.803 243.146 165.773 243.256C165.742 243.365 165.757 243.482 165.813 243.581C165.869 243.68 165.961 243.753 166.071 243.783C171.499 245.135 176.998 246.188 182.541 246.935C185.245 247.336 187.936 247.405 190.651 247.577C192.564 247.703 194.476 247.852 196.378 248.001C197.989 248.04 199.594 248.212 201.177 248.516C201.853 248.688 202.632 249.021 201.853 249.582C201.533 249.743 201.188 249.848 200.833 249.892C199.934 250.083 199.024 250.217 198.107 250.293C196.962 250.396 195.817 250.476 194.591 250.511C194.489 250.527 194.396 250.58 194.33 250.658C194.263 250.737 194.226 250.837 194.226 250.94C194.226 251.044 194.263 251.144 194.33 251.222C194.396 251.301 194.489 251.353 194.591 251.37C198.255 251.531 201.884 252.155 205.392 253.227C205.942 253.41 207.293 253.811 207.488 254.487C207.752 255.462 205.621 255.53 205.048 255.576C201.614 255.722 198.175 255.418 194.82 254.671C194.282 254.568 194.041 255.393 194.591 255.496Z" fill="#263238"/>
<path d="M194.041 258.923C196.824 259.416 199.631 259.828 202.448 260.069C203.849 260.327 205.285 260.327 206.686 260.069C207.683 259.771 208.53 258.843 207.9 257.777C207.43 257.131 206.769 256.65 206.011 256.401C204.686 255.913 203.296 255.627 201.887 255.553C201.337 255.553 201.337 256.379 201.887 256.413C203.083 256.488 204.265 256.716 205.404 257.089C206.041 257.262 206.62 257.607 207.076 258.086C207.626 258.808 206.698 259.232 206.068 259.301C204.681 259.416 203.286 259.37 201.91 259.163C200.272 259.003 198.646 258.774 197.031 258.533C196.103 258.384 195.187 258.247 194.27 258.075C193.732 257.983 193.491 258.808 194.041 258.911V258.923Z" fill="#263238"/>
<path d="M194.362 262.716C195.828 263.003 197.294 263.209 198.772 263.381C199.917 263.519 201.062 263.622 202.139 263.668C203.021 263.725 203.907 263.667 204.774 263.496C205.426 263.347 206.274 263.014 206.457 262.35C206.641 261.685 205.965 260.986 205.392 260.63C203.803 259.789 202.07 259.253 200.284 259.049C199.745 258.957 199.516 259.782 200.055 259.885C201.532 260.07 202.977 260.456 204.35 261.032C204.728 261.191 205.079 261.408 205.392 261.673C205.464 261.752 205.529 261.836 205.587 261.926C205.6 261.974 205.6 262.026 205.587 262.074C205.587 262.178 205.484 262.281 205.3 262.395C204.995 262.577 204.656 262.694 204.304 262.739C202.508 262.955 200.689 262.901 198.909 262.579C197.443 262.407 195.977 262.201 194.534 261.926C193.995 261.822 193.766 262.648 194.305 262.751L194.362 262.716Z" fill="#263238"/>
<path d="M199.94 263.507C200.49 263.587 201.372 263.736 202.025 263.862C202.677 263.989 204.407 264.172 204.934 264.837C204.986 264.985 204.986 265.147 204.934 265.295C204.613 266.063 203.285 266.235 202.643 266.349C200.179 266.628 197.689 266.597 195.232 266.258C192.535 265.93 189.859 265.452 187.215 264.825C182.931 263.916 178.651 262.98 174.375 262.017C170.747 261.395 167.18 260.463 163.711 259.232C163.207 259.026 162.99 259.851 163.494 260.069C166.847 261.264 170.295 262.173 173.802 262.785C178.475 263.851 183.16 264.86 187.856 265.845C191.301 266.638 194.807 267.141 198.336 267.347C200.009 267.415 205.129 267.897 205.77 265.444C205.818 265.248 205.823 265.044 205.783 264.845C205.744 264.647 205.661 264.46 205.541 264.298C204.723 263.637 203.725 263.238 202.677 263.152C201.761 262.946 200.845 262.797 199.917 262.671C199.367 262.602 199.379 263.461 199.917 263.53L199.94 263.507Z" fill="#263238"/>
<path d="M176.734 201.08L175.245 171.431C175.245 171.431 110.049 198.937 111.538 235.887C113.027 272.836 164.731 261.307 164.731 261.307L169.438 242.603L150.447 232.517C162.268 207.441 176.734 201.08 176.734 201.08Z" fill="#6473F9"/>
<path opacity="0.5" d="M176.734 201.08L175.245 171.431C175.245 171.431 110.049 198.937 111.538 235.887C113.027 272.836 164.731 261.307 164.731 261.307L169.438 242.603L150.447 232.517C162.268 207.441 176.734 201.08 176.734 201.08Z" fill="white"/>
<path d="M169.438 242.603L141.949 228.013" stroke="#263238" stroke-miterlimit="10"/>
<path d="M150.448 232.517C154.33 225.543 158.613 218.8 163.276 212.323C165.336 209.625 167.538 207.039 169.873 204.576" stroke="#263238" stroke-miterlimit="10"/>
<path d="M164.318 187.786C164.32 188.276 164.177 188.756 163.906 189.165C163.635 189.574 163.249 189.893 162.796 190.082C162.344 190.271 161.845 190.321 161.364 190.225C160.883 190.13 160.441 189.894 160.095 189.547C159.748 189.201 159.512 188.758 159.417 188.277C159.322 187.796 159.372 187.297 159.561 186.844C159.749 186.392 160.068 186.005 160.477 185.734C160.885 185.463 161.365 185.319 161.856 185.321C162.509 185.321 163.135 185.581 163.597 186.043C164.059 186.505 164.318 187.132 164.318 187.786Z" fill="#263238"/>
<path d="M182.118 194.112C182.118 194.602 181.972 195.081 181.7 195.488C181.428 195.896 181.04 196.213 180.588 196.4C180.135 196.587 179.637 196.635 179.157 196.539C178.676 196.443 178.236 196.206 177.89 195.858C177.545 195.511 177.31 195.069 177.216 194.588C177.122 194.107 177.172 193.609 177.361 193.157C177.55 192.704 177.869 192.319 178.277 192.048C178.686 191.777 179.165 191.634 179.655 191.636C179.979 191.636 180.301 191.7 180.6 191.825C180.9 191.95 181.172 192.132 181.4 192.362C181.629 192.592 181.81 192.865 181.934 193.165C182.057 193.466 182.119 193.787 182.118 194.112Z" fill="#263238"/>
<path d="M178.097 181.379C178.1 181.869 177.956 182.349 177.686 182.757C177.415 183.166 177.03 183.485 176.578 183.674C176.126 183.863 175.628 183.914 175.148 183.82C174.667 183.725 174.225 183.491 173.878 183.145C173.531 182.799 173.294 182.358 173.198 181.878C173.101 181.397 173.15 180.899 173.336 180.446C173.523 179.993 173.84 179.605 174.248 179.333C174.655 179.06 175.133 178.915 175.623 178.915C176.277 178.915 176.905 179.174 177.369 179.636C177.832 180.098 178.094 180.724 178.097 181.379Z" fill="#263238"/>
<path d="M157.847 206.295C157.847 206.785 157.701 207.264 157.429 207.671C157.157 208.079 156.77 208.396 156.317 208.583C155.864 208.77 155.366 208.818 154.886 208.722C154.406 208.625 153.965 208.388 153.619 208.041C153.274 207.694 153.039 207.252 152.945 206.771C152.851 206.29 152.901 205.791 153.09 205.339C153.279 204.887 153.598 204.501 154.007 204.231C154.415 203.96 154.894 203.817 155.384 203.819C155.708 203.819 156.03 203.883 156.329 204.008C156.629 204.132 156.901 204.315 157.13 204.545C157.358 204.775 157.539 205.048 157.663 205.348C157.786 205.648 157.848 205.97 157.847 206.295Z" fill="#263238"/>
<path d="M150.447 221.927C150.45 222.418 150.306 222.898 150.035 223.307C149.764 223.716 149.378 224.035 148.925 224.224C148.473 224.412 147.975 224.462 147.494 224.367C147.013 224.272 146.571 224.036 146.224 223.689C145.877 223.342 145.641 222.9 145.546 222.419C145.451 221.938 145.501 221.439 145.69 220.986C145.879 220.533 146.197 220.147 146.606 219.876C147.015 219.604 147.495 219.461 147.985 219.463C148.638 219.463 149.264 219.723 149.726 220.185C150.188 220.647 150.447 221.274 150.447 221.927Z" fill="#263238"/>
<path d="M147.985 195.739C147.987 196.229 147.844 196.709 147.574 197.118C147.303 197.526 146.917 197.845 146.466 198.035C146.014 198.224 145.516 198.274 145.035 198.18C144.555 198.086 144.113 197.851 143.766 197.505C143.418 197.16 143.182 196.719 143.085 196.238C142.989 195.757 143.037 195.259 143.224 194.806C143.411 194.353 143.728 193.966 144.135 193.693C144.542 193.421 145.021 193.275 145.511 193.275C146.165 193.275 146.793 193.534 147.256 193.996C147.72 194.458 147.982 195.085 147.985 195.739Z" fill="#263238"/>
<path d="M143.048 209.848C143.051 210.338 142.907 210.818 142.636 211.227C142.365 211.636 141.979 211.955 141.526 212.144C141.074 212.333 140.575 212.383 140.094 212.287C139.613 212.192 139.172 211.956 138.825 211.609C138.478 211.263 138.242 210.82 138.147 210.339C138.052 209.858 138.102 209.359 138.291 208.906C138.479 208.454 138.798 208.067 139.207 207.796C139.615 207.525 140.095 207.381 140.586 207.383C141.238 207.386 141.863 207.647 142.324 208.108C142.785 208.57 143.045 209.195 143.048 209.848Z" fill="#263238"/>
<path d="M126.795 214.902C126.797 215.392 126.654 215.872 126.384 216.28C126.113 216.689 125.728 217.008 125.276 217.197C124.824 217.386 124.326 217.437 123.845 217.343C123.365 217.248 122.923 217.014 122.576 216.668C122.229 216.322 121.992 215.881 121.895 215.4C121.799 214.92 121.847 214.422 122.034 213.969C122.221 213.516 122.538 213.128 122.945 212.856C123.352 212.583 123.831 212.438 124.321 212.438C124.975 212.438 125.603 212.697 126.066 213.159C126.53 213.621 126.792 214.247 126.795 214.902Z" fill="#263238"/>
<path d="M136.027 225.778C136.027 226.266 135.883 226.742 135.612 227.147C135.341 227.552 134.957 227.868 134.507 228.055C134.057 228.241 133.562 228.29 133.084 228.195C132.606 228.1 132.167 227.865 131.823 227.521C131.479 227.176 131.244 226.737 131.149 226.259C131.054 225.781 131.103 225.285 131.289 224.835C131.476 224.385 131.791 224 132.196 223.729C132.601 223.459 133.077 223.314 133.564 223.314C134.217 223.317 134.841 223.578 135.302 224.039C135.764 224.501 136.024 225.126 136.027 225.778Z" fill="#263238"/>
<path d="M121.114 233.102C121.116 233.592 120.973 234.072 120.702 234.481C120.431 234.89 120.045 235.209 119.592 235.398C119.139 235.587 118.641 235.637 118.16 235.542C117.679 235.446 117.237 235.21 116.891 234.863C116.544 234.517 116.308 234.074 116.213 233.593C116.118 233.112 116.168 232.613 116.356 232.16C116.545 231.708 116.864 231.321 117.273 231.05C117.681 230.779 118.161 230.635 118.651 230.637C119.304 230.64 119.928 230.901 120.389 231.363C120.851 231.824 121.111 232.449 121.114 233.102Z" fill="#263238"/>
<path d="M132.259 238.866C132.256 239.353 132.11 239.829 131.838 240.232C131.566 240.636 131.181 240.95 130.73 241.135C130.28 241.319 129.786 241.367 129.309 241.27C128.832 241.174 128.394 240.938 128.051 240.593C127.707 240.248 127.474 239.809 127.38 239.331C127.286 238.854 127.335 238.359 127.522 237.909C127.709 237.46 128.024 237.076 128.429 236.805C128.834 236.535 129.309 236.391 129.796 236.391C130.12 236.391 130.442 236.455 130.741 236.58C131.041 236.704 131.313 236.887 131.541 237.117C131.77 237.347 131.951 237.62 132.074 237.92C132.198 238.22 132.26 238.542 132.259 238.866Z" fill="#263238"/>
<path d="M131.72 253.651C131.72 254.138 131.576 254.615 131.305 255.02C131.035 255.425 130.65 255.741 130.2 255.927C129.75 256.114 129.255 256.163 128.777 256.068C128.3 255.973 127.861 255.738 127.516 255.393C127.172 255.049 126.937 254.61 126.842 254.132C126.747 253.654 126.796 253.158 126.983 252.708C127.169 252.258 127.485 251.873 127.89 251.602C128.295 251.331 128.771 251.187 129.258 251.187C129.581 251.187 129.901 251.251 130.2 251.374C130.499 251.498 130.77 251.68 130.999 251.908C131.228 252.137 131.409 252.409 131.533 252.708C131.657 253.007 131.72 253.327 131.72 253.651Z" fill="#263238"/>
<path d="M143.735 247.829C143.738 248.319 143.595 248.799 143.324 249.207C143.054 249.616 142.668 249.935 142.216 250.124C141.764 250.313 141.267 250.364 140.786 250.27C140.305 250.175 139.863 249.94 139.516 249.595C139.169 249.249 138.932 248.808 138.836 248.327C138.739 247.847 138.788 247.349 138.975 246.895C139.162 246.442 139.479 246.055 139.886 245.783C140.293 245.51 140.772 245.365 141.261 245.365C141.916 245.365 142.543 245.624 143.007 246.086C143.47 246.547 143.732 247.174 143.735 247.829Z" fill="#263238"/>
<path d="M153.677 238.568C153.677 239.057 153.533 239.536 153.261 239.942C152.99 240.349 152.604 240.667 152.153 240.854C151.701 241.042 151.205 241.092 150.725 240.997C150.245 240.903 149.804 240.668 149.458 240.323C149.112 239.978 148.875 239.538 148.778 239.058C148.682 238.579 148.729 238.081 148.914 237.629C149.1 237.176 149.415 236.789 149.821 236.516C150.226 236.242 150.703 236.095 151.192 236.093C151.518 236.091 151.841 236.154 152.142 236.278C152.444 236.402 152.718 236.584 152.949 236.814C153.18 237.044 153.363 237.317 153.488 237.618C153.613 237.919 153.677 238.242 153.677 238.568Z" fill="#263238"/>
<path d="M161.26 249.33C161.26 249.82 161.115 250.299 160.842 250.707C160.57 251.114 160.183 251.431 159.73 251.618C159.277 251.805 158.779 251.854 158.299 251.757C157.819 251.661 157.378 251.424 157.032 251.076C156.687 250.729 156.452 250.287 156.358 249.806C156.264 249.325 156.315 248.827 156.504 248.375C156.693 247.923 157.011 247.537 157.42 247.266C157.828 246.996 158.308 246.852 158.797 246.855C159.452 246.858 160.078 247.12 160.539 247.584C161.001 248.048 161.26 248.675 161.26 249.33Z" fill="#263238"/>
<path d="M152.91 257.261C152.91 257.748 152.766 258.225 152.495 258.63C152.224 259.035 151.84 259.351 151.39 259.537C150.94 259.724 150.445 259.773 149.967 259.678C149.489 259.583 149.051 259.348 148.706 259.003C148.362 258.659 148.127 258.22 148.032 257.742C147.937 257.264 147.986 256.768 148.172 256.318C148.359 255.868 148.674 255.483 149.079 255.212C149.484 254.941 149.96 254.797 150.447 254.797C151.1 254.8 151.724 255.06 152.185 255.522C152.647 255.983 152.907 256.608 152.91 257.261Z" fill="#263238"/>
<path d="M169.152 199.04C169.154 199.53 169.011 200.01 168.74 200.418C168.47 200.827 168.084 201.146 167.632 201.335C167.181 201.524 166.683 201.575 166.202 201.481C165.721 201.387 165.28 201.152 164.932 200.806C164.585 200.46 164.349 200.019 164.252 199.539C164.156 199.058 164.204 198.56 164.391 198.107C164.578 197.654 164.895 197.266 165.302 196.994C165.709 196.721 166.188 196.576 166.678 196.576C167.332 196.576 167.959 196.835 168.423 197.297C168.887 197.759 169.149 198.385 169.152 199.04Z" fill="#263238"/>
<path d="M155.648 262.625C158.698 262.358 161.73 261.918 164.731 261.307L169.438 242.603L161.294 238.27L155.648 262.625Z" fill="#6473F9" stroke="#263238" stroke-miterlimit="10"/>
<path d="M156.449 259.175L165.28 259.129" stroke="#263238" stroke-miterlimit="10"/>
<path d="M157.572 254.35L166.197 255.496" stroke="#263238" stroke-miterlimit="10"/>
<path d="M158.797 249.067L167.422 250.682" stroke="#263238" stroke-miterlimit="10"/>
<path d="M160.218 242.912L168.625 245.846" stroke="#263238" stroke-miterlimit="10"/>
<path d="M160.916 126.333C160.916 126.333 167.674 131.765 175.303 131.1C182.931 130.436 188.589 126.894 188.085 118.493C187.581 110.093 175.738 106.918 169.633 108.969C169.633 108.969 168.648 98.0473 157.549 100.064C147.24 101.932 148.626 111.628 148.626 111.628C148.626 111.628 139.36 107.296 130.644 116.809C121.927 126.321 126.062 138.263 129.2 142.194C129.2 142.194 121.629 146.229 122.752 154.996C123.874 163.764 128.261 166.457 136.497 166.457C136.497 166.457 142.086 165.907 143.678 164.165C143.678 164.165 141.536 172.829 150.299 174.479C160.321 176.302 163.471 165.609 165.75 161.311C168.029 157.013 156.3 146.996 154.422 144.257C154.388 144.189 164.467 137.335 160.916 126.333Z" fill="#263238"/>
<path d="M148.603 143.26C150.03 142.802 151.564 142.802 152.99 143.26L151.662 139.169C149.543 132.67 152.475 125.84 158.167 123.972L166.735 121.175C172.462 119.319 178.83 123.101 180.949 129.599L185.29 142.893C187.409 149.38 184.477 156.211 178.773 158.079L173.825 159.695L176.116 166.858C176.569 168.275 176.445 169.813 175.772 171.139C175.098 172.465 173.93 173.472 172.519 173.941L169.083 175.087C167.667 175.54 166.13 175.416 164.805 174.743C163.48 174.069 162.474 172.9 162.005 171.488L159.37 163.397L159.221 162.938L156.575 154.847C156.575 154.687 156.484 154.526 156.449 154.366C155.78 155.269 154.907 156 153.901 156.502C152.896 157.003 151.786 157.26 150.663 157.251C149.539 157.242 148.434 156.968 147.436 156.451C146.438 155.934 145.577 155.188 144.922 154.275C144.267 153.362 143.836 152.307 143.666 151.195C143.495 150.084 143.589 148.949 143.94 147.881C144.291 146.813 144.889 145.843 145.686 145.05C146.482 144.257 147.454 143.663 148.523 143.318L148.603 143.26Z" fill="#E6A57D" stroke="#263238" stroke-miterlimit="10"/>
<path d="M155.384 149.552C155.18 148.637 154.705 147.805 154.02 147.165C153.335 146.525 152.473 146.106 151.547 145.965C150.576 145.905 149.607 146.107 148.741 146.549C148.604 146.629 148.505 146.759 148.464 146.911C148.423 147.064 148.444 147.226 148.523 147.363C148.604 147.501 148.737 147.601 148.891 147.641C149.045 147.682 149.209 147.66 149.348 147.581C149.979 147.276 150.675 147.13 151.375 147.157H151.604C151.478 147.157 151.685 147.157 151.719 147.157L152.12 147.271H152.211L152.372 147.34C152.491 147.4 152.606 147.469 152.715 147.547L152.876 147.661C152.773 147.581 152.876 147.661 152.876 147.661C152.973 147.743 153.065 147.831 153.151 147.925L153.368 148.165C153.471 148.28 153.368 148.097 153.368 148.165L153.471 148.326C153.587 148.496 153.694 148.672 153.792 148.853C153.792 148.922 153.872 149.002 153.907 149.082C153.902 149.117 153.902 149.151 153.907 149.185C153.907 149.185 153.849 149.036 153.907 149.185C153.964 149.334 154.033 149.529 154.078 149.713C154.142 149.837 154.247 149.936 154.375 149.992C154.504 150.048 154.647 150.058 154.782 150.02C154.917 149.982 155.034 149.899 155.115 149.785C155.195 149.67 155.234 149.531 155.224 149.392L155.384 149.552Z" fill="#263238"/>
<path d="M165.212 139.501C165.334 139.886 165.568 140.227 165.884 140.479C166.2 140.731 166.584 140.883 166.987 140.916C167.39 140.949 167.793 140.862 168.146 140.666C168.499 140.469 168.786 140.172 168.97 139.812C169.154 139.452 169.227 139.045 169.179 138.643C169.132 138.242 168.966 137.863 168.703 137.556C168.441 137.249 168.092 137.027 167.703 136.918C167.314 136.809 166.901 136.819 166.517 136.945C166.007 137.113 165.584 137.476 165.339 137.954C165.095 138.433 165.049 138.989 165.212 139.501Z" fill="#263238"/>
<path d="M177.777 135.089C177.881 135.413 178.08 135.699 178.346 135.911C178.613 136.123 178.936 136.252 179.276 136.281C179.615 136.309 179.956 136.237 180.254 136.073C180.553 135.909 180.796 135.661 180.954 135.359C181.112 135.057 181.178 134.715 181.142 134.376C181.107 134.037 180.972 133.716 180.755 133.453C180.538 133.191 180.248 132.998 179.922 132.9C179.596 132.801 179.248 132.801 178.922 132.9C178.702 132.966 178.497 133.076 178.32 133.223C178.143 133.369 177.997 133.55 177.89 133.754C177.783 133.957 177.718 134.18 177.699 134.41C177.679 134.639 177.706 134.87 177.777 135.089Z" fill="#263238"/>
<path d="M160.825 148.807C161.135 149.758 161.72 150.595 162.505 151.212C163.291 151.83 164.242 152.201 165.238 152.278C166.235 152.355 167.231 152.134 168.102 151.644C168.973 151.154 169.679 150.416 170.131 149.525C170.583 148.633 170.761 147.627 170.641 146.635C170.522 145.642 170.111 144.707 169.461 143.948C168.81 143.189 167.949 142.64 166.987 142.371C166.025 142.102 165.004 142.124 164.055 142.435C162.782 142.852 161.727 143.757 161.122 144.952C160.516 146.147 160.409 147.534 160.825 148.807Z" fill="#E49768"/>
<path d="M182.221 137.931C182.507 137.84 182.803 137.782 183.103 137.759L184.729 142.744C184.981 143.465 185.158 144.21 185.256 144.968C185.044 145.073 184.826 145.165 184.603 145.243C183.651 145.498 182.638 145.379 181.772 144.909C180.906 144.439 180.253 143.654 179.947 142.717C179.642 141.78 179.708 140.761 180.13 139.871C180.553 138.98 181.302 138.286 182.221 137.931Z" fill="#E49768"/>
<path d="M172.966 134.837L174.879 142.16L177.628 138.951L172.966 134.837Z" fill="#A45A2E"/>
<path d="M179.701 145.862C179.833 146.203 179.895 146.567 179.882 146.932C179.87 147.298 179.783 147.657 179.628 147.988C179.473 148.319 179.252 148.616 178.979 148.859C178.706 149.102 178.387 149.288 178.041 149.404C177.694 149.52 177.328 149.565 176.963 149.536C176.599 149.506 176.244 149.403 175.921 149.233C175.598 149.063 175.312 148.828 175.082 148.544C174.851 148.26 174.681 147.933 174.581 147.581C174.398 147.065 173.573 147.283 173.756 147.81C173.983 148.505 174.418 149.113 175.002 149.553C175.586 149.992 176.29 150.241 177.021 150.266C177.751 150.291 178.471 150.091 179.084 149.693C179.696 149.294 180.172 148.717 180.445 148.039C180.752 147.271 180.781 146.42 180.526 145.633C180.365 145.117 179.529 145.335 179.701 145.862Z" fill="#263238"/>
<path d="M175.303 131.1C182.931 130.447 188.589 126.894 188.085 118.493C187.581 110.093 175.738 106.918 169.633 108.969C169.633 108.969 168.648 98.0473 157.549 100.064C147.24 101.932 148.626 111.628 148.626 111.628L148.386 111.525L148.626 113.107V143.249L150.677 142.951C151.988 143.09 153.234 143.594 154.273 144.406C154.273 144.406 164.49 137.335 160.939 126.333C160.916 126.333 167.674 131.799 175.303 131.1Z" fill="#263238"/>
<path d="M174.715 163.025L160.45 167.862C158.844 168.406 157.983 170.15 158.528 171.756L159.873 175.729C160.417 177.336 162.16 178.197 163.765 177.652L178.031 172.815C179.636 172.271 180.497 170.527 179.953 168.921L178.607 164.948C178.063 163.341 176.32 162.48 174.715 163.025Z" fill="#6473F9"/>
<path d="M174.715 163.025L160.45 167.862C158.844 168.406 157.983 170.15 158.528 171.756L159.873 175.729C160.417 177.336 162.16 178.197 163.765 177.652L178.031 172.815C179.636 172.271 180.497 170.527 179.953 168.921L178.607 164.948C178.063 163.341 176.32 162.48 174.715 163.025Z" stroke="#263238" stroke-miterlimit="10"/>
<path d="M174.81 162.984L178.017 172.806" stroke="#263238" stroke-miterlimit="10"/>
<path d="M171.248 164.142L174.455 173.975" stroke="#263238" stroke-miterlimit="10"/>
<path d="M167.686 165.311L170.893 175.144" stroke="#263238" stroke-miterlimit="10"/>
<path d="M164.112 166.468L167.319 176.302" stroke="#263238" stroke-miterlimit="10"/>
<path d="M160.55 167.637L163.757 177.471" stroke="#263238" stroke-miterlimit="10"/>
<path d="M50.3859 393.427H453.851" stroke="#263238" stroke-miterlimit="10"/>
</g>
<defs>
<clipPath id="clip0">
<rect width="467" height="394" fill="white"/>
</clipPath>
</defs>
</svg>
