<svg width="49" height="49" fill="none" xmlns="http://www.w3.org/2000/svg"><g clip-path="url(#clip0)"><path d="M11.44 8.12h3.285v30.097H11.44V8.12zm6.033-6.587h-3.285a2.751 2.751 0 00-2.748 2.749v2.305h3.285V4.282a2.751 2.751 0 012.748-2.749zm0 43.744a2.751 2.751 0 01-2.748-2.749v-2.777H11.44v4.967a2.752 2.752 0 002.748 2.75h20.565a2.754 2.754 0 002.692-2.19l-19.972-.001z" fill="#D4E1F4"/><path d="M23.582 26.534a.765.765 0 01-.583-.268l-1.339-1.568a.767.767 0 111.166-.995l.852.998 2.537-2.064a.766.766 0 11.968 1.19l-3.117 2.535a.767.767 0 01-.484.172z" fill="#ED028C"/><path d="M24.47 31.29a6.79 6.79 0 116.79-6.79 6.797 6.797 0 01-6.79 6.79zm0-12.046a5.256 5.256 0 100 10.512 5.256 5.256 0 000-10.512z" fill="#ED028C"/><path d="M34.753 0H14.188a4.286 4.286 0 00-4.281 4.282v40.436A4.287 4.287 0 0014.188 49h20.565a4.287 4.287 0 004.282-4.282V4.281A4.287 4.287 0 0034.753 0zM11.44 8.12h26.062v30.097H11.44V8.12zm2.748-6.587h20.565a2.752 2.752 0 012.75 2.749v2.305H11.44V4.28a2.751 2.751 0 012.748-2.748zm20.565 45.934H14.188a2.751 2.751 0 01-2.748-2.749V39.75h26.062v4.968a2.752 2.752 0 01-2.749 2.749z" fill="#0635C9"/><path d="M27.572 42.875H21.37a.767.767 0 000 1.533h6.203a.766.766 0 100-1.533zm7.138-19.142h-1.15a.766.766 0 100 1.534h1.15a.767.767 0 000-1.534zm-19.328 1.534a.767.767 0 000-1.534h-1.15a.766.766 0 100 1.534h1.15zM34.4 27.111l-1.604-.553a.766.766 0 10-.5 1.45l1.605.552a.767.767 0 10.5-1.449zm-17.755-6.118l-1.604-.553a.768.768 0 10-.5 1.45l1.604.552a.767.767 0 10.5-1.45zm15.982 1.738a.764.764 0 00.228-.035l1.62-.504a.766.766 0 10-.455-1.463l-1.62.504a.766.766 0 00.227 1.498zm-16.54 3.573l-1.62.504a.766.766 0 10.454 1.463l1.621-.503a.767.767 0 00-.455-1.464z" fill="#0635C9"/></g><defs><clipPath id="clip0"><path fill="#fff" d="M0 0h49v49H0z"/></clipPath></defs></svg>