<svg width="49" height="49" fill="none" xmlns="http://www.w3.org/2000/svg"><g clip-path="url(#clip0)"><path d="M42.54 27.8H17.253l-1.447-10.845H11.9l1.906 14.29h25.29a3.276 3.276 0 003.093-2.203l.432-1.245c-.028 0-.054.003-.081.003z" fill="#D4E1F4"/><path d="M32.634 8l-2.692 2.307V.804a.803.803 0 10-1.607 0v9.503l-2.691-2.306a.803.803 0 10-1.047 1.22l4.019 3.444.004.003a.817.817 0 00.235.138l.018.007a.782.782 0 00.12.031l.018.003a.728.728 0 00.255 0l.018-.003a.783.783 0 00.12-.031l.018-.007a.799.799 0 00.114-.054l.015-.009a.821.821 0 00.107-.075l.004-.003 4.018-3.444A.804.804 0 0032.634 8z" fill="#ED028C"/><path d="M33.673 45.981a.803.803 0 100-1.607H25.58a.804.804 0 000 1.607h8.094zM1.585 9.996h4.902a3.259 3.259 0 013.233 2.753l3.88 29.095.002.019a4.86 4.86 0 004.822 4.119h1.3a.803.803 0 100-1.608h-1.3a3.259 3.259 0 01-3.233-2.753l-1.17-8.769h25.075a4.883 4.883 0 004.613-3.283l4.558-13.154a.804.804 0 00-.76-1.068h-35.82l-.375-2.821a4.859 4.859 0 00-4.825-4.138H1.585a.804.804 0 000 1.608zm44.794 6.958L42.19 29.042a3.276 3.276 0 01-3.095 2.202H13.807l-1.905-14.29h34.477z" fill="#4154F5"/><path d="M22.675 49a3.629 3.629 0 110-7.258 3.629 3.629 0 010 7.258zm0-5.65a2.022 2.022 0 100 4.043 2.022 2.022 0 000-4.044zM36.541 49a3.63 3.63 0 110-7.259 3.63 3.63 0 010 7.26zm0-5.65a2.022 2.022 0 100 4.043 2.022 2.022 0 000-4.044z" fill="#ED028C"/></g><defs><clipPath id="clip0"><path fill="#fff" d="M0 0h49v49H0z"/></clipPath></defs></svg>