<svg width="49" height="49" fill="none" xmlns="http://www.w3.org/2000/svg"><path d="M39.586 26.549H9.414a.828.828 0 110-1.657h30.172a.828.828 0 110 1.657zm0-5.916H9.414a.828.828 0 110-1.657h30.172a.828.828 0 110 1.657zm0-5.917H9.414a.828.828 0 110-1.656h30.172a.828.828 0 110 1.656z" fill="#ED028C"/><path d="M47.353 3.299a5.528 5.528 0 00-3.93-1.627h-.004l-37.862.024A5.567 5.567 0 000 7.261l.016 25.544a5.561 5.561 0 005.56 5.557h.004l12.464-.008 5.051 8.349a1.471 1.471 0 001.256.7h.001a1.47 1.47 0 001.245-.685l.01-.016 5.041-8.356 12.795-.008A5.56 5.56 0 0049 32.774L48.984 7.23a5.524 5.524 0 00-1.63-3.931zm-3.911 33.383l-13.262.008a.828.828 0 00-.708.4l-5.121 8.488-5.131-8.482a.829.829 0 00-.71-.399l-12.93.008h-.002a3.904 3.904 0 01-3.905-3.902L1.657 7.26a3.909 3.909 0 013.902-3.907l37.862-.024h.003a3.91 3.91 0 013.904 3.903l.016 25.544a3.91 3.91 0 01-3.902 3.907z" fill="#fff"/></svg>