<svg width="49" height="49" fill="none" xmlns="http://www.w3.org/2000/svg"><g clip-path="url(#clip0)"><path d="M33.743 33.757a6.577 6.577 0 01-6.57-6.57V23.81a.736.736 0 111.473 0v3.377a5.097 5.097 0 0010.194 0V23.81a.736.736 0 111.473 0v3.377a6.577 6.577 0 01-6.57 6.57zm-8.829-17.538a.736.736 0 01-.736-.737v-7.79a6.219 6.219 0 10-12.438 0v7.79a.736.736 0 11-1.473 0v-7.79a7.692 7.692 0 1115.384 0v7.79c0 .407-.33.737-.737.737z" fill="#ED028C"/><path d="M44.855 20.985c0-.004 0-.008-.002-.013a2.49 2.49 0 00-2.471-2.114H31.945l-.877-6.29-.001-.013a2.828 2.828 0 00-2.807-2.4H7.658a2.828 2.828 0 00-2.806 2.4l-.002.013L.92 40.762a.651.651 0 00-.007.102A4.951 4.951 0 005.86 45.81h13.606A4.274 4.274 0 0023.594 49H43.89a4.272 4.272 0 004.267-4.266.709.709 0 00-.007-.102l-3.296-23.647zm-25.48 23.352H5.86a3.476 3.476 0 01-3.473-3.424l3.922-28.135a1.36 1.36 0 011.35-1.15H28.26a1.36 1.36 0 011.35 1.15l.848 6.08h-5.354a2.49 2.49 0 00-2.472 2.114l-.001.013-3.256 23.352zm24.517 3.19H23.594a2.797 2.797 0 01-2.794-2.745l3.288-23.587c.079-.499.51-.865 1.015-.863H42.38c.505-.002.937.364 1.016.863l3.288 23.587a2.797 2.797 0 01-2.794 2.745z" fill="#4154F5"/><path d="M26.75 44.37a2.796 2.796 0 01-2.793-2.745l2.968-21.293h-1.821a1.023 1.023 0 00-1.015.863L20.8 44.782a2.797 2.797 0 002.793 2.745h20.298a2.798 2.798 0 002.794-2.745l-.057-.412H26.75zM9.015 41.18a3.476 3.476 0 01-3.472-3.424l3.642-26.128H7.659a1.361 1.361 0 00-1.351 1.15L2.386 40.913a3.476 3.476 0 003.473 3.424h13.516l.44-3.157h-10.8z" fill="#D4E1F4"/></g><defs><clipPath id="clip0"><path fill="#fff" d="M0 0h49v49H0z"/></clipPath></defs></svg>