<svg width="1600" height="554" viewBox="0 0 1600 554" fill="none" xmlns="http://www.w3.org/2000/svg">
<ellipse cx="1069.75" cy="449.917" rx="332.178" ry="49.2762" transform="rotate(9.58809 1069.75 449.917)" fill="white"/>
<path fill-rule="evenodd" clip-rule="evenodd" d="M-16.1805 247.219L-17.5006 291.977L49.2954 318.257C116.091 344.538 249.683 397.098 384.469 409.177C468.71 416.726 553.418 408.462 638.125 400.198C688.95 395.239 739.774 390.281 790.498 388.738C925.762 384.624 1060.31 404.799 1194.62 433.07C1300.92 455.447 1407.08 482.896 1479.96 502.386C1406.84 480.479 1300.84 449.675 1194.52 423.88C1059.46 391.112 923.9 366.428 786.825 365.996C735.421 365.835 683.805 369.083 632.19 372.332C546.163 377.747 460.137 383.161 375.095 372.786C239.027 356.186 105.481 299.165 38.7072 270.655L-16.1805 247.219ZM1611.29 51.6923L1560.68 48.5366L1492.32 44.2737L1543.89 45.7949L1611.41 47.786L1611.29 51.6923Z" fill="#4154F5"/>
</svg>
