<svg width="74" height="60" fill="none" xmlns="http://www.w3.org/2000/svg"><path d="M5.893 59.848H0l1.382-7.3H7.08l-.195 1.203H2.57l-.324 1.836h3.886l-.216 1.16h-3.93l-.345 1.899h4.468l-.216 1.202zm2.85 0h-1.36l.928-5.19h1.36v.654a2.974 2.974 0 012.008-.76 1.651 1.651 0 011.317.507 1.507 1.507 0 01.28 1.371l-.604 3.418h-1.49l.583-3.101a.908.908 0 00-.173-.738.885.885 0 00-.69-.275 1.54 1.54 0 00-1.08.422 1.64 1.64 0 00-.583 1.034l-.496 2.658zm5.72-4.22l.195-1.054h.885l.172-1.013 1.447-.527-.281 1.54h1.338l-.194 1.055h-1.317l-.431 2.363a.744.744 0 000 .548.649.649 0 00.518.19c.202.014.405-.03.582-.126l-.172.991a2.31 2.31 0 01-1.123.253 1.345 1.345 0 01-.604-.093 1.317 1.317 0 01-.497-.35 1.458 1.458 0 01-.216-1.202l.475-2.574h-.777zm4.318 1.562a3.233 3.233 0 011.137-1.957 3.372 3.372 0 012.165-.765c.32-.023.64.024.94.137.298.113.567.29.787.518a1.795 1.795 0 01.41 1.646c-.044.29-.147.57-.302.822h-3.842a1.099 1.099 0 00.388.823c.274.215.621.32.972.295.316.01.629-.063.907-.21a.756.756 0 00.289-.2.732.732 0 00.164-.307h1.23a2.348 2.348 0 01-1.036 1.35 3.425 3.425 0 01-1.9.527 2.314 2.314 0 01-1.03-.162 2.265 2.265 0 01-.848-.597 2.064 2.064 0 01-.432-1.836v-.084zm1.532-.612h2.655a.868.868 0 00-.302-.696 1.063 1.063 0 00-.798-.274 1.801 1.801 0 00-.929.253 2.116 2.116 0 00-.626.802v-.085zm6.282 3.186h-1.468l.928-5.19h1.382l-.173.95c.248-.332.573-.6.949-.784.375-.184.79-.277 1.21-.272l-.237 1.266a2.19 2.19 0 00-1.468.507 2.1 2.1 0 00-.777 1.329l-.346 2.194zm3.432-2.51h1.36a1.083 1.083 0 00-.172.4.64.64 0 00.059.437c.07.135.187.242.33.302.419.21.889.304 1.36.274a3.49 3.49 0 001.36-.232.953.953 0 00.398-.249.922.922 0 00.227-.405.6.6 0 00-.096-.403.625.625 0 00-.336-.251 6.6 6.6 0 00-1.424-.38 4.692 4.692 0 01-2.159-.717 1.371 1.371 0 01-.457-.648 1.341 1.341 0 01-.018-.787 2.39 2.39 0 011.101-1.646 4.24 4.24 0 012.332-.611 3.558 3.558 0 012.158.57c.23.167.41.393.516.654.107.26.137.545.089.822-.042.207-.13.401-.26.57h-1.36a1.4 1.4 0 00.152-.38.62.62 0 00-.035-.414.638.638 0 00-.29-.303 2.2 2.2 0 00-1.208-.275 2.753 2.753 0 00-1.187.232.928.928 0 00-.356.24.901.901 0 00-.205.372.538.538 0 00.06.403.56.56 0 00.328.251c.425.185.876.306 1.338.359.77.076 1.51.33 2.16.738.218.17.383.397.475.654.092.258.106.536.042.802a2.29 2.29 0 01-.392.952 2.354 2.354 0 01-.773.694 4.55 4.55 0 01-2.483.611 3.978 3.978 0 01-2.288-.57 1.423 1.423 0 01-.56-.639 1.384 1.384 0 01-.088-.837c.069-.185.171-.357.302-.506v-.085zm7.491.928a1.654 1.654 0 01.734-1.14 2.747 2.747 0 011.554-.4h1.598v-.254a.474.474 0 00-.216-.506c-.2-.16-.454-.242-.713-.232a1.67 1.67 0 00-.798.21.817.817 0 00-.41.486h-1.188a2.366 2.366 0 01.993-1.35 3.072 3.072 0 011.792-.528 2.187 2.187 0 011.533.57c.185.174.322.391.398.631.075.24.087.495.033.74l-.367 2.11a.433.433 0 000 .296c.084.03.176.03.26 0a.529.529 0 00.28 0l-.172.907a1.69 1.69 0 01-.842.232.945.945 0 01-.595-.14.91.91 0 01-.377-.472 2.78 2.78 0 01-1.813.633 1.918 1.918 0 01-1.382-.464 1.258 1.258 0 01-.302-1.245v-.084zm2.159.527a1.843 1.843 0 001.014-.316 1.154 1.154 0 00.562-.76h-1.404c-.56 0-.863.169-.928.527a.372.372 0 00.151.401c.162.14.368.222.583.232l.022-.084zm4.641 0L45.527 52h1.36l-1.144 6.33a.475.475 0 000 .358.389.389 0 00.323.127c.115.019.232.019.346 0l-.173.949c-.28.144-.59.216-.906.21a1.19 1.19 0 01-.907-.316 1.062 1.062 0 01-.13-.928l.022-.02zm3.346-1.456c.135-.77.55-1.468 1.168-1.964a3.374 3.374 0 012.2-.736c.319-.023.64.024.938.137.3.113.568.29.788.517a1.795 1.795 0 01.41 1.646c-.044.29-.147.57-.302.822h-3.993a1.097 1.097 0 00.388.823 1.326 1.326 0 00.972.295c.316.01.629-.062.906-.21a.756.756 0 00.29-.2.733.733 0 00.164-.307h1.23a2.307 2.307 0 01-1.057 1.35 3.315 3.315 0 01-1.879.528 2.313 2.313 0 01-1.03-.163 2.265 2.265 0 01-.848-.597 2.064 2.064 0 01-.367-1.92l.022-.02zm1.533-.611h2.676a.868.868 0 00-.302-.697 1.063 1.063 0 00-.798-.274 1.757 1.757 0 00-.929.253c-.28.191-.509.444-.669.739l.022-.021zm5.051 1.35h1.1a.62.62 0 000 .232.352.352 0 00.036.256.365.365 0 00.202.166c.276.128.58.186.885.169.294.009.586-.034.864-.127.23-.084.36-.19.389-.317a.187.187 0 000-.19.367.367 0 00-.26-.126h-1.036a5.556 5.556 0 01-1.36-.4 1 1 0 01-.452-.485.97.97 0 01-.044-.655 1.76 1.76 0 01.203-.832c.135-.257.332-.478.574-.645a3.23 3.23 0 011.792-.464 2.658 2.658 0 011.597.422c.175.131.31.307.39.508.08.2.101.419.063.631a1.337 1.337 0 01-.172.401h-1.23c.045-.073.081-.15.107-.232a.372.372 0 00-.033-.248.384.384 0 00-.183-.174 1.517 1.517 0 00-.777-.169 1.938 1.938 0 00-.755.127.521.521 0 00-.346.316c0 .148.108.275.367.359l.928.21c.494.073.974.215 1.425.423.2.11.358.28.447.487.09.206.108.435.05.652-.05.262-.16.51-.32.725a1.83 1.83 0 01-.609.52 3.47 3.47 0 01-1.878.464 3.1 3.1 0 01-1.727-.422 1.082 1.082 0 01-.42-.497 1.053 1.053 0 01-.054-.642.816.816 0 01.215-.422l.022-.021zm6.023 1.076a.85.85 0 01.345-.612c.19-.166.436-.257.69-.253a.704.704 0 01.589.25.668.668 0 01.124.615 1.01 1.01 0 01-.367.612c-.189.15-.425.232-.669.232a.748.748 0 01-.583-.232.63.63 0 01-.15-.591l.02-.021zm4.576.76h-1.36l.928-5.19h1.36l-.172.949c.247-.332.573-.6.948-.784a2.69 2.69 0 011.21-.271l-.215 1.266a2.19 2.19 0 00-1.49.506 2.1 2.1 0 00-.777 1.33l-.432 2.193zm3.325-1.752l.626-3.439h1.36l-.562 3.123a.906.906 0 00.151.738.844.844 0 00.691.253 1.49 1.49 0 001.036-.4c.304-.266.51-.622.583-1.013l.561-2.68H74l-.95 5.19h-1.36v-.611a2.887 2.887 0 01-1.943.738 1.52 1.52 0 01-.727-.094 1.489 1.489 0 01-.593-.421 1.425 1.425 0 01-.277-1.363l.021-.02z" fill="#252161"/><path d="M42.052 3.292a15.372 15.372 0 00-3.984 3.54 15.27 15.27 0 00-2.485 4.335h-.124a17.146 17.146 0 00-1.604-.513l-1.286-.283h-.141a28.334 28.334 0 00-4.002-.443c-6.768-.212-12.814 4.584-15.546 10.707h19.495l-1.41 8.246H11.38a11.401 11.401 0 002.803 6.513 11.669 11.669 0 004.008 2.815c1.52.643 3.157.956 4.805.918a15.331 15.331 0 004.813-.796 16.822 16.822 0 003.313-1.486c-.1 1.666.217 3.33.922 4.842a9.991 9.991 0 003.115 3.811c.236.203.483.392.74.566l-1.146.602a26.44 26.44 0 01-2.291 1.009 25.84 25.84 0 01-9.378 1.77 21.66 21.66 0 01-9.095-1.82 21.737 21.737 0 01-7.512-5.462 21.843 21.843 0 01-4.56-8.109c-.921-3-1.187-6.165-.778-9.278A28.14 28.14 0 0110.12 7.29 27.931 27.931 0 0128.32 0a30.99 30.99 0 019.872 1.646h.211l.212.089.546.194c.813.322 1.607.688 2.38 1.098l.37.177.14.088z" fill="#ED028C"/><g opacity=".5"><path style="mix-blend-mode:multiply" opacity=".5" d="M42.052 3.292a15.7 15.7 0 00-6.469 7.821c-.528-.212-2.538-.707-3.155-.867l5.764-8.6c1.005.39 2.944 1.168 3.86 1.646z" fill="url(#paint0_radial)"/><path style="mix-blend-mode:multiply" opacity=".5" d="M35.953 46.01l-1.128.602c-.74.372-1.516.708-2.291 1.01l-4.671-9.345a16.816 16.816 0 003.314-1.486c-.1 1.666.217 3.33.922 4.842a9.99 9.99 0 003.114 3.811c.236.203.483.392.74.567z" fill="url(#paint1_radial)"/></g><path d="M60.525 15.75a3.374 3.374 0 00-1.428-3.54 9.506 9.506 0 00-5.535-1.291 12.577 12.577 0 00-5.287.92 3.401 3.401 0 00-2.24 2.424c-.158 1.168.495 2.089 1.975 2.796a23.931 23.931 0 006.381 1.77c6.157 1.05 10.523 2.784 13.096 5.203a10.484 10.484 0 012.742 4.564c.506 1.734.558 3.569.15 5.328a16.624 16.624 0 01-2.337 6.417 16.555 16.555 0 01-4.714 4.927 24.606 24.606 0 01-14.648 4.158 21.581 21.581 0 01-12.709-3.415 8.168 8.168 0 01-.74-.567 9.99 9.99 0 01-3.115-3.81 10.033 10.033 0 01-.922-4.843c.015-.468.057-.935.124-1.398a9.971 9.971 0 011.41-3.752h10.576a4.807 4.807 0 00-.705 1.894 3.292 3.292 0 00.245 2.14c.32.665.855 1.202 1.517 1.523a12.895 12.895 0 006.522 1.292c2.03.063 4.054-.243 5.976-.903 1.569-.62 2.432-1.415 2.59-2.406.16-.991-.616-2.053-2.29-2.796a29.611 29.611 0 00-6.875-1.894c-6.064-.991-10.288-2.649-12.674-4.973A10.489 10.489 0 0135.092 21a10.518 10.518 0 01-.055-5.178 17.534 17.534 0 016.68-11.52A22.166 22.166 0 0155.642 0c4.54-.27 9.023 1.12 12.621 3.91A10.443 10.443 0 0171.43 8.5a10.48 10.48 0 01.36 5.57 11.744 11.744 0 01-1.323 3.539H59.891c.31-.58.525-1.208.634-1.858z" fill="#ED028C"/><defs><radialGradient id="paint0_radial" cx="0" cy="0" r="1" gradientUnits="userSpaceOnUse" gradientTransform="matrix(5.18493 -7.67402 3.14173 2.1227 38.851 7.36)"><stop stop-color="#1B1C20"/><stop offset="1" stop-color="#fff"/></radialGradient><radialGradient id="paint1_radial" cx="0" cy="0" r="1" gradientUnits="userSpaceOnUse" gradientTransform="matrix(-11.11152 -21.84717 12.78724 -6.50362 67.098 -133.631)"><stop stop-color="#1B1C20"/><stop offset="1" stop-color="#fff"/></radialGradient></defs></svg>