<svg width="73" height="75" fill="none" xmlns="http://www.w3.org/2000/svg"><circle cx="36.5" cy="38.5" r="36.5" fill="#6473F9"/><g clip-path="url(#clip0)"><path d="M32.165 36.212l.908 1.968s-2.574 3.028-3.028 6.662c-.454 3.633-.454 3.784-.454 3.784L15.663 37.272l6.359-4.996 10.143 3.936z" fill="#FFD15C"/><path d="M33.073 38.18s2.27-1.362 3.18-1.665c1.059-.302 2.119-2.27 1.816-3.936-.303-1.514 1.06-1.816-.152-2.573 0 0 .757-.152.606-1.363-.151-1.21-.303-2.12-.303-2.12s2.12-.453 2.422-1.21c.303-.757-.15-1.665-.756-2.725s-2.12-2.725-1.969-3.936c0-1.211 1.06-1.968.909-2.422-.152-.303-2.271-6.662-3.936-8.478-1.514-1.817-6.207-1.968-6.207-1.968l-6.207 1.665-8.78 12.717.605 12.262s.606 3.18.606 4.239l-.152 1.06 16.804 1.06 1.514-.606z" fill="#FFD15C"/><path d="M14.3 32.276s3.029-1.513 2.726-7.418c-.152-5.752 1.362-7.115 3.179-7.115 1.817 0 3.936 2.574 3.936 4.39l1.665-.454s-1.06-3.633.152-5.601c1.21-1.817 2.876-1.817 2.876-3.785 0-1.968-.151-3.482 2.422-4.087 2.574-.606 5.148 1.514 5.602 2.876 0 0 1.968-1.817 1.514-4.39-.454-2.574-7.267-4.845-9.235-5.602-1.968-.605-7.267-2.27-12.565.303-5.299 2.574-6.813 6.207-7.418 8.78-.606 2.574 0 8.933 1.06 10.9 1.059 1.969 3.784 8.781 4.087 11.203z" fill="#344A5E"/><path d="M14.15 37.726l.302-2.27c0-.455.454-.757.909-.606 1.362.303 4.087.908 6.66 2.27 3.028 1.515 9.387 5.45 11.052 6.51.303.152.303.455.151.757l-.151.303 1.211 1.06c.151.151.303.454.151.757-.302 1.21-1.21 4.39-.908 4.844.454.454-.454 4.996-.454 4.996l-4.088-3.936L14.15 37.726z" fill="#E8EAE9"/><path d="M42.913 72.848c-3.027-7.872-6.207-15.744-7.872-17.864-2.876-3.481-10.294-10.445-14.382-13.776-4.087-3.33-6.964-3.936-6.964-3.936-1.514 2.27-1.816 4.693-1.816 4.693s-6.51 3.482-8.63 6.207C1.13 50.897-.232 55.742.222 64.522c.151 2.573.908 5.45 1.968 8.478h40.723v-.152z" fill="#344A5E"/><path d="M28.683 72.849c-.454-1.212-1.06-2.574-1.514-3.785-1.363-4.088-4.693-10.597-6.813-14.685-3.785-7.267-14.382-7.267-18.166.151 0 .152-.152.152-.152.303-2.573 5.45.303 13.322 2.877 18.167h23.768v-.151z" fill="#415A6B"/><path d="M55.176 68.004l-5.45 1.968c-.606.152-1.211-.151-1.514-.757l-3.33-9.537 4.692-1.665 6.207 8.326c.455.605.152 1.514-.605 1.665z" fill="#CED6E0"/><path d="M72.585 44.388c.909 2.725-.454 5.752-3.179 6.66l-3.482-9.84c2.725-1.06 5.753.455 6.661 3.18z" fill="#FFD15C"/><path d="M52.3 57.558l18.469 2.12-9.235-26.04-13.02 13.172L52.3 57.557z" fill="#CED6E0"/><path d="M48.515 46.81l3.784 10.748-9.083 3.18c-1.06.302-2.12-.152-2.422-1.212l-2.574-7.115c-.303-1.06.152-2.12 1.211-2.422l9.084-3.18zm22.859 14.533c-.908.303-2.119-.152-2.422-1.211l-9.235-26.04c-.302-.907.152-2.118 1.211-2.421.909-.303 2.12.151 2.423 1.21l9.234 26.04c.152 1.06-.302 2.119-1.21 2.422z" fill="#F3705A"/><path d="M47.455 50.897c-.151-.454-.757-.756-1.211-.605l-4.39 1.514c-.454.151-.757.757-.606 1.21.152.455.757.758 1.211.606l4.39-1.514c.455-.151.757-.605.606-1.21zm1.363 4.088c-.152-.454-.757-.757-1.212-.606l-4.39 1.514c-.454.152-.757.757-.605 1.211.151.454.757.757 1.21.606l4.39-1.514c.607-.152.91-.606.607-1.211z" fill="#fff"/></g><defs><clipPath id="clip0"><path fill="#fff" d="M0 0h73v73H0z"/></clipPath></defs></svg>