<svg width="87" height="87" fill="none" xmlns="http://www.w3.org/2000/svg"><circle cx="43.5" cy="50.5" r="36.5" fill="#6473F9"/><g clip-path="url(#clip0)"><path d="M61.578 32.59l1.27.543s.907.907 1.27 2.177c.362 1.27 2.72 8.343 3.264 9.975.544 1.633 2.72 10.338 3.265 11.608.544 1.088.725 2.902.362 4.353-.362 1.45-.906 5.078-1.27 6.892-.362 1.813-1.813 8.524-1.994 9.975-.182 1.27-1.27 5.441-1.27 5.441s-1.814-3.264-5.078-4.171l1.27-4.172s-1.452-6.529-1.452-7.799c0-1.27.545-1.45.726-2.72.181-1.27.181-1.995.181-2.72-.181-.726-.544-.726-.544-1.633s-3.99-6.53-3.99-6.53l3.99-21.22z" fill="#E8EAE9"/><path d="M31.108 75.574s-1.995 6.53-1.45 11.426h35.366s1.451-3.083.182-5.804c-1.27-2.72-2.72-3.99-3.084-5.078-.181-1.088-.362-3.446-.362-3.446l-30.652 2.902z" fill="#415A6B"/><path d="M49.79 17.354s.18 1.814-.908 3.99v10.701H37.82l-.363-7.799v-3.99s-1.814-4.715-1.814-8.706c0-3.99.726-9.975 7.436-10.156 6.892-.182 6.711 8.706 6.711 10.7v5.26z" fill="#FFD15C"/><path d="M51.408 14.99c.209-1.387-.184-2.596-.878-2.7-.693-.104-1.425.935-1.633 2.322-.21 1.387.184 2.596.877 2.7.694.104 1.425-.935 1.634-2.322zm-16.824-.023c.208 1.387.94 2.426 1.633 2.322.694-.105 1.087-1.313.878-2.7-.209-1.387-.94-2.427-1.634-2.322-.693.104-1.086 1.313-.877 2.7z" fill="#FFD15C"/><path d="M21.133 37.85s1.814-3.084 4.897-4.354c2.902-1.27 3.99-2.539 5.985-3.627a194.746 194.746 0 004.171-2.358l8.162 2.177h1.45l3.628-3.083s1.27.362 5.078 1.813c3.99 1.451 5.986 2.177 6.893 2.902.906.726 1.45 1.633 1.45 1.633s-1.995 6.347-2.539 13.42c0 0-.725 7.074.544 15.236 1.27 8.161 1.995 11.97 1.995 11.97s-5.622 2.902-9.794 3.265c-4.171.363-5.078.363-10.519.907s-11.789-.907-13.24-1.814c-1.45-.907-3.809-9.431-3.809-9.431s3.446-7.618 2.72-13.422c-.725-5.803-7.072-15.235-7.072-15.235z" fill="#CED6E0"/><path d="M44.348 29.868h.907l3.264-.181c-1.088 1.632-2.176 3.083-2.357 4.353-.726-.363-1.451-.182-2.177.363-.362-.907-1.27-1.995-2.539-2.721l2.902-1.814z" fill="#415A6B"/><path d="M46.162 33.859s.362 3.264 1.995 9.975c1.632 6.71 1.632 28.293 1.632 28.293l-3.99 3.265-3.083-3.627s1.45-24.485.906-29.02c-.544-4.352.363-8.705.363-8.705l.363-1.632 1.814 1.45z" fill="#415A6B"/><path d="M61.034 57.618L42.172 75.392c-.544.363-1.27.363-1.633 0L26.755 60.883c-.362-.544-.362-1.27 0-1.632l18.863-17.774c.544-.363 1.27-.363 1.632 0l13.784 14.51c.363.543.363 1.268 0 1.631z" fill="#66C6B9"/><path d="M41.552 73.72l17.374-16.472-12.853-13.557L28.7 60.162 41.552 73.72z" fill="#fff"/><path d="M32.712 61.492l3.422-3.244-1.123-1.184-3.422 3.244 1.123 1.184z" fill="#55C0EB"/><path d="M34.907 63.836l4.87-4.617-1.123-1.184-4.87 4.617 1.123 1.184z" fill="#415A6B"/><path d="M37.167 66.331l2.764-2.62-1.123-1.185-2.764 2.62 1.123 1.185z" fill="#FFD15C"/><path d="M39.177 68.538l4.212-3.993-1.123-1.185-4.212 3.993 1.123 1.185z" fill="#66C6B9"/><path d="M40.272 69.74l1.123 1.184 5.66-5.365-1.124-1.185-5.66 5.366z" fill="#F3705A"/><path d="M51.059 55.079c0-1.27-.544-2.54-1.27-3.446l-3.446 3.264 4.716.182z" fill="#415A6B"/><path d="M46.525 50.363c-2.54 0-4.716 1.995-4.897 4.535 0 2.539 1.995 4.715 4.534 4.896l.181-4.715.182-4.716z" fill="#F3705A"/><path d="M51.966 56.53l-4.716-.181-.181 4.715c2.72.182 4.897-1.995 4.897-4.534z" fill="#55C0EB"/><path d="M49.79 51.814c-.908-.907-1.996-1.45-3.265-1.45l-.182 4.715 3.446-3.265z" fill="#FFD15C"/><path d="M36.368 15.722h.544c-.182-.907-.363-2.358-.182-3.264.182-1.27.363-1.995 0-3.447-.362-1.45-.181-3.99 1.814-4.171 1.995-.181 7.074.181 8.343 0 1.27-.181 1.995 2.176 1.814 3.265-.363 1.27.544 3.264.725 4.171v3.265h.726c0-.907 0-2.54.181-3.446.545-1.27 3.447-9.069-.906-8.525 0 0-.726-4.353-8.888-3.446-8.161.907-6.166 11.79-5.622 12.696.362.907 1.27 1.451 1.45 2.902z" fill="#415A6B"/><path d="M43.26 24.428c-2.72 0-5.804-4.172-5.804-4.172v3.99l.182 3.265c10.156-1.27 11.244-6.166 11.244-6.166-.725 1.45-3.083 3.083-5.622 3.083z" fill="#F7B64C"/><path d="M48.882 24.428s0 2.902-3.627 5.26c0 0 3.627 1.813 5.078 3.627 0 0 .182-4.172-.181-5.441-.363-1.27-1.27-3.446-1.27-3.446zm-4.534 5.441s-3.446 2.539-4.897 4.715c0 0-3.446-4.353-3.446-6.166 0-1.814 1.632-4.716 1.632-4.716s0 1.451 1.27 2.72c1.088 1.09 5.441 3.447 5.441 3.447z" fill="#F3F3F3"/><path d="M41.809 63.422s.907 0 1.632-.726c.544-.544 2.54-1.45 3.446-1.813.363-.182.544-.182.907-.182.726 0 1.995.182 2.358.182.725 0 1.45.544 1.45.544l1.815.181s1.088 2.358-3.084 1.814h-1.088s.726.544 1.088.907c.363.362 1.814.181 2.358.181s1.088 0 1.27-.181c.181-.182.544-.363.544-.363s.544.363.363 1.27c-.182.725-1.089 1.632-1.27 1.632 0 0 .181.726-.363 1.27-.544.362-1.088.362-1.088.362s-.181.544-1.27 1.088c0 0-.362.726-.906 1.089-.544.362-.726.544-.726.725 0 .182-1.27.363-2.176.182-.907-.182-2.358-.544-2.902-1.089-.544-.544-1.27-.906-2.72-.906l-1.27-.182c0-2.54 0-4.897 1.632-5.985z" fill="#FFD15C"/><path d="M20.77 38.393c.544-1.27 1.814-1.813 3.083-1.27 1.27.726 3.083 2.177 4.353 5.08 1.995 5.44 1.27 8.705 1.27 10.337-.182 1.814-3.083 7.255-3.083 7.255s.362 1.27-.544 1.995c0 0 1.813 1.088 2.72 1.27.907.181 1.45 0 2.358.181 1.088.181 3.99.544 4.534.726.544.18 6.167-.363 6.167-.363s-1.814 3.446.181 5.985l-5.078 1.814s-1.451 1.995-4.172 1.45c-2.539-.543-3.627-.725-5.622-1.088-1.995-.362-2.72.726-4.172.182-1.45-.363-2.539-.726-3.627-1.27-1.088-.363-2.539-.725-2.902-2.358-.363-1.45-.544-3.627-.363-5.078.363-1.45 1.814-11.426 2.358-13.24.544-1.451 1.27-8.162 2.54-11.608z" fill="#E8EAE9"/><path d="M55.411 68.319c-.906-.182-1.632-.726-2.357-1.27l-8.162-8.162L45.98 57.8l8.162 8.162c.544.725.907 1.45 1.27 2.358z" fill="#415A6B"/><path d="M45.074 57.437l.544.544-.726.725-.544-.544c-.181-.181-.181-.544 0-.725.363-.182.544-.182.726 0z" fill="#344A5E"/><path d="M54.867 64.873c-.181.725-1.088 1.632-1.27 1.632 0 0 .182.726-.362 1.27-.544.362-1.088.362-1.088.362s-.181.544-1.27.907c0 0-.362.726-.907 1.088-.544.363-.725.544-.725.726-.181.181-1.27.362-2.176.181-1.089-.181-2.358-.544-2.903-1.088-.18-.181-.362-.181-.544-.363l5.441-6.529s.726.544 1.089.907c.362.181 1.813.181 2.358.181.544 0 1.088 0 1.27-.181.362-.182.543-.363.543-.363s.726.544.544 1.27z" fill="#FFD15C"/></g><defs><clipPath id="clip0"><path fill="#fff" d="M0 0h87v87H0z"/></clipPath></defs></svg>