<svg  viewBox="0 0 1600 1045" fill="none" xmlns="http://www.w3.org/2000/svg">
<path fill-rule="evenodd" clip-rule="evenodd" d="M1600 193L1533.33 169C1466.67 145 1333.33 97 1200 81C1066.67 65 1042 -29 903 81C764 191 649 445.918 449 478C249 510.082 115 137 66.6666 65C18.3333 -7 0 0.999997 0 0.999997V572H66.6666C133.333 572 266.667 572 400 572C533.333 572 666.667 572 800 572C933.333 572 1066.67 572 1200 572C1333.33 572 1466.67 572 1533.33 572H1600V193Z" fill="#F9FAFF"/>
<path fill-rule="evenodd" clip-rule="evenodd" d="M1600 193L1533.33 169C1466.67 145 1333.33 97 1200 81C1066.67 65 1042 -29 903 81C764 191 649 445.918 449 478C249 510.082 115 137 66.6666 65C18.3333 -7 0 0.999997 0 0.999997V572H66.6666C133.333 572 266.667 572 400 572C533.333 572 666.667 572 800 572C933.333 572 1066.67 572 1200 572C1333.33 572 1466.67 572 1533.33 572H1600V193Z" fill="url(#paint0_linear)"/>
<path fill-rule="evenodd" clip-rule="evenodd" d="M0 757L67 781C133 805 267 853 400 837C533 821 667 741 800 757C933 773 1067 885 1200 949C1333 1013 1467 1029 1533 1037L1600 1045V565H1533C1467 565 1333 565 1200 565C1067 565 933 565 800 565C667 565 533 565 400 565C267 565 133 565 67 565H0V757Z" fill="#F8F9FF"/>
<defs>
<linearGradient id="paint0_linear" x1="350.5" y1="208.5" x2="1075" y2="1073.5" gradientUnits="userSpaceOnUse">
<stop stop-color="#EEF2FF" stop-opacity="0.1"/>
<stop offset="1" stop-color="#EEF2FF" stop-opacity="0.35"/>
</linearGradient>
</defs>
</svg>
