<svg width="20" height="20" fill="none" xmlns="http://www.w3.org/2000/svg"><path d="M17.071 2.929A9.935 9.935 0 0010 0a9.935 9.935 0 00-7.071 2.929A9.935 9.935 0 000 10c0 1.762.462 3.486 1.34 5.002L0 20l4.998-1.34A9.983 9.983 0 0010 20a9.935 9.935 0 007.071-2.929A9.935 9.935 0 0020 10a9.935 9.935 0 00-2.929-7.071zM10 18.829a8.808 8.808 0 01-4.608-1.298l-.215-.131-3.52.943.943-3.52-.131-.215A8.808 8.808 0 011.172 10c0-4.868 3.96-8.828 8.828-8.828 4.868 0 8.828 3.96 8.828 8.828 0 4.868-3.96 8.828-8.828 8.828z" fill="#ED028C"/><path d="M10.586 13.809H9.414v1.171h1.172v-1.17zM10 5.02a2.933 2.933 0 00-2.93 2.93h1.172c0-.97.789-1.759 1.758-1.759a1.76 1.76 0 011.31 2.93l-1.896 2.12v1.396h1.172v-.948l1.597-1.787a2.925 2.925 0 00.747-1.953A2.933 2.933 0 0010 5.02z" fill="#ED028C"/></svg>