<svg width="60" height="60" viewBox="0 0 60 60" fill="none" xmlns="http://www.w3.org/2000/svg">
<path d="M42.8906 25.5192C42.7041 25.5192 42.5253 25.5932 42.3934 25.7251C42.2616 25.857 42.1875 26.0358 42.1875 26.2223V26.96C42.1875 27.1465 42.2616 27.3253 42.3934 27.4572C42.5253 27.589 42.7041 27.6631 42.8906 27.6631C43.0771 27.6631 43.2559 27.589 43.3878 27.4572C43.5197 27.3253 43.5938 27.1465 43.5938 26.96V26.2223C43.5938 26.0358 43.5197 25.857 43.3878 25.7251C43.2559 25.5932 43.0771 25.5192 42.8906 25.5192Z" fill="#72BBFF"/>
<path d="M42.8906 28.4832C42.7041 28.4832 42.5253 28.5572 42.3934 28.6891C42.2616 28.821 42.1875 28.9998 42.1875 29.1863V33.5222C42.1875 33.7087 42.2616 33.8876 42.3934 34.0194C42.5253 34.1513 42.7041 34.2254 42.8906 34.2254C43.0771 34.2254 43.2559 34.1513 43.3878 34.0194C43.5197 33.8876 43.5938 33.7087 43.5938 33.5222V29.1863C43.5938 28.9998 43.5197 28.821 43.3878 28.6891C43.2559 28.5572 43.0771 28.4832 42.8906 28.4832Z" fill="#72BBFF"/>
<path d="M27.3185 1.875C13.9922 1.875 3.15027 12.2538 3.15027 25.0111C3.15027 29.1059 4.41496 33.3981 6.90917 37.7685C8.88589 41.2321 11.6371 44.7551 15.0862 48.2398C20.9399 54.1534 26.8805 57.9763 26.9399 58.0143C27.053 58.0865 27.1844 58.125 27.3186 58.125C27.4528 58.125 27.5842 58.0865 27.6973 58.0143C27.8121 57.9409 39.2637 50.5519 46.1768 40.2641L45.0095 39.4799C38.9658 48.4741 29.3385 55.2198 27.3183 56.5789C23.2832 53.8222 19.516 50.6924 16.0663 47.2309C12.7083 43.8356 10.036 40.4133 8.12324 37.059C5.75605 32.9081 4.55652 28.8547 4.55652 25.0113C4.55652 13.0293 14.7675 3.28125 27.3185 3.28125C36.8937 3.28125 45.505 9.06399 48.7464 17.6709L50.0624 17.1752C46.6158 8.02371 37.4758 1.875 27.3185 1.875Z" fill="#FF9D00"/>
<path d="M11.6015 17.2052C11.5534 17.294 11.525 17.3921 11.5182 17.4929C11.5114 17.5936 11.5263 17.6947 11.562 17.7891C11.5977 17.8836 11.6532 17.9693 11.7249 18.0404C11.7966 18.1115 11.8828 18.1664 11.9776 18.2013H11.9789C12.1379 18.2593 12.3126 18.2579 12.4707 18.1975C12.6289 18.137 12.7599 18.0215 12.8397 17.8722C14.237 15.2633 16.313 13.0802 18.8485 11.5537C21.3839 10.0272 24.2847 9.21398 27.2442 9.19991C30.2037 9.18584 33.112 9.97148 35.6619 11.4738C38.2118 12.9761 40.3085 15.1393 41.7304 17.7349L42.9631 17.0581C41.4192 14.2411 39.1432 11.8933 36.3754 10.2628C33.6076 8.63222 30.4509 7.77944 27.2385 7.79451C24.0262 7.80957 20.8776 8.69192 18.1252 10.3483C15.3728 12.0048 13.1189 14.3738 11.6015 17.2052Z" fill="#FF9D00"/>
<path d="M42.8517 25.5192C42.6652 25.5192 42.4864 25.5932 42.3545 25.7251C42.2226 25.857 42.1486 26.0358 42.1486 26.2223V26.96C42.1486 27.1465 42.2226 27.3253 42.3545 27.4572C42.4864 27.589 42.6652 27.6631 42.8517 27.6631C43.0382 27.6631 43.217 27.589 43.3489 27.4572C43.4807 27.3253 43.5548 27.1465 43.5548 26.96V26.2223C43.5548 26.0358 43.4807 25.857 43.3489 25.7251C43.217 25.5932 43.0382 25.5192 42.8517 25.5192Z" fill="#72BBFF"/>
<path d="M42.8517 28.4834C42.6652 28.4834 42.4864 28.5575 42.3545 28.6893C42.2226 28.8212 42.1486 29 42.1486 29.1865V33.5225C42.1486 33.709 42.2226 33.8878 42.3545 34.0197C42.4864 34.1515 42.6652 34.2256 42.8517 34.2256C43.0382 34.2256 43.217 34.1515 43.3489 34.0197C43.4807 33.8878 43.5548 33.709 43.5548 33.5225V29.1865C43.5548 29 43.4807 28.8212 43.3489 28.6893C43.217 28.5575 43.0382 28.4834 42.8517 28.4834Z" fill="#72BBFF"/>
<path d="M56.6641 23.3612L51.3657 17.5882C51.1069 17.3068 50.7926 17.0821 50.4426 16.9283C50.0926 16.7745 49.7145 16.6948 49.3322 16.6944H39.8431C39.6566 16.6944 39.4778 16.7685 39.3459 16.9004C39.214 17.0322 39.14 17.2111 39.14 17.3976V27.068H37.492V15.2555C37.4907 14.137 37.0458 13.0647 36.2549 12.2738C35.464 11.4829 34.3917 11.038 33.2732 11.0367H19.6512L17.4246 12.443H21.5811V27.0675H16.1241V13.621L14.7179 15.0272V27.0675H10.3633V28.4738H39.14V30.699H11.1752V32.1053H39.14V36.4585H25.5476C25.3811 35.453 24.8631 34.5392 24.0858 33.88C23.3085 33.2208 22.3224 32.859 21.3032 32.859C20.284 32.859 19.2979 33.2208 18.5206 33.88C17.7433 34.5392 17.2253 35.453 17.0588 36.4585H14.6908V37.8647H17.0588C17.2253 38.8702 17.7433 39.784 18.5206 40.4432C19.2979 41.1024 20.284 41.4642 21.3032 41.4642C22.3224 41.4642 23.3085 41.1024 24.0858 40.4432C24.8631 39.784 25.3811 38.8702 25.5476 37.8647H43.6745C43.841 38.8702 44.359 39.784 45.1363 40.4432C45.9137 41.1024 46.8997 41.4642 47.9189 41.4642C48.9381 41.4642 49.9242 41.1024 50.7015 40.4432C51.4789 39.784 51.9969 38.8702 52.1634 37.8647H54.0897C54.8215 37.8639 55.523 37.5729 56.0405 37.0555C56.5579 36.538 56.849 35.8365 56.8498 35.1047V23.836C56.8498 23.66 56.7835 23.4905 56.6641 23.3612ZM36.0859 15.2544V27.0675H30.1866V12.4425H33.2732C34.0188 12.4434 34.7336 12.7399 35.2608 13.267C35.7881 13.7941 36.0847 14.5089 36.0857 15.2544H36.0859ZM22.9875 12.4419H28.7806V27.0675H22.9873L22.9875 12.4419ZM21.3032 40.0581C20.7303 40.0582 20.1702 39.8884 19.6939 39.5702C19.2175 39.252 18.8461 38.7996 18.6268 38.2704C18.4075 37.7411 18.3501 37.1587 18.4618 36.5968C18.5735 36.0349 18.8494 35.5187 19.2544 35.1136C19.6595 34.7085 20.1756 34.4326 20.7375 34.3208C21.2994 34.209 21.8818 34.2663 22.4111 34.4855C22.9404 34.7047 23.3928 35.076 23.7111 35.5523C24.0294 36.0287 24.1993 36.5887 24.1993 37.1616C24.1984 37.9294 23.893 38.6656 23.3501 39.2086C22.8072 39.7516 22.0711 40.0571 21.3032 40.0581ZM50.3301 18.5391L54.547 23.1328H48.211V18.1002H49.3332C49.5206 18.1005 49.706 18.1397 49.8776 18.2152C50.0492 18.2907 50.2032 18.401 50.3301 18.5391ZM45.7423 23.1328V18.1002H46.8047V23.1328H45.7423ZM44.3361 18.1V23.1328H40.5462V18.1002L44.3361 18.1ZM47.9188 40.0579C47.346 40.0579 46.786 39.888 46.3096 39.5697C45.8333 39.2514 45.4621 38.799 45.2429 38.2697C45.0237 37.7404 44.9663 37.1581 45.0781 36.5962C45.1899 36.0343 45.4657 35.5182 45.8708 35.1132C46.2759 34.7081 46.792 34.4322 47.3539 34.3205C47.9158 34.2087 48.4982 34.2661 49.0274 34.4853C49.5567 34.7046 50.0091 35.0758 50.3273 35.5521C50.6456 36.0285 50.8155 36.5885 50.8155 37.1614C50.8147 37.9294 50.5092 38.6657 49.9662 39.2087C49.4231 39.7518 48.6868 40.0573 47.9188 40.0581V40.0579ZM54.0897 36.4582H52.1634C51.9969 35.4527 51.4789 34.539 50.7015 33.8798C49.9242 33.2206 48.9381 32.8587 47.9189 32.8587C46.8997 32.8587 45.9137 33.2206 45.1363 33.8798C44.359 34.539 43.841 35.4527 43.6745 36.4582H40.5462V24.5391H55.4436V25.9922H53.593C53.2975 25.9926 53.0143 26.1101 52.8053 26.319C52.5964 26.528 52.4788 26.8113 52.4785 27.1068V29.3887C52.4788 29.6841 52.5964 29.9674 52.8053 30.1764C53.0143 30.3853 53.2976 30.5028 53.593 30.5031H55.4436V35.1047C55.4431 35.4636 55.3004 35.8078 55.0466 36.0616C54.7928 36.3153 54.4486 36.4581 54.0897 36.4585V36.4582ZM55.4436 27.3985V29.0977H53.885V27.3985H55.4436Z" fill="#72BBFF"/>
<path d="M39.5039 36.6493C37.9622 38.3507 36.0817 39.7109 33.9832 40.6425C31.8847 41.5741 29.6145 42.0565 27.3185 42.0587C18.2599 42.0587 10.8898 34.6887 10.8898 25.6299C10.8893 24.23 11.0686 22.8358 11.4231 21.4815C11.4705 21.3053 11.4473 21.1176 11.3586 20.9583C11.2698 20.7989 11.1225 20.6804 10.9478 20.6279L10.9371 20.6251C10.8479 20.5983 10.7542 20.5897 10.6616 20.5998C10.569 20.6099 10.4793 20.6384 10.3979 20.6838C10.3166 20.7291 10.2451 20.7903 10.1878 20.8638C10.1305 20.9372 10.0885 21.0214 10.0643 21.1114C9.67784 22.5861 9.48265 24.1045 9.48352 25.629C9.48352 35.4631 17.4843 43.464 27.3185 43.464C29.8108 43.4617 32.2751 42.9382 34.5531 41.9271C36.831 40.916 38.8724 39.4397 40.5459 37.5929L39.5039 36.6493Z" fill="#FF9D00"/>
</svg>
