<svg width="60" height="60" viewBox="0 0 60 60" fill="none" xmlns="http://www.w3.org/2000/svg">
<path d="M46.5227 32.3868L40.4558 36.8738L38.1656 34.1919C38.0442 34.0512 37.872 33.9642 37.6866 33.9501C37.5013 33.936 37.3179 33.9958 37.1766 34.1165C37.0352 34.2372 36.9474 34.409 36.9324 34.5943C36.9173 34.7796 36.9762 34.9632 37.0963 35.1052L39.8121 38.2851C39.9276 38.4204 40.0902 38.5069 40.267 38.527C40.4438 38.5472 40.6217 38.4996 40.7648 38.3938L47.3589 33.5171C47.5088 33.4062 47.6086 33.2403 47.6362 33.0558C47.6638 32.8714 47.617 32.6836 47.5062 32.5336C47.3953 32.3837 47.2294 32.2839 47.0449 32.2563C46.8605 32.2287 46.6727 32.2754 46.5227 32.3863V32.3868Z" fill="#FF9D00"/>
<path d="M34.2305 1.28906H11.4023C8.68828 1.28906 6.44531 3.49535 6.44531 6.2093V53.7907C6.44531 56.5047 8.68828 58.7109 11.4023 58.7109H34.2305C35.534 58.7095 36.7836 58.1903 37.7045 57.2676C38.6253 56.3449 39.1419 55.0943 39.1406 53.7907V45.3516H37.7344V47.9297H7.85156V10.5469H29.2002C29.3867 10.5469 29.5655 10.4728 29.6974 10.3409C29.8292 10.2091 29.9033 10.0302 29.9033 9.84375C29.9033 9.65727 29.8292 9.47843 29.6974 9.34657C29.5655 9.2147 29.3867 9.14062 29.2002 9.14062H7.85156V6.2093C7.85156 4.27078 9.46371 2.69531 11.4023 2.69531H34.2305C34.6913 2.69582 35.1475 2.78713 35.5731 2.96403C35.9986 3.14093 36.3851 3.39994 36.7105 3.72628C37.0359 4.05261 37.2938 4.43987 37.4695 4.86592C37.6452 5.29196 37.7352 5.74845 37.7344 6.2093V9.14062H35.8443C35.6578 9.14062 35.4789 9.2147 35.3471 9.34657C35.2152 9.47843 35.1411 9.65727 35.1411 9.84375C35.1411 10.0302 35.2152 10.2091 35.3471 10.3409C35.4789 10.4728 35.6578 10.5469 35.8443 10.5469H37.7344V25.3125H39.1406V6.2093C39.1419 4.90573 38.6253 3.65506 37.7045 2.73236C36.7836 1.80965 35.534 1.29049 34.2305 1.28906ZM37.7344 49.3359V53.7907C37.7352 54.2515 37.6452 54.708 37.4695 55.1341C37.2938 55.5601 37.0359 55.9474 36.7105 56.2737C36.3851 56.6001 35.9986 56.8591 35.5731 57.036C35.1475 57.2129 34.6913 57.3042 34.2305 57.3047H11.4023C9.46371 57.3047 7.85156 55.7292 7.85156 53.7907V49.3359H37.7344Z" fill="#72BBFF"/>
<path d="M33.9171 9.84375C33.9171 9.65727 33.843 9.47843 33.7111 9.34657C33.5793 9.2147 33.4004 9.14062 33.214 9.14062H31.7659C31.5794 9.14062 31.4005 9.2147 31.2687 9.34657C31.1368 9.47843 31.0627 9.65727 31.0627 9.84375C31.0627 10.0302 31.1368 10.2091 31.2687 10.3409C31.4005 10.4728 31.5794 10.5469 31.7659 10.5469H33.214C33.4004 10.5469 33.5793 10.4728 33.7111 10.3409C33.843 10.2091 33.9171 10.0302 33.9171 9.84375Z" fill="#72BBFF"/>
<path d="M22.8164 55.9768C23.342 55.9768 23.8557 55.8209 24.2927 55.529C24.7297 55.237 25.0703 54.822 25.2714 54.3364C25.4725 53.8509 25.5251 53.3166 25.4226 52.8012C25.3201 52.2857 25.067 51.8123 24.6954 51.4406C24.3237 51.069 23.8503 50.8159 23.3348 50.7134C22.8194 50.6109 22.2851 50.6635 21.7995 50.8646C21.314 51.0657 20.899 51.4063 20.607 51.8433C20.315 52.2803 20.1592 52.794 20.1592 53.3196C20.16 54.0241 20.4402 54.6995 20.9383 55.1977C21.4365 55.6958 22.1119 55.976 22.8164 55.9768ZM22.8164 52.0686C23.0638 52.0686 23.3057 52.142 23.5114 52.2794C23.7171 52.4169 23.8775 52.6123 23.9722 52.8408C24.0669 53.0694 24.0916 53.321 24.0434 53.5636C23.9951 53.8063 23.8759 54.0292 23.701 54.2041C23.526 54.3791 23.3031 54.4982 23.0605 54.5465C22.8178 54.5948 22.5663 54.57 22.3377 54.4753C22.1091 54.3806 21.9137 54.2203 21.7763 54.0146C21.6388 53.8089 21.5654 53.567 21.5654 53.3196C21.5658 52.9879 21.6978 52.67 21.9323 52.4354C22.1668 52.2009 22.4848 52.069 22.8164 52.0686Z" fill="#72BBFF"/>
<path d="M31.7578 28.4425V15.9915C31.7578 15.6033 31.4531 15.2344 31.0643 15.2344H17.2098C17.0201 15.2446 16.8418 15.3281 16.7126 15.4673L14.0524 18.1219C13.9151 18.2573 13.8348 18.4401 13.8281 18.6328V31.0835C13.8281 31.4719 14.1806 31.7578 14.5689 31.7578H28.4234C28.5148 31.7604 28.6058 31.7449 28.6911 31.712C28.7765 31.6791 28.8544 31.6296 28.9205 31.5663L31.5572 28.9325C31.6216 28.8683 31.6726 28.7919 31.707 28.7078C31.7415 28.6236 31.7587 28.5334 31.7578 28.4425ZM28.1321 17.9297H23.1936L24.4284 16.6406H29.3672L28.1321 17.9297ZM20.2734 19.3359H22.7344V20.3906H20.2734V19.3359ZM17.5011 16.6406H22.4395L21.2048 17.9297H16.2664L17.5011 16.6406ZM15.2344 19.3359H18.8672V21.0703C18.8672 21.4587 19.1318 21.7969 19.52 21.7969H23.488C23.8763 21.7969 24.1406 21.4584 24.1406 21.0703V19.3359H27.7734V30.3516H24.0234V28.125C24.0272 27.9929 23.9927 27.8625 23.924 27.7495C23.8554 27.6365 23.7557 27.5457 23.6367 27.4881L19.939 25.7557C19.8359 25.7056 19.7215 25.6833 19.6071 25.691C19.4928 25.6987 19.3824 25.7361 19.287 25.7995C19.19 25.8643 19.1113 25.9529 19.0583 26.0567C19.0054 26.1606 18.9799 26.2763 18.9844 26.3928V30.3516H15.2344V19.3359ZM22.6172 30.3516H20.3906V27.4976L22.6172 28.5726V30.3516ZM29.1797 29.3859V18.9238L30.3516 17.6891V28.1512L29.1797 29.3859Z" fill="#72BBFF"/>
<path d="M14.5688 37.0312H24.6949C24.8814 37.0312 25.0602 36.9572 25.1921 36.8253C25.324 36.6934 25.398 36.5146 25.398 36.3281C25.398 36.1416 25.324 35.9628 25.1921 35.8309C25.0602 35.6991 24.8814 35.625 24.6949 35.625H14.5688C14.3824 35.625 14.2035 35.6991 14.0717 35.8309C13.9398 35.9628 13.8657 36.1416 13.8657 36.3281C13.8657 36.5146 13.9398 36.6934 14.0717 36.8253C14.2035 36.9572 14.3824 37.0312 14.5688 37.0312Z" fill="#72BBFF"/>
<path d="M28.4233 38.6719H14.5688C14.3824 38.6719 14.2035 38.746 14.0717 38.8778C13.9398 39.0097 13.8657 39.1885 13.8657 39.375C13.8657 39.5615 13.9398 39.7403 14.0717 39.8722C14.2035 40.004 14.3824 40.0781 14.5688 40.0781H28.4233C28.6098 40.0781 28.7887 40.004 28.9205 39.8722C29.0524 39.7403 29.1265 39.5615 29.1265 39.375C29.1265 39.1885 29.0524 39.0097 28.9205 38.8778C28.7887 38.746 28.6098 38.6719 28.4233 38.6719Z" fill="#72BBFF"/>
<path d="M28.4233 41.8359H14.5688C14.3824 41.8359 14.2035 41.91 14.0717 42.0419C13.9398 42.1737 13.8657 42.3526 13.8657 42.5391C13.8657 42.7255 13.9398 42.9044 14.0717 43.0362C14.2035 43.1681 14.3824 43.2422 14.5688 43.2422H28.4233C28.6098 43.2422 28.7887 43.1681 28.9205 43.0362C29.0524 42.9044 29.1265 42.7255 29.1265 42.5391C29.1265 42.3526 29.0524 42.1737 28.9205 42.0419C28.7887 41.91 28.6098 41.8359 28.4233 41.8359Z" fill="#72BBFF"/>
<path d="M11.4844 13.0973C11.4844 12.9108 11.4103 12.732 11.2784 12.6001C11.1466 12.4682 10.9677 12.3942 10.7812 12.3942C10.5948 12.3942 10.4159 12.4682 10.2841 12.6001C10.1522 12.732 10.0781 12.9108 10.0781 13.0973V13.8356C10.0781 14.0221 10.1522 14.2009 10.2841 14.3328C10.4159 14.4646 10.5948 14.5387 10.7812 14.5387C10.9677 14.5387 11.1466 14.4646 11.2784 14.3328C11.4103 14.2009 11.4844 14.0221 11.4844 13.8356V13.0973Z" fill="#72BBFF"/>
<path d="M10.7812 15.3583C10.5948 15.3583 10.4159 15.4324 10.2841 15.5642C10.1522 15.6961 10.0781 15.8749 10.0781 16.0614V23.7958C10.0781 23.9823 10.1522 24.1611 10.2841 24.293C10.4159 24.4248 10.5948 24.4989 10.7812 24.4989C10.9677 24.4989 11.1466 24.4248 11.2784 24.293C11.4103 24.1611 11.4844 23.9823 11.4844 23.7958V16.0614C11.4844 15.8749 11.4103 15.6961 11.2784 15.5642C11.1466 15.4324 10.9677 15.3583 10.7812 15.3583Z" fill="#72BBFF"/>
<path d="M42.1688 23.9225C39.9237 23.9224 37.7291 24.5881 35.8624 25.8354C33.9957 27.0826 32.5408 28.8554 31.6816 30.9295C30.8225 33.0036 30.5976 35.2859 31.0356 37.4878C31.4735 39.6897 32.5546 41.7123 34.1421 43.2998C35.7295 44.8873 37.7521 45.9684 39.954 46.4064C42.1559 46.8444 44.4382 46.6196 46.5123 45.7605C48.5865 44.9013 50.3593 43.4465 51.6065 41.5798C52.8538 39.7131 53.5195 37.5185 53.5195 35.2735C53.5161 32.2641 52.3192 29.3789 50.1912 27.251C48.0633 25.123 45.1781 23.926 42.1688 23.9225ZM42.1688 45.2182C40.2019 45.2183 38.2791 44.6351 36.6437 43.5424C35.0082 42.4497 33.7336 40.8965 32.9808 39.0793C32.2281 37.2622 32.0311 35.2626 32.4148 33.3335C32.7985 31.4044 33.7456 29.6324 35.1364 28.2416C36.5272 26.8507 38.2992 25.9036 40.2283 25.5198C42.1574 25.1361 44.157 25.333 45.9742 26.0857C47.7913 26.8384 49.3445 28.113 50.4373 29.7485C51.53 31.3839 52.1133 33.3066 52.1133 35.2735C52.1103 37.91 51.0616 40.4378 49.1973 42.3021C47.333 44.1665 44.8053 45.2152 42.1688 45.2182Z" fill="#FF9D00"/>
</svg>
