<svg width="60" height="60" viewBox="0 0 60 60" fill="none" xmlns="http://www.w3.org/2000/svg">
<path d="M9.49219 45.3856C9.54548 45.5141 9.63561 45.6239 9.7512 45.7012C9.86679 45.7786 10.0027 45.8199 10.1418 45.8202H25.5241C25.6678 45.8199 25.808 45.7756 25.9258 45.6934C26.0437 45.6111 26.1335 45.4948 26.1833 45.36L27.2926 42.3688C27.3278 42.2738 27.3421 42.1724 27.3346 42.0715L26.1211 25.8491C26.108 25.6718 26.0285 25.5061 25.8986 25.3849C25.7686 25.2636 25.5977 25.1959 25.42 25.1952H21.9141V24.3219C21.9141 23.2496 21.4881 22.2213 20.7299 21.4631C19.9717 20.7049 18.9434 20.2789 17.8711 20.2789C16.7988 20.2789 15.7705 20.7049 15.0123 21.4631C14.2541 22.2213 13.8281 23.2496 13.8281 24.3219V25.1952H10.2464C10.0697 25.1959 9.89968 25.2628 9.76993 25.3828C9.64018 25.5027 9.56014 25.667 9.54563 25.8431L8.19691 42.0637C8.18765 42.1762 8.20533 42.2893 8.24848 42.3936L9.49219 45.3856ZM25.035 44.4139H10.6107L9.95168 42.7733H25.6226L25.035 44.4139ZM15.2344 24.3219C15.2344 23.6226 15.5122 22.9519 16.0067 22.4575C16.5011 21.963 17.1718 21.6852 17.8711 21.6852C18.5704 21.6852 19.2411 21.963 19.7355 22.4575C20.23 22.9519 20.5078 23.6226 20.5078 24.3219V25.1952H15.2344V24.3219ZM10.8934 26.6014H13.8281V30.0797C13.8281 30.2662 13.9022 30.445 14.0341 30.5769C14.1659 30.7087 14.3448 30.7828 14.5313 30.7828C14.7177 30.7828 14.8966 30.7087 15.0284 30.5769C15.1603 30.445 15.2344 30.2662 15.2344 30.0797V26.6014H20.5078V30.0797C20.5078 30.2662 20.5819 30.445 20.7138 30.5769C20.8456 30.7087 21.0245 30.7828 21.2109 30.7828C21.3974 30.7828 21.5763 30.7087 21.7081 30.5769C21.84 30.445 21.9141 30.2662 21.9141 30.0797V26.6014H24.767L25.8756 41.3671H9.66164L10.8934 26.6014Z" fill="#FF9D00"/>
<path d="M22.3828 35.0391C22.3828 34.8526 22.3087 34.6737 22.1769 34.5419C22.045 34.41 21.8662 34.3359 21.6797 34.3359H13.8281C13.6416 34.3359 13.4628 34.41 13.3309 34.5419C13.1991 34.6737 13.125 34.8526 13.125 35.0391V37.8516C13.125 38.038 13.1991 38.2169 13.3309 38.3487C13.4628 38.4806 13.6416 38.5547 13.8281 38.5547H21.6797C21.8662 38.5547 22.045 38.4806 22.1769 38.3487C22.3087 38.2169 22.3828 38.038 22.3828 37.8516V35.0391ZM14.5312 35.7422H21.0938V37.0312H14.5312V35.7422Z" fill="#FF9D00"/>
<path d="M44.5459 31.4062H51.1023C51.2888 31.4062 51.4676 31.3322 51.5995 31.2003C51.7313 31.0684 51.8054 30.8896 51.8054 30.7031C51.8054 30.5166 51.7313 30.3378 51.5995 30.2059C51.4676 30.0741 51.2888 30 51.1023 30H44.5459C44.3594 30 44.1806 30.0741 44.0487 30.2059C43.9169 30.3378 43.8428 30.5166 43.8428 30.7031C43.8428 30.8896 43.9169 31.0684 44.0487 31.2003C44.1806 31.3322 44.3594 31.4062 44.5459 31.4062Z" fill="#FF9D00"/>
<path d="M32.7738 31.4062H40.9695C41.156 31.4062 41.3349 31.3322 41.4667 31.2003C41.5986 31.0684 41.6727 30.8896 41.6727 30.7031C41.6727 30.5166 41.5986 30.3378 41.4667 30.2059C41.3349 30.0741 41.156 30 40.9695 30H32.7738C32.5873 30 32.4085 30.0741 32.2766 30.2059C32.1448 30.3378 32.0707 30.5166 32.0707 30.7031C32.0707 30.8896 32.1448 31.0684 32.2766 31.2003C32.4085 31.3322 32.5873 31.4062 32.7738 31.4062Z" fill="#FF9D00"/>
<path d="M51.1023 33.1641H37.989C37.8025 33.1641 37.6237 33.2381 37.4918 33.37C37.36 33.5019 37.2859 33.6807 37.2859 33.8672C37.2859 34.0537 37.36 34.2325 37.4918 34.3644C37.6237 34.4962 37.8025 34.5703 37.989 34.5703H51.1023C51.2888 34.5703 51.4676 34.4962 51.5995 34.3644C51.7313 34.2325 51.8054 34.0537 51.8054 33.8672C51.8054 33.6807 51.7313 33.5019 51.5995 33.37C51.4676 33.2381 51.2888 33.1641 51.1023 33.1641Z" fill="#FF9D00"/>
<path d="M32.7738 34.5703H34.413C34.5995 34.5703 34.7783 34.4962 34.9102 34.3644C35.0421 34.2325 35.1161 34.0537 35.1161 33.8672C35.1161 33.6807 35.0421 33.5019 34.9102 33.37C34.7783 33.2381 34.5995 33.1641 34.413 33.1641H32.7738C32.5873 33.1641 32.4085 33.2381 32.2766 33.37C32.1448 33.5019 32.0707 33.6807 32.0707 33.8672C32.0707 34.0537 32.1448 34.2325 32.2766 34.3644C32.4085 34.4962 32.5873 34.5703 32.7738 34.5703Z" fill="#FF9D00"/>
<path d="M51.1023 36.4453H43.9498C43.7633 36.4453 43.5844 36.5194 43.4526 36.6513C43.3207 36.7831 43.2466 36.962 43.2466 37.1484C43.2466 37.3349 43.3207 37.5138 43.4526 37.6456C43.5844 37.7775 43.7633 37.8516 43.9498 37.8516H51.1023C51.2888 37.8516 51.4676 37.7775 51.5995 37.6456C51.7314 37.5138 51.8054 37.3349 51.8054 37.1484C51.8054 36.962 51.7314 36.7831 51.5995 36.6513C51.4676 36.5194 51.2888 36.4453 51.1023 36.4453Z" fill="#FF9D00"/>
<path d="M32.7738 37.8516H40.3735C40.56 37.8516 40.7389 37.7775 40.8707 37.6456C41.0026 37.5138 41.0767 37.3349 41.0767 37.1484C41.0767 36.962 41.0026 36.7831 40.8707 36.6513C40.7389 36.5194 40.56 36.4453 40.3735 36.4453H32.7738C32.5873 36.4453 32.4085 36.5194 32.2766 36.6513C32.1448 36.7831 32.0707 36.962 32.0707 37.1484C32.0707 37.3349 32.1448 37.5138 32.2766 37.6456C32.4085 37.7775 32.5873 37.8516 32.7738 37.8516Z" fill="#FF9D00"/>
<path d="M51.1023 39.7266H39.5359C39.3494 39.7266 39.1706 39.8006 39.0387 39.9325C38.9068 40.0644 38.8328 40.2432 38.8328 40.4297C38.8328 40.6162 38.9068 40.795 39.0387 40.9269C39.1706 41.0587 39.3494 41.1328 39.5359 41.1328H51.1023C51.2888 41.1328 51.4676 41.0587 51.5995 40.9269C51.7313 40.795 51.8054 40.6162 51.8054 40.4297C51.8054 40.2432 51.7313 40.0644 51.5995 39.9325C51.4676 39.8006 51.2888 39.7266 51.1023 39.7266Z" fill="#FF9D00"/>
<path d="M32.7738 41.1328H35.9597C36.1461 41.1328 36.325 41.0587 36.4568 40.9269C36.5887 40.795 36.6628 40.6162 36.6628 40.4297C36.6628 40.2432 36.5887 40.0644 36.4568 39.9325C36.325 39.8006 36.1461 39.7266 35.9597 39.7266H32.7738C32.5873 39.7266 32.4085 39.8006 32.2766 39.9325C32.1448 40.0644 32.0707 40.2432 32.0707 40.4297C32.0707 40.6162 32.1448 40.795 32.2766 40.9269C32.4085 41.0587 32.5873 41.1328 32.7738 41.1328Z" fill="#FF9D00"/>
<path d="M53.9062 5.625H6.09375C4.78839 5.625 3.53649 6.14355 2.61346 7.06658C1.69043 7.98961 1.17188 9.24151 1.17188 10.5469V49.4531C1.17188 50.7585 1.69043 52.0104 2.61346 52.9334C3.53649 53.8564 4.78839 54.375 6.09375 54.375H53.9062C55.2116 54.375 56.4635 53.8564 57.3865 52.9334C58.3096 52.0104 58.8281 50.7585 58.8281 49.4531V10.5469C58.8281 9.24151 58.3096 7.98961 57.3865 7.06658C56.4635 6.14355 55.2116 5.625 53.9062 5.625ZM21.0938 10.8878V7.03125H36.4453V10.883C36.437 11.5453 36.1671 12.1774 35.6943 12.6414C35.2216 13.1054 34.5845 13.3635 33.9221 13.3594H20.1896C20.77 12.6661 21.0898 11.7919 21.0938 10.8878ZM57.4219 49.4318C57.4216 50.3661 57.0519 51.2624 56.3932 51.925C55.7346 52.5877 54.8405 52.9629 53.9062 52.9688H6.09375C5.15947 52.9629 4.26544 52.5877 3.6068 51.925C2.94815 51.2624 2.57835 50.3661 2.57812 49.4318V14.7656H8.08594C8.27242 14.7656 8.45126 14.6915 8.58312 14.5597C8.71498 14.4278 8.78906 14.249 8.78906 14.0625C8.78906 13.876 8.71498 13.6972 8.58312 13.5653C8.45126 13.4335 8.27242 13.3594 8.08594 13.3594H2.57812V10.5682C2.57835 9.6339 2.94815 8.73763 3.6068 8.07498C4.26544 7.41234 5.15947 7.03713 6.09375 7.03125H19.6875V10.883C19.6875 11.5398 19.4266 12.1696 18.9622 12.6341C18.4978 13.0985 17.8679 13.3594 17.2111 13.3594H12.7734C12.587 13.3594 12.4081 13.4335 12.2763 13.5653C12.1444 13.6972 12.0703 13.876 12.0703 14.0625C12.0703 14.249 12.1444 14.4278 12.2763 14.5597C12.4081 14.6915 12.587 14.7656 12.7734 14.7656H57.4219V49.4318ZM57.4219 13.3594H36.9176C37.4815 12.6562 37.8516 11.8303 37.8516 10.883V7.03125H53.9062C54.8405 7.03713 55.7346 7.41234 56.3932 8.07498C57.0519 8.73763 57.4216 9.6339 57.4219 10.5682V13.3594Z" fill="#72BBFF"/>
<path d="M7.30831 9.25537C7.11867 9.25535 6.93328 9.31156 6.77558 9.41691C6.61789 9.52225 6.49498 9.67199 6.42239 9.84719C6.3498 10.0224 6.33079 10.2152 6.36778 10.4012C6.40476 10.5872 6.49607 10.758 6.63016 10.8921C6.76425 11.0263 6.9351 11.1176 7.12109 11.1546C7.30709 11.1916 7.49989 11.1726 7.6751 11.1C7.85031 11.0275 8.00006 10.9046 8.10543 10.7469C8.21079 10.5892 8.26703 10.4038 8.26703 10.2142C8.26675 9.96001 8.16565 9.71631 7.98592 9.53655C7.80619 9.3568 7.5625 9.25568 7.30831 9.25537Z" fill="#72BBFF"/>
<path d="M11.1435 9.25537C10.9538 9.25537 10.7684 9.31161 10.6108 9.41696C10.4531 9.52232 10.3302 9.67207 10.2576 9.84727C10.185 10.0225 10.1661 10.2153 10.2031 10.4013C10.2401 10.5873 10.3314 10.7581 10.4655 10.8922C10.5996 11.0263 10.7704 11.1176 10.9564 11.1546C11.1424 11.1916 11.3352 11.1726 11.5104 11.1C11.6856 11.0275 11.8353 10.9046 11.9407 10.7469C12.0461 10.5892 12.1023 10.4038 12.1023 10.2142C12.102 9.95999 12.0009 9.71627 11.8211 9.53651C11.6414 9.35676 11.3977 9.25565 11.1435 9.25537Z" fill="#72BBFF"/>
<path d="M14.9787 11.173C15.1683 11.173 15.3537 11.1168 15.5114 11.0114C15.669 10.9061 15.7919 10.7563 15.8645 10.5811C15.9371 10.4059 15.9561 10.2131 15.9191 10.0271C15.8821 9.84115 15.7908 9.6703 15.6567 9.53621C15.5226 9.40211 15.3517 9.31079 15.1657 9.2738C14.9797 9.2368 14.7869 9.25579 14.6117 9.32836C14.4365 9.40093 14.2868 9.52383 14.1814 9.6815C14.0761 9.83918 14.0198 10.0246 14.0198 10.2142C14.0201 10.4684 14.1212 10.7121 14.301 10.8919C14.4807 11.0716 14.7245 11.1727 14.9787 11.173Z" fill="#72BBFF"/>
<path d="M24.739 9.25537C24.5494 9.25535 24.364 9.31156 24.2063 9.41691C24.0486 9.52225 23.9257 9.67199 23.8531 9.84719C23.7805 10.0224 23.7615 10.2152 23.7985 10.4012C23.8355 10.5872 23.9268 10.758 24.0609 10.8921C24.195 11.0263 24.3658 11.1176 24.5518 11.1546C24.7378 11.1916 24.9306 11.1726 25.1058 11.1C25.281 11.0275 25.4308 10.9046 25.5362 10.7469C25.6415 10.5892 25.6978 10.4038 25.6978 10.2142C25.6975 9.96001 25.5964 9.71631 25.4167 9.53655C25.2369 9.3568 24.9932 9.25568 24.739 9.25537Z" fill="#72BBFF"/>
<path d="M28.5742 9.25537C28.3845 9.25537 28.1992 9.31161 28.0415 9.41696C27.8838 9.52232 27.7609 9.67207 27.6883 9.84727C27.6158 10.0225 27.5968 10.2153 27.6338 10.4013C27.6708 10.5873 27.7621 10.7581 27.8962 10.8922C28.0303 11.0263 28.2011 11.1176 28.3871 11.1546C28.5731 11.1916 28.7659 11.1726 28.9411 11.1C29.1163 11.0275 29.2661 10.9046 29.3714 10.7469C29.4768 10.5892 29.533 10.4038 29.533 10.2142C29.5327 9.96 29.4316 9.7163 29.2518 9.53655C29.0721 9.3568 28.8284 9.25568 28.5742 9.25537Z" fill="#72BBFF"/>
<path d="M32.4094 9.25537C32.2197 9.25537 32.0344 9.31161 31.8767 9.41696C31.719 9.52232 31.5961 9.67207 31.5235 9.84727C31.451 10.0225 31.432 10.2153 31.469 10.4013C31.506 10.5873 31.5973 10.7581 31.7314 10.8922C31.8655 11.0263 32.0363 11.1176 32.2223 11.1546C32.4083 11.1916 32.6011 11.1726 32.7763 11.1C32.9515 11.0275 33.1013 10.9046 33.2066 10.7469C33.312 10.5892 33.3682 10.4038 33.3682 10.2142C33.3679 9.96 33.2668 9.7163 33.087 9.53655C32.9073 9.3568 32.6636 9.25568 32.4094 9.25537Z" fill="#72BBFF"/>
<path d="M5.85938 17.5897C5.67289 17.5897 5.49405 17.6638 5.36219 17.7957C5.23033 17.9275 5.15625 18.1064 5.15625 18.2928V19.0311C5.15625 19.2176 5.23033 19.3964 5.36219 19.5283C5.49405 19.6602 5.67289 19.7343 5.85938 19.7343C6.04586 19.7343 6.2247 19.6602 6.35656 19.5283C6.48842 19.3964 6.5625 19.2176 6.5625 19.0311V18.2928C6.5625 18.1064 6.48842 17.9275 6.35656 17.7957C6.2247 17.6638 6.04586 17.5897 5.85938 17.5897Z" fill="#72BBFF"/>
<path d="M5.85938 20.5536C5.67289 20.5536 5.49405 20.6277 5.36219 20.7595C5.23033 20.8914 5.15625 21.0702 5.15625 21.2567V28.9911C5.15625 29.1776 5.23033 29.3564 5.36219 29.4883C5.49405 29.6201 5.67289 29.6942 5.85938 29.6942C6.04586 29.6942 6.2247 29.6201 6.35656 29.4883C6.48842 29.3564 6.5625 29.1776 6.5625 28.9911V21.2567C6.5625 21.0702 6.48842 20.8914 6.35656 20.7595C6.2247 20.6277 6.04586 20.5536 5.85938 20.5536Z" fill="#72BBFF"/>
</svg>
