<svg width="60" height="60" viewBox="0 0 60 60" fill="none" xmlns="http://www.w3.org/2000/svg">
<path d="M30 4.96509C19.795 4.96509 11.4844 13.2675 11.4844 23.4725V29.6485H12.8906V23.4727C12.8906 14.0431 20.5704 6.37157 30 6.37157C39.4296 6.37157 47.1094 14.0429 47.1094 23.4727V29.6485H48.5156V23.4727C48.5156 13.2675 40.205 4.96509 30 4.96509Z" fill="#72BBFF"/>
<path d="M30 1.46094C17.8629 1.46094 7.96875 11.3353 7.96875 23.4726V30.8203H9.375V23.4726C9.375 12.1109 18.6383 2.86742 30 2.86742C41.3617 2.86742 50.625 12.1107 50.625 23.4726V30.8203H52.0312V23.4726C52.0312 11.3353 42.1371 1.46094 30 1.46094Z" fill="#72BBFF"/>
<path d="M11.0412 49.869C11.9451 50.4014 12.9748 50.6826 14.0239 50.6834C14.5324 50.6831 15.0388 50.6176 15.5307 50.4887L19.8314 49.365C19.9208 49.3416 20.0047 49.3009 20.0783 49.2452C20.1519 49.1894 20.2138 49.1197 20.2605 49.04C20.3071 48.9604 20.3377 48.8723 20.3503 48.7808C20.3629 48.6893 20.3574 48.5962 20.3341 48.5069L15.1943 28.835C15.1472 28.6546 15.0304 28.5003 14.8695 28.406C14.7086 28.3118 14.5168 28.2853 14.3364 28.3324L10.0356 29.4561C8.51716 29.8547 7.21879 30.8393 6.42537 32.194C5.63195 33.5486 5.40827 35.1627 5.80341 36.6821L8.3049 46.2563C8.49945 47.0095 8.84147 47.7166 9.31116 48.3368C9.78086 48.9569 10.3689 49.4777 11.0412 49.869ZM7.16373 36.3267C6.87559 35.2179 7.01913 34.0412 7.56534 33.0342C8.11155 32.0273 9.01969 31.2653 10.1062 30.9022L11.6602 36.8573C11.6995 37.0077 11.7875 37.1408 11.9105 37.2358C12.0335 37.3309 12.1845 37.3825 12.3399 37.3826C12.4473 37.3825 12.5532 37.3578 12.6495 37.3104C12.7459 37.263 12.8301 37.1942 12.8957 37.1092C12.9613 37.0242 13.0066 36.9254 13.0281 36.8202C13.0495 36.715 13.0466 36.6062 13.0196 36.5023L11.4656 30.536L14.0116 29.8707L18.7959 48.1819L16.2482 48.8476L14.2456 41.189C14.2063 41.0387 14.1182 40.9056 13.9952 40.8106C13.8723 40.7156 13.7213 40.664 13.5659 40.6639C13.4585 40.664 13.3525 40.6887 13.2561 40.7361C13.1597 40.7836 13.0754 40.8524 13.0098 40.9375C12.9442 41.0226 12.8989 41.1215 12.8775 41.2268C12.8561 41.3321 12.8591 41.4409 12.8862 41.5448L14.8875 49.1923C13.7619 49.4094 12.5959 49.19 11.6262 48.5787C10.6565 47.9673 9.95571 47.0099 9.66615 45.9008L7.16373 36.3267Z" fill="#FF9D00"/>
<path d="M49.9645 29.4561L45.6637 28.3324C45.4833 28.2853 45.2916 28.3118 45.1307 28.406C44.9698 28.5003 44.8529 28.6546 44.8058 28.835L39.666 48.5068C39.6189 48.6872 39.6453 48.8789 39.7395 49.0399C39.8396 49.2017 39.9987 49.3182 40.1831 49.3648L43.7109 50.2828V51.9071C43.7038 52.6565 43.4013 53.3728 42.8693 53.9006C42.3373 54.4284 41.6187 54.7251 40.8693 54.7264H34.6875V53.5114C34.6875 52.8652 34.1194 52.3827 33.4733 52.3827H26.5267C25.8806 52.3827 25.3125 52.8652 25.3125 53.5114V57.3669C25.3203 57.6876 25.4503 57.9933 25.676 58.2213C25.9017 58.4493 26.206 58.5825 26.5267 58.5936H33.4733C33.794 58.5825 34.0982 58.4493 34.3239 58.2213C34.5496 57.9933 34.6797 57.6877 34.6875 57.367V56.1327H40.8693C41.9915 56.1311 43.0677 55.6861 43.8634 54.8947C44.659 54.1032 45.1097 53.0294 45.1172 51.9071V50.6131C45.4059 50.6614 45.6981 50.6849 45.9908 50.6834C47.2974 50.6787 48.5657 50.2419 49.5981 49.4412C50.6306 48.6404 51.3692 47.5207 51.6989 46.2564L54.1986 36.6822C54.5933 35.1626 54.3692 33.5485 53.5755 32.1938C52.7817 30.8392 51.4832 29.8546 49.9645 29.4561ZM33.2812 57.1873H26.7188V53.7889H33.2812V57.1873ZM45.9885 29.8709L48.5306 30.5352L43.7461 48.8462L41.2039 48.182L45.9885 29.8709ZM52.8363 36.3269L50.3347 45.9011C50.045 47.0109 49.3435 47.9688 48.373 48.5801C47.4024 49.1913 46.2355 49.4101 45.1095 49.192L49.8885 30.9008C50.9763 31.2628 51.8859 32.0246 52.4332 33.032C52.9805 34.0393 53.1246 35.2171 52.8363 36.3267V36.3269Z" fill="#FF9D00"/>
</svg>
